<svg xmlns="http://www.w3.org/2000/svg" width="345" height="114" viewBox="0 0 345 114">
  <path fill="#00A74D" d="M70.7304075,21.7606838 C72.5689655,21.7606838 74.299373,22.8433048 75.4890282,24.6837607 C76.7868339,26.6324786 77.6520376,29.3390313 77.976489,32.9116809 C78.4090909,36.0512821 78.6253918,39.6239316 78.6253918,43.5213675 C78.6253918,53.2649573 77.4357367,64.4159544 75.7053292,72.3190883 C72.677116,85.7435897 68.5673981,99.7094017 62.6191223,108.911681 C60.4561129,112.267806 57.8605016,114 55.1567398,114 L55.1567398,114 L54.8829905,113.994307 C52.0543844,113.876831 49.2321219,111.946403 46.6128527,108.695157 C43.5846395,104.905983 39.3667712,96.8945869 35.2570533,87.042735 C34.7163009,88.2336182 33.5266458,90.5071225 31.5799373,92.8888889 C28.8761755,96.1367521 24.6583072,99.3846154 18.7100313,99.3846154 L18.7100313,99.3846154 L18.3855799,99.3846154 C8.32758621,99.1680912 0,89.965812 0,78.9230769 C0,72.3190883 3.46081505,62.6837607 13.9514107,58.6780627 C16.6551724,57.5954416 19.2507837,57.1623932 21.630094,57.1623932 C31.4717868,57.1623932 38.2852665,64.5242165 41.2053292,69.6125356 C48.6677116,51.965812 55.1567398,36.8091168 61.1050157,28.7977208 C64.5658307,24.034188 67.8103448,21.7606838 70.7304075,21.7606838 Z M118.857367,69.8290598 L118.857367,71.019943 C117.992163,71.8860399 117.126959,73.7264957 116.261755,75.8917379 L116.261755,75.8917379 L108.04232,95.5954416 L103.283699,97.002849 L95.2805643,74.3760684 C94.4153605,72.3190883 93.7664577,72.5356125 91.4952978,71.7777778 C91.3871473,71.3447293 91.2789969,70.4786325 91.4952978,69.9373219 L91.4952978,69.9373219 L100.796238,69.9373219 L107.393417,90.8319088 L113.449843,75.2421652 C113.666144,74.5925926 113.774295,74.1595442 113.774295,73.7264957 C113.774295,72.968661 113.449843,72.4273504 112.80094,72.2108262 L112.80094,72.2108262 L110.637931,71.4529915 C110.529781,70.8034188 110.529781,70.3703704 110.746082,69.8290598 L110.746082,69.8290598 L118.857367,69.8290598 L118.857367,69.8290598 Z M131.727273,69.1794872 C135.62069,69.1794872 141.028213,70.045584 141.028213,76.5413105 L141.028213,76.5413105 L141.028213,82.6039886 L141.352665,92.1310541 L141.352665,92.2393162 L145.354232,92.2393162 L145.570533,93.5384615 C144.164577,94.9458689 141.244514,96.1367521 139.405956,96.1367521 C135.945141,96.1367521 135.079937,94.4045584 134.863636,91.6980057 C133.133229,93.7549858 130.429467,96.1367521 126.319749,96.1367521 C122.318182,96.1367521 119.830721,93.4301994 119.830721,90.0740741 C119.830721,83.9031339 125.454545,82.2792023 130.537618,81.6296296 L130.537618,81.6296296 L134.755486,81.1965812 L134.755486,77.9487179 C134.755486,74.7008547 132.808777,73.5099715 128.915361,73.5099715 C127.184953,73.5099715 124.913793,73.8347578 122.426332,74.4843305 L122.426332,74.4843305 L121.669279,72.6438746 C123.615987,71.3447293 127.617555,69.1794872 131.727273,69.1794872 Z M200.619122,54.7806268 C202.45768,54.7806268 203.106583,55.3219373 203.106583,57.1623932 L203.106583,57.1623932 L203.106583,82.3874644 L203.322884,92.1310541 L203.322884,92.2393162 L207.216301,92.2393162 L207.540752,93.8632479 C205.485893,94.9458689 203.106583,96.1367521 199.645768,96.1367521 C197.266458,96.1367521 196.617555,94.1880342 196.617555,92.4558405 C194.995298,94.2962963 192.724138,96.1367521 189.479624,96.1367521 C184.288401,96.1367521 179.205329,93.7549858 179.205329,83.7948718 C179.205329,75.1339031 185.045455,69.6125356 192.507837,69.6125356 C194.346395,69.6125356 195.53605,69.7207977 196.617555,69.9373219 L196.617555,69.9373219 L196.617555,58.02849 L192.291536,58.02849 L192.291536,55.7549858 C194.887147,55.2136752 198.347962,54.7806268 200.619122,54.7806268 Z M266.266458,69.1794872 C269.294671,69.1794872 271.673981,69.7207977 274.485893,71.1282051 L274.485893,71.1282051 L273.72884,77.4074074 L272.214734,77.2991453 C272.198626,77.2392556 272.182421,77.179464 272.166084,77.1197933 L272.066222,76.7634041 C271.318441,74.1632199 270.187487,71.8860399 265.833856,71.8860399 C263.238245,71.8860399 261.832288,73.0769231 261.832288,74.9173789 C261.832288,80.005698 276,79.3561254 275.89185,87.5840456 C275.89185,93.8632479 269.943574,96.1367521 265.076803,96.1367521 C261.724138,96.1367521 259.020376,95.3789174 256.208464,94.0797721 L256.208464,94.0797721 L256.641066,87.042735 L258.479624,87.042735 C259.128527,90.7236467 261.507837,93.3219373 265.184953,93.3219373 C267.780564,93.3219373 269.619122,92.1310541 269.619122,89.965812 C269.619122,85.5270655 256.316614,86.1766382 256.316614,77.2991453 C256.316614,72.3190883 260.967085,69.1794872 266.266458,69.1794872 Z M222.032915,69.2877493 C230.468652,69.2877493 234.794671,73.4017094 234.68652,82.2792023 C234.68652,89.0997151 229.062696,96.1367521 221.600313,96.1367521 C213.81348,96.1367521 209.054859,92.2393162 209.054859,83.2535613 C209.054859,76.3247863 214.786834,69.2877493 222.032915,69.2877493 Z M169.688088,69.1794872 C171.526646,69.1794872 172.716301,70.045584 172.716301,71.8860399 L172.716301,71.8860399 L172.716301,82.7122507 L172.932602,92.1310541 L176.934169,92.1310541 L177.04232,93.4301994 C175.311912,94.4045584 173.040752,95.9202279 169.904389,95.9202279 C167.416928,95.9202279 166.010972,94.2962963 166.010972,91.5897436 C163.631661,93.97151 160.9279,96.02849 157.250784,96.02849 C150.221003,96.02849 149.680251,91.6980057 149.680251,87.2592593 L149.680251,72.4273504 L145.678683,72.4273504 L145.678683,70.5868946 C148.274295,69.8290598 150.978056,69.2877493 153.249216,69.2877493 C155.195925,69.2877493 156.277429,70.045584 156.277429,71.8860399 L156.277429,71.8860399 L156.277429,86.1766382 C156.38558,88.991453 156.818182,91.2649573 159.954545,91.2649573 C162.766458,91.2649573 164.605016,90.3988604 166.119122,89.7492877 L166.119122,89.7492877 L166.227273,82.6039886 L166.227273,72.3190883 L162.333856,72.3190883 L162.333856,70.4786325 C164.713166,69.8290598 167.416928,69.1794872 169.688088,69.1794872 Z M293.412226,69.1794872 C300.766458,69.1794872 304.010972,74.8091168 304.010972,81.5213675 L304.010972,81.5213675 L304.010972,82.6039886 L286.923197,82.6039886 C287.355799,88.991453 290.816614,91.1566952 295.791536,91.1566952 C297.630094,91.1566952 300.225705,90.8319088 303.037618,90.1823362 L303.037618,90.1823362 L303.794671,91.8062678 C301.739812,94.1880342 297.954545,96.02849 293.520376,96.02849 C284.868339,96.02849 280.217868,91.1566952 280.217868,83.4700855 C280.217868,76 285.517241,69.1794872 293.412226,69.1794872 Z M246.15047,69.2877493 C247.664577,69.2877493 248.42163,69.7207977 248.42163,71.3447293 L248.42163,71.3447293 L248.42163,82.7122507 L248.529781,91.4814815 C248.529781,92.6723647 248.854232,92.997151 249.394984,93.2136752 L249.394984,93.2136752 L252.855799,94.0797721 C252.855799,94.5128205 252.747649,95.0541311 252.531348,95.7037037 L252.531348,95.7037037 L237.822884,95.7037037 C237.714734,95.0541311 237.606583,94.8376068 237.606583,94.1880342 L237.606583,94.1880342 L240.526646,93.3219373 C241.39185,92.997151 241.824451,92.2393162 241.824451,91.1566952 L241.824451,91.1566952 L241.932602,82.8205128 L241.932602,72.5356125 L237.606583,72.5356125 L237.606583,70.3703704 C240.094044,69.7207977 243.87931,69.2877493 246.15047,69.2877493 Z M20.5485893,70.1538462 C19.6833856,70.1538462 18.7100313,70.2621083 17.7366771,70.5868946 C11.7884013,72.5356125 9.30094044,77.6239316 9.30094044,82.6039886 C9.30094044,83.4700855 9.40909091,84.3361823 9.51724138,85.2022792 C10.815047,92.022792 16.7633229,95.3789174 21.5219436,95.3789174 C22.1708464,95.3789174 22.8197492,95.2706553 23.468652,95.1623932 C28.7680251,94.0797721 32.2288401,88.5584046 33.6347962,85.8518519 C33.9002565,85.2318052 34.0933185,84.8291776 34.2139822,84.5846727 L34.2836991,84.4444444 C31.1473354,75.7834758 26.1724138,70.1538462 20.5485893,70.1538462 Z M221.708464,72.2108262 C217.274295,72.2108262 215.976489,77.1908832 215.976489,82.2792023 C215.976489,87.9088319 217.274295,93.1054131 222.357367,93.1054131 C226.899687,93.1054131 227.76489,88.1253561 227.76489,83.2535613 C227.76489,77.1908832 226.683386,72.2108262 221.708464,72.2108262 Z M134.539185,83.1452991 L131.619122,83.6866097 C128.69906,84.1196581 126.211599,85.5270655 126.211599,88.1253561 C126.211599,90.1823362 127.509404,91.4814815 129.456113,91.4814815 C131.510972,91.4814815 133.133229,90.9401709 134.647335,90.1823362 L134.647335,90.1823362 L134.539185,90.1823362 L134.539185,83.1452991 Z M192.940439,72.4273504 C188.073668,72.4273504 186.23511,75.7834758 186.23511,82.7122507 C186.23511,88.6666667 188.722571,91.3732194 192.291536,91.3732194 C194.021944,91.3732194 195.4279,90.8319088 196.617555,90.3988604 L196.617555,90.3988604 L196.725705,82.3874644 L196.833856,82.3874644 L196.833856,73.1851852 C195.860502,72.8603989 194.778997,72.4273504 192.940439,72.4273504 Z M342.72884,18.9458689 L342.72884,24.9002849 L319.368339,24.9002849 L319.368339,45.037037 C336.131661,45.037037 344.783699,54.022792 345,65.4985755 C345,78.1652422 334.509404,87.5840456 319.476489,88.1253561 L319.476489,88.1253561 L319.476489,82.6039886 C332.130094,82.2792023 338.402821,75.4586895 338.402821,66.5811966 C338.402821,57.5954416 331.481191,50.4501425 318.503135,50.4501425 C316.664577,50.4501425 315.474922,50.5584046 313.528213,50.5584046 L313.528213,50.5584046 L313.528213,18.9458689 L342.72884,18.9458689 Z M64.2413793,46.6609687 C63.8087774,46.6609687 63.3761755,46.6609687 62.9435737,46.7692308 C57.7523511,47.5270655 53.3181818,51.965812 49.8573668,57.2706553 C46.5047022,62.4672365 44.0172414,68.4216524 42.5031348,71.994302 C44.6661442,76 50.3981191,86.5014245 58.2931034,87.1509972 L58.2931034,87.1509972 L58.9420063,87.1509972 C62.1865204,87.1509972 65.9717868,85.0940171 68.8918495,80.6552707 C71.8119122,76.2165242 73.9749216,69.5042735 73.9749216,60.1937322 C73.9749216,56.8376068 73.0015674,53.4814815 71.3793103,50.8831909 C69.6489028,48.3931624 67.2695925,46.6609687 64.2413793,46.6609687 Z M292.222571,71.994302 C289.194357,71.994302 286.923197,74.4843305 286.815047,80.1139601 L286.815047,80.1139601 L297.089342,80.1139601 C297.089342,75.3504274 295.683386,71.994302 292.222571,71.994302 Z M245.177116,56.0797721 C247.231975,56.0797721 248.962382,57.8119658 248.962382,59.8689459 C248.962382,61.9259259 247.340125,63.6581197 245.177116,63.6581197 C243.014107,63.6581197 241.39185,61.9259259 241.39185,59.8689459 C241.39185,57.8119658 243.122257,56.0797721 245.177116,56.0797721 Z M279.136364,-7.10542736e-14 C290.384013,-7.10542736e-14 296.224138,6.38746439 296.224138,14.9401709 C296.224138,21.977208 292.330721,27.6068376 283.786834,34.7521368 L283.786834,34.7521368 L271.45768,45.1452991 L271.241379,45.2535613 C274.224239,45.0178292 281.309164,44.8961611 289.353443,44.8885569 L290.974159,44.8885569 C291.699334,44.8892328 292.430435,44.89081 293.165252,44.8932884 L294.269991,44.897682 C294.454487,44.8985269 294.639146,44.8994281 294.823934,44.9003857 L295.933933,44.9068071 L295.933933,44.9068071 L297.60111,44.9189739 L297.60111,44.9189739 L298.711599,44.9287749 L298.711599,50.5584046 L263.238245,50.5584046 L263.238245,45.6866097 L278.163009,32.9116809 C285.19279,26.957265 289.626959,22.4102564 289.626959,16.1310541 C289.626959,9.74358974 285.625392,5.08831909 278.054859,5.08831909 C276.648903,5.08831909 275.242947,5.1965812 273.836991,5.52136752 L273.836991,5.52136752 L273.188088,0.541310541 C275.026646,0.216524217 276.973354,-7.10542736e-14 279.136364,-7.10542736e-14 Z M248.205329,11.5840456 L248.31348,45.4700855 L242.148903,45.4700855 L242.040752,17.5384615 L230.360502,22.5185185 L229.062696,16.997151 L243.122257,11.5840456 L248.205329,11.5840456 Z"/>
</svg>
