<svg xmlns="http://www.w3.org/2000/svg" xmlns:xlink="http://www.w3.org/1999/xlink" width="640" height="378" viewBox="0 0 640 378">
    <defs>
        <filter id="prefix__b" width="111.2%" height="119.8%" x="-5.6%" y="-7.2%" filterUnits="objectBoundingBox">
            <feMorphology in="SourceAlpha" operator="dilate" radius="2" result="shadowSpreadOuter1"/>
            <feOffset dy="9" in="shadowSpreadOuter1" result="shadowOffsetOuter1"/>
            <feGaussianBlur in="shadowOffsetOuter1" result="shadowBlurOuter1" stdDeviation="9"/>
            <feComposite in="shadowBlurOuter1" in2="SourceAlpha" operator="out" result="shadowBlurOuter1"/>
            <feColorMatrix in="shadowBlurOuter1" values="0 0 0 0 0.121568627 0 0 0 0 0.0117647059 0 0 0 0 0.137254902 0 0 0 0.0284090909 0"/>
        </filter>
        <rect id="prefix__a" width="600" height="338.265" x="0" y="0" rx="12"/>
    </defs>
    <g fill="none" fill-rule="evenodd" transform="translate(20 11)">
        <mask id="prefix__c" fill="#fff">
            <use xlink:href="#prefix__a"/>
        </mask>
        <use fill="#000" filter="url(#prefix__b)" xlink:href="#prefix__a"/>
        <rect width="602" height="340.265" x="-1" y="-1" fill="#FFF" stroke="#EBEAEB" stroke-width="2" rx="12"/>
        <g mask="url(#prefix__c)">
            <path fill="#FFF" d="M0 0H600V338.265H0z"/>
            <text fill="#505769" font-family="Rubik-Medium, Rubik" font-size="18.367" font-weight="400" letter-spacing="6.122">
                <tspan x="212.982" y="277.204">MASS MEDIA</tspan>
            </text>
            <g fill="#000" fill-rule="nonzero">
                <path d="M175.941 6.464L175.209 4.183 175.941.19 175.575 0 165.504 8.745 165.504 8.935zM24.944 45.005c-1.873 1.844-4.443 2.882-7.127 2.88-8.252 0-10.315-7.02-10.315-15.302 0-8.28 1.876-15.301 10.128-15.301 2.586-.06 5.065.997 6.752 2.88l4.688 6.84h.375v-10.26h-.375l-4.313 2.16c-1.992-1.62-4.516-2.514-7.127-2.52C9.565 16.382 0 22.322 0 32.763c0 10.441 9.378 16.382 17.817 16.382 2.755-.019 5.414-.976 7.502-2.7l4.126 2.34h.376V37.984h-.376l-4.5 7.02zM53.677 16.382c-7.488 0-16.401 6.48-16.401 16.381s8.913 16.382 16.401 16.382c7.488 0 16.401-6.48 16.401-16.382 0-9.9-8.735-16.381-16.401-16.381zm0 31.683c-7.488 0-9.449-6.66-9.449-15.302 0-8.64 1.961-15.301 9.449-15.301 7.488 0 9.449 6.66 9.449 15.301s-1.783 15.302-9.449 15.302zM99.579 17.297L103.656 17.297 103.656 37.431 103.471 37.431 89.015 16.382 76.042 16.382 76.042 17.297 79.934 17.297 79.934 47.681 76.042 47.681 76.042 48.596 85.309 48.596 85.309 47.681 81.232 47.681 81.232 17.297 81.232 17.297 104.583 49.145 104.953 49.145 104.953 17.297 108.845 17.297 108.845 16.382 99.579 16.382zM128.97 17.87h-14.16v.89h4.122v29.497h-4.123v.888h14.16c6.992 0 18.643-3.02 18.643-15.815 0-12.794-11.651-15.46-18.642-15.46zm-.359 30.387h-3.405V18.759h3.405c8.246 0 12.01 5.864 12.01 14.749 0 8.885-3.764 14.749-12.01 14.749zM176.094 48.257H164.11v-15.46h5.992c1.71 1.785 3.12 3.824 4.177 6.042h.363V25.867h-.363c-1.056 2.218-2.466 4.257-4.177 6.042h-5.992v-13.15h10.714c3.087 1.955 5.811 7.464 5.811 7.464h.363V17.87h-27.421v.888h4.177v29.498h-4.177v.888h28.33V38.661h-.364c-1.313 3.448-3.15 6.683-5.448 9.596zM227.859 17.297L231.913 17.297 231.913 37.431 231.729 37.431 217.355 16.382 204.271 16.382 204.271 17.297 208.325 17.297 208.325 47.681 204.271 47.681 204.271 48.596 213.485 48.596 213.485 47.681 209.615 47.681 209.615 17.297 209.615 17.297 232.835 49.145 233.019 49.145 233.019 17.297 237.073 17.297 237.073 16.382 227.859 16.382zM256.187 16.382h-.36L242.341 48.24h-3.777v.905h8.452v-.905h-3.596l4.855-11.404h10.25l5.215 11.404h-4.136v.905h14.745v-.905h-3.776l-14.386-31.858zm-7.373 19.73l4.676-11.042 4.855 11.042h-9.53zM296.141 30.252l-6.021-2.16c-2.925-1.079-5.334-2.518-5.334-5.577s2.58-5.038 6.538-5.038c2-.175 3.967.62 5.333 2.159l4.301 6.837h.344V16.397h-.344l-3.957 2.16c-1.572-1.43-3.595-2.198-5.677-2.16-2.477-.147-4.904.767-6.722 2.533-1.818 1.765-2.87 4.23-2.913 6.824 0 4.498 3.097 6.837 6.366 8.097l6.021 2.339c3.27 1.26 5.334 2.699 5.334 5.938 0 3.238-2.065 5.937-7.226 5.937-2.507-.127-4.913-1.07-6.882-2.699l-4.473-7.737h-.516v10.976h.516l3.785-2.159c2.086 1.655 4.61 2.598 7.226 2.7 6.538 0 10.839-4.86 10.839-10.257 0-5.398-2.753-7.377-6.538-8.637zM311.625 17.87v9.774h.366c1.564-3.147 3.465-6.125 5.671-8.885h5.671v29.498h-5.122v.888h16.648v-.888h-5.122V18.759h5.671c2.206 2.76 4.107 5.738 5.671 8.885h.366V18.05h-29.82v-.178z" transform="translate(130.023 123.11)"/>
            </g>
        </g>
    </g>
</svg>
