<svg xmlns="http://www.w3.org/2000/svg" xmlns:xlink="http://www.w3.org/1999/xlink" width="226" height="144" viewBox="0 0 226 144">
    <defs>
        <path id="prefix__a" d="M0.959 0.967L198.259 0.967 198.259 56.947 0.959 56.947z"/>
    </defs>
    <g fill="none" fill-rule="evenodd" transform="matrix(1 0 0 -1 13.638 101.19)">
        <mask id="prefix__b" fill="#fff">
            <use xlink:href="#prefix__a"/>
        </mask>
        <g mask="url(#prefix__b)">
            <g fill-rule="nonzero">
                <path fill="#072F54" d="M96.06 12.634h-6.119c-.027 0-.044.006-.06.025l-5.273 6.462-5.277-6.462c-.011-.02-.03-.025-.058-.025h-4.9c-.03 0-.052.014-.073.047-.009.02-.009.055.01.077l7.766 9.572-7.675 9.481c-.022.033-.022.06-.014.09.014.017.044.045.069.045h6.121c.02 0 .042-.011.058-.039l4.626-5.752 4.707 5.755c.014.025.036.036.058.036h4.99c.03 0 .06-.028.071-.044.014-.03.008-.063-.01-.091l-7.287-8.78 8.322-10.273c.022-.022.03-.058.014-.077-.014-.033-.041-.047-.066-.047M129.179 28.541c-2.71 0-4.56-1.65-5.089-4.518h9.218v.184c0 2.296-1.685 4.334-4.13 4.334m8.885-7.46c-.014-.022-.041-.036-.066-.036h-14.006c.29-3.272 2.41-5.136 5.837-5.136 2.11 0 4.352.723 7.52 2.414.057.033.115-.017.115-.077l-.006-4.323c-.005-.035-.022-.057-.046-.066-2.946-1.245-5.906-2.095-8.232-2.095-6.032 0-10.402 4.41-10.402 10.485 0 6.074 4.37 10.485 10.402 10.485 5.502 0 9.037-3.72 9.037-8.838 0-.828-.142-2.753-.153-2.813M166.514 35.932c-1.718 0-3.116 1.38-3.116 3.08 0 1.749 1.398 3.165 3.116 3.165 1.718 0 3.118-1.416 3.118-3.165 0-1.7-1.4-3.08-3.118-3.08m-2.516-23.298c-.049 0-.08.03-.08.08v19.151c0 .039.028.07.061.077h5.059c.04-.008.063-.038.063-.077V12.713c0-.049-.033-.08-.074-.08h-5.029zM105.312 15.518c-.913 0-1.847.13-2.921.418l.01 12.286c1.258.402 2.352.591 3.434.591 3.508 0 5.862-2.596 5.862-6.45 0-4.158-2.508-6.845-6.385-6.845m1.375 17.21c-1.427 0-2.869-.26-4.381-.783h-5.034c-.041 0-.071-.036-.071-.08V.458c1.52.209 3.384.753 5.192 2.046l-.002 9.552c1.241-.176 2.266-.294 3.255-.294 6.895 0 11.356 4.147 11.356 10.567 0 6.121-4.245 10.4-10.315 10.4M154.787 17.109c-1.575-.83-2.984-1.224-4.308-1.224-3.12 0-4.992 2.214-4.992 5.92 0 4.29 2.39 7.064 6.083 7.064 1.02 0 2.011-.25 3.217-.797V17.109zm0 24.976V32.059c-1.477.424-2.778.619-4.091.619-5.999 0-10.528-4.537-10.528-10.565 0-6 3.995-10.35 9.492-10.35 1.905 0 3.686.479 5.782 1.562l-.003-1.73c1.384.264 2.974.82 4.541 1.933v30.608c-1.54-.206-3.365-.723-5.193-2.051M186.627 17.147c-1.524-.883-2.831-1.307-3.998-1.307-3.343 0-5.347 2.206-5.347 5.926 0 4.227 2.36 7.062 5.867 7.062.94 0 2.08-.36 3.478-1.103V17.147zm5.198 15.03c0 .118-.101.211-.216.211l-4.089-.005c-.12 0-.222-.105-.222-.22v-.698h-.104c-1.888.83-3.497 1.212-5.083 1.212-5.656 0-10.09-4.705-10.09-10.735 0-6.096 3.968-10.182 9.873-10.182 1.581 0 3.606.11 5.503 2.299v-2.464c1.34.286 2.92.858 4.423 1.941l.005 18.64zM60.378 17.427l12.698.005c-.192-1.424-.671-3.09-1.773-4.79H58.092c-1.616 0-2.945 1.257-3.104 2.846-.009.025-.017.047-.02.069V40.687c.003.019.011.046.02.063.159 1.592 1.488 2.854 3.104 2.854.052 0 .102-.005.146-.005l14.81.002c-.194-1.421-.673-3.132-1.772-4.825H60.378v-6.842h10.788c.044 0 .077-.03.077-.074v-4.746c0-.039-.033-.074-.077-.074H60.378V17.427zM44.482 12.243c-1.255 0-2.03.984-2.03 2.189 0 1.29.887 2.189 2.03 2.189 1.132 0 2.017-.9 2.017-2.19 0-1.292-.885-2.188-2.017-2.188m0 4.625c-1.285 0-2.384-.97-2.384-2.436 0-1.386.992-2.428 2.384-2.428 1.269 0 2.373.965 2.373 2.428 0 1.465-1.104 2.436-2.373 2.436" transform="translate(-.108 .509)"/>
                <path fill="#072F54" d="M43.912 14.632v.888h.598c.301 0 .657-.047.657-.415 0-.437-.328-.473-.704-.473h-.55zm1.697.415c0 .58-.357.828-1.047.828h-1.088v-2.88h.474v1.233h.438l.743-1.232h.534l-.805 1.265c.435.052.75.264.75.786M196 28.757c-1.255 0-2.036.985-2.036 2.189 0 1.29.891 2.189 2.036 2.189 1.13 0 2.017-.9 2.017-2.189 0-1.292-.888-2.189-2.017-2.189m0 4.625c-1.285 0-2.384-.97-2.384-2.436 0-1.386.99-2.428 2.384-2.428 1.266 0 2.368.968 2.368 2.428 0 1.466-1.102 2.436-2.368 2.436" transform="translate(-.108 .509)"/>
                <path fill="#072F54" d="M195.428 31.148v.885h.598c.301 0 .657-.044.657-.413 0-.44-.331-.472-.701-.472h-.554zm1.696.415c0 .58-.356.827-1.046.827h-1.088v-2.879h.468v1.23h.444l.743-1.23h.532l-.803 1.265c.433.05.75.264.75.787M28.102 38.799l-.92 2.615-7.81 10.474 1.403.349 13.465-11.68 7.925 2.273c.932.242 1.99.294 2.795.289-2.49 5.39-7.048 9.814-13.065 11.964C19.999 59.337 6.92 53.1 2.689 41.158c-1.31-3.693-1.623-7.504-1.072-11.128l18.985 6.619 7.5 2.15zM45.794 41.055c-.696-.454-1.718-1.048-2.732-1.375l-7.941-2.274-5.3-17.07-1.375-.449 1.118 13.037-.625 2.708-7.443-2.131-19.67-4.647c1.557-7.598 6.917-14.214 14.73-17.007 11.898-4.254 24.972 1.985 29.203 13.919 1.825 5.145 1.707 10.512.035 15.289" transform="translate(-.108 .509)"/>
                <path fill="#FBC108" d="M28.938 35.63l.628-2.705-1.12-13.037 1.375.448 5.3 17.068 7.94 2.274c1.015.327 2.037.927 2.733 1.375-.244.701-.524 1.391-.833 2.065-.806.006-1.864-.05-2.795-.286l-7.925-2.28L20.772 52.24l-1.4-.352 7.807-10.474.924-2.612-7.503-2.156-18.982-6.613c.06-.396.129-.79.208-1.18L21.498 33.5l7.44 2.131z" transform="translate(-.108 .509)"/>
            </g>
        </g>
    </g>
</svg>
