<svg xmlns="http://www.w3.org/2000/svg" width="226" height="144" viewBox="0 0 226 144">
    <path fill="#F47320" d="M56.89 57.761c-2.02 0-3.37-1.239-3.37-3.114 0-1.558 1.088-2.917 3.37-2.917 2.19 0 3.271 1.416 3.271 2.973 0 1.911-1.236 3.115-3.271 3.115M37.51 84.356c-4.358 0-8.081-2.464-8.081-7.15 0-5.663 6.273-6.901 9.014-7.27 4.508-.566 4.918-.877 4.918-2.074 0-2.534-.453-4.6-3.625-4.6-2.133 0-3.836.615-5.468 1.592l-.848.566c-.282.213-.777.779-1.342.779-.283 0-.848-.297-.848-1.04v-2.322c0-.482.212-.935.777-1.26 2.12-1.034 5.299-1.607 8.125-1.607 7.348 0 9.538 2.902 9.538 7.114v16.153c0 .354-.212.609-.636.609H44.3c-.212 0-.494-.248-.494-.609l-.142-1.345c-1.625 1.444-3.603 2.478-6.005 2.478m5.864-12.444c-5.723 0-7.913 2.583-7.913 5.394 0 1.953 1.06 3.942 3.815 3.942 2.403 0 4.169-1.812 4.169-2.498v-6.838m75.524 12.529c-3.674 0-6.429-1.296-8.266-2.69-.777-.566-.918-1.557-.918-2.407V52.622c0-.368.282-.637.494-.637h5.016c.354 0 .636.269.636.637v10.32c.99-.849 3.25-2.647 6.783-2.647 5.37 0 8.76 4.672 8.76 10.901 0 8-5.51 13.308-12.363 13.308m-3.25-4.672c0 .496.127.991.706 1.345.495.354 1.272.567 2.826.567 3.3 0 5.638-3.398 5.638-9.203 0-2.123-.495-8.282-5.207-8.282-1.907 0-3.25 1.062-4.027 1.628v14.158-.142m63.585 12.53c-.636 0-1.272 0-2.148-.213-.671-.141-1.039-.566-1.039-1.062v-2.98c0-.354.311-.708.679-.708.565 0 .989.142 1.582.283.99.213 1.908.354 2.756.354 2.896 0 5.016-1.486 5.086-4.388l-9.396-21.803c-.212-.566-.283-.707-.283-.85 0-.353.212-.495.495-.495h5.652c.424 0 .636.142.777.567l5.652 14.865 5.44-14.865c.07-.354.353-.567.707-.567h2.331c.212 0 .424.213.424.496 0 .212-.141.354-.212.637l-9.474 24.492c-1.321 3.398-5.052 6.194-9.043 6.194m-165.25-7.843c-2.882 0-5.878-.637-8.534-1.911-.516-.354-.615-.567-.615-1.062v-2.598c0-.474.162-.942 1.039-.942.466 0 .777.248 1.44.73 2.664 1.861 5.2 2.619 7.348 2.619 3.618 0 6.076-2.195 6.076-4.913.028-7.1-16.15-4.927-16.15-15.403 0-4.849 3.73-9.09 10.618-9.09 3.427 0 6.535.66 8.288 1.346.473.212.565.453.565.934v3.009c0 .46-.142.82-.707.82-.459 0-.826-.282-1.399-.707-2.07-1.487-4.048-2.407-6.64-2.407-2.897 0-5.172 1.558-5.172 3.964 0 5.946 16.412 5.31 16.412 14.865 0 7.22-6.006 10.618-12.576 10.618m45.145-.707H54.39c-.283 0-.565-.284-.565-.638V61.131c0-.354.282-.637.494-.637h4.946c.353 0 .636.283.636.637v22.092c0 .375-.283.616-.636.616m85.203.495c-5.157 0-10.314-2.123-10.314-7.998V61.209c0-.354.211-.638.494-.638h5.016c.353 0 .636.284.636.638V77.56c0 2.435 1.554 3.943 4.168 3.943 3.18 0 4.24-1.798 4.24-5.167V61.138c0-.354.211-.637.494-.637h4.945c.354 0 .636.283.636.637V75.72c0 6.441-5.228 8.607-10.385 8.607M84.98 83.89h-5.016c-.282 0-.494-.27-.494-.638V67.678c0-1.77-.283-3.85-3.674-3.85-1.766 0-3.886 1.026-4.875 1.592V83.26c0 .353-.212.637-.636.637H65.34c-.233 0-.495-.284-.495-.637V61.173c0-.382.283-.637.678-.637h4.946c.353 0 .65.255.65.637v1.182c1.413-.948 4.592-2.336 7.489-2.336 5.016 0 7.206 2.903 7.206 7.15v16.09c0 .353-.212.637-.636.637m12.293.566c-2.473 0-5.058-.602-7.065-1.508-.593-.304-.742-.757-.742-1.33v-2.04c0-.728.354-.94.848-.94.353 0 .707.162.99.424 2.119 1.607 4.592 2.385 6.57 2.385 2.331 0 4.027-.99 4.027-2.902 0-4.46-13-2.76-13-11.014 0-5.054 4.31-7.34 9.185-7.34 2.19 0 4.45.452 6.57 1.323.636.262.777.779.777 1.345v1.72c0 .722-.282.934-.777.934-.212 0-.636-.212-.989-.424-1.837-1.274-4.31-1.982-6.43-1.982-2.119 0-3.814.778-3.814 2.477 0 4.106 13.282 2.195 13.282 10.406 0 6.229-4.522 8.353-9.255 8.353m67.47-.637h-4.945c-.247 0-.495-.284-.495-.638V61.131c0-.354.248-.637.495-.637h4.804c.389 0 .636.283.636.637l.106 2.76c.028 0 .035 0 .042-.07.99-1.487 3.32-3.823 6.182-3.823.685 0 1.272 0 2.26.212.707.142 1.06.567 1.06 1.062v3.256c0 .354-.324.708-.706.708-.565 0-1.06-.212-1.73-.424-.672-.142-1.45-.213-2.226-.213-2.402 0-4.805.92-4.805 4.247v14.016c0 .354-.247.637-.6.637M200.874 60c-1.201.353 1.201-2.55.813-4.107-.424-1.486-2.141-3.539-.919-4.006 1.201-.474 3.462-.467 4.098.354 1.413 2.718-.495 7.185-4.006 7.716l.014.042zm11 24.427c-2.515 0-5.072-.608-7.065-1.514-.607-.283-.756-.744-.756-1.317v-2.024c0-.73.318-.942.827-.942.381 0 .706.212.989.425 2.098 1.628 4.564 2.407 6.57 2.407h.029c2.275 0 4.027-.991 4.027-2.903 0-4.46-13.07-2.76-13.07-10.972 0-5.025 4.31-7.29 9.184-7.29 2.19 0 4.493.424 6.57 1.344.636.283.778.779.778 1.345v1.77c0 .708-.304.92-.848.92-.233 0-.657-.212-.961-.425-1.837-1.274-4.338-1.982-6.415-1.982-2.12 0-3.815.779-3.815 2.478 0 4.106 13.211 2.265 13.211 10.476 0 6.23-4.521 8.424-9.269 8.424"/>
</svg>
