<svg xmlns="http://www.w3.org/2000/svg" width="226" height="144" viewBox="0 0 226 144">
    <g fill="none">
        <path fill="#82BD41" d="M47.748 15.612c-1.99 0-3.78.696-5.272 1.788L31.536 3.992l.1-.1c.696-.894.497-2.185-.398-2.88-.896-.695-2.189-.497-2.885.397-.696.894-.497 2.185.398 2.88.696.497 1.591.497 2.288.2l10.94 13.408c-.796.695-1.492 1.589-1.99 2.483L8.86 5.978c.2-.695.299-1.39.2-2.086-.2-1.192-.796-2.284-1.791-2.98C6.273.218 5.08-.08 3.886.02 2.693.217 1.6.813.903 1.806-.59 3.793-.191 6.673 1.798 8.163c.795.596 1.79.894 2.685.894h.597c1.193-.199 2.287-.795 2.984-1.788.1-.198.298-.397.397-.596l31.131 14.303c-.398.894-.597 1.887-.696 2.98H12.539c-.1-.696-.497-1.39-1.094-1.888-1.193-.893-2.984-.695-3.879.497s-.696 2.98.597 3.874c1.194.894 2.984.695 3.879-.497.298-.397.497-.894.497-1.291h26.456c0 1.092.299 2.185.796 3.178l-6.763 3.278c-.2-.298-.597-.596-1.194-.695-1.094-.298-2.287.496-2.486 1.589-.299 1.092.497 2.284 1.591 2.483 1.094.298 2.288-.497 2.487-1.59.1-.397.1-.695 0-1.092l6.763-3.278c.597.994 1.392 1.987 2.287 2.682l-8.752 12.018c-.895-.596-1.99-.894-3.183-.695-1.193.199-2.287.795-2.983 1.788-1.492 1.986-1.095 4.867.895 6.357.795.596 1.79.894 2.685.894h.597c1.193-.2 2.287-.795 2.984-1.788.696-.993.994-2.185.895-3.377-.1-1.093-.597-1.987-1.393-2.682l8.753-12.018c1.392.894 2.983 1.39 4.774 1.39 4.774 0 8.752-3.873 8.752-8.74s-3.978-8.74-8.752-8.74M7.566 6.871c-.596.795-1.492 1.291-2.486 1.49-.995.1-1.99-.1-2.785-.695-1.69-1.292-1.99-3.675-.796-5.364.597-.894 1.492-1.39 2.487-1.59h.497c.796 0 1.591.299 2.288.795.895.596 1.392 1.49 1.591 2.484.1.993-.199 2.085-.796 2.88m26.655 42.312c-.596.794-1.492 1.39-2.486 1.49-.995.099-1.99-.1-2.785-.696-1.69-1.29-1.99-3.675-.796-5.363.597-.795 1.492-1.291 2.487-1.49h.497c.796 0 1.591.298 2.288.795.795.596 1.293 1.49 1.491 2.483.2.993-.099 1.986-.696 2.78" transform="translate(9.741 46.703)"/>
        <path fill="#1675BC" d="M176.319 41.74v-.487-18.419c0-1.656-.29-3.216-.966-4.775-1.74-3.8-5.41-4.873-9.081-4.288-2.802.39-5.217 1.852-7.343 3.508-.193.195-.386.293-.676.488v-3.509h-5.313v27.385h5.893v-.78-18.126c0-.293.096-.585.193-.682 1.932-1.56 3.961-2.924 6.473-3.119 2.222-.195 3.96.682 4.54 2.924.29.974.387 1.949.483 2.923v17.055h5.797v-.098zM66.241 7.63v27.491c0 .697 0 1.295.1 1.992.397 2.49 1.69 4.283 4.175 5.18 2.584.896 5.169.498 7.753-.2.895-.298 1.79-.697 2.584-.996-.596-1.593-1.093-2.988-1.69-4.482-.198.1-.496.299-.795.399-1.093.498-2.286.796-3.479.796-1.292 0-2.087-.697-2.385-1.892-.1-.598-.2-1.195-.2-1.793V19.782v-.697h6.263c.398 0 .597-.1.795-.498.398-1.295.796-2.49 1.193-3.785.1-.2.1-.299.1-.598H72.9c-.497 0-.596-.1-.596-.597V5.838c-2.088.597-3.976 1.195-6.064 1.793M116.904 0c-.288.098-.48.196-.672.196-1.535.59-2.974 1.18-4.509 1.67-.48.197-.671.393-.671.983v33.299c0 2.947 1.63 4.911 4.413 5.5 1.823.393 3.55.099 5.372-.196.96-.196 1.92-.59 2.879-.786-.096-.196 0-.294-.096-.294-1.056-1.18-2.111-2.358-2.687-3.93 0-.098-.383-.196-.48-.196-.48.098-.863.196-1.342.295-1.152.196-1.92-.393-2.111-1.572-.096-.393-.096-.786-.096-1.179V0zM207.491 42.109h-5.755c-.404 0-.606-.1-.707-.501-.202-.802-.505-1.504-.808-2.306-.202.2-.404.3-.606.501-2.322 1.905-4.847 3.008-7.977 3.008-4.342-.1-7.472-2.306-9.492-6.016-1.514-2.807-2.02-5.815-1.918-8.923.1-3.008.909-5.815 2.625-8.321 2.424-3.51 5.857-5.414 9.997-6.016 2.12-.3 4.24-.3 6.26.1h.606v-.802V2.807c0-.501.101-.702.606-.802 1.818-.601 3.736-1.303 5.655-2.005V32.685c.1 3.208 0 6.316 1.514 9.424m-7.573-15.14V19.45c0-.601-.202-.802-.707-.902-1.413-.3-2.928-.401-4.443-.2-2.524.3-4.644 1.403-6.16 3.509-1.21 1.604-1.716 3.509-1.817 5.514-.202 2.406 0 4.712 1.212 6.817 1.313 2.407 3.332 3.81 6.26 3.61 2.02-.1 3.737-1.003 5.251-2.306.303-.3.505-.602.505-1.003-.202-2.506-.1-5.013-.1-7.52M107.155 42.192h-4.59c-1.398 0-1.398 0-1.897-1.391-.2-.497-.3-.894-.499-1.39-.2.099-.299.297-.499.397-2.395 2.086-5.19 3.178-8.482 2.98-4.69-.199-8.284-3.775-8.383-8.444-.1-4.57 2.395-7.748 7.185-8.84 2.196-.497 4.49-.597 6.786-.597.898 0 1.697-.1 2.595-.1.3 0 .499-.098.499-.396-.1-.795 0-1.59-.2-2.285-.499-2.086-1.996-3.378-4.29-3.676-2.895-.298-5.49.398-8.085 1.69-.2.098-.399.198-.698.297-.699-1.39-1.397-2.682-2.196-4.073 1.198-.496 2.296-1.092 3.393-1.49 3.793-1.291 7.685-1.688 11.577-.695 3.692.993 5.888 3.576 6.287 7.35.1.795.1 1.59.1 2.385v10.43c0 2.682.2 5.265 1.297 7.748.1-.099.1 0 .1.1m-7.385-10.43V28.88c-1.597.099-3.193.099-4.69.198-.998.1-1.996.199-2.894.398-1.298.298-2.396.993-2.895 2.284-.998 2.484 0 5.96 3.992 6.06 2.395.1 4.391-.993 6.188-2.483.2-.1.2-.398.2-.596.1-.895.1-1.987.1-2.98M148.035 29.41c0 .1 0 .198-.1.397h-17.942c-.1 1.09.2 2.082.498 3.073 1.097 3.073 3.888 4.957 7.078 5.056 2.591.1 4.984-.397 7.276-1.586.2-.1.3-.199.599-.298.598 1.388 1.196 2.776 1.894 4.263-.997.496-1.894.992-2.891 1.289-3.49 1.289-7.177 1.586-10.766.694-4.286-.991-7.277-3.668-8.772-7.733-1.794-4.957-1.595-9.913.798-14.672 2.093-4.263 6.479-6.543 11.264-6.246 5.582.397 9.17 3.867 10.466 9.121.598 2.181.698 4.362.598 6.642m-7.775-9.021c-1.096-1.487-2.592-2.082-4.386-2.082-3.39.099-6.28 3.569-5.781 7.039h11.862c-.2-1.785-.598-3.47-1.695-4.957" transform="translate(9.741 46.703)"/>
    </g>
</svg>
