<svg xmlns="http://www.w3.org/2000/svg" width="226" height="144" viewBox="0 0 226 144">
    <g fill="none">
        <path fill="#00B0FF" d="M11.37 0h23.044c3.954 0 5.388.413 6.833 1.188 1.445.775 2.58 1.912 3.353 3.36.773 1.45 1.184 2.887 1.184 6.85v22.933c0 3.963-.411 5.4-1.184 6.85-.773 1.449-1.908 2.586-3.353 3.361-1.445.775-2.88 1.188-6.833 1.188H11.37c-3.953 0-5.387-.413-6.833-1.188-1.445-.775-2.58-1.912-3.352-3.361C.412 39.73 0 38.294 0 34.33V11.399c0-3.964.412-5.401 1.185-6.85.773-1.45 1.907-2.586 3.352-3.361C5.983.413 7.417 0 11.37 0zm10.153 26.491l-1.68 10.27c-.216 1.323 1.502 2.035 2.287.947l11.968-16.583c.607-.84.006-2.013-1.031-2.013h-8.551l1.68-10.27c.216-1.323-1.502-2.035-2.287-.947L11.94 24.478c-.607.84-.006 2.013 1.031 2.013h8.551zm-6.066-2.54l7.358-10.195-1.05 6.421c-.127.773.47 1.475 1.254 1.475h7.563l-7.358 10.195 1.05-6.421c.127-.773-.47-1.475-1.255-1.475h-7.562z" transform="translate(9.741 51.568)"/>
        <path fill="#222" d="M75.78 30.61c0 4.114-3.338 7.336-7.596 7.336-4.22 0-7.25-2.329-7.787-7.336h5.14c.499 1.824 1.343 2.6 2.839 2.6 1.304 0 2.302-.892 2.302-2.096 0-1.242-.192-1.591-3.606-2.755-4.22-1.437-5.908-3.222-5.908-6.366 0-3.688 3.107-6.56 7.058-6.56 3.606 0 6.79 2.407 6.982 6.443h-4.987c-.23-1.125-.92-1.708-1.995-1.708-1.112 0-1.956.777-1.956 1.825 0 1.125.115 1.203 3.606 2.329 4.45 1.397 5.908 3.105 5.908 6.288zm21.457 6.831h-5.102V26.922c0-5.744-1.535-6.754-4.067-6.754-1.61 0-2.954.7-3.76 1.98-.651 1.048-.843 2.29-.843 5.163v10.13h-5.102V15.938h4.718v2.057c1.88-1.824 3.568-2.562 5.985-2.562 2.954 0 5.255 1.087 6.636 3.105 1.151 1.67 1.535 3.532 1.535 7.375v11.528zm25.152 0h-4.68v-2.794c-2.033 2.329-4.066 3.299-7.058 3.299-6.215 0-10.703-4.697-10.703-11.179 0-6.56 4.526-11.334 10.818-11.334 3.069 0 5.179 1.01 6.943 3.377v-2.872h4.68V37.44zm-4.833-10.596c0-3.92-2.609-6.677-6.253-6.677-3.645 0-6.215 2.795-6.215 6.716 0 3.765 2.57 6.326 6.292 6.326 3.874 0 6.176-2.794 6.176-6.365zm30.779-.31c0 6.481-4.373 11.41-10.358 11.41-3.145 0-5.179-.892-7.365-3.26v2.756h-4.68V8.757h5.102v9.16c1.956-1.98 3.836-2.756 6.598-2.756 6.1 0 10.703 4.891 10.703 11.373zm-5.14.038c0-3.843-2.648-6.676-6.292-6.676-3.568 0-6.176 2.756-6.176 6.637 0 3.92 2.608 6.676 6.291 6.676 3.645 0 6.176-2.717 6.176-6.637zm30.331-.039c0 6.482-4.373 11.412-10.358 11.412-3.145 0-5.179-.893-7.365-3.26v2.755h-4.68V8.757h5.102v9.16c1.956-1.98 3.836-2.756 6.598-2.756 6.1 0 10.703 4.891 10.703 11.373zm-5.14.039c0-3.843-2.648-6.676-6.292-6.676-3.568 0-6.176 2.756-6.176 6.637 0 3.92 2.608 6.676 6.291 6.676 3.645 0 6.176-2.717 6.176-6.637zm12.902 10.868h-5.102V8.757h5.102V37.44zM206.518 27c0 .776-.04 1.242-.193 1.98h-16.457c.614 2.6 2.839 4.23 5.87 4.23 2.11 0 3.375-.582 4.68-2.134h5.562c-1.42 4.425-5.83 6.87-10.127 6.87-6.484 0-11.509-4.89-11.509-11.179 0-6.327 4.949-11.334 11.202-11.334 6.33 0 10.971 4.89 10.971 11.567zm-5.026-2.562c-.652-2.756-2.724-4.27-5.87-4.27-3.03 0-5.102 1.514-5.907 4.27h11.777z" transform="translate(9.741 51.568)"/>
    </g>
</svg>
