<svg xmlns="http://www.w3.org/2000/svg" width="226" height="144" viewBox="0 0 226 144">
    <g fill="#0067A4">
        <path d="M112.024 50.554c-.792-3.88-2.306-7.088-4.49-10.008-4.475-5.99-11.725-9.775-21.537-9.775-15.255 0-24.633 10.503-27.41 21.575-2.495-7.807-9.171-13.074-16.223-15.299 5.308-3.923 8.087-9.535 8.087-15.942 0-5.946-2.442-11.36-6.528-14.882C37.927 1.055 29.755 0 19.684 0H0v86.186c5.577 0 11.31-.025 16.899 0 4.972.023 9.827-.007 14.356-.191 14.332-.582 24.142-7.897 27.282-18.882 1.078 4.884 3.152 8.865 5.86 11.887 5.52 6.16 13.521 8.568 21.58 8.568 9.921 0 17.095-2.918 21.996-7.39l-7.015-8.358c-3.53 2.698-8.066 4.289-13.16 4.289-9.992-.032-14.398-6.443-14.793-12.606h39.018v22.683h14.615V.43h-14.615v50.124zm-97.006-38.91l4.06-.003c3.922 0 7.02.428 9.25 1.306 4.404 1.732 6.498 5.283 6.498 9.718.005 3.75-1.41 9.644-9.19 11.255-1.302.27-3.177.419-5.826.419h-4.792V11.644zM31.54 73.57c-1.83.334-4.067.408-5.884.408h-10.64l.001-28.117h9.52c3.004 0 6.404.343 8.352.86 6.679 1.777 10.516 6.632 10.516 13.062 0 6.658-3.533 12.265-11.865 13.787zm41.734-20.784c1.288-6.278 5.865-10.796 12.61-10.796 6.752 0 11.244 4.048 12.408 10.796H73.274zM137.353 0H151.965V85.622H137.353z" transform="translate(37.017 28.216)"/>
    </g>
</svg>
