<svg xmlns="http://www.w3.org/2000/svg" width="226" height="144" viewBox="0 0 226 144">
    <path d="M157.82 103.195c-1.662 3.841-3.63 7.377-5.908 10.628-3.106 4.431-5.649 7.499-7.609 9.202-3.038 2.796-6.293 4.228-9.78 4.31-2.502 0-5.52-.713-9.032-2.158-3.525-1.44-6.764-2.152-9.725-2.152-3.106 0-6.437.713-10 2.152-3.57 1.445-6.444 2.198-8.642 2.273-3.343.143-6.674-1.33-10-4.425-2.123-1.853-4.778-5.029-7.958-9.528-3.413-4.805-6.219-10.377-8.417-16.73-2.353-6.86-3.533-13.504-3.533-19.937 0-7.368 1.59-13.723 4.777-19.048C74.498 53.504 77.83 50.13 82 47.652c4.17-2.476 8.675-3.739 13.528-3.82 2.655 0 6.137.822 10.463 2.438 4.315 1.62 7.085 2.442 8.3 2.442.908 0 3.985-.96 9.202-2.877 4.934-1.776 9.098-2.512 12.51-2.222 9.243.746 16.187 4.393 20.806 10.962-8.267 5.013-12.357 12.033-12.275 21.04.074 7.015 2.617 12.853 7.616 17.488 2.265 2.151 4.794 3.814 7.609 4.995-.61 1.771-1.255 3.468-1.94 5.097zm-21.2-83.482c0 5.499-2.008 10.633-6.01 15.385-4.828 5.649-10.668 8.913-17.002 8.398-.08-.66-.127-1.354-.127-2.084 0-5.278 2.296-10.927 6.374-15.546 2.036-2.339 4.625-4.283 7.765-5.835 3.133-1.528 6.097-2.373 8.884-2.517.082.735.115 1.47.115 2.199z"/>
</svg>
