<svg xmlns="http://www.w3.org/2000/svg" xmlns:xlink="http://www.w3.org/1999/xlink" width="729" height="640" viewBox="0 0 729 640">
    <defs>
        <radialGradient id="a" cx="47.378%" r="53.363%" fx="47.378%" fy="50%" gradientTransform="matrix(0 1 -.82863 0 .888 .026)">
            <stop offset="0%" stop-color="#24A1C1"/>
            <stop offset="100%" stop-color="#24A1C1" stop-opacity="0"/>
        </radialGradient>
        <radialGradient id="b" cx="47.378%" r="53.363%" fx="47.378%" fy="50%" gradientTransform="matrix(0 1 -1.67378 0 1.31 .026)">
            <stop offset="0%" stop-color="#24A1C1"/>
            <stop offset="100%" stop-color="#24A1C1" stop-opacity="0"/>
        </radialGradient>
        <radialGradient id="c" cx="47.378%" r="53.363%" fx="47.378%" fy="50%" gradientTransform="matrix(0 1 -.96538 0 .956 .026)">
            <stop offset="0%" stop-color="#24A1C1"/>
            <stop offset="100%" stop-color="#24A1C1" stop-opacity="0"/>
        </radialGradient>
        <radialGradient id="d" cx="47.378%" r="83.816%" fx="47.378%" fy="50%" gradientTransform="matrix(0 .63667 -1.77756 0 1.363 .198)">
            <stop offset="0%" stop-color="#24A1C1"/>
            <stop offset="100%" stop-color="#24A1C1" stop-opacity="0"/>
        </radialGradient>
        <ellipse id="f" cx="543.324" cy="443" rx="2" ry="1"/>
        <filter id="e" width="700%" height="1300%" x="-300%" y="-600%" filterUnits="objectBoundingBox">
            <feOffset in="SourceAlpha" result="shadowOffsetOuter1"/>
            <feGaussianBlur in="shadowOffsetOuter1" result="shadowBlurOuter1" stdDeviation="4"/>
            <feColorMatrix in="shadowBlurOuter1" values="0 0 0 0 0.141176471 0 0 0 0 0.631372549 0 0 0 0 0.756862745 0 0 0 1 0"/>
        </filter>
        <ellipse id="h" cx="383.324" cy="152" rx="2" ry="1"/>
        <filter id="g" width="700%" height="1300%" x="-300%" y="-600%" filterUnits="objectBoundingBox">
            <feOffset in="SourceAlpha" result="shadowOffsetOuter1"/>
            <feGaussianBlur in="shadowOffsetOuter1" result="shadowBlurOuter1" stdDeviation="4"/>
            <feColorMatrix in="shadowBlurOuter1" values="0 0 0 0 0.141176471 0 0 0 0 0.631372549 0 0 0 0 0.756862745 0 0 0 1 0"/>
        </filter>
        <linearGradient id="i" x1="33.261%" x2="66.739%" y1="19.969%" y2="83.989%">
            <stop offset="0%" stop-color="#8CD9ED"/>
            <stop offset="100%" stop-color="#6CBACE"/>
        </linearGradient>
        <linearGradient id="j" x1="74.268%" x2="39.604%" y1="67.667%" y2="34.637%">
            <stop offset="0%" stop-color="#004557"/>
            <stop offset="100%" stop-color="#097692"/>
        </linearGradient>
        <linearGradient id="k" x1="88.697%" x2="10.887%" y1="58.551%" y2="36.669%">
            <stop offset="0%" stop-color="#24A1C1"/>
            <stop offset="100%" stop-color="#7BC6D9"/>
        </linearGradient>
        <linearGradient id="l" x1="59.764%" x2="59.764%" y1="79.959%" y2="24.103%">
            <stop offset="0%" stop-color="#759EFF" stop-opacity="0"/>
            <stop offset="100%" stop-color="#1E54D5"/>
        </linearGradient>
        <linearGradient id="m" x1="55.131%" x2="51.666%" y1="78.651%" y2="45.517%">
            <stop offset="0%" stop-color="#00A697" stop-opacity="0"/>
            <stop offset="100%" stop-color="#24A1C1"/>
        </linearGradient>
    </defs>
    <g fill="none" fill-rule="evenodd">
        <path stroke="url(#a)" d="M109.324 384.103l91.444-52.786a8 8 0 0 1 8 0L455.941 474l89.443-51.631a4 4 0 0 0 0-6.929l-203.31-117.363 93.443-53.94a4 4 0 0 1 4 0L644.83 362.654a4 4 0 0 0 4 0l87.443-50.478a4 4 0 0 0 0-6.928l-119.586-69.032 89.442-51.632a4 4 0 0 0 0-6.928l-119.586-69.031 91.445-52.787a8 8 0 0 1 7.999 0L933.16 198.522l95.443-55.095-83.723-48.33L1040.324 40" transform="translate(-29 134)"/>
        <path stroke="url(#b)" d="M280.802 19.428l29.65-17.119a8 8 0 0 1 8 0l89.47 51.657a4 4 0 0 1 0 6.928l-122.598 70.783a4 4 0 0 0 0 6.928l89.47 51.656a8 8 0 0 0 8 0l63.298-36.546 99.47 57.43-128.598 74.246a4 4 0 0 0 0 6.928l89.47 51.657a8 8 0 0 0 8 0l126.6-73.093a8 8 0 0 1 8 0l95.47 55.12-33.65 19.428 87.47 50.502a8 8 0 0 1 0 13.856L642.075 500l-99.469-57.43" opacity=".483" transform="translate(-29 134)"/>
        <path stroke="url(#b)" d="M481.802 188.428l29.65-17.119a8 8 0 0 1 8 0l89.47 51.657a4 4 0 0 1 0 6.928l-122.598 70.783a4 4 0 0 0 0 6.928l89.47 51.656a8 8 0 0 0 8 0l59.298-34.237a8 8 0 0 1 8 0l95.47 55.12-128.598 74.247a4 4 0 0 0 0 6.928l89.47 51.657a8 8 0 0 0 8 0l126.6-73.093a8 8 0 0 1 8 0l95.47 55.12-33.65 19.428 87.47 50.502a8 8 0 0 1 0 13.856L843.075 669l-99.469-57.43" opacity=".483" transform="matrix(-1 0 0 1 1462.647 134)"/>
        <path stroke="url(#c)" d="M0 463.534l78.07-45.059a8 8 0 0 1 7.999 0l191.7 110.641 82.069-47.367L91.862 327.084a4 4 0 0 1 0-6.929l72.067-41.594a8 8 0 0 1 7.998 0l191.701 110.642 76.066-43.903a4 4 0 0 0 0-6.929l-144.553-83.43a4 4 0 0 1 0-6.93l70.065-40.438a4 4 0 0 0 0-6.928l-27.136-15.662a4 4 0 0 1 0-6.929l74.131-42.784a4 4 0 0 1 3.999 0l311.117 179.564" transform="translate(-29 134)"/>
        <path stroke="url(#d)" d="M926.158 309L804.81 238.8a4 4 0 0 1 0-6.924l127.514-73.768L747.309 51.077a4 4 0 0 1 0-6.925L808.072 9" transform="translate(-29 134)"/>
        <g transform="translate(-29 134)">
            <use fill="#000" filter="url(#e)" xlink:href="#f"/>
            <use fill="#24A1C1" xlink:href="#f"/>
        </g>
        <g transform="translate(-29 134)">
            <use fill="#000" filter="url(#g)" xlink:href="#h"/>
            <use fill="#24A1C1" xlink:href="#h"/>
        </g>
        <g>
            <path fill="url(#i)" d="M119.46 137.532L.66 69.6v137.967l118.8 67.353z" opacity=".451" transform="translate(433 309)"/>
            <path fill="url(#j)" d="M237.794 69.84L119.46 137.542V274.92l118.334-66.964z" opacity=".432" transform="translate(433 309)"/>
            <path fill="url(#k)" d="M119.021.315L.66 69.6l118.772 69.525L237.794 69.84z" opacity=".321" transform="translate(433 309)"/>
            <g>
                <path fill="url(#l)" d="M119.46 68.532L.66.6v267.967l118.8 67.353z" opacity=".187" transform="translate(433 378)"/>
                <path fill="url(#m)" d="M237.794.84L119.46 68.542V315.92l118.334-66.964z" opacity=".231" transform="translate(433 378)"/>
            </g>
            <g>
                <path fill="url(#i)" d="M119.46 137.532L.66 69.6v137.967l118.8 67.353z" opacity=".451" transform="translate(671 445)"/>
                <path fill="url(#k)" d="M119.021.315L.66 69.6l118.772 69.525L237.794 69.84z" opacity=".321" transform="translate(671 445)"/>
                <g fill="url(#l)" opacity=".187" transform="translate(671 514)">
                    <path d="M119.46 68.532L.66.6v267.967l118.8 67.353z"/>
                </g>
            </g>
        </g>
        <g>
            <path fill="url(#i)" d="M119.46 137.532L.66 69.6v137.967l118.8 67.353z" opacity=".451" transform="translate(552 240)"/>
            <path fill="url(#j)" d="M237.794 69.84L119.46 137.542V274.92l118.334-66.964z" opacity=".432" transform="translate(552 240)"/>
            <path fill="url(#k)" d="M119.021.315L.66 69.6l118.772 69.525L237.794 69.84z" opacity=".321" transform="translate(552 240)"/>
            <g>
                <path fill="url(#l)" d="M119.46 68.532L.66.6v267.967l118.8 67.353z" opacity=".187" transform="translate(552 309)"/>
                <path fill="url(#m)" d="M237.794.84L119.46 68.542V315.92l118.334-66.964z" opacity=".231" transform="translate(552 309)"/>
            </g>
        </g>
        <g>
            <path fill="url(#i)" d="M119.46 137.532L.66 69.6v137.967l118.8 67.353z" opacity=".451" transform="translate(314 -33)"/>
            <path fill="url(#j)" d="M237.794 69.84L119.46 137.542V274.92l118.334-66.964z" opacity=".432" transform="translate(314 -33)"/>
            <path fill="url(#k)" d="M119.021.315L.66 69.6l118.772 69.525L237.794 69.84z" opacity=".321" transform="translate(314 -33)"/>
            <g>
                <path fill="url(#l)" d="M119.46 68.532L.66.6v267.967l118.8 67.353z" opacity=".187" transform="translate(314 36)"/>
                <path fill="url(#m)" d="M237.794.84L119.46 68.542V315.92l118.334-66.964z" opacity=".231" transform="translate(314 36)"/>
            </g>
            <g>
                <path fill="url(#i)" d="M119.46 137.532L.66 69.6v137.967l118.8 67.353z" opacity=".451" transform="translate(433 35)"/>
                <path fill="url(#j)" d="M237.794 69.84L119.46 137.542V274.92l118.334-66.964z" opacity=".432" transform="translate(433 35)"/>
                <path fill="url(#k)" d="M119.021.315L.66 69.6l118.772 69.525L237.794 69.84z" opacity=".321" transform="translate(433 35)"/>
                <g>
                    <path fill="url(#l)" d="M119.46 68.532L.66.6v267.967l118.8 67.353z" opacity=".187" transform="translate(433 104)"/>
                    <path fill="url(#m)" d="M237.794.84L119.46 68.542V315.92l118.334-66.964z" opacity=".231" transform="translate(433 104)"/>
                </g>
            </g>
            <g>
                <path fill="url(#i)" d="M119.46 137.532L.66 69.6v137.967l118.8 67.353z" opacity=".451" transform="translate(552 103)"/>
                <path fill="url(#j)" d="M237.794 69.84L119.46 137.542V274.92l118.334-66.964z" opacity=".432" transform="translate(552 103)"/>
                <path fill="url(#k)" d="M119.021.315L.66 69.6l118.772 69.525L237.794 69.84z" opacity=".321" transform="translate(552 103)"/>
                <g>
                    <path fill="url(#l)" d="M119.46 68.532L.66.6v267.967l118.8 67.353z" opacity=".187" transform="translate(552 172)"/>
                    <path fill="url(#m)" d="M237.794.84L119.46 68.542V315.92l118.334-66.964z" opacity=".231" transform="translate(552 172)"/>
                </g>
            </g>
        </g>
        <g>
            <path fill="url(#i)" d="M119.46 137.532L.66 69.6v137.967l118.8 67.353z" opacity=".451" transform="translate(314 -170)"/>
            <path fill="url(#j)" d="M237.794 69.84L119.46 137.542V274.92l118.334-66.964z" opacity=".432" transform="translate(314 -170)"/>
            <path fill="url(#l)" d="M119.46 68.532L.66.6v267.967l118.8 67.353z" opacity=".187" transform="translate(314 -101)"/>
            <path fill="url(#m)" d="M237.794.84L119.46 68.542V315.92l118.334-66.964z" opacity=".231" transform="translate(314 -101)"/>
            <g>
                <path fill="url(#i)" d="M119.46 137.532L.66 69.6v137.967l118.8 67.353z" opacity=".451" transform="translate(552 -34)"/>
                <path fill="url(#j)" d="M237.794 69.84L119.46 137.542V274.92l118.334-66.964z" opacity=".432" transform="translate(552 -34)"/>
                <path fill="url(#k)" d="M119.021.315L.66 69.6l118.772 69.525L237.794 69.84z" opacity=".321" transform="translate(552 -34)"/>
                <g>
                    <path fill="url(#l)" d="M119.46 68.532L.66.6v267.967l118.8 67.353z" opacity=".187" transform="translate(552 35)"/>
                    <path fill="url(#m)" d="M237.794.84L119.46 68.542V315.92l118.334-66.964z" opacity=".231" transform="translate(552 35)"/>
                </g>
            </g>
            <g>
                <path fill="url(#i)" d="M119.46 137.532L.66 69.6v137.967l118.8 67.353z" opacity=".451" transform="translate(671 34)"/>
                <path fill="url(#k)" d="M119.021.315L.66 69.6l118.772 69.525L237.794 69.84z" opacity=".321" transform="translate(671 34)"/>
                <g fill="url(#l)" opacity=".187" transform="translate(671 103)">
                    <path d="M119.46 68.532L.66.6v267.967l118.8 67.353z"/>
                </g>
            </g>
        </g>
    </g>
</svg>
