<svg xmlns="http://www.w3.org/2000/svg" xmlns:xlink="http://www.w3.org/1999/xlink" width="1440" height="422" viewBox="0 0 1440 422">
    <defs>
        <radialGradient id="prefix__e" cx="50%" cy="39.145%" r="142.44%" fx="50%" fy="39.145%" gradientTransform="matrix(-.2993 0 0 -.72223 .65 .674)">
            <stop offset="0%" stop-color="#0D2051"/>
            <stop offset="100%" stop-color="#100323"/>
        </radialGradient>
        <radialGradient id="prefix__h" cx="50%" cy="50%" r="170.721%" fx="50%" fy="50%" gradientTransform="matrix(-.29722 0 0 -.72223 .649 .861)">
            <stop offset="0%" stop-opacity="0"/>
            <stop offset="42.336%" stop-opacity=".149"/>
            <stop offset="100%"/>
        </radialGradient>
        <radialGradient id="prefix__j" cx="47.378%" cy="50%" r="53.363%" fx="47.378%" fy="50%" gradientTransform="matrix(0 1 -.82863 0 .888 .026)">
            <stop offset="0%" stop-color="#24A1C1"/>
            <stop offset="100%" stop-color="#24A1C1" stop-opacity="0"/>
        </radialGradient>
        <radialGradient id="prefix__k" cx="47.378%" cy="50%" r="53.363%" fx="47.378%" fy="50%" gradientTransform="matrix(0 1 -1.58906 0 1.268 .026)">
            <stop offset="0%" stop-color="#24A1C1"/>
            <stop offset="100%" stop-color="#24A1C1" stop-opacity="0"/>
        </radialGradient>
        <radialGradient id="prefix__l" cx="47.378%" cy="50%" r="53.363%" fx="47.378%" fy="50%" gradientTransform="matrix(0 1 -1.67378 0 1.31 .026)">
            <stop offset="0%" stop-color="#24A1C1"/>
            <stop offset="100%" stop-color="#24A1C1" stop-opacity="0"/>
        </radialGradient>
        <radialGradient id="prefix__m" cx="47.378%" cy="50%" r="53.363%" fx="47.378%" fy="50%" gradientTransform="matrix(0 1 -.96538 0 .956 .026)">
            <stop offset="0%" stop-color="#24A1C1"/>
            <stop offset="100%" stop-color="#24A1C1" stop-opacity="0"/>
        </radialGradient>
        <radialGradient id="prefix__n" cx="47.378%" cy="50%" r="83.816%" fx="47.378%" fy="50%" gradientTransform="matrix(0 .63667 -1.77756 0 1.363 .198)">
            <stop offset="0%" stop-color="#24A1C1"/>
            <stop offset="100%" stop-color="#24A1C1" stop-opacity="0"/>
        </radialGradient>
        <radialGradient id="prefix__A" cx="50%" cy="18.05%" r="81.95%" fx="50%" fy="18.05%" gradientTransform="matrix(0 1 -.40625 0 .573 -.32)">
            <stop offset="0%" stop-color="#FEFFFF"/>
            <stop offset="70.011%" stop-color="#294298" stop-opacity=".722"/>
            <stop offset="100%" stop-color="#100323" stop-opacity="0"/>
        </radialGradient>
        <ellipse id="prefix__p" cx="1925.455" cy="859.399" rx="5.53" ry="2.765"/>
        <ellipse id="prefix__r" cx="1877.575" cy="587.678" rx="5.53" ry="2.765"/>
        <ellipse id="prefix__t" cx="1201.096" cy="672.438" rx="5.53" ry="2.765"/>
        <ellipse id="prefix__v" cx="1778.298" cy="705.334" rx="5.53" ry="2.765"/>
        <ellipse id="prefix__x" cx="884.159" cy="699.199" rx="5.53" ry="2.765"/>
        <ellipse id="prefix__z" cx="1044.159" cy="547.199" rx="5.53" ry="2.765"/>
        <filter id="prefix__o" width="723.9%" height="1347.7%" x="-311.9%" y="-623.9%" filterUnits="objectBoundingBox">
            <feOffset in="SourceAlpha" result="shadowOffsetOuter1"/>
            <feGaussianBlur in="shadowOffsetOuter1" result="shadowBlurOuter1" stdDeviation="11.5"/>
            <feColorMatrix in="shadowBlurOuter1" values="0 0 0 0 0.141176471 0 0 0 0 0.631372549 0 0 0 0 0.756862745 0 0 0 1 0"/>
        </filter>
        <filter id="prefix__q" width="723.9%" height="1347.7%" x="-311.9%" y="-623.9%" filterUnits="objectBoundingBox">
            <feOffset in="SourceAlpha" result="shadowOffsetOuter1"/>
            <feGaussianBlur in="shadowOffsetOuter1" result="shadowBlurOuter1" stdDeviation="11.5"/>
            <feColorMatrix in="shadowBlurOuter1" values="0 0 0 0 0.141176471 0 0 0 0 0.631372549 0 0 0 0 0.756862745 0 0 0 1 0"/>
        </filter>
        <filter id="prefix__s" width="723.9%" height="1347.7%" x="-311.9%" y="-623.9%" filterUnits="objectBoundingBox">
            <feOffset in="SourceAlpha" result="shadowOffsetOuter1"/>
            <feGaussianBlur in="shadowOffsetOuter1" result="shadowBlurOuter1" stdDeviation="11.5"/>
            <feColorMatrix in="shadowBlurOuter1" values="0 0 0 0 0.141176471 0 0 0 0 0.631372549 0 0 0 0 0.756862745 0 0 0 1 0"/>
        </filter>
        <filter id="prefix__u" width="723.9%" height="1347.7%" x="-311.9%" y="-623.9%" filterUnits="objectBoundingBox">
            <feOffset in="SourceAlpha" result="shadowOffsetOuter1"/>
            <feGaussianBlur in="shadowOffsetOuter1" result="shadowBlurOuter1" stdDeviation="11.5"/>
            <feColorMatrix in="shadowBlurOuter1" values="0 0 0 0 0.141176471 0 0 0 0 0.631372549 0 0 0 0 0.756862745 0 0 0 1 0"/>
        </filter>
        <filter id="prefix__w" width="723.9%" height="1347.7%" x="-311.9%" y="-623.9%" filterUnits="objectBoundingBox">
            <feOffset in="SourceAlpha" result="shadowOffsetOuter1"/>
            <feGaussianBlur in="shadowOffsetOuter1" result="shadowBlurOuter1" stdDeviation="11.5"/>
            <feColorMatrix in="shadowBlurOuter1" values="0 0 0 0 0.141176471 0 0 0 0 0.631372549 0 0 0 0 0.756862745 0 0 0 1 0"/>
        </filter>
        <filter id="prefix__y" width="723.9%" height="1347.7%" x="-311.9%" y="-623.9%" filterUnits="objectBoundingBox">
            <feOffset in="SourceAlpha" result="shadowOffsetOuter1"/>
            <feGaussianBlur in="shadowOffsetOuter1" result="shadowBlurOuter1" stdDeviation="11.5"/>
            <feColorMatrix in="shadowBlurOuter1" values="0 0 0 0 0.141176471 0 0 0 0 0.631372549 0 0 0 0 0.756862745 0 0 0 1 0"/>
        </filter>
        <path id="prefix__a" d="M0 0H1440V422H0z"/>
        <path id="prefix__d" d="M0 0H1440V431H0z"/>
        <path id="prefix__g" d="M0 0H1440V428H0z"/>
        <linearGradient id="prefix__b" x1="93.267%" x2="12.125%" y1="53.085%" y2="47.738%">
            <stop offset="0%" stop-color="#0A183F" stop-opacity=".981"/>
            <stop offset="100%" stop-color="#110325"/>
        </linearGradient>
    </defs>
    <g fill="none" fill-rule="evenodd">
        <mask id="prefix__c" fill="#fff">
            <use xlink:href="#prefix__a"/>
        </mask>
        <use fill="url(#prefix__b)" xlink:href="#prefix__a"/>
        <g mask="url(#prefix__c)">
            <mask id="prefix__f" fill="#fff">
                <use xlink:href="#prefix__d"/>
            </mask>
            <use fill="url(#prefix__e)" xlink:href="#prefix__d"/>
            <g mask="url(#prefix__f)">
                <mask id="prefix__i" fill="#fff">
                    <use xlink:href="#prefix__g"/>
                </mask>
                <use fill="url(#prefix__h)" xlink:href="#prefix__g"/>
                <g mask="url(#prefix__i)">
                    <g transform="translate(-690.599 -511.895)">
                        <g stroke-width="2.765">
                            <path stroke="url(#prefix__j)" d="M272.29 1032.078L525.142 886.12c6.844-3.95 15.275-3.95 22.118 0l677.475 391.077c3.704 2.138 8.266 2.138 11.969 0l239.97-138.523c5.725-3.305 7.687-10.626 4.382-16.351-1.051-1.82-2.563-3.332-4.383-4.383L933.824 804.576c-5.725-3.306-7.688-10.626-4.382-16.352 1.05-1.82 2.562-3.331 4.382-4.382l239.965-138.521c3.703-2.138 8.266-2.138 11.969 0l567.253 327.451c3.421 1.976 7.637 1.976 11.059 0l241.788-139.575c5.29-3.054 7.104-9.818 4.05-15.108-.971-1.682-2.368-3.079-4.05-4.05l-312.706-180.51c-5.726-3.306-7.688-10.626-4.383-16.352 1.051-1.82 2.562-3.331 4.383-4.382l229.356-132.4c5.29-3.054 7.103-9.819 4.049-15.109-.97-1.682-2.367-3.078-4.05-4.05L1591.843 270.36h0l252.854-145.958c6.843-3.95 15.274-3.95 22.117 0l683.46 394.529h0l263.908-152.343-231.503-133.637 263.908-152.347" transform="matrix(-1 0 0 1 2847.606 0)"/>
                            <path stroke="url(#prefix__k)" d="M1193.485 425.035h0l257.044 148.407c5.74 3.313 7.706 10.652 4.392 16.392-1.053 1.824-2.568 3.339-4.392 4.392l-337.586 194.905c-5.29 3.054-7.103 9.819-4.049 15.109.971 1.681 2.367 3.078 4.049 4.048l247.393 142.835c6.845 3.951 15.277 3.951 22.121 0l355.117-205.03c3.712-2.143 8.287-2.143 12 0l251.044 144.943c5.74 3.314 7.706 10.653 4.393 16.392-1.054 1.825-2.568 3.34-4.393 4.393l-57.044 32.934c-5.74 3.314-7.706 10.653-4.392 16.392 1.053 1.825 2.568 3.34 4.392 4.393l223.861 129.249c10.58 6.109 14.205 19.637 8.097 30.217-1.942 3.363-4.734 6.156-8.097 8.097l-432.04 249.44h0l-275.042-158.797" opacity=".483" transform="matrix(-1 0 0 1 2847.606 0)"/>
                            <path stroke="url(#prefix__l)" d="M1332.225 511.019l81.984-47.334c6.844-3.951 15.276-3.951 22.12 0l247.395 142.835c5.29 3.054 7.102 9.819 4.048 15.109-.97 1.681-2.367 3.077-4.048 4.048l-338.997 195.722c-5.29 3.054-7.102 9.818-4.048 15.108.97 1.682 2.367 3.078 4.048 4.049l247.391 142.831c6.844 3.952 15.277 3.952 22.121 0l163.968-94.666c6.844-3.952 15.276-3.952 22.12 0l245.985 142.02c5.74 3.314 7.706 10.653 4.392 16.393-1.053 1.824-2.568 3.339-4.392 4.392l-337.587 194.905c-5.29 3.054-7.102 9.819-4.048 15.109.97 1.681 2.367 3.077 4.048 4.048l247.394 142.834c6.844 3.952 15.277 3.952 22.12 0l355.117-205.028c3.713-2.144 8.287-2.144 12 0l269.045 155.334h0l-93.044 53.72 241.86 139.64c10.581 6.11 14.206 19.638 8.097 30.218-1.941 3.363-4.734 6.155-8.096 8.097l-432.04 249.44h0l-275.043-158.797" opacity=".483" transform="matrix(-1 0 0 1 2847.606 0) matrix(-1 0 0 1 4124.535 0)"/>
                            <path stroke="url(#prefix__m)" d="M0 1271.712l215.873-124.591c6.842-3.95 15.272-3.95 22.115 0l530.065 305.93h0l226.93-130.973-740.975-427.662c-5.29-3.053-7.104-9.818-4.05-15.108.97-1.683 2.367-3.08 4.05-4.05l199.27-115.013c6.844-3.95 15.273-3.95 22.116 0l524.086 302.48c3.703 2.138 8.264 2.138 11.967 0l204.345-117.94c5.29-3.054 7.104-9.818 4.05-15.109-.97-1.682-2.367-3.079-4.05-4.05L816.091 694.933c-5.29-3.054-7.104-9.818-4.05-15.109.97-1.682 2.368-3.079 4.05-4.05l193.735-111.815c5.29-3.054 7.104-9.818 4.05-15.108-.97-1.683-2.367-3.08-4.05-4.051l-75.032-43.305c-5.29-3.054-7.104-9.818-4.05-15.108.97-1.683 2.368-3.08 4.05-4.05l204.978-118.304c3.421-1.974 7.636-1.974 11.057 0l860.267 496.51h0" transform="matrix(-1 0 0 1 2847.606 0)"/>
                            <path stroke="url(#prefix__n)" d="M2220.909 964.412L1885.37 770.305c-5.287-3.059-7.094-9.825-4.035-15.112.969-1.675 2.36-3.067 4.035-4.036l334.63-193.587c5.737-3.319 7.697-10.66 4.378-16.396-1.05-1.817-2.56-3.327-4.378-4.378l-493.627-285.564c-5.288-3.059-7.094-9.825-4.035-15.112.969-1.675 2.36-3.067 4.035-4.036l168.016-97.198h0" transform="matrix(-1 0 0 1 2847.606 0) rotate(180 1973.89 549.649)"/>
                        </g>
                        <g stroke-width="2.765">
                            <path stroke="url(#prefix__j)" d="M302.29 1109.959L560.217 961.07c3.703-2.138 8.265-2.138 11.969 0l688.534 397.46h0l247.318-142.765c5.29-3.054 7.103-9.818 4.05-15.108-.971-1.682-2.368-3.079-4.05-4.05L963.824 882.456c-5.725-3.305-7.688-10.626-4.382-16.351 1.05-1.82 2.562-3.332 4.382-4.383l240.42-138.783c3.422-1.976 7.637-1.976 11.059 0l567.253 327.451c3.703 2.138 8.265 2.138 11.968 0l241.334-139.313c5.29-3.053 7.104-9.818 4.05-15.108-.971-1.682-2.368-3.079-4.05-4.05l-312.706-180.51c-5.726-3.305-7.688-10.626-4.383-16.351 1.051-1.82 2.562-3.332 4.383-4.383l227.99-131.612c5.726-3.305 7.688-10.626 4.383-16.351-1.05-1.82-2.562-3.332-4.382-4.383L1639.8 358.606c-5.725-3.305-7.687-10.625-4.382-16.35 1.05-1.821 2.562-3.333 4.382-4.383l234.895-135.592c6.843-3.95 15.274-3.95 22.117 0l683.46 394.529h0l263.908-152.342-231.503-133.638 263.908-152.346" transform="translate(141.172 204.264)"/>
                            <path stroke="url(#prefix__l)" d="M800.383 53.719l81.984-47.333c6.844-3.952 15.276-3.952 22.12 0l247.394 142.834c5.29 3.054 7.103 9.819 4.048 15.109-.97 1.681-2.366 3.077-4.048 4.048L812.885 364.1c-5.29 3.054-7.103 9.818-4.048 15.109.97 1.68 2.367 3.077 4.048 4.048l247.39 142.831c6.845 3.952 15.277 3.952 22.122 0l169.043-97.596c3.703-2.139 8.266-2.139 11.97 0l251.104 144.977c5.725 3.305 7.687 10.626 4.382 16.351-1.051 1.82-2.562 3.33-4.382 4.381l-337.631 194.931c-5.29 3.054-7.103 9.819-4.049 15.109.971 1.681 2.367 3.078 4.049 4.048l247.393 142.835c6.845 3.951 15.277 3.951 22.121 0l350.056-202.107c6.845-3.952 15.277-3.952 22.121 0l263.984 152.412h0l-75.089 43.353c-5.725 3.306-7.687 10.626-4.381 16.352 1.05 1.82 2.561 3.33 4.381 4.38l223.906 129.276c10.58 6.109 14.206 19.637 8.097 30.217-1.942 3.363-4.734 6.156-8.097 8.097l-432.04 249.44h0l-275.042-158.797" opacity=".483" transform="translate(141.172 204.264)"/>
                            <path stroke="url(#prefix__l)" d="M1332.225 568.899l81.984-47.333c6.844-3.952 15.276-3.952 22.12 0L1683.725 664.4c5.29 3.054 7.102 9.819 4.048 15.109-.97 1.681-2.367 3.078-4.048 4.048L1344.727 879.28c-5.29 3.054-7.102 9.818-4.048 15.109.97 1.68 2.367 3.077 4.048 4.048l247.391 142.831c6.844 3.952 15.277 3.952 22.121 0l163.968-94.666c6.844-3.951 15.276-3.951 22.12 0l263.985 152.413h0l-355.587 205.297c-5.29 3.054-7.102 9.819-4.048 15.109.97 1.681 2.367 3.078 4.048 4.048l247.394 142.835c6.844 3.951 15.277 3.951 22.12 0l350.057-202.107c6.844-3.952 15.276-3.952 22.12 0l263.985 152.412h0l-93.044 53.72 241.86 139.641c10.581 6.109 14.206 19.637 8.097 30.218-1.941 3.362-4.734 6.155-8.096 8.096l-432.04 249.44h0l-275.043-158.797" opacity=".483" transform="translate(141.172 204.264) matrix(-1 0 0 1 4124.535 0)"/>
                            <path stroke="url(#prefix__m)" d="M0 1329.592l215.873-124.591c6.842-3.95 15.272-3.95 22.115 0l530.065 305.931h0l226.93-130.974-740.975-427.662c-5.29-3.053-7.104-9.817-4.05-15.108.97-1.682 2.367-3.08 4.05-4.05l199.27-115.013c6.844-3.95 15.273-3.95 22.116 0l530.07 305.934h0l210.328-121.394c5.29-3.054 7.104-9.818 4.05-15.108-.97-1.683-2.367-3.08-4.05-4.05L816.091 752.812c-5.29-3.054-7.104-9.818-4.05-15.108.97-1.683 2.368-3.08 4.05-4.05l193.735-111.816c5.29-3.053 7.104-9.818 4.05-15.108-.97-1.683-2.367-3.08-4.05-4.05l-75.032-43.306c-5.29-3.053-7.104-9.818-4.05-15.108.97-1.683 2.368-3.08 4.05-4.05l204.978-118.303c3.421-1.975 7.636-1.975 11.057 0l860.267 496.509h0" transform="translate(141.172 204.264)"/>
                        </g>
                        <use fill="#000" filter="url(#prefix__o)" xlink:href="#prefix__p"/>
                        <use fill="#24A1C1" xlink:href="#prefix__p"/>
                        <use fill="#000" filter="url(#prefix__q)" xlink:href="#prefix__r"/>
                        <use fill="#24A1C1" xlink:href="#prefix__r"/>
                        <use fill="#000" filter="url(#prefix__s)" xlink:href="#prefix__t"/>
                        <use fill="#24A1C1" xlink:href="#prefix__t"/>
                        <g>
                            <use fill="#000" filter="url(#prefix__u)" xlink:href="#prefix__v"/>
                            <use fill="#24A1C1" xlink:href="#prefix__v"/>
                        </g>
                        <g>
                            <use fill="#000" filter="url(#prefix__w)" xlink:href="#prefix__x"/>
                            <use fill="#24A1C1" xlink:href="#prefix__x"/>
                        </g>
                        <g>
                            <use fill="#000" filter="url(#prefix__y)" xlink:href="#prefix__z"/>
                            <use fill="#24A1C1" xlink:href="#prefix__z"/>
                        </g>
                    </g>
                </g>
            </g>
            <path fill="url(#prefix__A)" opacity=".418" style="mix-blend-mode:overlay" d="M0 0H1436.409V807.98H0z" mask="url(#prefix__f)"/>
        </g>
    </g>
</svg>
