<svg xmlns="http://www.w3.org/2000/svg" xmlns:xlink="http://www.w3.org/1999/xlink" width="1440" height="464" viewBox="0 0 1440 464">
    <defs>
        <linearGradient id="prefix__d" x1="-44.408%" x2="100%" y1="6.487%" y2="73.336%">
            <stop offset="0%" stop-color="#081537"/>
            <stop offset="100%" stop-color="#14388E"/>
        </linearGradient>
        <linearGradient id="prefix__e" x1="-38.234%" x2="106.55%" y1="87.164%" y2="18.209%">
            <stop offset="0%" stop-color="#7898E5"/>
            <stop offset="100%" stop-color="#4B76DD"/>
        </linearGradient>
        <linearGradient id="prefix__i" x1="100%" x2="16.416%" y1="33.015%" y2="56.936%">
            <stop offset="0%" stop-color="#557BD7"/>
            <stop offset="100%" stop-color="#1643AF"/>
        </linearGradient>
        <linearGradient id="prefix__h" x1="46.672%" x2="46.672%" y1="100%" y2="34.88%">
            <stop offset="0%" stop-color="#FFF" stop-opacity=".158"/>
            <stop offset="100%" stop-color="#FFF" stop-opacity="0"/>
        </linearGradient>
        <linearGradient id="prefix__n" x1="69.185%" x2="21.574%" y1="40.486%" y2="56.712%">
            <stop offset="0%" stop-color="#A4BFFF"/>
            <stop offset="100%" stop-color="#638AE7"/>
        </linearGradient>
        <linearGradient id="prefix__o" x1="33.261%" x2="66.739%" y1="19.969%" y2="83.989%">
            <stop offset="0%" stop-color="#8CD9ED"/>
            <stop offset="100%" stop-color="#6CBACE"/>
        </linearGradient>
        <linearGradient id="prefix__p" x1="74.268%" x2="39.604%" y1="67.667%" y2="34.637%">
            <stop offset="0%" stop-color="#004557"/>
            <stop offset="100%" stop-color="#097692"/>
        </linearGradient>
        <linearGradient id="prefix__q" x1="88.697%" x2="10.887%" y1="58.551%" y2="36.669%">
            <stop offset="0%" stop-color="#24A1C1"/>
            <stop offset="100%" stop-color="#7BC6D9"/>
        </linearGradient>
        <linearGradient id="prefix__r" x1="51.688%" x2="60.865%" y1="5.202%" y2="70.795%">
            <stop offset="0%" stop-color="#004557" stop-opacity="0"/>
            <stop offset="33.193%" stop-color="#045A71" stop-opacity=".364"/>
            <stop offset="62.342%" stop-color="#056077" stop-opacity=".456"/>
            <stop offset="100%" stop-color="#097692" stop-opacity="0"/>
        </linearGradient>
        <linearGradient id="prefix__s" x1="48.693%" x2="43.768%" y1="40.674%" y2="71.254%">
            <stop offset="0%" stop-color="#8CD9ED"/>
            <stop offset="100%" stop-color="#6CBACE" stop-opacity="0"/>
        </linearGradient>
        <linearGradient id="prefix__t" x1="-44.408%" x2="100%" y1="6.487%" y2="73.336%">
            <stop offset="0%" stop-color="#081537"/>
            <stop offset="100%" stop-color="#14388E"/>
        </linearGradient>
        <linearGradient id="prefix__u" x1="-38.234%" x2="106.55%" y1="87.164%" y2="18.209%">
            <stop offset="0%" stop-color="#7898E5"/>
            <stop offset="100%" stop-color="#4B76DD"/>
        </linearGradient>
        <linearGradient id="prefix__y" x1="100%" x2="16.416%" y1="33.015%" y2="56.936%">
            <stop offset="0%" stop-color="#557BD7"/>
            <stop offset="100%" stop-color="#1643AF"/>
        </linearGradient>
        <linearGradient id="prefix__x" x1="46.672%" x2="46.672%" y1="100%" y2="34.88%">
            <stop offset="0%" stop-color="#FFF" stop-opacity=".158"/>
            <stop offset="100%" stop-color="#FFF" stop-opacity="0"/>
        </linearGradient>
        <linearGradient id="prefix__H" x1="69.185%" x2="21.574%" y1="40.486%" y2="56.712%">
            <stop offset="0%" stop-color="#A4BFFF"/>
            <stop offset="100%" stop-color="#638AE7"/>
        </linearGradient>
        <linearGradient id="prefix__I" x1="33.261%" x2="66.739%" y1="19.969%" y2="83.989%">
            <stop offset="0%" stop-color="#8CD9ED"/>
            <stop offset="100%" stop-color="#6CBACE"/>
        </linearGradient>
        <linearGradient id="prefix__J" x1="74.268%" x2="39.604%" y1="67.667%" y2="34.637%">
            <stop offset="0%" stop-color="#004557"/>
            <stop offset="100%" stop-color="#097692"/>
        </linearGradient>
        <linearGradient id="prefix__K" x1="88.697%" x2="10.887%" y1="58.551%" y2="36.669%">
            <stop offset="0%" stop-color="#24A1C1"/>
            <stop offset="100%" stop-color="#7BC6D9"/>
        </linearGradient>
        <linearGradient id="prefix__L" x1="51.688%" x2="60.865%" y1="5.202%" y2="70.795%">
            <stop offset="0%" stop-color="#004557" stop-opacity="0"/>
            <stop offset="33.193%" stop-color="#045A71" stop-opacity=".364"/>
            <stop offset="62.342%" stop-color="#056077" stop-opacity=".456"/>
            <stop offset="100%" stop-color="#097692" stop-opacity="0"/>
        </linearGradient>
        <linearGradient id="prefix__M" x1="48.693%" x2="43.768%" y1="40.674%" y2="71.254%">
            <stop offset="0%" stop-color="#8CD9ED"/>
            <stop offset="100%" stop-color="#6CBACE" stop-opacity="0"/>
        </linearGradient>
        <linearGradient id="prefix__O" x1="33.258%" x2="87.537%" y1="33.293%" y2="62.17%">
            <stop offset="0%" stop-color="#5988FF"/>
            <stop offset="100%" stop-color="#1E54D5"/>
        </linearGradient>
        <linearGradient id="prefix__N" x1="52.347%" x2="60.413%" y1="35.487%" y2="56.264%">
            <stop offset="0%" stop-color="#FFF" stop-opacity=".212"/>
            <stop offset="100%" stop-color="#FFF" stop-opacity="0"/>
        </linearGradient>
        <path id="prefix__a" d="M0 0H1440V464H0z"/>
        <path id="prefix__g" d="M145.263 206.538c0-1.407-.866-3.045-1.932-3.654l-62.515-35.751c-1.066-.61-1.932.038-1.932 1.446v5.1c0 1.408.866 3.046 1.932 3.655l62.515 35.751c1.066.61 1.932-.038 1.932-1.446v-5.1z"/>
        <path id="prefix__k" d="M145.263 206.538c0-1.407-.866-3.045-1.932-3.654l-62.515-35.751c-1.066-.61-1.932.038-1.932 1.446v5.1c0 1.408.866 3.046 1.932 3.655l62.515 35.751c1.066.61 1.932-.038 1.932-1.446v-5.1z"/>
        <path id="prefix__m" d="M145.263 206.538c0-1.407-.866-3.045-1.932-3.654l-62.515-35.751c-1.066-.61-1.932.038-1.932 1.446v5.1c0 1.408.866 3.046 1.932 3.655l62.515 35.751c1.066.61 1.932-.038 1.932-1.446v-5.1z"/>
        <path id="prefix__w" d="M292.962 147.264c2.997 1.71 5.43 6.304 5.43 10.253 0 3.95-2.433 5.767-5.43 4.057s-5.43-6.305-5.43-10.254 2.433-5.766 5.43-4.056zm20.224 11.54c2.997 1.71 5.43 6.304 5.43 10.253s-2.433 5.767-5.43 4.057-5.43-6.305-5.43-10.254 2.433-5.767 5.43-4.057zm20.223 11.539c2.997 1.71 5.43 6.304 5.43 10.253 0 3.95-2.433 5.767-5.43 4.057-2.996-1.71-5.43-6.304-5.43-10.253 0-3.95 2.434-5.767 5.43-4.057z"/>
        <path id="prefix__A" d="M161.403 229.487c0-1.564-.962-3.384-2.146-4.06l-69.462-39.724c-1.184-.677-2.146.043-2.146 1.607v5.667c0 1.564.962 3.384 2.146 4.061l69.462 39.723c1.184.678 2.146-.042 2.146-1.606v-5.668z"/>
        <path id="prefix__C" d="M292.962 147.264c2.997 1.71 5.43 6.304 5.43 10.253 0 3.95-2.433 5.767-5.43 4.057s-5.43-6.305-5.43-10.254 2.433-5.766 5.43-4.056zm20.224 11.54c2.997 1.71 5.43 6.304 5.43 10.253s-2.433 5.767-5.43 4.057-5.43-6.305-5.43-10.254 2.433-5.767 5.43-4.057zm20.223 11.539c2.997 1.71 5.43 6.304 5.43 10.253 0 3.95-2.433 5.767-5.43 4.057-2.996-1.71-5.43-6.304-5.43-10.253 0-3.95 2.434-5.767 5.43-4.057z"/>
        <path id="prefix__E" d="M161.403 229.487c0-1.564-.962-3.384-2.146-4.06l-69.462-39.724c-1.184-.677-2.146.043-2.146 1.607v5.667c0 1.564.962 3.384 2.146 4.061l69.462 39.723c1.184.678 2.146-.042 2.146-1.606v-5.668z"/>
        <path id="prefix__G" d="M292.962 147.264c2.997 1.71 5.43 6.304 5.43 10.253 0 3.95-2.433 5.767-5.43 4.057s-5.43-6.305-5.43-10.254 2.433-5.766 5.43-4.056zm20.224 11.54c2.997 1.71 5.43 6.304 5.43 10.253s-2.433 5.767-5.43 4.057-5.43-6.305-5.43-10.254 2.433-5.767 5.43-4.057zm20.223 11.539c2.997 1.71 5.43 6.304 5.43 10.253 0 3.95-2.433 5.767-5.43 4.057-2.996-1.71-5.43-6.304-5.43-10.253 0-3.95 2.434-5.767 5.43-4.057z"/>
        <filter id="prefix__f" width="107.5%" height="121.5%" x="-3.8%" y="-5.4%" filterUnits="objectBoundingBox">
            <feOffset dy="5" in="SourceAlpha" result="shadowOffsetOuter1"/>
            <feColorMatrix in="shadowOffsetOuter1" values="0 0 0 0 1 0 0 0 0 1 0 0 0 0 1 0 0 0 0.135134397 0"/>
        </filter>
        <filter id="prefix__j" width="107.5%" height="121.5%" x="-3.8%" y="-5.4%" filterUnits="objectBoundingBox">
            <feOffset dy="5" in="SourceAlpha" result="shadowOffsetOuter1"/>
            <feColorMatrix in="shadowOffsetOuter1" values="0 0 0 0 1 0 0 0 0 1 0 0 0 0 1 0 0 0 0.135134397 0"/>
        </filter>
        <filter id="prefix__l" width="107.5%" height="121.5%" x="-3.8%" y="-5.4%" filterUnits="objectBoundingBox">
            <feOffset dy="5" in="SourceAlpha" result="shadowOffsetOuter1"/>
            <feColorMatrix in="shadowOffsetOuter1" values="0 0 0 0 1 0 0 0 0 1 0 0 0 0 1 0 0 0 0.135134397 0"/>
        </filter>
        <filter id="prefix__v" width="111.7%" height="131%" x="-5.8%" y="-7.8%" filterUnits="objectBoundingBox">
            <feOffset dy="6" in="SourceAlpha" result="shadowOffsetOuter1"/>
            <feColorMatrix in="shadowOffsetOuter1" values="0 0 0 0 1 0 0 0 0 1 0 0 0 0 1 0 0 0 0.140406469 0"/>
        </filter>
        <filter id="prefix__z" width="108.1%" height="123.3%" x="-4.1%" y="-5.8%" filterUnits="objectBoundingBox">
            <feOffset dy="6" in="SourceAlpha" result="shadowOffsetOuter1"/>
            <feColorMatrix in="shadowOffsetOuter1" values="0 0 0 0 1 0 0 0 0 1 0 0 0 0 1 0 0 0 0.135134397 0"/>
        </filter>
        <filter id="prefix__B" width="111.7%" height="131%" x="-5.8%" y="-7.8%" filterUnits="objectBoundingBox">
            <feOffset dy="6" in="SourceAlpha" result="shadowOffsetOuter1"/>
            <feColorMatrix in="shadowOffsetOuter1" values="0 0 0 0 1 0 0 0 0 1 0 0 0 0 1 0 0 0 0.140406469 0"/>
        </filter>
        <filter id="prefix__D" width="108.1%" height="123.3%" x="-4.1%" y="-5.8%" filterUnits="objectBoundingBox">
            <feOffset dy="6" in="SourceAlpha" result="shadowOffsetOuter1"/>
            <feColorMatrix in="shadowOffsetOuter1" values="0 0 0 0 1 0 0 0 0 1 0 0 0 0 1 0 0 0 0.135134397 0"/>
        </filter>
        <filter id="prefix__F" width="111.7%" height="131%" x="-5.8%" y="-7.8%" filterUnits="objectBoundingBox">
            <feOffset dy="6" in="SourceAlpha" result="shadowOffsetOuter1"/>
            <feColorMatrix in="shadowOffsetOuter1" values="0 0 0 0 1 0 0 0 0 1 0 0 0 0 1 0 0 0 0.140406469 0"/>
        </filter>
        <radialGradient id="prefix__b" cx="50%" cy="92.706%" r="111.51%" fx="50%" fy="92.706%" gradientTransform="matrix(0 -1 .6816 0 -.132 1.427)">
            <stop offset="0%" stop-color="#0C1E4E"/>
            <stop offset="100%" stop-color="#06102A"/>
        </radialGradient>
    </defs>
    <g fill="none" fill-rule="evenodd">
        <mask id="prefix__c" fill="#fff">
            <use xlink:href="#prefix__a"/>
        </mask>
        <use fill="url(#prefix__b)" transform="matrix(1 0 0 -1 0 464)" xlink:href="#prefix__a"/>
        <g mask="url(#prefix__c)" opacity=".124">
            <g>
                <g transform="translate(-199 -355) matrix(-1 0 0 1 405.319 355.125)">
                    <path fill="url(#prefix__d)" d="M162.579 188.903L0 93.967 0 150.697 162.579 245.633z"/>
                    <path fill="url(#prefix__e)" d="M162.579 189.931L325.157 95.415 325.157 151.116 162.579 245.633z"/>
                    <use fill="#000" filter="url(#prefix__f)" xlink:href="#prefix__g"/>
                    <use fill="#091D4F" xlink:href="#prefix__g"/>
                    <path fill="url(#prefix__i)" stroke="url(#prefix__h)" stroke-width="3.038" d="M162.011 2.177L3.016 94.845l160.13 93.328 158.995-92.666-160.13-93.33z"/>
                </g>
                <g transform="translate(-199 -355) matrix(-1 0 0 1 405.319 274.125)">
                    <path fill="url(#prefix__d)" d="M162.579 188.903L0 93.967 0 150.697 162.579 245.633z"/>
                    <path fill="url(#prefix__e)" d="M162.579 189.931L325.157 95.415 325.157 151.116 162.579 245.633z"/>
                    <use fill="#000" filter="url(#prefix__j)" xlink:href="#prefix__k"/>
                    <use fill="#091D4F" xlink:href="#prefix__k"/>
                    <path fill="url(#prefix__i)" stroke="url(#prefix__h)" stroke-width="3.038" d="M162.011 2.177L3.016 94.845l160.13 93.328 158.995-92.666-160.13-93.33z"/>
                </g>
                <g transform="translate(-199 -355) matrix(-1 0 0 1 405.319 193.125)">
                    <path fill="url(#prefix__d)" d="M162.579 188.903L0 93.967 0 150.697 162.579 245.633z"/>
                    <path fill="url(#prefix__e)" d="M162.579 189.931L325.157 95.415 325.157 151.116 162.579 245.633z"/>
                    <use fill="#000" filter="url(#prefix__l)" xlink:href="#prefix__m"/>
                    <use fill="#24A1C1" xlink:href="#prefix__m"/>
                    <path fill="url(#prefix__n)" stroke="url(#prefix__h)" stroke-width="3.038" d="M162.011 2.177L3.016 94.845l160.13 93.328 158.995-92.666-160.13-93.33z"/>
                </g>
                <g>
                    <path fill="url(#prefix__o)" d="M240.707 277.903L0.137 140.339 0.137 419.723 240.707 556.113z" opacity=".187" transform="translate(-199 -355) translate(0 102.6)"/>
                    <path fill="url(#prefix__p)" d="M480.332 140.827L240.707 277.922 240.707 556.113 480.332 420.511z" opacity=".157" transform="translate(-199 -355) translate(0 102.6)"/>
                    <path fill="url(#prefix__q)" d="M239.818 0.038L0.137 140.339 240.65 281.128 480.332 140.827z" opacity=".222" transform="translate(-199 -355) translate(0 102.6)"/>
                </g>
                <path fill="url(#prefix__r)" d="M480.332 0.427L240.707 137.522 240.707 847.713 480.332 712.111z" opacity=".43" transform="translate(-199 -355)"/>
                <path fill="url(#prefix__s)" d="M240.707 380.503L0.137 242.939 0.137 711.323 240.707 847.713z" opacity=".142" transform="translate(-199 -355)"/>
            </g>
        </g>
        <g mask="url(#prefix__c)" opacity=".099">
            <g>
                <g>
                    <path fill="url(#prefix__t)" d="M180.643 209.892L0 104.408 0 167.441 180.643 272.925z" transform="translate(58 -101) matrix(-1 0 0 1 450.688 394.25)"/>
                    <path fill="url(#prefix__u)" d="M180.643 211.034L361.286 106.017 361.286 167.907 180.643 272.925z" transform="translate(58 -101) matrix(-1 0 0 1 450.688 394.25)"/>
                    <g transform="translate(58 -101) matrix(-1 0 0 1 450.688 394.25) matrix(-1 0 0 1 626.372 0)">
                        <use fill="#000" filter="url(#prefix__v)" xlink:href="#prefix__w"/>
                        <use fill="#3359B4" xlink:href="#prefix__w"/>
                    </g>
                    <path fill="url(#prefix__y)" stroke="url(#prefix__x)" stroke-width="3.375" d="M180.012 2.419L3.352 105.383l177.922 103.698 176.66-102.962-177.922-103.7z" transform="translate(58 -101) matrix(-1 0 0 1 450.688 394.25)"/>
                </g>
                <g transform="translate(58 -101) matrix(-1 0 0 1 450.688 304.25)">
                    <path fill="url(#prefix__t)" d="M180.643 209.892L0 104.408 0 167.441 180.643 272.925z"/>
                    <path fill="url(#prefix__u)" d="M180.643 211.034L361.286 106.017 361.286 167.907 180.643 272.925z"/>
                    <use fill="#000" filter="url(#prefix__z)" xlink:href="#prefix__A"/>
                    <use fill="#091D4F" xlink:href="#prefix__A"/>
                    <g transform="matrix(-1 0 0 1 626.372 0)">
                        <use fill="#000" filter="url(#prefix__B)" xlink:href="#prefix__C"/>
                        <use fill="#3359B4" xlink:href="#prefix__C"/>
                    </g>
                    <path fill="url(#prefix__y)" stroke="url(#prefix__x)" stroke-width="3.375" d="M180.012 2.419L3.352 105.383l177.922 103.698 176.66-102.962-177.922-103.7z"/>
                </g>
                <g transform="translate(58 -101) matrix(-1 0 0 1 450.688 214.25)">
                    <path fill="url(#prefix__t)" d="M180.643 209.892L0 104.408 0 167.441 180.643 272.925z"/>
                    <path fill="url(#prefix__u)" d="M180.643 211.034L361.286 106.017 361.286 167.907 180.643 272.925z"/>
                    <use fill="#000" filter="url(#prefix__D)" xlink:href="#prefix__E"/>
                    <use fill="#24A1C1" xlink:href="#prefix__E"/>
                    <g transform="matrix(-1 0 0 1 626.372 0)">
                        <use fill="#000" filter="url(#prefix__F)" xlink:href="#prefix__G"/>
                        <use fill="#67519E" xlink:href="#prefix__G"/>
                    </g>
                    <path fill="url(#prefix__H)" stroke="url(#prefix__x)" stroke-width="3.375" d="M180.012 2.419L3.352 105.383l177.922 103.698 176.66-102.962-177.922-103.7z"/>
                </g>
                <g>
                    <path fill="url(#prefix__I)" d="M267.785 309.447L0.485 156.599 0.485 467.026 267.785 618.57z" opacity=".187" transform="translate(58 -101) translate(0 113)"/>
                    <path fill="url(#prefix__J)" d="M534.036 157.141L267.785 309.469 267.785 618.57 534.036 467.901z" opacity=".157" transform="translate(58 -101) translate(0 113)"/>
                    <path fill="url(#prefix__K)" d="M266.798 0.709L0.485 156.599 267.722 313.031 534.036 157.141z" opacity=".222" transform="translate(58 -101) translate(0 113)"/>
                </g>
                <path fill="url(#prefix__L)" d="M534.036 0.141L267.785 152.469 267.785 941.57 534.036 790.901z" opacity=".43" transform="translate(58 -101)"/>
                <path fill="url(#prefix__M)" d="M267.785 422.447L0.485 269.599 0.485 790.026 267.785 941.57z" opacity=".142" transform="translate(58 -101)"/>
            </g>
        </g>
        <g mask="url(#prefix__c)" opacity=".071">
            <g>
                <path fill="#110325" d="M120.71 266.256c-9.013 5.202-15.547 11.835-19.669 19.365L3.824 480.207c-7.75 15.345-2.423 32.295 14.592 47.073l215.408 186.302c17.016 14.778 43.107 24.888 72.465 27.963l365.721 37.73c28.431 3.037 55.44-1.685 73.89-12.338l240.726-138.983c18.453-10.653 26.631-26.245 21.372-42.66l-65.352-211.149c-4.83-16.665-22.836-32.016-48.432-41.838L571.528 207.939c-25.599-9.822-54.954-12.897-81.534-8.424L153.82 255.15c-12.612 2.13-24.099 5.904-33.11 11.106z" opacity=".339" transform="rotate(-6 1.646 -7203.59)"/>
                <path fill="#110325" d="M125.216 166.665c-9.012 5.202-15.546 11.835-19.668 19.365L8.331 380.616c-7.75 15.345-2.423 32.295 14.592 47.073L238.33 613.991c17.016 14.778 43.107 24.888 72.465 27.963l365.721 37.73c28.431 3.038 55.44-1.685 73.89-12.337l240.726-138.984c18.453-10.653 26.631-26.245 21.372-42.66l-65.352-211.149c-4.83-16.665-22.836-32.016-48.432-41.838L576.035 108.348c-25.599-9.822-54.954-12.897-81.534-8.424L158.327 155.56c-12.612 2.13-24.099 5.904-33.11 11.106z" opacity=".413" transform="rotate(-6 1.646 -7203.59)"/>
                <path fill="url(#prefix__O)" stroke="url(#prefix__N)" stroke-width="2.661" d="M579.134 17.692c-21.057-8.233-45.473-10.557-67.335-6.997l-336.54 56.416c-10.654 1.649-20.205 4.902-27.803 9.288-7.46 4.308-13.035 9.697-15.834 15.742L34.397 286.74c-2.987 6.116-3.485 12.592-1.485 19.007 2.002 6.425 6.485 12.771 13.398 18.664l215.426 186.318c13.8 12.376 35.74 20.591 59.67 23.156l365.717 37.73c23.922 2.563 46.152-1.193 61.403-9.997l241.516-140.01c7.398-4.272 12.613-9.564 15.498-15.448 2.888-5.889 3.42-12.36 1.502-18.93l-65.344-211.133c-4.41-13.706-19.1-25.912-39.886-34.039L579.134 17.692z" transform="rotate(-6 1.646 -7203.59)"/>
                <path fill="#FFF" d="M158.749 82.648c6.006-3.468 13.5-6.078 22.05-7.584l336.537-56.415c17.598-2.721 38.073-.81 54.522 5.712l322.686 124.368c17.37 6.561 29.232 16.878 32.475 28.164l65.349 211.149c3.675 11.039-1.899 21.695-14.343 28.88L737.299 555.903c-12.444 7.185-30.9 10.403-50.022 8.282l-365.721-37.73c-19.119-2.12-36.987-8.967-48.783-18.75L57.364 321.403C46 311.374 42.26 299.8 47.471 289.927l97.217-194.586c3.102-4.65 8.052-9.225 14.061-12.693zM135.46 69.202c-9.012 5.202-15.546 11.835-19.668 19.365L18.574 283.153c-7.75 15.345-2.423 32.295 14.592 47.073l215.409 186.302c17.016 14.778 43.107 24.887 72.465 27.963l365.721 37.73c28.431 3.037 55.44-1.685 73.89-12.338L1001.377 430.9c18.453-10.653 26.631-26.245 21.372-42.66l-65.352-211.149c-4.83-16.665-22.836-32.016-48.432-41.838L586.279 10.885c-25.599-9.822-54.954-12.897-81.534-8.424L168.571 58.096c-12.612 2.13-24.099 5.904-33.111 11.106z" transform="rotate(-6 1.646 -7203.59)"/>
                <path fill="#FFF" d="M780.121 190.186l-.429.249c-.429.249-.858.495-1.353.21-.858.495-2.211.705-3.069 1.2-3.501 1.449-6.57 2.649-9.144 4.134-1.287.744-2.577 1.488-4.788 2.193l-.429.246c-10.002 4.632-18.288 8.271-27.63 10.803-4.491.876-7.332.228-10.17-.42-.495-.285-.924-.039-1.422-.324l-7.56 2.076c-20.217-14.646-44.859-27.882-72.867-38.601-28.008-10.722-57.96-18.6-88.938-23.601l-.168-5.052-.99-.573c-2.478-1.431-4.527-3.108-5.286-5.529-.303-6.12 1.674-12.411 3.948-20.016.297-1.317 1.089-2.346 1.386-3.66 1.086-2.346 1.746-4.443 2.34-7.074-.069-.534.294-1.314.162-2.382-.066-.534.363-.783-.132-1.068.06-6.9-8.562-13.365-19.293-14.607-5.613-.765-11.457.321-15.321 2.55-3.432 1.983-4.95 4.575-5.475 7.74l.132 1.068c-.363.78.198 1.602-.162 2.382.33 2.67.597 4.806 1.356 7.227.135 1.065.762 2.421.465 3.735 1.425 7.761 1.794 14.412.675 20.208-.297 1.317-1.089 2.346-2.376 3.09-.858.495-1.716.99-3.072 1.2l-.858.495-1.185 5.262c-12.513-.786-24.468-.75-36.42-.714-49.035 1.419-94.728 11.208-130.809 28.035l-6.87-3.471-1.848-.078c-2.775-.114-5.976.018-9.876-1.737-8.355-4.329-16.416-9.975-25.467-16.191l-.495-.285c-1.488-.858-3.039-2.25-4.098-3.357-2.544-1.965-5.088-3.927-8.127-6.177L280 136.795c-8.919-5.148-22.359-5.97-29.655-1.758-3.432 1.98-4.884 5.106-4.485 8.31.399 3.204 3.075 6.234 7.536 8.808l3.963 2.289c3.468 2.004 6.87 3.471 10.701 4.692 1.917.612 3.402 1.47 5.814 2.367l.495.285c10.767 5.226 20.973 9.633 28.044 14.703 3.039 2.253 2.808 4.101 3.009 5.703l.132 1.068 6.012 3.966c-6.732 5.031-13.467 10.062-19.209 15.666-24.618 23.94-34.473 51.942-29.466 81.093l-7.761.474-.858.495c-.858.498-1.221 1.278-2.079 1.773-1.287.744-3.069 1.2-5.349 1.371-10.038.648-22.056.15-35.496-.675-1.848-.075-4.194-.438-6.471-.267-4.194-.438-7.893-.594-12.516-.783-.924-.039-2.277.171-4.128.093-.924-.039-1.353.21-1.848-.078-5.052.057-9.972 1.182-13.404 3.162-3.864 2.232-5.742 5.604-4.419 8.847 2.148 6.195 13.347 11.172 25.299 11.139.429-.249.924.036 1.353-.21 1.356-.21 2.775.114 4.128-.096 4.557-.342 8.19-.723 12.249-1.35 1.785-.456 4.062-.627 6.342-.798 13.173-1.314 24.069-2.454 34.668-2.283 4.623.192 7.101 1.623 9.579 3.054l.99.573 8.751.096c.627 1.353.759 2.421 1.818 3.528 17.688 34.986 55.614 66.297 106.779 89.395l-3.597 4.365c.495.286.066.534.561.82 1.125 1.64 1.818 3.527.729 5.871-3.957 5.147-10.692 10.179-18.711 15.953l-.429.248c-1.287.743-3.003 1.734-3.795 2.763-2.574 1.487-4.653 3.26-7.161 5.28-.861.495-1.221 1.276-2.082 1.772-.429.248-.858.496-.789 1.03-5.742 5.603-2.04 13.191 7.176 17.025 8.223 3.262 18.261 2.616 25.125-1.348 1.29-.743 2.148-1.239 2.94-2.268.429-.248.858-.496.36-.781.861-.496 1.221-1.278 2.079-1.773 2.013-2.306 3.168-4.117 4.257-6.462.792-1.03 1.089-2.345 1.881-3.374l.429-.248c4.683-6.71 9.006-12.637 14.88-17.173l.858-.496c2.574-1.486 5.778-1.619 8.055-1.79.429-.248.927.038 1.356-.21l5.016-4.04c46.962 15.223 99.405 22.708 149.361 21.327 11.46-.322 21.927-1.216 32.823-2.357l3.864 5.205c.498.286.927.038 1.422.325 2.841.648 6.174 1.583 8.787 4.081 4.857 5.777 8.427 12.298 12.129 19.886l.495.287c.63 1.353.762 2.42 1.389 3.774.762 2.422 1.953 4.595 3.21 7.303.066.534.627 1.353 1.188 2.173.498.286.564.82.564.82 4.989 6.845 16.977 10.794 26.883 9.08 2.706-.418 4.92-1.123 6.636-2.114 5.148-2.973 6.333-8.235 3.459-12.868-.495-.286-.561-.82-.561-.82-.564-.82-1.125-1.64-1.191-2.173-2.181-2.746-4.23-4.424-6.345-6.636l-3.171-3.318c-6.906-7.455-12.69-13.27-15.765-19.506-1.254-2.707.396-4.232 1.119-5.795.429-.248.429-.248.363-.781l-3.435-5.454c27.303-6.037 52.359-15.354 72.954-27.245 12.444-7.185 23.832-15.476 32.379-24.416 5.742-5.601 10.56-11.244 14.88-17.172l8.025 1.659c.429-.246.429-.246 1.353-.21 2.643-.951 5.349-1.371 10.038-.645 10.371 2.022 21.369 5.4 33.786 9.102l.495.285 5.748 1.833c3.831 1.221 7.233 2.688 11.493 3.66 1.419.327 2.343.363 3.765.69.495.285 1.419.324 1.419.324 8.52 1.944 17.139.975 22.287-1.998 1.716-.99 2.937-2.268 3.663-3.831 1.023-2.88.624-6.081-2.481-8.865-3.108-2.784-7.566-5.358-13.245-6.657-.498-.285-.927-.039-1.422-.324-1.419-.324-2.838-.648-3.765-.687-4.26-.972-8.454-1.413-12.648-1.851-2.343-.363-4.194-.441-6.537-.804l-.495-.285c-13.143-2.139-24.867-3.951-34.446-7.005-4.326-1.506-5.451-3.147-7.497-4.824-.495-.285-.066-.534-.564-.819l-8.091-2.196c7.383-21.996 4.893-45.732-7.275-69.603-6.15-12.471-15.501-24.807-26.571-36.153l6.141-2.4c.429-.246-.069-.534.363-.78.723-1.563.525-3.165 3.099-4.653l.858-.495c7.857-3.39 18.126-5.886 29.745-8.592l.429-.246c1.785-.459 4.062-.63 5.844-1.086 4.062-.63 7.2-1.296 11.193-2.457.858-.495 2.211-.705 3.069-1.2.432-.249.861-.495 1.785-.459 1.782-.456 2.64-.951 3.927-1.695 6.438-3.717 7.062-9.798 2.337-14.508-5.946-3.432-18.594-5.283-28.797-2.256zM557.17 290.875l-8.475 16.908-29.286 4.893-28.008-10.719-5.955-18.303 21.024-12.141 31.701 3.438 18.999 15.924zm60.465-94.413c20.277 7.746 37.983 16.977 53.046 27.159l-87.453 25.317c-7.989 2.325-18.36.303-24.009-4.446-1.551-1.392-2.676-3.033-2.874-4.632l-2.088-61.158c21.168 3.798 42.603 9.729 63.378 17.76zm-113.703-23.034l-10.134 59.058c-1.251 4.728-8.679 7.872-17.991 6.954-2.772-.114-5.184-1.011-7.596-1.908l-84.624-44.397c33.57-14.808 75.963-21.546 120.345-19.707zm-165.069 48.387c3.729-3.297 7.029-6.345 10.758-9.642l75.414 48c6.51 4.251 7.734 10.41 1.299 14.127-1.716.99-4.359 1.941-6.636 2.115l-104.142 5.772c-2.721-21.885 5.289-42.531 23.307-60.372zm-14.175 89.427l103.584.843c9.18-.15 18.033 4.464 19.62 9.84.696 1.887.465 3.738-1.185 5.262l-44.214 51.273c-36.267-17.967-64.02-41.421-77.805-67.218zm122.691 84.214l54.849-47.116c5.082-3.507 14.691-3.903 22.419-.927 3.402 1.467 5.88 2.898 7.5 4.824l46.659 57.164c-41.865 3.575-88.428-1.01-131.427-13.945zm255.222-33.499c-7.392 7.128-15.774 13.686-26.073 19.632-15.018 8.67-32.58 15.377-51.267 20.444l-36.954-60.479c-1.026-4.557 2.568-8.922 10.263-9.93 3.63-.381 7.329-.228 10.599.174l101.913 20.685c-2.376 3.09-5.676 6.138-8.481 9.474zm14.802-88.074c9.093 17.637 10.788 34.968 6.87 51.534L622.42 297.829c-7.233-2.691-11.529-7.647-9.351-12.339.726-1.563 2.376-3.087 4.521-4.326l82.035-31.914c8.325 7.779 13.944 15.978 17.778 24.633z" transform="rotate(-6 1.646 -7203.59)"/>
            </g>
        </g>
    </g>
</svg>
