<svg xmlns="http://www.w3.org/2000/svg" xmlns:xlink="http://www.w3.org/1999/xlink" width="1440" height="343" viewBox="0 0 1440 343">
    <defs>
        <linearGradient id="prefix__d" x1="33.282%" x2="66.718%" y1="19.969%" y2="83.989%">
            <stop offset="0%" stop-color="#8CD9ED"/>
            <stop offset="100%" stop-color="#6CBACE"/>
        </linearGradient>
        <linearGradient id="prefix__e" x1="88.697%" x2="10.887%" y1="58.562%" y2="36.653%">
            <stop offset="0%" stop-color="#24A1C1"/>
            <stop offset="100%" stop-color="#7BC6D9"/>
        </linearGradient>
        <linearGradient id="prefix__f" x1="59.764%" x2="59.764%" y1="79.959%" y2="24.103%">
            <stop offset="0%" stop-color="#759EFF" stop-opacity="0"/>
            <stop offset="100%" stop-color="#1E54D5"/>
        </linearGradient>
        <linearGradient id="prefix__g" x1="33.245%" x2="66.755%" y1="19.969%" y2="83.989%">
            <stop offset="0%" stop-color="#8CD9ED"/>
            <stop offset="100%" stop-color="#6CBACE"/>
        </linearGradient>
        <linearGradient id="prefix__h" x1="74.29%" x2="39.594%" y1="67.667%" y2="34.637%">
            <stop offset="0%" stop-color="#004557"/>
            <stop offset="100%" stop-color="#097692"/>
        </linearGradient>
        <linearGradient id="prefix__i" x1="88.697%" x2="10.887%" y1="58.543%" y2="36.682%">
            <stop offset="0%" stop-color="#24A1C1"/>
            <stop offset="100%" stop-color="#7BC6D9"/>
        </linearGradient>
        <linearGradient id="prefix__j" x1="59.764%" x2="59.764%" y1="79.959%" y2="24.103%">
            <stop offset="0%" stop-color="#759EFF" stop-opacity="0"/>
            <stop offset="100%" stop-color="#1E54D5"/>
        </linearGradient>
        <linearGradient id="prefix__k" x1="55.136%" x2="51.667%" y1="78.651%" y2="45.517%">
            <stop offset="0%" stop-color="#00A697" stop-opacity="0"/>
            <stop offset="100%" stop-color="#24A1C1"/>
        </linearGradient>
        <linearGradient id="prefix__l" x1="33.342%" x2="66.658%" y1="19.969%" y2="83.989%">
            <stop offset="0%" stop-color="#8CD9ED"/>
            <stop offset="100%" stop-color="#6CBACE"/>
        </linearGradient>
        <linearGradient id="prefix__m" x1="74.149%" x2="39.655%" y1="67.667%" y2="34.637%">
            <stop offset="0%" stop-color="#004557"/>
            <stop offset="100%" stop-color="#097692"/>
        </linearGradient>
        <linearGradient id="prefix__n" x1="59.764%" x2="59.764%" y1="79.959%" y2="24.103%">
            <stop offset="0%" stop-color="#759EFF" stop-opacity="0"/>
            <stop offset="100%" stop-color="#1E54D5"/>
        </linearGradient>
        <linearGradient id="prefix__o" x1="55.106%" x2="51.658%" y1="78.651%" y2="45.517%">
            <stop offset="0%" stop-color="#00A697" stop-opacity="0"/>
            <stop offset="100%" stop-color="#24A1C1"/>
        </linearGradient>
        <linearGradient id="prefix__p" x1="88.697%" x2="10.887%" y1="58.593%" y2="36.604%">
            <stop offset="0%" stop-color="#24A1C1"/>
            <stop offset="100%" stop-color="#7BC6D9"/>
        </linearGradient>
        <linearGradient id="prefix__q" x1="59.764%" x2="59.764%" y1="79.959%" y2="24.103%">
            <stop offset="0%" stop-color="#759EFF" stop-opacity="0"/>
            <stop offset="100%" stop-color="#1E54D5"/>
        </linearGradient>
        <linearGradient id="prefix__r" x1="55.111%" x2="51.659%" y1="78.651%" y2="45.517%">
            <stop offset="0%" stop-color="#00A697" stop-opacity="0"/>
            <stop offset="100%" stop-color="#24A1C1"/>
        </linearGradient>
        <linearGradient id="prefix__s" x1="33.324%" x2="66.676%" y1="19.969%" y2="83.989%">
            <stop offset="0%" stop-color="#8CD9ED"/>
            <stop offset="100%" stop-color="#6CBACE"/>
        </linearGradient>
        <linearGradient id="prefix__t" x1="74.175%" x2="39.643%" y1="67.667%" y2="34.637%">
            <stop offset="0%" stop-color="#004557"/>
            <stop offset="100%" stop-color="#097692"/>
        </linearGradient>
        <linearGradient id="prefix__u" x1="88.697%" x2="10.887%" y1="58.584%" y2="36.618%">
            <stop offset="0%" stop-color="#24A1C1"/>
            <stop offset="100%" stop-color="#7BC6D9"/>
        </linearGradient>
        <linearGradient id="prefix__v" x1="88.697%" x2="10.887%" y1="58.544%" y2="36.679%">
            <stop offset="0%" stop-color="#24A1C1"/>
            <stop offset="100%" stop-color="#7BC6D9"/>
        </linearGradient>
        <linearGradient id="prefix__w" x1="33.257%" x2="66.743%" y1="19.969%" y2="83.989%">
            <stop offset="0%" stop-color="#8CD9ED"/>
            <stop offset="100%" stop-color="#6CBACE"/>
        </linearGradient>
        <linearGradient id="prefix__x" x1="74.274%" x2="39.601%" y1="67.667%" y2="34.637%">
            <stop offset="0%" stop-color="#004557"/>
            <stop offset="100%" stop-color="#097692"/>
        </linearGradient>
        <linearGradient id="prefix__y" x1="88.697%" x2="10.887%" y1="58.549%" y2="36.672%">
            <stop offset="0%" stop-color="#24A1C1"/>
            <stop offset="100%" stop-color="#7BC6D9"/>
        </linearGradient>
        <linearGradient id="prefix__z" x1="59.764%" x2="59.764%" y1="79.959%" y2="24.103%">
            <stop offset="0%" stop-color="#759EFF" stop-opacity="0"/>
            <stop offset="100%" stop-color="#1E54D5"/>
        </linearGradient>
        <linearGradient id="prefix__A" x1="55.132%" x2="51.666%" y1="78.651%" y2="45.517%">
            <stop offset="0%" stop-color="#00A697" stop-opacity="0"/>
            <stop offset="100%" stop-color="#24A1C1"/>
        </linearGradient>
        <linearGradient id="prefix__B" x1="33.248%" x2="66.752%" y1="19.969%" y2="83.989%">
            <stop offset="0%" stop-color="#8CD9ED"/>
            <stop offset="100%" stop-color="#6CBACE"/>
        </linearGradient>
        <linearGradient id="prefix__C" x1="74.286%" x2="39.596%" y1="67.667%" y2="34.637%">
            <stop offset="0%" stop-color="#004557"/>
            <stop offset="100%" stop-color="#097692"/>
        </linearGradient>
        <linearGradient id="prefix__D" x1="59.764%" x2="59.764%" y1="79.959%" y2="24.103%">
            <stop offset="0%" stop-color="#759EFF" stop-opacity="0"/>
            <stop offset="100%" stop-color="#1E54D5"/>
        </linearGradient>
        <linearGradient id="prefix__E" x1="55.135%" x2="51.667%" y1="78.651%" y2="45.517%">
            <stop offset="0%" stop-color="#00A697" stop-opacity="0"/>
            <stop offset="100%" stop-color="#24A1C1"/>
        </linearGradient>
        <linearGradient id="prefix__F" x1="33.27%" x2="66.73%" y1="19.969%" y2="83.989%">
            <stop offset="0%" stop-color="#8CD9ED"/>
            <stop offset="100%" stop-color="#6CBACE"/>
        </linearGradient>
        <linearGradient id="prefix__G" x1="59.764%" x2="59.764%" y1="79.959%" y2="24.103%">
            <stop offset="0%" stop-color="#759EFF" stop-opacity="0"/>
            <stop offset="100%" stop-color="#1E54D5"/>
        </linearGradient>
        <radialGradient id="prefix__b" cx="50%" cy="92.706%" r="111.51%" fx="50%" fy="92.706%" gradientTransform="matrix(0 -1 .50386 0 .033 1.427)">
            <stop offset="0%" stop-color="#0C1E4E"/>
            <stop offset="100%" stop-color="#06102A"/>
        </radialGradient>
        <path id="prefix__a" d="M0 0H1440V343H0z"/>
    </defs>
    <g fill="none" fill-rule="evenodd">
        <mask id="prefix__c" fill="#fff">
            <use xlink:href="#prefix__a"/>
        </mask>
        <use fill="url(#prefix__b)" transform="matrix(1 0 0 -1 0 343)" xlink:href="#prefix__a"/>
        <g mask="url(#prefix__c)">
            <g>
                <g opacity=".14">
                    <path fill="url(#prefix__d)" d="M173.349 200.646L0.141 101.539 0.141 302.82 173.349 401.082z" opacity=".451" transform="translate(831 -457) translate(174.54 698.162)"/>
                    <path fill="url(#prefix__e)" d="M172.71 0.46L0.141 101.539 173.309 202.97 345.878 101.89z" opacity=".321" transform="translate(831 -457) translate(174.54 698.162)"/>
                </g>
                <g opacity=".14">
                    <path fill="url(#prefix__e)" d="M172.71 0.46L0.141 101.539 173.309 202.97 345.878 101.89z" opacity=".321" transform="translate(831 -457) translate(348.04 797.367)"/>
                </g>
                <g opacity=".14">
                    <path fill="url(#prefix__g)" d="M173.512 200.616L0.141 101.524 0.141 302.774 173.512 401.021z" opacity=".451" transform="translate(831 -457) translate(345.788 596.072)"/>
                    <path fill="url(#prefix__h)" d="M346.203 101.875L173.512 200.63 173.512 401.021 346.203 303.342z" opacity=".432" transform="translate(831 -457) translate(345.788 596.072)"/>
                    <path fill="url(#prefix__i)" d="M172.872 0.46L0.141 101.524 173.472 202.939 346.203 101.875z" opacity=".321" transform="translate(831 -457) translate(345.788 596.072)"/>
                </g>
                <g>
                    <path fill="url(#prefix__j)" d="M173.512 99.144L0.141 0.053 0.141 390.932 173.512 489.179z" opacity=".187" transform="translate(831 -457) translate(345.788 697.544)"/>
                    <path fill="url(#prefix__k)" d="M346.203 0.404L173.512 99.159 173.512 460.005 346.203 362.326z" opacity=".231" transform="translate(831 -457) translate(345.788 697.544)"/>
                </g>
                <g opacity=".14">
                    <path fill="url(#prefix__l)" d="M173.056 200.67L0.141 101.551 0.141 302.857 173.056 401.13z" opacity=".451" transform="translate(831 -457) translate(0 197.593)"/>
                    <path fill="url(#prefix__m)" d="M345.292 101.903L173.056 200.684 173.056 401.13 345.292 303.424z" opacity=".432" transform="translate(831 -457) translate(0 197.593)"/>
                </g>
                <g opacity=".14">
                    <path fill="url(#prefix__n)" d="M173.056 99.171L0.141 0.053 0.141 391.038 173.056 489.311z" opacity=".187" transform="translate(831 -457) translate(0 299.092)"/>
                    <path fill="url(#prefix__o)" d="M345.292 0.404L173.056 99.186 173.056 460.13 345.292 362.424z" opacity=".231" transform="translate(831 -457) translate(0 299.092)"/>
                </g>
                <g opacity=".14">
                    <path fill="url(#prefix__l)" d="M173.056 200.67L0.141 101.551 0.141 302.857 173.056 401.13z" opacity=".451" transform="translate(831 -457) translate(173.206 296.81)"/>
                    <path fill="url(#prefix__m)" d="M345.292 101.903L173.056 200.684 173.056 401.13 345.292 303.424z" opacity=".432" transform="translate(831 -457) translate(173.206 296.81)"/>
                    <path fill="url(#prefix__p)" d="M172.417 0.46L0.141 101.551 173.015 202.994 345.292 101.903z" opacity=".321" transform="translate(831 -457) translate(173.206 296.81)"/>
                </g>
                <g opacity=".14">
                    <path fill="url(#prefix__n)" d="M173.056 99.171L0.141 0.053 0.141 391.038 173.056 489.311z" opacity=".187" transform="translate(831 -457) translate(173.206 398.31)"/>
                    <path fill="url(#prefix__o)" d="M345.292 0.404L173.056 99.186 173.056 460.13 345.292 362.424z" opacity=".231" transform="translate(831 -457) translate(173.206 398.31)"/>
                </g>
                <g opacity=".14">
                    <path fill="url(#prefix__l)" d="M173.056 200.67L0.141 101.551 0.141 302.857 173.056 401.13z" opacity=".451" transform="translate(831 -457) translate(346.412 396.028)"/>
                    <path fill="url(#prefix__m)" d="M345.292 101.903L173.056 200.684 173.056 401.13 345.292 303.424z" opacity=".432" transform="translate(831 -457) translate(346.412 396.028)"/>
                    <path fill="url(#prefix__p)" d="M172.417 0.46L0.141 101.551 173.015 202.994 345.292 101.903z" opacity=".321" transform="translate(831 -457) translate(346.412 396.028)"/>
                </g>
                <g opacity=".14">
                    <path fill="url(#prefix__n)" d="M173.056 99.171L0.141 0.053 0.141 391.038 173.056 489.311z" opacity=".187" transform="translate(831 -457) translate(346.412 497.527)"/>
                    <path fill="url(#prefix__o)" d="M345.292 0.404L173.056 99.186 173.056 460.13 345.292 362.424z" opacity=".231" transform="translate(831 -457) translate(346.412 497.527)"/>
                </g>
                <g opacity=".14">
                    <path fill="url(#prefix__q)" d="M173.128 99.159L0.141 0.053 0.141 390.991 173.128 489.252z" opacity=".187" transform="translate(831 -457) translate(3.293 101.487)"/>
                    <path fill="url(#prefix__r)" d="M345.436 0.404L173.128 99.174 173.128 460.074 345.436 362.38z" opacity=".231" transform="translate(831 -457) translate(3.293 101.487)"/>
                </g>
                <g opacity=".14">
                    <path fill="url(#prefix__s)" d="M173.128 200.646L0.141 101.539 0.141 302.82 173.128 401.082z" opacity=".451" transform="translate(831 -457) translate(347.077 198.41)"/>
                    <path fill="url(#prefix__t)" d="M345.436 101.89L173.128 200.66 173.128 401.082 345.436 303.388z" opacity=".432" transform="translate(831 -457) translate(347.077 198.41)"/>
                </g>
                <g opacity=".14">
                    <path fill="url(#prefix__q)" d="M173.128 99.159L0.141 0.053 0.141 390.991 173.128 489.252z" opacity=".187" transform="translate(831 -457) translate(347.077 299.897)"/>
                    <path fill="url(#prefix__r)" d="M345.436 0.404L173.128 99.174 173.128 460.074 345.436 362.38z" opacity=".231" transform="translate(831 -457) translate(347.077 299.897)"/>
                </g>
                <g opacity=".14">
                    <path fill="url(#prefix__q)" d="M173.128 99.159L0.141 0.053 0.141 390.991 173.128 489.252z" opacity=".187" transform="translate(831 -457) translate(520.355 399.103)"/>
                </g>
                <g>
                    <path fill="url(#prefix__s)" d="M173.128 200.646L0.141 101.539 0.141 302.82 173.128 401.082z" opacity=".451" transform="translate(831 -457) translate(520.355 297.616)"/>
                    <path fill="url(#prefix__u)" d="M172.489 0.46L0.141 101.539 173.087 202.97 345.436 101.89z" opacity=".321" transform="translate(831 -457) translate(520.355 297.616)"/>
                </g>
            </g>
        </g>
        <g mask="url(#prefix__c)">
            <g>
                <g opacity=".14">
                    <path fill="url(#prefix__v)" d="M153.601 0.408L0.125 90.214 154.134 180.331 307.61 90.526z" opacity=".321" transform="translate(-516 -724) matrix(-1 0 0 1 771.539 976.988)"/>
                </g>
                <g opacity=".14">
                    <path fill="url(#prefix__v)" d="M153.601 0.408L0.125 90.214 154.134 180.331 307.61 90.526z" opacity=".321" transform="translate(-516 -724) matrix(-1 0 0 1 617.235 1065.128)"/>
                </g>
                <g opacity=".14">
                    <path fill="url(#prefix__w)" d="M154.159 178.301L0.125 90.231 0.125 269.096 154.159 356.414z" opacity=".451" transform="translate(-516 -724) matrix(-1 0 0 1 927.967 710.786)"/>
                    <path fill="url(#prefix__x)" d="M307.588 90.543L154.159 178.313 154.159 356.414 307.588 269.6z" opacity=".432" transform="translate(-516 -724) matrix(-1 0 0 1 927.967 710.786)"/>
                    <path fill="url(#prefix__y)" d="M153.59 0.408L0.125 90.231 154.123 180.366 307.588 90.543z" opacity=".321" transform="translate(-516 -724) matrix(-1 0 0 1 927.967 710.786)"/>
                </g>
                <g opacity=".14">
                    <path fill="url(#prefix__z)" d="M154.159 88.116L0.125 0.047 0.125 347.447 154.159 434.766z" opacity=".187" transform="translate(-516 -724) matrix(-1 0 0 1 927.967 800.97)"/>
                    <path fill="url(#prefix__A)" d="M307.588 0.359L154.159 88.129 154.159 408.837 307.588 322.023z" opacity=".231" transform="translate(-516 -724) matrix(-1 0 0 1 927.967 800.97)"/>
                </g>
                <g>
                    <path fill="url(#prefix__w)" d="M154.159 178.301L0.125 90.231 0.125 269.096 154.159 356.414z" opacity=".451" transform="translate(-516 -724) matrix(-1 0 0 1 773.674 798.943)"/>
                    <path fill="url(#prefix__x)" d="M307.588 90.543L154.159 178.313 154.159 356.414 307.588 269.6z" opacity=".432" transform="translate(-516 -724) matrix(-1 0 0 1 773.674 798.943)"/>
                    <path fill="url(#prefix__y)" d="M153.59 0.408L0.125 90.231 154.123 180.366 307.588 90.543z" opacity=".321" transform="translate(-516 -724) matrix(-1 0 0 1 773.674 798.943)"/>
                </g>
                <g opacity=".14">
                    <path fill="url(#prefix__z)" d="M154.159 88.116L0.125 0.047 0.125 347.447 154.159 434.766z" opacity=".187" transform="translate(-516 -724) matrix(-1 0 0 1 773.674 889.127)"/>
                    <path fill="url(#prefix__A)" d="M307.588 0.359L154.159 88.129 154.159 408.837 307.588 322.023z" opacity=".231" transform="translate(-516 -724) matrix(-1 0 0 1 773.674 889.127)"/>
                </g>
                <g opacity=".14">
                    <path fill="url(#prefix__w)" d="M154.159 178.301L0.125 90.231 0.125 269.096 154.159 356.414z" opacity=".451" transform="translate(-516 -724) matrix(-1 0 0 1 619.381 887.1)"/>
                    <path fill="url(#prefix__y)" d="M153.59 0.408L0.125 90.231 154.123 180.366 307.588 90.543z" opacity=".321" transform="translate(-516 -724) matrix(-1 0 0 1 619.381 887.1)"/>
                </g>
                <g opacity=".14">
                    <path fill="url(#prefix__z)" d="M154.159 88.116L0.125 0.047 0.125 347.447 154.159 434.766z" opacity=".187" transform="translate(-516 -724) matrix(-1 0 0 1 619.381 977.284)"/>
                </g>
                <g opacity=".14">
                    <path fill="url(#prefix__B)" d="M154.17 178.267L0.125 90.214 0.125 269.045 154.17 356.347z" opacity=".451" transform="translate(-516 -724) matrix(-1 0 0 1 771.539 620.223)"/>
                    <path fill="url(#prefix__C)" d="M307.61 90.526L154.17 178.279 154.17 356.347 307.61 269.549z" opacity=".432" transform="translate(-516 -724) matrix(-1 0 0 1 771.539 620.223)"/>
                    <path fill="url(#prefix__v)" d="M153.601 0.408L0.125 90.214 154.134 180.331 307.61 90.526z" opacity=".321" transform="translate(-516 -724) matrix(-1 0 0 1 771.539 620.223)"/>
                </g>
                <g opacity=".14">
                    <path fill="url(#prefix__D)" d="M154.17 88.1L0.125 0.047 0.125 347.382 154.17 434.683z" opacity=".187" transform="translate(-516 -724) matrix(-1 0 0 1 771.539 710.39)"/>
                    <path fill="url(#prefix__E)" d="M307.61 0.359L154.17 88.112 154.17 408.76 307.61 321.962z" opacity=".231" transform="translate(-516 -724) matrix(-1 0 0 1 771.539 710.39)"/>
                </g>
                <g opacity=".14">
                    <path fill="url(#prefix__B)" d="M154.17 178.267L0.125 90.214 0.125 269.045 154.17 356.347z" opacity=".451" transform="translate(-516 -724) matrix(-1 0 0 1 617.235 708.363)"/>
                    <path fill="url(#prefix__v)" d="M153.601 0.408L0.125 90.214 154.134 180.331 307.61 90.526z" opacity=".321" transform="translate(-516 -724) matrix(-1 0 0 1 617.235 708.363)"/>
                </g>
                <g opacity=".14">
                    <path fill="url(#prefix__D)" d="M154.17 88.1L0.125 0.047 0.125 347.382 154.17 434.683z" opacity=".187" transform="translate(-516 -724) matrix(-1 0 0 1 617.235 798.53)"/>
                </g>
                <g opacity=".14">
                    <path fill="url(#prefix__F)" d="M154.034 178.225L0.125 90.193 0.125 268.982 154.034 356.263z" opacity=".451" transform="translate(-516 -724) matrix(-1 0 0 1 617.856 529.66)"/>
                </g>
                <path fill="url(#prefix__G)" d="M154.034 88.079L0.125 0.047 0.125 347.3 154.034 434.581z" opacity=".187" transform="translate(-516 -724) matrix(-1 0 0 1 617.856 619.805)"/>
                <g opacity=".14">
                    <path fill="url(#prefix__D)" d="M154.17 88.1L0.125 0.047 0.125 347.382 154.17 434.683z" opacity=".187" transform="translate(-516 -724) matrix(-1 0 0 1 772.42 354.588)"/>
                    <path fill="url(#prefix__E)" d="M307.61 0.359L154.17 88.112 154.17 408.76 307.61 321.962z" opacity=".231" transform="translate(-516 -724) matrix(-1 0 0 1 772.42 354.588)"/>
                </g>
            </g>
        </g>
    </g>
</svg>
