<svg xmlns="http://www.w3.org/2000/svg" xmlns:xlink="http://www.w3.org/1999/xlink" width="129" height="128" viewBox="0 0 129 128">
    <defs>
        <linearGradient id="c6fkwm1rvb" x1="50%" x2="50%" y1="3.193%" y2="100%">
            <stop offset="0%" stop-opacity=".154"/>
            <stop offset="100%" stop-opacity="0"/>
        </linearGradient>
        <linearGradient id="d4f891lo0d" x1="50%" x2="50%" y1="0%" y2="100%">
            <stop offset="0%" stop-opacity=".477"/>
            <stop offset="100%"/>
        </linearGradient>
        <linearGradient id="t97tb9yf9e" x1="0%" x2="100%" y1="50%" y2="50%">
            <stop offset="0%" stop-opacity=".477"/>
            <stop offset="100%"/>
        </linearGradient>
        <linearGradient id="e13ahqt1rf" x1="50%" x2="50%" y1="94.714%" y2="10.116%">
            <stop offset="0%" stop-opacity=".477"/>
            <stop offset="100%"/>
        </linearGradient>
        <linearGradient id="m48tqaqwtg" x1="50%" x2="50%" y1="100%" y2="7.076%">
            <stop offset="0%" stop-opacity=".477"/>
            <stop offset="100%"/>
        </linearGradient>
        <linearGradient id="fs9yksqdjh" x1="5.591%" x2="92.013%" y1="50%" y2="50%">
            <stop offset="0%" stop-opacity=".477"/>
            <stop offset="100%"/>
        </linearGradient>
        <linearGradient id="tt4wa67n0i" x1="0%" x2="88.578%" y1="50%" y2="50%">
            <stop offset="0%" stop-opacity=".477"/>
            <stop offset="100%"/>
        </linearGradient>
        <linearGradient id="ougwlvs5kl" x1="50%" x2="50%" y1="17.097%" y2="98.596%">
            <stop offset="0%" stop-opacity=".684"/>
            <stop offset="100%"/>
        </linearGradient>
        <filter id="lczw35njza">
            <feColorMatrix in="SourceGraphic" values="0 0 0 0 1.000000 0 0 0 0 1.000000 0 0 0 0 1.000000 0 0 0 1.000000 0"/>
        </filter>
        <filter id="717s1ox2dj" width="152.9%" height="156.2%" x="-26.5%" y="-21.9%" filterUnits="objectBoundingBox">
            <feOffset dy="3" in="SourceAlpha" result="shadowOffsetOuter1"/>
            <feGaussianBlur in="shadowOffsetOuter1" result="shadowBlurOuter1" stdDeviation="4"/>
            <feColorMatrix in="shadowBlurOuter1" values="0 0 0 0 0 0 0 0 0 0 0 0 0 0 0 0 0 0 0.333069274 0"/>
        </filter>
        <radialGradient id="gt6lk1ak1c" cx="50%" cy="50%" r="67.406%" fx="50%" fy="50%" gradientTransform="matrix(.71026 -.70286 .70394 .70916 -.207 .497)">
            <stop offset="0%" stop-opacity="0"/>
            <stop offset="50.468%" stop-opacity=".127"/>
            <stop offset="100%"/>
        </radialGradient>
        <path id="6aqpzur9xk" d="M34.03.303l8.447 4.718c.973.513 1.41 1.68.996 2.705l-2.227 5.36c.79 1.07 1.426 2.128 1.93 3.204l5.888.815C50.158 17.237 51 18.173 51 19.28v9.448c0 1.107-.842 2.043-1.957 2.177l-5.867.813c-.517 1.111-1.163 2.185-1.928 3.208l2.221 5.346c.402 1.054-.043 2.21-1.014 2.725l-8.434 4.712c-1.018.538-2.24.306-2.928-.536l-3.668-4.535c-.565.057-1.226.107-1.925.107-.7 0-1.36-.048-1.925-.107l-3.666 4.53c-.695.847-1.917 1.077-2.911.553L8.52 42.985c-.973-.513-1.407-1.684-.996-2.705l2.227-5.36c-.79-1.07-1.426-2.128-1.93-3.204L1.936 30.9C.84 30.769 0 29.833 0 28.726v-9.448c0-1.107.842-2.043 1.957-2.177l5.865-.813c.519-1.111 1.165-2.187 1.927-3.21L7.53 7.732c-.397-1.06.045-2.214 1.014-2.726L16.977.295c1.017-.536 2.24-.306 2.928.534l3.67 4.535c.718-.068 1.34-.103 1.925-.103.584 0 1.207.035 1.925.107L31.09.838c.705-.863 1.968-1.091 2.94-.535zM25.5 16.5c-4.142 0-7.5 3.358-7.5 7.5 0 4.142 3.358 7.5 7.5 7.5 4.142 0 7.5-3.358 7.5-7.5 0-4.142-3.358-7.5-7.5-7.5z"/>
    </defs>
    <g fill="none" fill-rule="evenodd">
        <g>
            <g>
                <g>
                    <g filter="url(#lczw35njza)" transform="translate(-1072 -4482) translate(0 4246) translate(964 236) translate(108.5)">
                        <g>
                            <g>
                                <path fill="url(#c6fkwm1rvb)" d="M53.995 2.402l52.226 30.572v60.731L54.188 123.15 1.95 93.534V32.868L53.995 2.402z" transform="translate(10 1)"/>
                                <path fill="#000" fill-rule="nonzero" d="M42.74 8.172l-2.657 1.554c-.477.279-.638.891-.359 1.368.279.477.892.637 1.368.359l2.657-1.554c.477-.28.637-.892.359-1.368-.28-.477-.892-.638-1.368-.359zm-7.971 4.662l-2.657 1.554c-.477.279-.638.891-.359 1.368.28.477.892.637 1.368.358l2.657-1.554c.477-.279.638-.891.359-1.368-.28-.477-.892-.637-1.368-.358zm-7.971 4.661L24.14 19.05c-.477.28-.637.892-.359 1.368.28.477.892.638 1.368.359l2.657-1.554c.477-.279.638-.891.359-1.368-.28-.477-.892-.637-1.368-.359zm-7.971 4.662l-2.657 1.554c-.477.279-.637.891-.359 1.368.28.477.892.637 1.368.358l2.657-1.553c.477-.28.638-.892.359-1.369-.279-.476-.892-.637-1.368-.358zm-7.971 4.662l-.98.573c-.477.279-.637.891-.359 1.368.28.477.892.637 1.368.358l.98-.573c.477-.279.638-.891.359-1.368-.279-.477-.891-.637-1.368-.358z" opacity=".5" transform="translate(10 1)"/>
                                <path fill="#000" fill-rule="nonzero" d="M42.74 97.288l-2.657 1.554c-.477.278-.638.89-.359 1.368.279.476.892.637 1.368.358l2.657-1.554c.477-.279.637-.891.359-1.368-.28-.477-.892-.637-1.368-.358zm-7.971 4.661l-2.657 1.554c-.477.279-.638.891-.359 1.368.28.477.892.637 1.368.359l2.657-1.554c.477-.28.638-.892.359-1.368-.28-.477-.892-.638-1.368-.359zm-7.971 4.662l-2.657 1.554c-.477.279-.637.891-.359 1.368.28.477.892.637 1.368.358l2.657-1.554c.477-.278.638-.891.359-1.368-.28-.476-.892-.637-1.368-.358zm-7.971 4.662l-2.657 1.553c-.477.28-.637.892-.359 1.368.28.477.892.638 1.368.359l2.657-1.554c.477-.279.638-.891.359-1.368-.279-.477-.892-.637-1.368-.358zm-7.971 4.661l-.98.573c-.477.28-.637.892-.359 1.368.28.477.892.638 1.368.359l.98-.573c.477-.28.638-.892.359-1.368-.279-.477-.891-.638-1.368-.359z" opacity=".5" transform="translate(10 1) matrix(1 0 0 -1 0 215.521)"/>
                                <path fill="#000" fill-rule="nonzero" d="M96.678 8.172L94.02 9.726c-.477.279-.637.891-.358 1.368.278.477.89.637 1.368.359l2.657-1.554c.476-.28.637-.892.358-1.368-.279-.477-.891-.638-1.368-.359zm-7.971 4.662l-2.657 1.554c-.477.279-.637.891-.358 1.368.278.477.89.637 1.368.358l2.657-1.554c.476-.279.637-.891.358-1.368-.279-.477-.891-.637-1.368-.358zm-7.971 4.661l-2.657 1.554c-.477.28-.637.892-.358 1.368.278.477.89.638 1.368.359l2.657-1.554c.476-.279.637-.891.358-1.368-.279-.477-.891-.637-1.368-.359zm-7.971 4.662l-2.657 1.554c-.477.279-.637.891-.358 1.368.278.477.891.637 1.368.358l2.657-1.553c.476-.28.637-.892.358-1.369-.279-.476-.891-.637-1.368-.358zm-7.97 4.662l-.981.573c-.477.279-.637.891-.358 1.368.278.477.89.637 1.368.358l.98-.573c.477-.279.637-.891.358-1.368-.279-.477-.891-.637-1.368-.358z" opacity=".5" transform="translate(10 1) matrix(-1 0 0 1 161.502 0)"/>
                                <path fill="#000" fill-rule="nonzero" d="M94.333 98.46l-2.657 1.554c-.477.279-.637.891-.359 1.368.28.477.892.637 1.368.359l2.657-1.554c.477-.28.638-.892.359-1.368-.279-.477-.892-.638-1.368-.359zm-7.971 4.662l-2.657 1.554c-.477.279-.637.891-.359 1.368.28.477.892.637 1.368.358l2.657-1.554c.477-.279.638-.891.359-1.368-.279-.477-.891-.637-1.368-.358zm-7.971 4.661l-2.657 1.554c-.477.28-.637.892-.359 1.368.28.477.892.638 1.369.359l2.657-1.554c.476-.279.637-.891.358-1.368-.279-.477-.891-.637-1.368-.359zm-7.971 4.662L67.763 114c-.477.279-.637.891-.358 1.368.278.477.89.637 1.368.358l2.657-1.553c.476-.28.637-.892.358-1.369-.279-.476-.891-.637-1.368-.358zm-7.971 4.662l-.98.573c-.477.279-.637.891-.359 1.368.28.477.892.637 1.369.358l.98-.573c.476-.279.637-.891.358-1.368-.279-.477-.891-.637-1.368-.358zM1.173 45.028v3.078c0 .552.447 1 1 1 .552 0 1-.448 1-1v-3.078c0-.552-.448-1-1-1-.553 0-1 .448-1 1zm0 9.234v3.078c0 .552.447 1 1 1 .552 0 1-.448 1-1v-3.078c0-.552-.448-1-1-1-.553 0-1 .448-1 1zm0 9.234v3.078c0 .552.447 1 1 1 .552 0 1-.448 1-1v-3.078c0-.552-.448-1-1-1-.553 0-1 .448-1 1zm0 9.234v3.078c0 .552.447 1 1 1 .552 0 1-.448 1-1V72.73c0-.552-.448-1-1-1-.553 0-1 .448-1 1zm0 9.234v2.218c0 .552.447 1 1 1 .552 0 1-.448 1-1v-2.218c0-.552-.448-1-1-1-.553 0-1 .448-1 1zM104.359 45.028v3.078c0 .552.448 1 1 1s1-.448 1-1v-3.078c0-.552-.448-1-1-1s-1 .448-1 1zm0 9.234v3.078c0 .552.448 1 1 1s1-.448 1-1v-3.078c0-.552-.448-1-1-1s-1 .448-1 1zm0 9.234v3.078c0 .552.448 1 1 1s1-.448 1-1v-3.078c0-.552-.448-1-1-1s-1 .448-1 1zm0 9.234v3.078c0 .552.448 1 1 1s1-.448 1-1V72.73c0-.552-.448-1-1-1s-1 .448-1 1zm0 9.234v2.218c0 .552.448 1 1 1s1-.448 1-1v-2.218c0-.552-.448-1-1-1s-1 .448-1 1z" opacity=".5" transform="translate(10 1)"/>
                                <path fill="#000" fill-rule="nonzero" d="M53.227 1.206c.43-.278.972-.302 1.42-.072l.132.076 3.712 2.423c.659.43.844 1.313.414 1.972-.403.618-1.205.82-1.846.488l-.126-.073-2.937-1.918-2.975 1.921c-.62.4-1.434.259-1.885-.305l-.085-.119c-.4-.62-.259-1.433.306-1.884l.118-.086 3.752-2.423z" transform="translate(10 1)"/>
                                <path fill="#000" fill-rule="nonzero" d="M53.227 119.233c.43-.278.972-.302 1.42-.073l.132.077 3.712 2.423c.659.43.844 1.313.414 1.972-.403.618-1.205.82-1.846.488l-.126-.074-2.937-1.918-2.975 1.922c-.62.4-1.434.259-1.885-.305l-.085-.119c-.4-.62-.259-1.434.306-1.885l.118-.085 3.752-2.423z" transform="translate(10 1) matrix(1 0 0 -1 0 243.283)"/>
                                <path fill="#000" fill-rule="nonzero" d="M5.295 88.715c.678-.4 1.551-.174 1.95.504.376.636.2 1.443-.381 1.871l-.122.08-3.145 1.854v3.236c0 .74-.565 1.35-1.287 1.418l-.137.007c-.741 0-1.35-.565-1.419-1.288l-.006-.137v-4.05c0-.454.216-.878.576-1.145l.125-.083 3.846-2.267z" transform="translate(10 1) matrix(1 0 0 -1 0 186.202)"/>
                                <path fill="#000" fill-rule="nonzero" d="M5.295 28.914c.678-.4 1.551-.174 1.95.504.376.636.2 1.443-.381 1.871l-.122.08-3.145 1.854v3.236c0 .74-.565 1.349-1.287 1.418l-.137.007c-.741 0-1.35-.566-1.419-1.288l-.006-.137v-4.05c0-.454.216-.878.576-1.145l.125-.083 3.846-2.267z" transform="translate(10 1)"/>
                                <path fill="#000" fill-rule="nonzero" d="M104.963 30.087c.678-.4 1.552-.174 1.951.504.375.635.2 1.443-.382 1.87l-.121.08-3.145 1.853v3.237c0 .74-.565 1.35-1.288 1.419l-.137.006c-.74 0-1.35-.565-1.418-1.288l-.007-.137v-4.05c0-.454.216-.877.576-1.144l.126-.083 3.845-2.267z" transform="translate(10 1) matrix(-1 0 0 1 207.528 0)"/>
                                <path fill="#000" fill-rule="nonzero" d="M104.963 88.715c.678-.4 1.552-.174 1.951.504.375.636.2 1.443-.382 1.871l-.121.08-3.145 1.853v3.237c0 .74-.565 1.35-1.288 1.418l-.137.007c-.74 0-1.35-.565-1.418-1.288l-.007-.137v-4.05c0-.454.216-.878.576-1.145l.126-.083 3.845-2.267z" transform="translate(10 1) rotate(180 103.764 93.101)"/>
                            </g>
                            <g fill="url(#gt6lk1ak1c)" fill-rule="nonzero" transform="translate(10 1) translate(5 14)">
                                <path d="M36 55.65l.221.004c2.935.116 5.279 2.532 5.279 5.495v35l-.007.145c-.073.76-.713 1.355-1.493 1.355-.828 0-1.5-.671-1.5-1.5v-35l-.005-.164c-.085-1.304-1.17-2.336-2.495-2.336H2l-.144-.007C1.095 58.57.5 57.93.5 57.15c0-.828.672-1.5 1.5-1.5h34zm60 0c.828 0 1.5.67 1.5 1.5 0 .779-.595 1.42-1.356 1.492L96 58.65H62c-1.325 0-2.41 1.032-2.495 2.336l-.005.164v35c0 .829-.672 1.5-1.5 1.5-.78 0-1.42-.595-1.493-1.355l-.007-.145v-35c0-2.963 2.344-5.38 5.279-5.495l.221-.005h34zM40 .5c.78 0 1.42.595 1.493 1.356L41.5 2v35c0 2.963-2.344 5.38-5.279 5.496L36 42.5H2c-.828 0-1.5-.672-1.5-1.5 0-.78.595-1.42 1.356-1.493L2 39.5h34c1.325 0 2.41-1.032 2.495-2.336L38.5 37V2c0-.828.672-1.5 1.5-1.5zm18 0c.828 0 1.5.672 1.5 1.5v35l.005.164C59.59 38.468 60.675 39.5 62 39.5h34l.144.007c.761.073 1.356.713 1.356 1.493 0 .828-.672 1.5-1.5 1.5H62l-.221-.004C58.844 42.38 56.5 39.963 56.5 37V2l.007-.144C56.58 1.095 57.22.5 58 .5z"/>
                            </g>
                            <g fill-rule="nonzero">
                                <g>
                                    <path fill="#000" d="M22 10.708c.513 0 .936.386.993.883l.007.117V22.85c0 .513-.386.935-.883.993l-.117.007H11.171c-.552 0-1-.448-1-1 0-.513.386-.936.883-.993l.117-.007L21 21.85V11.708c0-.513.386-.936.883-.993l.117-.007z" transform="translate(10 1) translate(12 21)"/>
                                    <path fill="url(#d4f891lo0d)" d="M22 0c-3.314 0-6 2.686-6 6s2.686 6 6 6 6-2.686 6-6-2.686-6-6-6zm0 2c2.21 0 4 1.79 4 4s-1.79 4-4 4-4-1.79-4-4 1.79-4 4-4z" transform="translate(10 1) translate(12 21)"/>
                                    <path fill="url(#t97tb9yf9e)" d="M6 17c-3.314 0-6 2.686-6 6s2.686 6 6 6 6-2.686 6-6-2.686-6-6-6zm0 2c2.21 0 4 1.79 4 4s-1.79 4-4 4-4-1.79-4-4 1.79-4 4-4z" transform="translate(10 1) translate(12 21)"/>
                                </g>
                                <g>
                                    <path fill="#000" d="M22 4.708c.513 0 .936.386.993.883l.007.117V17.85c0 .513-.386.935-.883.993l-.117.007H11.171c-.552 0-1-.448-1-1 0-.513.386-.936.883-.993l.117-.007L21 16.85V5.708c0-.513.386-.936.883-.993L22 4.708z" transform="translate(10 1) translate(12 21) translate(0 56) matrix(1 0 0 -1 0 23.559)"/>
                                    <path fill="url(#e13ahqt1rf)" d="M22 17c-3.314 0-6 2.686-6 6s2.686 6 6 6 6-2.686 6-6-2.686-6-6-6zm0 2c2.21 0 4 1.79 4 4s-1.79 4-4 4-4-1.79-4-4 1.79-4 4-4z" transform="translate(10 1) translate(12 21) translate(0 56)"/>
                                    <path fill="url(#t97tb9yf9e)" d="M6 0C2.686 0 0 2.686 0 6s2.686 6 6 6 6-2.686 6-6-2.686-6-6-6zm0 2c2.21 0 4 1.79 4 4s-1.79 4-4 4-4-1.79-4-4 1.79-4 4-4z" transform="translate(10 1) translate(12 21) translate(0 56)"/>
                                </g>
                                <g>
                                    <path fill="#000" d="M22 4.708c.513 0 .936.386.993.883l.007.117V17.85c0 .513-.386.935-.883.993l-.117.007H11.171c-.552 0-1-.448-1-1 0-.513.386-.936.883-.993l.117-.007L21 16.85V5.708c0-.513.386-.936.883-.993L22 4.708z" transform="translate(10 1) translate(12 21) matrix(-1 0 0 1 84 56) matrix(1 0 0 -1 0 23.559)"/>
                                    <path fill="url(#m48tqaqwtg)" d="M22 17c-3.314 0-6 2.686-6 6s2.686 6 6 6 6-2.686 6-6-2.686-6-6-6zm0 2c2.21 0 4 1.79 4 4s-1.79 4-4 4-4-1.79-4-4 1.79-4 4-4z" transform="translate(10 1) translate(12 21) matrix(-1 0 0 1 84 56)"/>
                                    <path fill="url(#fs9yksqdjh)" d="M6 0C2.686 0 0 2.686 0 6s2.686 6 6 6 6-2.686 6-6-2.686-6-6-6zm0 2c2.21 0 4 1.79 4 4s-1.79 4-4 4-4-1.79-4-4 1.79-4 4-4z" transform="translate(10 1) translate(12 21) matrix(-1 0 0 1 84 56)"/>
                                </g>
                                <g>
                                    <path fill="#000" d="M22 10.708c.513 0 .936.386.993.883l.007.117V22.85c0 .513-.386.935-.883.993l-.117.007H11.171c-.552 0-1-.448-1-1 0-.513.386-.936.883-.993l.117-.007L21 21.85V11.708c0-.513.386-.936.883-.993l.117-.007z" transform="translate(10 1) translate(12 21) matrix(-1 0 0 1 84 0)"/>
                                    <path fill="url(#d4f891lo0d)" d="M22 0c-3.314 0-6 2.686-6 6s2.686 6 6 6 6-2.686 6-6-2.686-6-6-6zm0 2c2.21 0 4 1.79 4 4s-1.79 4-4 4-4-1.79-4-4 1.79-4 4-4z" transform="translate(10 1) translate(12 21) matrix(-1 0 0 1 84 0)"/>
                                    <path fill="url(#tt4wa67n0i)" d="M6 17c-3.314 0-6 2.686-6 6s2.686 6 6 6 6-2.686 6-6-2.686-6-6-6zm0 2c2.21 0 4 1.79 4 4s-1.79 4-4 4-4-1.79-4-4 1.79-4 4-4z" transform="translate(10 1) translate(12 21) matrix(-1 0 0 1 84 0)"/>
                                </g>
                            </g>
                            <g transform="translate(10 1) translate(29 39)">
                                <use fill="#000" filter="url(#717s1ox2dj)" xlink:href="#6aqpzur9xk"/>
                                <use fill="url(#ougwlvs5kl)" xlink:href="#6aqpzur9xk"/>
                            </g>
                        </g>
                    </g>
                </g>
            </g>
        </g>
    </g>
</svg>
