<svg xmlns="http://www.w3.org/2000/svg" xmlns:xlink="http://www.w3.org/1999/xlink" width="1440" height="751" viewBox="0 0 1440 751">
    <defs>
        <filter id="ictclfny9f">
            <feColorMatrix in="SourceGraphic" values="0 0 0 0 0.858824 0 0 0 0 0.490196 0 0 0 0 0.066667 0 0 0 1.000000 0"/>
        </filter>
        <filter id="equ65wkbyl" width="716.9%" height="1333.8%" x="-308.4%" y="-616.9%" filterUnits="objectBoundingBox">
            <feOffset in="SourceAlpha" result="shadowOffsetOuter1"/>
            <feGaussianBlur in="shadowOffsetOuter1" result="shadowBlurOuter1" stdDeviation="9.5"/>
            <feColorMatrix in="shadowBlurOuter1" values="0 0 0 0 0.141176471 0 0 0 0 0.631372549 0 0 0 0 0.756862745 0 0 0 1 0"/>
        </filter>
        <filter id="j4xo8cyx4n" width="716.9%" height="1333.8%" x="-308.4%" y="-616.9%" filterUnits="objectBoundingBox">
            <feOffset in="SourceAlpha" result="shadowOffsetOuter1"/>
            <feGaussianBlur in="shadowOffsetOuter1" result="shadowBlurOuter1" stdDeviation="9.5"/>
            <feColorMatrix in="shadowBlurOuter1" values="0 0 0 0 0.141176471 0 0 0 0 0.631372549 0 0 0 0 0.756862745 0 0 0 1 0"/>
        </filter>
        <filter id="6neadri42p" width="716.9%" height="1333.8%" x="-308.4%" y="-616.9%" filterUnits="objectBoundingBox">
            <feOffset in="SourceAlpha" result="shadowOffsetOuter1"/>
            <feGaussianBlur in="shadowOffsetOuter1" result="shadowBlurOuter1" stdDeviation="9.5"/>
            <feColorMatrix in="shadowBlurOuter1" values="0 0 0 0 0.141176471 0 0 0 0 0.631372549 0 0 0 0 0.756862745 0 0 0 1 0"/>
        </filter>
        <filter id="s03ee8qjzr" width="716.9%" height="1333.8%" x="-308.4%" y="-616.9%" filterUnits="objectBoundingBox">
            <feOffset in="SourceAlpha" result="shadowOffsetOuter1"/>
            <feGaussianBlur in="shadowOffsetOuter1" result="shadowBlurOuter1" stdDeviation="9.5"/>
            <feColorMatrix in="shadowBlurOuter1" values="0 0 0 0 0.141176471 0 0 0 0 0.631372549 0 0 0 0 0.756862745 0 0 0 1 0"/>
        </filter>
        <filter id="p50di4970t" width="716.9%" height="1333.8%" x="-308.4%" y="-616.9%" filterUnits="objectBoundingBox">
            <feOffset in="SourceAlpha" result="shadowOffsetOuter1"/>
            <feGaussianBlur in="shadowOffsetOuter1" result="shadowBlurOuter1" stdDeviation="9.5"/>
            <feColorMatrix in="shadowBlurOuter1" values="0 0 0 0 0.141176471 0 0 0 0 0.631372549 0 0 0 0 0.756862745 0 0 0 1 0"/>
        </filter>
        <filter id="ldfprregjv" width="716.9%" height="1333.8%" x="-308.4%" y="-616.9%" filterUnits="objectBoundingBox">
            <feOffset in="SourceAlpha" result="shadowOffsetOuter1"/>
            <feGaussianBlur in="shadowOffsetOuter1" result="shadowBlurOuter1" stdDeviation="9.5"/>
            <feColorMatrix in="shadowBlurOuter1" values="0 0 0 0 0.141176471 0 0 0 0 0.631372549 0 0 0 0 0.756862745 0 0 0 1 0"/>
        </filter>
        <filter id="i2w5tv833x" width="716.9%" height="1333.8%" x="-308.4%" y="-616.9%" filterUnits="objectBoundingBox">
            <feOffset in="SourceAlpha" result="shadowOffsetOuter1"/>
            <feGaussianBlur in="shadowOffsetOuter1" result="shadowBlurOuter1" stdDeviation="9.5"/>
            <feColorMatrix in="shadowBlurOuter1" values="0 0 0 0 0.141176471 0 0 0 0 0.631372549 0 0 0 0 0.756862745 0 0 0 1 0"/>
        </filter>
        <ellipse id="3plio4qpsm" cx="1162.162" cy="1007.33" rx="4.62" ry="2.31"/>
        <ellipse id="llbgmyiclo" cx="883.478" cy="600.12" rx="4.62" ry="2.31"/>
        <ellipse id="rq6e5kzgnq" cx="931.478" cy="420.12" rx="4.62" ry="2.31"/>
        <ellipse id="f3tnszk4ws" cx="1409.62" cy="927.31" rx="4.62" ry="2.31"/>
        <ellipse id="gga0vvtjtu" cx="1339.62" cy="733.31" rx="4.62" ry="2.31"/>
        <ellipse id="38ppsmrqvw" cx="629.62" cy="846.31" rx="4.62" ry="2.31"/>
        <ellipse id="7bdnilphyy" cx="1425.62" cy="579.31" rx="4.62" ry="2.31"/>
        <radialGradient id="2ie962blge" cx="76.72%" cy="62.323%" r="101.403%" fx="76.72%" fy="62.323%" gradientTransform="scale(-.56111 -1) rotate(8.24 8.352 -14.816)">
            <stop offset="0%" stop-opacity=".981"/>
            <stop offset="100%" stop-opacity="0"/>
        </radialGradient>
        <radialGradient id="zz1yi7nbzh" cx="47.378%" cy="50%" r="53.363%" fx="47.378%" fy="50%" gradientTransform="matrix(0 1 -.82863 0 .888 .026)">
            <stop offset="0%" stop-color="#24A1C1"/>
            <stop offset="100%" stop-color="#24A1C1" stop-opacity="0"/>
        </radialGradient>
        <radialGradient id="npjdpn1fsi" cx="47.378%" cy="50%" r="53.363%" fx="47.378%" fy="50%" gradientTransform="matrix(0 1 -1.67378 0 1.31 .026)">
            <stop offset="0%" stop-color="#24A1C1"/>
            <stop offset="100%" stop-color="#24A1C1" stop-opacity="0"/>
        </radialGradient>
        <radialGradient id="wvnkxim7dj" cx="47.378%" cy="50%" r="53.363%" fx="47.378%" fy="50%" gradientTransform="matrix(0 1 -.96538 0 .956 .026)">
            <stop offset="0%" stop-color="#24A1C1"/>
            <stop offset="100%" stop-color="#24A1C1" stop-opacity="0"/>
        </radialGradient>
        <radialGradient id="lz65ne7xkk" cx="47.378%" cy="50%" r="83.816%" fx="47.378%" fy="50%" gradientTransform="matrix(0 .63667 -1.77756 0 1.363 .198)">
            <stop offset="0%" stop-color="#24A1C1"/>
            <stop offset="100%" stop-color="#24A1C1" stop-opacity="0"/>
        </radialGradient>
        <path id="j8wlstonha" d="M0 0H1440V751H0z"/>
        <path id="rj65ipklcd" d="M0 0H1440V808H0z"/>
        <linearGradient id="9vqmpx73ob" x1="93.267%" x2="12.125%" y1="59.77%" y2="42.836%">
            <stop offset="0%" stop-color="#0A183F" stop-opacity=".981"/>
            <stop offset="100%" stop-color="#110325"/>
        </linearGradient>
    </defs>
    <g fill="none" fill-rule="evenodd">
        <g>
            <g transform="translate(0 -120) translate(0 120)">
                <mask id="z49qv32y2c" fill="#fff">
                    <use xlink:href="#j8wlstonha"/>
                </mask>
                <use fill="url(#9vqmpx73ob)" xlink:href="#j8wlstonha"/>
                <g mask="url(#z49qv32y2c)" opacity=".656">
                    <mask id="1wymxenhjg" fill="#fff">
                        <use xlink:href="#rj65ipklcd"/>
                    </mask>
                    <use fill="url(#2ie962blge)" xlink:href="#rj65ipklcd"/>
                    <g filter="url(#ictclfny9f)">
                        <g mask="url(#1wymxenhjg)">
                            <g>
                                <g stroke-width="2.31">
                                    <path stroke="url(#zz1yi7nbzh)" d="M252.538 887.278l211.237-121.936c5.717-3.3 12.76-3.3 18.478 0l565.974 326.712c3.094 1.786 6.905 1.786 9.999 0L1258.7 976.33c4.783-2.761 6.422-8.877 3.661-13.66-.878-1.521-2.14-2.784-3.661-3.662l-453.505-261.79c-4.783-2.76-6.423-8.877-3.662-13.66.878-1.52 2.141-2.783 3.662-3.66l200.47-115.724c3.094-1.786 6.906-1.786 10 0l473.892 273.559c2.858 1.65 6.38 1.65 9.239 0l201.994-116.604c4.42-2.551 5.934-8.202 3.383-12.622-.811-1.405-1.978-2.571-3.383-3.383l-261.24-150.801c-4.783-2.761-6.423-8.877-3.662-13.66.878-1.52 2.141-2.784 3.662-3.661l191.608-110.61c4.42-2.551 5.934-8.202 3.382-12.622-.81-1.405-1.977-2.572-3.383-3.383l-276.243-159.462h0l211.238-121.936c5.717-3.3 12.76-3.3 18.477 0l570.974 329.596h0l220.473-127.27-193.402-111.642L2403.148 92.4" transform="translate(0 -256) matrix(-1 0 0 1 2404 0)"/>
                                    <path stroke="url(#npjdpn1fsi)" d="M648.653 44.878l68.49-39.543c5.718-3.301 12.763-3.301 18.48 0L942.302 124.66c4.42 2.552 5.933 8.203 3.382 12.622-.811 1.405-1.978 2.571-3.382 3.382l-283.203 163.51c-4.42 2.55-5.934 8.202-3.382 12.621.81 1.405 1.977 2.571 3.382 3.382l206.674 119.324c5.718 3.301 12.762 3.301 18.48 0l135.221-78.07c6.807-3.93 15.194-3.93 22 0l218.777 126.313h0L963.188 659.253c-4.42 2.552-5.934 8.203-3.383 12.622.811 1.405 1.978 2.572 3.382 3.382l206.677 119.327c5.718 3.3 12.763 3.3 18.48 0l292.443-168.844c5.718-3.301 12.763-3.301 18.48 0l220.537 127.328h0l-77.73 44.878 202.054 116.659c8.84 5.103 11.867 16.405 6.764 25.244-1.622 2.81-3.955 5.142-6.764 6.764L1483.194 1155h0l-229.774-132.662" opacity=".483" transform="translate(0 -256) matrix(-1 0 0 1 2404 0)"/>
                                    <path stroke="url(#npjdpn1fsi)" d="M1112.963 435.268l68.49-39.543c5.718-3.301 12.763-3.301 18.48 0l206.678 119.326c4.42 2.552 5.933 8.203 3.382 12.622-.811 1.405-1.978 2.571-3.382 3.382l-283.203 163.51c-4.42 2.55-5.934 8.202-3.382 12.621.81 1.405 1.977 2.571 3.382 3.382l206.674 119.324c5.718 3.301 12.762 3.301 18.48 0l136.982-79.086c5.717-3.3 12.762-3.3 18.48 0l220.536 127.329h0l-297.063 171.508c-4.419 2.552-5.933 8.203-3.382 12.622.811 1.405 1.978 2.572 3.382 3.382l206.677 119.327c5.718 3.3 12.763 3.3 18.48 0l292.443-168.844c5.718-3.301 12.763-3.301 18.48 0l220.537 127.328h0l-77.73 44.878 202.054 116.659c8.84 5.103 11.867 16.405 6.764 25.244-1.622 2.81-3.955 5.142-6.764 6.764l-360.934 208.387h0l-229.774-132.662" opacity=".483" transform="translate(0 -256) matrix(-1 0 0 1 2404 0) matrix(-1 0 0 1 3445.705 0)"/>
                                    <path stroke="url(#wvnkxim7dj)" d="M0 1057.764l180.344-104.086c5.716-3.3 12.758-3.3 18.475 0l442.825 255.58h0l189.581-109.418-619.023-357.276c-4.42-2.55-5.935-8.202-3.384-12.621.812-1.406 1.979-2.573 3.384-3.384l166.475-96.083c5.716-3.3 12.759-3.3 18.475 0l437.83 252.697c3.093 1.785 6.904 1.785 9.998 0l166.571-96.14c5.74-3.313 7.708-10.651 4.395-16.391-1.054-1.826-2.57-3.341-4.395-4.395L681.776 575.912c-4.42-2.55-5.935-8.201-3.384-12.621.811-1.406 1.979-2.573 3.384-3.384l161.85-93.412c4.42-2.551 5.935-8.202 3.384-12.622-.812-1.405-1.979-2.573-3.384-3.384l-62.683-36.178c-4.42-2.55-5.935-8.202-3.384-12.621.811-1.406 1.978-2.573 3.384-3.384l171.241-98.832c2.859-1.65 6.38-1.65 9.238 0l718.681 414.792h0" transform="translate(0 -256) matrix(-1 0 0 1 2404 0)"/>
                                    <path stroke="url(#lz65ne7xkk)" d="M2139.426 713.79l-280.314-162.16c-4.417-2.556-5.926-8.208-3.371-12.625.81-1.4 1.972-2.562 3.371-3.372l294.556-170.403h0l-427.385-247.243c-4.417-2.555-5.926-8.207-3.371-12.624.81-1.4 1.972-2.562 3.371-3.372l140.364-81.201h0" transform="translate(0 -256) matrix(-1 0 0 1 2404 0)"/>
                                </g>
                                <g stroke-width="2.31">
                                    <path stroke="url(#zz1yi7nbzh)" d="M252.538 927.278l215.477-124.383c3.093-1.786 6.905-1.786 9.998 0l575.213 332.045h0l206.614-119.269c4.42-2.55 5.934-8.202 3.383-12.621-.811-1.405-1.978-2.572-3.383-3.383L805.195 737.218c-4.783-2.76-6.423-8.877-3.662-13.66.878-1.52 2.141-2.783 3.662-3.66l200.85-115.943c2.86-1.65 6.38-1.65 9.24 0l473.892 273.558c3.094 1.786 6.905 1.786 9.999 0L1700.79 761.13c4.42-2.551 5.934-8.202 3.383-12.622-.811-1.405-1.978-2.571-3.383-3.383l-261.24-150.801c-4.783-2.761-6.423-8.877-3.662-13.66.878-1.52 2.141-2.784 3.662-3.661l190.467-109.952c4.783-2.76 6.423-8.877 3.661-13.66-.877-1.52-2.14-2.783-3.66-3.66l-260.1-150.144c-4.784-2.761-6.423-8.877-3.662-13.66.878-1.521 2.14-2.784 3.661-3.662l196.235-113.275c5.717-3.3 12.76-3.3 18.477 0l570.974 329.596h0l220.473-127.27-193.402-111.642L2403.148 132.4" transform="translate(0 -256) translate(143 179)"/>
                                    <path stroke="url(#npjdpn1fsi)" d="M668.653 44.878l68.49-39.543c5.718-3.301 12.763-3.301 18.48 0L962.302 124.66c4.42 2.552 5.933 8.203 3.382 12.622-.811 1.405-1.978 2.571-3.382 3.382l-283.203 163.51c-4.42 2.55-5.934 8.202-3.382 12.621.81 1.405 1.977 2.571 3.382 3.382l206.674 119.324c5.718 3.301 12.762 3.301 18.48 0l141.222-81.534c3.094-1.786 6.906-1.786 10 0l209.776 121.116c4.783 2.762 6.422 8.878 3.66 13.66-.877 1.52-2.14 2.783-3.66 3.66l-282.062 162.85c-4.42 2.55-5.934 8.202-3.383 12.621.811 1.405 1.978 2.572 3.382 3.382l206.677 119.327c5.718 3.3 12.763 3.3 18.48 0l292.443-168.844c5.718-3.301 12.763-3.301 18.48 0l220.537 127.328h0l-62.73 36.218c-4.784 2.761-6.422 8.877-3.661 13.66.878 1.52 2.14 2.783 3.66 3.66l187.055 107.999c8.84 5.103 11.867 16.405 6.764 25.244-1.622 2.81-3.955 5.142-6.764 6.764L1503.194 1155h0l-229.774-132.662" opacity=".483" transform="translate(0 -256) translate(143 179)"/>
                                    <path stroke="url(#npjdpn1fsi)" d="M1112.963 475.268l68.49-39.543c5.718-3.301 12.763-3.301 18.48 0l206.678 119.326c4.42 2.552 5.933 8.203 3.382 12.622-.811 1.405-1.978 2.571-3.382 3.382l-283.203 163.51c-4.42 2.55-5.934 8.202-3.382 12.621.81 1.405 1.977 2.571 3.382 3.382l206.674 119.324c5.718 3.301 12.762 3.301 18.48 0l136.982-79.086c5.717-3.3 12.762-3.3 18.48 0l220.536 127.329h0l-297.063 171.508c-4.419 2.552-5.933 8.203-3.382 12.622.811 1.405 1.978 2.572 3.382 3.382l206.677 119.327c5.718 3.3 12.763 3.3 18.48 0l292.443-168.844c5.718-3.301 12.763-3.301 18.48 0l220.537 127.328h0l-77.73 44.878 202.054 116.659c8.84 5.103 11.867 16.405 6.764 25.244-1.622 2.81-3.955 5.142-6.764 6.764l-360.934 208.387h0l-229.774-132.662" opacity=".483" transform="translate(0 -256) translate(143 179) matrix(-1 0 0 1 3445.705 0)"/>
                                    <path stroke="url(#wvnkxim7dj)" d="M0 1110.764l180.344-104.086c5.716-3.3 12.758-3.3 18.475 0l442.825 255.58h0l189.581-109.418-619.023-357.276c-4.42-2.55-5.935-8.202-3.384-12.621.812-1.406 1.979-2.573 3.384-3.384l166.475-96.083c5.716-3.3 12.759-3.3 18.475 0l442.829 255.582h0l175.712-101.415c4.42-2.551 5.935-8.202 3.384-12.622-.811-1.405-1.978-2.572-3.384-3.383L681.776 628.912c-4.42-2.55-5.935-8.201-3.384-12.621.811-1.406 1.979-2.573 3.384-3.384l161.85-93.412c4.42-2.551 5.935-8.202 3.384-12.622-.812-1.405-1.979-2.573-3.384-3.384l-62.683-36.178c-4.42-2.55-5.935-8.202-3.384-12.621.811-1.406 1.978-2.573 3.384-3.384l171.241-98.832c2.859-1.65 6.38-1.65 9.238 0l718.681 414.792h0" transform="translate(0 -256) translate(143 179)"/>
                                </g>
                                <g transform="translate(0 -256)">
                                    <use fill="#000" filter="url(#equ65wkbyl)" xlink:href="#3plio4qpsm"/>
                                    <use fill="#24A1C1" xlink:href="#3plio4qpsm"/>
                                </g>
                                <g transform="translate(0 -256)">
                                    <use fill="#000" filter="url(#j4xo8cyx4n)" xlink:href="#llbgmyiclo"/>
                                    <use fill="#24A1C1" xlink:href="#llbgmyiclo"/>
                                </g>
                                <g transform="translate(0 -256)">
                                    <use fill="#000" filter="url(#6neadri42p)" xlink:href="#rq6e5kzgnq"/>
                                    <use fill="#24A1C1" xlink:href="#rq6e5kzgnq"/>
                                </g>
                                <g transform="translate(0 -256)">
                                    <use fill="#000" filter="url(#s03ee8qjzr)" xlink:href="#f3tnszk4ws"/>
                                    <use fill="#24A1C1" xlink:href="#f3tnszk4ws"/>
                                </g>
                                <g transform="translate(0 -256)">
                                    <use fill="#000" filter="url(#p50di4970t)" xlink:href="#gga0vvtjtu"/>
                                    <use fill="#24A1C1" xlink:href="#gga0vvtjtu"/>
                                </g>
                                <g transform="translate(0 -256)">
                                    <use fill="#000" filter="url(#ldfprregjv)" xlink:href="#38ppsmrqvw"/>
                                    <use fill="#24A1C1" xlink:href="#38ppsmrqvw"/>
                                </g>
                                <g transform="translate(0 -256)">
                                    <use fill="#000" filter="url(#i2w5tv833x)" xlink:href="#7bdnilphyy"/>
                                    <use fill="#24A1C1" xlink:href="#7bdnilphyy"/>
                                </g>
                            </g>
                        </g>
                    </g>
                </g>
            </g>
        </g>
    </g>
</svg>
