<svg xmlns="http://www.w3.org/2000/svg" xmlns:xlink="http://www.w3.org/1999/xlink" width="1440" height="640" viewBox="0 0 1440 640">
    <defs>
        <linearGradient id="prefix__b" x1="93.267%" x2="12.125%" y1="57.095%" y2="44.797%">
            <stop offset="0%" stop-color="#0A183F" stop-opacity=".981"/>
            <stop offset="100%" stop-color="#110325"/>
        </linearGradient>
        <linearGradient id="prefix__e" x1="-44.408%" x2="100%" y1="6.487%" y2="73.336%">
            <stop offset="0%" stop-color="#081537"/>
            <stop offset="100%" stop-color="#14388E"/>
        </linearGradient>
        <linearGradient id="prefix__f" x1="-38.234%" x2="106.55%" y1="87.164%" y2="18.209%">
            <stop offset="0%" stop-color="#7898E5"/>
            <stop offset="100%" stop-color="#4B76DD"/>
        </linearGradient>
        <linearGradient id="prefix__l" x1="100%" x2="16.416%" y1="33.015%" y2="56.936%">
            <stop offset="0%" stop-color="#557BD7"/>
            <stop offset="100%" stop-color="#1643AF"/>
        </linearGradient>
        <linearGradient id="prefix__k" x1="46.672%" x2="46.672%" y1="100%" y2="34.88%">
            <stop offset="0%" stop-color="#FFF" stop-opacity=".158"/>
            <stop offset="100%" stop-color="#FFF" stop-opacity="0"/>
        </linearGradient>
        <linearGradient id="prefix__u" x1="69.185%" x2="21.574%" y1="40.486%" y2="56.712%">
            <stop offset="0%" stop-color="#A4BFFF"/>
            <stop offset="100%" stop-color="#638AE7"/>
        </linearGradient>
        <linearGradient id="prefix__v" x1="33.261%" x2="66.739%" y1="19.969%" y2="83.989%">
            <stop offset="0%" stop-color="#8CD9ED"/>
            <stop offset="100%" stop-color="#6CBACE"/>
        </linearGradient>
        <linearGradient id="prefix__w" x1="74.268%" x2="39.604%" y1="67.667%" y2="34.637%">
            <stop offset="0%" stop-color="#004557"/>
            <stop offset="100%" stop-color="#097692"/>
        </linearGradient>
        <linearGradient id="prefix__x" x1="88.697%" x2="10.887%" y1="58.551%" y2="36.669%">
            <stop offset="0%" stop-color="#24A1C1"/>
            <stop offset="100%" stop-color="#7BC6D9"/>
        </linearGradient>
        <linearGradient id="prefix__y" x1="51.688%" x2="60.865%" y1="5.202%" y2="70.795%">
            <stop offset="0%" stop-color="#004557" stop-opacity="0"/>
            <stop offset="33.193%" stop-color="#045A71" stop-opacity=".364"/>
            <stop offset="62.342%" stop-color="#056077" stop-opacity=".456"/>
            <stop offset="100%" stop-color="#097692" stop-opacity="0"/>
        </linearGradient>
        <linearGradient id="prefix__z" x1="48.693%" x2="43.768%" y1="40.674%" y2="71.254%">
            <stop offset="0%" stop-color="#8CD9ED"/>
            <stop offset="100%" stop-color="#6CBACE" stop-opacity="0"/>
        </linearGradient>
        <linearGradient id="prefix__M" x1="-44.408%" x2="100%" y1="6.487%" y2="73.336%">
            <stop offset="0%" stop-color="#081537"/>
            <stop offset="100%" stop-color="#14388E"/>
        </linearGradient>
        <linearGradient id="prefix__N" x1="-38.234%" x2="106.55%" y1="87.164%" y2="18.209%">
            <stop offset="0%" stop-color="#7898E5"/>
            <stop offset="100%" stop-color="#4B76DD"/>
        </linearGradient>
        <linearGradient id="prefix__T" x1="100%" x2="16.416%" y1="33.015%" y2="56.936%">
            <stop offset="0%" stop-color="#557BD7"/>
            <stop offset="100%" stop-color="#1643AF"/>
        </linearGradient>
        <linearGradient id="prefix__S" x1="46.672%" x2="46.672%" y1="100%" y2="34.88%">
            <stop offset="0%" stop-color="#FFF" stop-opacity=".158"/>
            <stop offset="100%" stop-color="#FFF" stop-opacity="0"/>
        </linearGradient>
        <linearGradient id="prefix__ac" x1="69.185%" x2="21.574%" y1="40.486%" y2="56.712%">
            <stop offset="0%" stop-color="#A4BFFF"/>
            <stop offset="100%" stop-color="#638AE7"/>
        </linearGradient>
        <linearGradient id="prefix__ad" x1="33.261%" x2="66.739%" y1="19.969%" y2="83.989%">
            <stop offset="0%" stop-color="#8CD9ED"/>
            <stop offset="100%" stop-color="#6CBACE"/>
        </linearGradient>
        <linearGradient id="prefix__ae" x1="74.268%" x2="39.604%" y1="67.667%" y2="34.637%">
            <stop offset="0%" stop-color="#004557"/>
            <stop offset="100%" stop-color="#097692"/>
        </linearGradient>
        <linearGradient id="prefix__af" x1="88.697%" x2="10.887%" y1="58.551%" y2="36.669%">
            <stop offset="0%" stop-color="#24A1C1"/>
            <stop offset="100%" stop-color="#7BC6D9"/>
        </linearGradient>
        <linearGradient id="prefix__ag" x1="51.688%" x2="60.865%" y1="5.202%" y2="70.795%">
            <stop offset="0%" stop-color="#004557" stop-opacity="0"/>
            <stop offset="33.193%" stop-color="#045A71" stop-opacity=".364"/>
            <stop offset="62.342%" stop-color="#056077" stop-opacity=".456"/>
            <stop offset="100%" stop-color="#097692" stop-opacity="0"/>
        </linearGradient>
        <linearGradient id="prefix__ah" x1="48.693%" x2="43.768%" y1="40.674%" y2="71.254%">
            <stop offset="0%" stop-color="#8CD9ED"/>
            <stop offset="100%" stop-color="#6CBACE" stop-opacity="0"/>
        </linearGradient>
        <linearGradient id="prefix__ai" x1="-44.408%" x2="100%" y1="6.487%" y2="73.336%">
            <stop offset="0%" stop-color="#081537"/>
            <stop offset="100%" stop-color="#14388E"/>
        </linearGradient>
        <linearGradient id="prefix__aj" x1="-38.234%" x2="106.55%" y1="87.164%" y2="18.209%">
            <stop offset="0%" stop-color="#7898E5"/>
            <stop offset="100%" stop-color="#4B76DD"/>
        </linearGradient>
        <linearGradient id="prefix__an" x1="100%" x2="16.416%" y1="33.015%" y2="56.936%">
            <stop offset="0%" stop-color="#557BD7"/>
            <stop offset="100%" stop-color="#1643AF"/>
        </linearGradient>
        <linearGradient id="prefix__am" x1="46.672%" x2="46.672%" y1="100%" y2="34.88%">
            <stop offset="0%" stop-color="#FFF" stop-opacity=".158"/>
            <stop offset="100%" stop-color="#FFF" stop-opacity="0"/>
        </linearGradient>
        <linearGradient id="prefix__as" x1="69.185%" x2="21.574%" y1="40.486%" y2="56.712%">
            <stop offset="0%" stop-color="#A4BFFF"/>
            <stop offset="100%" stop-color="#638AE7"/>
        </linearGradient>
        <linearGradient id="prefix__at" x1="33.261%" x2="66.739%" y1="19.969%" y2="83.989%">
            <stop offset="0%" stop-color="#8CD9ED"/>
            <stop offset="100%" stop-color="#6CBACE"/>
        </linearGradient>
        <linearGradient id="prefix__au" x1="74.268%" x2="39.604%" y1="67.667%" y2="34.637%">
            <stop offset="0%" stop-color="#004557"/>
            <stop offset="100%" stop-color="#097692"/>
        </linearGradient>
        <linearGradient id="prefix__av" x1="88.697%" x2="10.887%" y1="58.551%" y2="36.669%">
            <stop offset="0%" stop-color="#24A1C1"/>
            <stop offset="100%" stop-color="#7BC6D9"/>
        </linearGradient>
        <linearGradient id="prefix__aw" x1="51.688%" x2="60.865%" y1="5.202%" y2="70.795%">
            <stop offset="0%" stop-color="#004557" stop-opacity="0"/>
            <stop offset="33.193%" stop-color="#045A71" stop-opacity=".364"/>
            <stop offset="62.342%" stop-color="#056077" stop-opacity=".456"/>
            <stop offset="100%" stop-color="#097692" stop-opacity="0"/>
        </linearGradient>
        <linearGradient id="prefix__ax" x1="48.693%" x2="43.768%" y1="40.674%" y2="71.254%">
            <stop offset="0%" stop-color="#8CD9ED"/>
            <stop offset="100%" stop-color="#6CBACE" stop-opacity="0"/>
        </linearGradient>
        <path id="prefix__a" d="M0 0H1440V640H0z"/>
        <path id="prefix__c" d="M0 0H1440V640H0z"/>
        <path id="prefix__h" d="M145.263 206.538c0-1.407-.866-3.045-1.932-3.654l-62.515-35.751c-1.066-.61-1.932.038-1.932 1.446v5.1c0 1.408.866 3.046 1.932 3.655l62.515 35.751c1.066.61 1.932-.038 1.932-1.446v-5.1z"/>
        <path id="prefix__j" d="M263.666 132.537c2.697 1.54 4.887 5.674 4.887 9.228 0 3.554-2.19 5.19-4.887 3.651-2.697-1.539-4.887-5.674-4.887-9.228 0-3.554 2.19-5.19 4.887-3.65zm18.201 10.386c2.697 1.539 4.887 5.674 4.887 9.228 0 3.554-2.19 5.19-4.887 3.651-2.697-1.539-4.887-5.674-4.887-9.228 0-3.554 2.19-5.19 4.887-3.651zm18.201 10.385c2.698 1.54 4.887 5.674 4.887 9.229 0 3.554-2.19 5.19-4.887 3.65-2.697-1.538-4.886-5.673-4.886-9.227 0-3.554 2.19-5.19 4.886-3.652z"/>
        <path id="prefix__n" d="M145.263 206.538c0-1.407-.866-3.045-1.932-3.654l-62.515-35.751c-1.066-.61-1.932.038-1.932 1.446v5.1c0 1.408.866 3.046 1.932 3.655l62.515 35.751c1.066.61 1.932-.038 1.932-1.446v-5.1z"/>
        <path id="prefix__p" d="M263.666 132.537c2.697 1.54 4.887 5.674 4.887 9.228 0 3.554-2.19 5.19-4.887 3.651-2.697-1.539-4.887-5.674-4.887-9.228 0-3.554 2.19-5.19 4.887-3.65zm18.201 10.386c2.697 1.539 4.887 5.674 4.887 9.228 0 3.554-2.19 5.19-4.887 3.651-2.697-1.539-4.887-5.674-4.887-9.228 0-3.554 2.19-5.19 4.887-3.651zm18.201 10.385c2.698 1.54 4.887 5.674 4.887 9.229 0 3.554-2.19 5.19-4.887 3.65-2.697-1.538-4.886-5.673-4.886-9.227 0-3.554 2.19-5.19 4.886-3.652z"/>
        <path id="prefix__r" d="M145.263 206.538c0-1.407-.866-3.045-1.932-3.654l-62.515-35.751c-1.066-.61-1.932.038-1.932 1.446v5.1c0 1.408.866 3.046 1.932 3.655l62.515 35.751c1.066.61 1.932-.038 1.932-1.446v-5.1z"/>
        <path id="prefix__t" d="M263.666 132.537c2.697 1.54 4.887 5.674 4.887 9.228 0 3.554-2.19 5.19-4.887 3.651-2.697-1.539-4.887-5.674-4.887-9.228 0-3.554 2.19-5.19 4.887-3.65zm18.201 10.386c2.697 1.539 4.887 5.674 4.887 9.228 0 3.554-2.19 5.19-4.887 3.651-2.697-1.539-4.887-5.674-4.887-9.228 0-3.554 2.19-5.19 4.887-3.651zm18.201 10.385c2.698 1.54 4.887 5.674 4.887 9.229 0 3.554-2.19 5.19-4.887 3.65-2.697-1.538-4.886-5.673-4.886-9.227 0-3.554 2.19-5.19 4.886-3.652z"/>
        <path id="prefix__B" d="M145.263 206.538c0-1.407-.866-3.045-1.932-3.654l-62.515-35.751c-1.066-.61-1.932.038-1.932 1.446v5.1c0 1.408.866 3.046 1.932 3.655l62.515 35.751c1.066.61 1.932-.038 1.932-1.446v-5.1z"/>
        <path id="prefix__D" d="M263.666 132.537c2.697 1.54 4.887 5.674 4.887 9.228 0 3.554-2.19 5.19-4.887 3.651-2.697-1.539-4.887-5.674-4.887-9.228 0-3.554 2.19-5.19 4.887-3.65zm18.201 10.386c2.697 1.539 4.887 5.674 4.887 9.228 0 3.554-2.19 5.19-4.887 3.651-2.697-1.539-4.887-5.674-4.887-9.228 0-3.554 2.19-5.19 4.887-3.651zm18.201 10.385c2.698 1.54 4.887 5.674 4.887 9.229 0 3.554-2.19 5.19-4.887 3.65-2.697-1.538-4.886-5.673-4.886-9.227 0-3.554 2.19-5.19 4.886-3.652z"/>
        <path id="prefix__F" d="M145.263 206.538c0-1.407-.866-3.045-1.932-3.654l-62.515-35.751c-1.066-.61-1.932.038-1.932 1.446v5.1c0 1.408.866 3.046 1.932 3.655l62.515 35.751c1.066.61 1.932-.038 1.932-1.446v-5.1z"/>
        <path id="prefix__H" d="M263.666 132.537c2.697 1.54 4.887 5.674 4.887 9.228 0 3.554-2.19 5.19-4.887 3.651-2.697-1.539-4.887-5.674-4.887-9.228 0-3.554 2.19-5.19 4.887-3.65zm18.201 10.386c2.697 1.539 4.887 5.674 4.887 9.228 0 3.554-2.19 5.19-4.887 3.651-2.697-1.539-4.887-5.674-4.887-9.228 0-3.554 2.19-5.19 4.887-3.651zm18.201 10.385c2.698 1.54 4.887 5.674 4.887 9.229 0 3.554-2.19 5.19-4.887 3.65-2.697-1.538-4.886-5.673-4.886-9.227 0-3.554 2.19-5.19 4.886-3.652z"/>
        <path id="prefix__J" d="M145.263 206.538c0-1.407-.866-3.045-1.932-3.654l-62.515-35.751c-1.066-.61-1.932.038-1.932 1.446v5.1c0 1.408.866 3.046 1.932 3.655l62.515 35.751c1.066.61 1.932-.038 1.932-1.446v-5.1z"/>
        <path id="prefix__L" d="M263.666 132.537c2.697 1.54 4.887 5.674 4.887 9.228 0 3.554-2.19 5.19-4.887 3.651-2.697-1.539-4.887-5.674-4.887-9.228 0-3.554 2.19-5.19 4.887-3.65zm18.201 10.386c2.697 1.539 4.887 5.674 4.887 9.228 0 3.554-2.19 5.19-4.887 3.651-2.697-1.539-4.887-5.674-4.887-9.228 0-3.554 2.19-5.19 4.887-3.651zm18.201 10.385c2.698 1.54 4.887 5.674 4.887 9.229 0 3.554-2.19 5.19-4.887 3.65-2.697-1.538-4.886-5.673-4.886-9.227 0-3.554 2.19-5.19 4.886-3.652z"/>
        <path id="prefix__P" d="M72.631 103.27c0-.705-.432-1.523-.965-1.828L40.408 83.566c-.533-.304-.966.02-.966.723v2.55c0 .705.433 1.523.966 1.828l31.258 17.876c.533.304.965-.02.965-.723v-2.55z"/>
        <path id="prefix__R" d="M131.833 66.269c1.349.77 2.443 2.837 2.443 4.614 0 1.777-1.094 2.595-2.443 1.825-1.349-.77-2.443-2.837-2.443-4.614 0-1.777 1.094-2.595 2.443-1.825zm9.1 5.192c1.35.77 2.444 2.837 2.444 4.614 0 1.778-1.095 2.596-2.443 1.826-1.349-.77-2.444-2.837-2.444-4.614 0-1.777 1.095-2.595 2.444-1.826zm9.101 5.193c1.349.77 2.444 2.837 2.444 4.614 0 1.777-1.095 2.595-2.444 1.826-1.348-.77-2.443-2.837-2.443-4.614 0-1.777 1.095-2.595 2.443-1.826z"/>
        <path id="prefix__V" d="M72.631 103.27c0-.705-.432-1.523-.965-1.828L40.408 83.566c-.533-.304-.966.02-.966.723v2.55c0 .705.433 1.523.966 1.828l31.258 17.876c.533.304.965-.02.965-.723v-2.55z"/>
        <path id="prefix__X" d="M131.833 66.269c1.349.77 2.443 2.837 2.443 4.614 0 1.777-1.094 2.595-2.443 1.825-1.349-.77-2.443-2.837-2.443-4.614 0-1.777 1.094-2.595 2.443-1.825zm9.1 5.192c1.35.77 2.444 2.837 2.444 4.614 0 1.778-1.095 2.596-2.443 1.826-1.349-.77-2.444-2.837-2.444-4.614 0-1.777 1.095-2.595 2.444-1.826zm9.101 5.193c1.349.77 2.444 2.837 2.444 4.614 0 1.777-1.095 2.595-2.444 1.826-1.348-.77-2.443-2.837-2.443-4.614 0-1.777 1.095-2.595 2.443-1.826z"/>
        <path id="prefix__Z" d="M72.631 103.27c0-.705-.432-1.523-.965-1.828L40.408 83.566c-.533-.304-.966.02-.966.723v2.55c0 .705.433 1.523.966 1.828l31.258 17.876c.533.304.965-.02.965-.723v-2.55z"/>
        <path id="prefix__ab" d="M131.833 66.269c1.349.77 2.443 2.837 2.443 4.614 0 1.777-1.094 2.595-2.443 1.825-1.349-.77-2.443-2.837-2.443-4.614 0-1.777 1.094-2.595 2.443-1.825zm9.1 5.192c1.35.77 2.444 2.837 2.444 4.614 0 1.778-1.095 2.596-2.443 1.826-1.349-.77-2.444-2.837-2.444-4.614 0-1.777 1.095-2.595 2.444-1.826zm9.101 5.193c1.349.77 2.444 2.837 2.444 4.614 0 1.777-1.095 2.595-2.444 1.826-1.348-.77-2.443-2.837-2.443-4.614 0-1.777 1.095-2.595 2.443-1.826z"/>
        <path id="prefix__al" d="M161.403 229.487c0-1.564-.962-3.384-2.146-4.06l-69.462-39.724c-1.184-.677-2.146.043-2.146 1.607v5.667c0 1.564.962 3.384 2.146 4.061l69.462 39.723c1.184.678 2.146-.042 2.146-1.606v-5.668z"/>
        <path id="prefix__ap" d="M161.403 229.487c0-1.564-.962-3.384-2.146-4.06l-69.462-39.724c-1.184-.677-2.146.043-2.146 1.607v5.667c0 1.564.962 3.384 2.146 4.061l69.462 39.723c1.184.678 2.146-.042 2.146-1.606v-5.668z"/>
        <path id="prefix__ar" d="M161.403 229.487c0-1.564-.962-3.384-2.146-4.06l-69.462-39.724c-1.184-.677-2.146.043-2.146 1.607v5.667c0 1.564.962 3.384 2.146 4.061l69.462 39.723c1.184.678 2.146-.042 2.146-1.606v-5.668z"/>
        <filter id="prefix__g" width="107.5%" height="121.5%" x="-3.8%" y="-5.4%" filterUnits="objectBoundingBox">
            <feOffset dy="5" in="SourceAlpha" result="shadowOffsetOuter1"/>
            <feColorMatrix in="shadowOffsetOuter1" values="0 0 0 0 1 0 0 0 0 1 0 0 0 0 1 0 0 0 0.135134397 0"/>
        </filter>
        <filter id="prefix__i" width="110.8%" height="128.7%" x="-5.4%" y="-7.2%" filterUnits="objectBoundingBox">
            <feOffset dy="5" in="SourceAlpha" result="shadowOffsetOuter1"/>
            <feColorMatrix in="shadowOffsetOuter1" values="0 0 0 0 1 0 0 0 0 1 0 0 0 0 1 0 0 0 0.140406469 0"/>
        </filter>
        <filter id="prefix__m" width="107.5%" height="121.5%" x="-3.8%" y="-5.4%" filterUnits="objectBoundingBox">
            <feOffset dy="5" in="SourceAlpha" result="shadowOffsetOuter1"/>
            <feColorMatrix in="shadowOffsetOuter1" values="0 0 0 0 1 0 0 0 0 1 0 0 0 0 1 0 0 0 0.135134397 0"/>
        </filter>
        <filter id="prefix__o" width="110.8%" height="128.7%" x="-5.4%" y="-7.2%" filterUnits="objectBoundingBox">
            <feOffset dy="5" in="SourceAlpha" result="shadowOffsetOuter1"/>
            <feColorMatrix in="shadowOffsetOuter1" values="0 0 0 0 1 0 0 0 0 1 0 0 0 0 1 0 0 0 0.140406469 0"/>
        </filter>
        <filter id="prefix__q" width="107.5%" height="121.5%" x="-3.8%" y="-5.4%" filterUnits="objectBoundingBox">
            <feOffset dy="5" in="SourceAlpha" result="shadowOffsetOuter1"/>
            <feColorMatrix in="shadowOffsetOuter1" values="0 0 0 0 1 0 0 0 0 1 0 0 0 0 1 0 0 0 0.135134397 0"/>
        </filter>
        <filter id="prefix__s" width="110.8%" height="128.7%" x="-5.4%" y="-7.2%" filterUnits="objectBoundingBox">
            <feOffset dy="5" in="SourceAlpha" result="shadowOffsetOuter1"/>
            <feColorMatrix in="shadowOffsetOuter1" values="0 0 0 0 1 0 0 0 0 1 0 0 0 0 1 0 0 0 0.140406469 0"/>
        </filter>
        <filter id="prefix__A" width="107.5%" height="121.5%" x="-3.8%" y="-5.4%" filterUnits="objectBoundingBox">
            <feOffset dy="5" in="SourceAlpha" result="shadowOffsetOuter1"/>
            <feColorMatrix in="shadowOffsetOuter1" values="0 0 0 0 1 0 0 0 0 1 0 0 0 0 1 0 0 0 0.135134397 0"/>
        </filter>
        <filter id="prefix__C" width="110.8%" height="128.7%" x="-5.4%" y="-7.2%" filterUnits="objectBoundingBox">
            <feOffset dy="5" in="SourceAlpha" result="shadowOffsetOuter1"/>
            <feColorMatrix in="shadowOffsetOuter1" values="0 0 0 0 1 0 0 0 0 1 0 0 0 0 1 0 0 0 0.140406469 0"/>
        </filter>
        <filter id="prefix__E" width="107.5%" height="121.5%" x="-3.8%" y="-5.4%" filterUnits="objectBoundingBox">
            <feOffset dy="5" in="SourceAlpha" result="shadowOffsetOuter1"/>
            <feColorMatrix in="shadowOffsetOuter1" values="0 0 0 0 1 0 0 0 0 1 0 0 0 0 1 0 0 0 0.135134397 0"/>
        </filter>
        <filter id="prefix__G" width="110.8%" height="128.7%" x="-5.4%" y="-7.2%" filterUnits="objectBoundingBox">
            <feOffset dy="5" in="SourceAlpha" result="shadowOffsetOuter1"/>
            <feColorMatrix in="shadowOffsetOuter1" values="0 0 0 0 1 0 0 0 0 1 0 0 0 0 1 0 0 0 0.140406469 0"/>
        </filter>
        <filter id="prefix__I" width="107.5%" height="121.5%" x="-3.8%" y="-5.4%" filterUnits="objectBoundingBox">
            <feOffset dy="5" in="SourceAlpha" result="shadowOffsetOuter1"/>
            <feColorMatrix in="shadowOffsetOuter1" values="0 0 0 0 1 0 0 0 0 1 0 0 0 0 1 0 0 0 0.135134397 0"/>
        </filter>
        <filter id="prefix__K" width="110.8%" height="128.7%" x="-5.4%" y="-7.2%" filterUnits="objectBoundingBox">
            <feOffset dy="5" in="SourceAlpha" result="shadowOffsetOuter1"/>
            <feColorMatrix in="shadowOffsetOuter1" values="0 0 0 0 1 0 0 0 0 1 0 0 0 0 1 0 0 0 0.140406469 0"/>
        </filter>
        <filter id="prefix__O" width="109%" height="125.9%" x="-4.5%" y="-6.5%" filterUnits="objectBoundingBox">
            <feOffset dy="3" in="SourceAlpha" result="shadowOffsetOuter1"/>
            <feColorMatrix in="shadowOffsetOuter1" values="0 0 0 0 1 0 0 0 0 1 0 0 0 0 1 0 0 0 0.135134397 0"/>
        </filter>
        <filter id="prefix__Q" width="113%" height="134.5%" x="-6.5%" y="-8.6%" filterUnits="objectBoundingBox">
            <feOffset dy="3" in="SourceAlpha" result="shadowOffsetOuter1"/>
            <feColorMatrix in="shadowOffsetOuter1" values="0 0 0 0 1 0 0 0 0 1 0 0 0 0 1 0 0 0 0.140406469 0"/>
        </filter>
        <filter id="prefix__U" width="109%" height="125.9%" x="-4.5%" y="-6.5%" filterUnits="objectBoundingBox">
            <feOffset dy="3" in="SourceAlpha" result="shadowOffsetOuter1"/>
            <feColorMatrix in="shadowOffsetOuter1" values="0 0 0 0 1 0 0 0 0 1 0 0 0 0 1 0 0 0 0.135134397 0"/>
        </filter>
        <filter id="prefix__W" width="113%" height="134.5%" x="-6.5%" y="-8.6%" filterUnits="objectBoundingBox">
            <feOffset dy="3" in="SourceAlpha" result="shadowOffsetOuter1"/>
            <feColorMatrix in="shadowOffsetOuter1" values="0 0 0 0 1 0 0 0 0 1 0 0 0 0 1 0 0 0 0.140406469 0"/>
        </filter>
        <filter id="prefix__Y" width="109%" height="125.9%" x="-4.5%" y="-6.5%" filterUnits="objectBoundingBox">
            <feOffset dy="3" in="SourceAlpha" result="shadowOffsetOuter1"/>
            <feColorMatrix in="shadowOffsetOuter1" values="0 0 0 0 1 0 0 0 0 1 0 0 0 0 1 0 0 0 0.135134397 0"/>
        </filter>
        <filter id="prefix__aa" width="113%" height="134.5%" x="-6.5%" y="-8.6%" filterUnits="objectBoundingBox">
            <feOffset dy="3" in="SourceAlpha" result="shadowOffsetOuter1"/>
            <feColorMatrix in="shadowOffsetOuter1" values="0 0 0 0 1 0 0 0 0 1 0 0 0 0 1 0 0 0 0.140406469 0"/>
        </filter>
        <filter id="prefix__ak" width="108.1%" height="123.3%" x="-4.1%" y="-5.8%" filterUnits="objectBoundingBox">
            <feOffset dy="6" in="SourceAlpha" result="shadowOffsetOuter1"/>
            <feColorMatrix in="shadowOffsetOuter1" values="0 0 0 0 1 0 0 0 0 1 0 0 0 0 1 0 0 0 0.135134397 0"/>
        </filter>
        <filter id="prefix__ao" width="108.1%" height="123.3%" x="-4.1%" y="-5.8%" filterUnits="objectBoundingBox">
            <feOffset dy="6" in="SourceAlpha" result="shadowOffsetOuter1"/>
            <feColorMatrix in="shadowOffsetOuter1" values="0 0 0 0 1 0 0 0 0 1 0 0 0 0 1 0 0 0 0.135134397 0"/>
        </filter>
        <filter id="prefix__aq" width="108.1%" height="123.3%" x="-4.1%" y="-5.8%" filterUnits="objectBoundingBox">
            <feOffset dy="6" in="SourceAlpha" result="shadowOffsetOuter1"/>
            <feColorMatrix in="shadowOffsetOuter1" values="0 0 0 0 1 0 0 0 0 1 0 0 0 0 1 0 0 0 0.135134397 0"/>
        </filter>
    </defs>
    <g fill="none" fill-rule="evenodd">
        <use fill="url(#prefix__b)" xlink:href="#prefix__a"/>
        <mask id="prefix__d" fill="#fff">
            <use xlink:href="#prefix__c"/>
        </mask>
        <g mask="url(#prefix__d)" opacity=".124">
            <g>
                <g transform="translate(390 88) matrix(-1 0 0 1 405.319 355.125)">
                    <path fill="url(#prefix__e)" d="M162.579 188.903L0 93.967 0 150.697 162.579 245.633z"/>
                    <path fill="url(#prefix__f)" d="M162.579 189.931L325.157 95.415 325.157 151.116 162.579 245.633z"/>
                    <use fill="#000" filter="url(#prefix__g)" xlink:href="#prefix__h"/>
                    <use fill="#091D4F" xlink:href="#prefix__h"/>
                    <g transform="matrix(-1 0 0 1 563.735 0)">
                        <use fill="#000" filter="url(#prefix__i)" xlink:href="#prefix__j"/>
                        <use fill="#3359B4" xlink:href="#prefix__j"/>
                    </g>
                    <path fill="url(#prefix__l)" stroke="url(#prefix__k)" stroke-width="3.038" d="M162.011 2.177L3.016 94.845l160.13 93.328 158.995-92.666-160.13-93.33z"/>
                </g>
                <g transform="translate(390 88) matrix(-1 0 0 1 405.319 274.125)">
                    <path fill="url(#prefix__e)" d="M162.579 188.903L0 93.967 0 150.697 162.579 245.633z"/>
                    <path fill="url(#prefix__f)" d="M162.579 189.931L325.157 95.415 325.157 151.116 162.579 245.633z"/>
                    <use fill="#000" filter="url(#prefix__m)" xlink:href="#prefix__n"/>
                    <use fill="#091D4F" xlink:href="#prefix__n"/>
                    <g transform="matrix(-1 0 0 1 563.735 0)">
                        <use fill="#000" filter="url(#prefix__o)" xlink:href="#prefix__p"/>
                        <use fill="#3359B4" xlink:href="#prefix__p"/>
                    </g>
                    <path fill="url(#prefix__l)" stroke="url(#prefix__k)" stroke-width="3.038" d="M162.011 2.177L3.016 94.845l160.13 93.328 158.995-92.666-160.13-93.33z"/>
                </g>
                <g transform="translate(390 88) matrix(-1 0 0 1 405.319 193.125)">
                    <path fill="url(#prefix__e)" d="M162.579 188.903L0 93.967 0 150.697 162.579 245.633z"/>
                    <path fill="url(#prefix__f)" d="M162.579 189.931L325.157 95.415 325.157 151.116 162.579 245.633z"/>
                    <use fill="#000" filter="url(#prefix__q)" xlink:href="#prefix__r"/>
                    <use fill="#24A1C1" xlink:href="#prefix__r"/>
                    <g transform="matrix(-1 0 0 1 563.735 0)">
                        <use fill="#000" filter="url(#prefix__s)" xlink:href="#prefix__t"/>
                        <use fill="#67519E" xlink:href="#prefix__t"/>
                    </g>
                    <path fill="url(#prefix__u)" stroke="url(#prefix__k)" stroke-width="3.038" d="M162.011 2.177L3.016 94.845l160.13 93.328 158.995-92.666-160.13-93.33z"/>
                </g>
                <g>
                    <path fill="url(#prefix__v)" d="M240.707 277.903L0.137 140.339 0.137 419.723 240.707 556.113z" opacity=".187" transform="translate(390 88) translate(0 102.6)"/>
                    <path fill="url(#prefix__w)" d="M480.332 140.827L240.707 277.922 240.707 556.113 480.332 420.511z" opacity=".157" transform="translate(390 88) translate(0 102.6)"/>
                    <path fill="url(#prefix__x)" d="M239.818 0.038L0.137 140.339 240.65 281.128 480.332 140.827z" opacity=".222" transform="translate(390 88) translate(0 102.6)"/>
                </g>
                <path fill="url(#prefix__y)" d="M480.332 0.427L240.707 137.522 240.707 847.713 480.332 712.111z" opacity=".43" transform="translate(390 88)"/>
                <path fill="url(#prefix__z)" d="M240.707 380.503L0.137 242.939 0.137 711.323 240.707 847.713z" opacity=".142" transform="translate(390 88)"/>
            </g>
        </g>
        <g mask="url(#prefix__d)" opacity=".124">
            <g>
                <g transform="translate(1164 -242) matrix(-1 0 0 1 405.319 355.125)">
                    <path fill="url(#prefix__e)" d="M162.579 188.903L0 93.967 0 150.697 162.579 245.633z"/>
                    <path fill="url(#prefix__f)" d="M162.579 189.931L325.157 95.415 325.157 151.116 162.579 245.633z"/>
                    <use fill="#000" filter="url(#prefix__A)" xlink:href="#prefix__B"/>
                    <use fill="#091D4F" xlink:href="#prefix__B"/>
                    <g transform="matrix(-1 0 0 1 563.735 0)">
                        <use fill="#000" filter="url(#prefix__C)" xlink:href="#prefix__D"/>
                        <use fill="#3359B4" xlink:href="#prefix__D"/>
                    </g>
                    <path fill="url(#prefix__l)" stroke="url(#prefix__k)" stroke-width="3.038" d="M162.011 2.177L3.016 94.845l160.13 93.328 158.995-92.666-160.13-93.33z"/>
                </g>
                <g transform="translate(1164 -242) matrix(-1 0 0 1 405.319 274.125)">
                    <path fill="url(#prefix__e)" d="M162.579 188.903L0 93.967 0 150.697 162.579 245.633z"/>
                    <path fill="url(#prefix__f)" d="M162.579 189.931L325.157 95.415 325.157 151.116 162.579 245.633z"/>
                    <use fill="#000" filter="url(#prefix__E)" xlink:href="#prefix__F"/>
                    <use fill="#091D4F" xlink:href="#prefix__F"/>
                    <g transform="matrix(-1 0 0 1 563.735 0)">
                        <use fill="#000" filter="url(#prefix__G)" xlink:href="#prefix__H"/>
                        <use fill="#3359B4" xlink:href="#prefix__H"/>
                    </g>
                    <path fill="url(#prefix__l)" stroke="url(#prefix__k)" stroke-width="3.038" d="M162.011 2.177L3.016 94.845l160.13 93.328 158.995-92.666-160.13-93.33z"/>
                </g>
                <g transform="translate(1164 -242) matrix(-1 0 0 1 405.319 193.125)">
                    <path fill="url(#prefix__e)" d="M162.579 188.903L0 93.967 0 150.697 162.579 245.633z"/>
                    <path fill="url(#prefix__f)" d="M162.579 189.931L325.157 95.415 325.157 151.116 162.579 245.633z"/>
                    <use fill="#000" filter="url(#prefix__I)" xlink:href="#prefix__J"/>
                    <use fill="#24A1C1" xlink:href="#prefix__J"/>
                    <g transform="matrix(-1 0 0 1 563.735 0)">
                        <use fill="#000" filter="url(#prefix__K)" xlink:href="#prefix__L"/>
                        <use fill="#67519E" xlink:href="#prefix__L"/>
                    </g>
                    <path fill="url(#prefix__u)" stroke="url(#prefix__k)" stroke-width="3.038" d="M162.011 2.177L3.016 94.845l160.13 93.328 158.995-92.666-160.13-93.33z"/>
                </g>
                <g>
                    <path fill="url(#prefix__v)" d="M240.707 277.903L0.137 140.339 0.137 419.723 240.707 556.113z" opacity=".187" transform="translate(1164 -242) translate(0 102.6)"/>
                    <path fill="url(#prefix__w)" d="M480.332 140.827L240.707 277.922 240.707 556.113 480.332 420.511z" opacity=".157" transform="translate(1164 -242) translate(0 102.6)"/>
                    <path fill="url(#prefix__x)" d="M239.818 0.038L0.137 140.339 240.65 281.128 480.332 140.827z" opacity=".222" transform="translate(1164 -242) translate(0 102.6)"/>
                </g>
                <path fill="url(#prefix__y)" d="M480.332 0.427L240.707 137.522 240.707 847.713 480.332 712.111z" opacity=".43" transform="translate(1164 -242)"/>
                <path fill="url(#prefix__z)" d="M240.707 380.503L0.137 242.939 0.137 711.323 240.707 847.713z" opacity=".142" transform="translate(1164 -242)"/>
            </g>
        </g>
        <g mask="url(#prefix__d)" opacity=".082">
            <g>
                <g transform="translate(132 354) matrix(-1 0 0 1 202.66 177.563)">
                    <path fill="url(#prefix__M)" d="M81.289 94.451L0 46.983 0 75.349 81.289 122.816z"/>
                    <path fill="url(#prefix__N)" d="M81.289 94.965L162.579 47.707 162.579 75.558 81.289 122.816z"/>
                    <use fill="#000" filter="url(#prefix__O)" xlink:href="#prefix__P"/>
                    <use fill="#091D4F" xlink:href="#prefix__P"/>
                    <g transform="matrix(-1 0 0 1 281.867 0)">
                        <use fill="#000" filter="url(#prefix__Q)" xlink:href="#prefix__R"/>
                        <use fill="#3359B4" xlink:href="#prefix__R"/>
                    </g>
                    <path fill="url(#prefix__T)" stroke="url(#prefix__S)" stroke-width="1.519" d="M81.006 1.089L1.508 47.422l80.065 46.664 79.498-46.333L81.006 1.09z"/>
                </g>
                <g transform="translate(132 354) matrix(-1 0 0 1 202.66 137.063)">
                    <path fill="url(#prefix__M)" d="M81.289 94.451L0 46.983 0 75.349 81.289 122.816z"/>
                    <path fill="url(#prefix__N)" d="M81.289 94.965L162.579 47.707 162.579 75.558 81.289 122.816z"/>
                    <use fill="#000" filter="url(#prefix__U)" xlink:href="#prefix__V"/>
                    <use fill="#091D4F" xlink:href="#prefix__V"/>
                    <g transform="matrix(-1 0 0 1 281.867 0)">
                        <use fill="#000" filter="url(#prefix__W)" xlink:href="#prefix__X"/>
                        <use fill="#3359B4" xlink:href="#prefix__X"/>
                    </g>
                    <path fill="url(#prefix__T)" stroke="url(#prefix__S)" stroke-width="1.519" d="M81.006 1.089L1.508 47.422l80.065 46.664 79.498-46.333L81.006 1.09z"/>
                </g>
                <g transform="translate(132 354) matrix(-1 0 0 1 202.66 96.563)">
                    <path fill="url(#prefix__M)" d="M81.289 94.451L0 46.983 0 75.349 81.289 122.816z"/>
                    <path fill="url(#prefix__N)" d="M81.289 94.965L162.579 47.707 162.579 75.558 81.289 122.816z"/>
                    <use fill="#000" filter="url(#prefix__Y)" xlink:href="#prefix__Z"/>
                    <use fill="#24A1C1" xlink:href="#prefix__Z"/>
                    <g transform="matrix(-1 0 0 1 281.867 0)">
                        <use fill="#000" filter="url(#prefix__aa)" xlink:href="#prefix__ab"/>
                        <use fill="#67519E" xlink:href="#prefix__ab"/>
                    </g>
                    <path fill="url(#prefix__ac)" stroke="url(#prefix__S)" stroke-width="1.519" d="M81.006 1.089L1.508 47.422l80.065 46.664 79.498-46.333L81.006 1.09z"/>
                </g>
                <g>
                    <path fill="url(#prefix__ad)" d="M120.353 138.951L0.068 70.17 0.068 209.862 120.353 278.057z" opacity=".187" transform="translate(132 354) translate(0 51.3)"/>
                    <path fill="url(#prefix__ae)" d="M240.166 70.413L120.353 138.961 120.353 278.057 240.166 210.256z" opacity=".157" transform="translate(132 354) translate(0 51.3)"/>
                    <path fill="url(#prefix__af)" d="M119.909 0.019L0.068 70.17 120.325 140.564 240.166 70.413z" opacity=".222" transform="translate(132 354) translate(0 51.3)"/>
                </g>
                <path fill="url(#prefix__ag)" d="M240.166 0.213L120.353 68.761 120.353 423.856 240.166 356.056z" opacity=".43" transform="translate(132 354)"/>
                <path fill="url(#prefix__ah)" d="M120.353 190.251L0.068 121.47 0.068 355.662 120.353 423.856z" opacity=".142" transform="translate(132 354)"/>
            </g>
        </g>
        <g mask="url(#prefix__d)" opacity=".099">
            <g>
                <g transform="translate(-219 -42) matrix(-1 0 0 1 450.688 394.25)">
                    <path fill="url(#prefix__ai)" d="M180.643 209.892L0 104.408 0 167.441 180.643 272.925z"/>
                    <path fill="url(#prefix__aj)" d="M180.643 211.034L361.286 106.017 361.286 167.907 180.643 272.925z"/>
                    <use fill="#000" filter="url(#prefix__ak)" xlink:href="#prefix__al"/>
                    <use fill="#091D4F" xlink:href="#prefix__al"/>
                    <path fill="url(#prefix__an)" stroke="url(#prefix__am)" stroke-width="3.375" d="M180.012 2.419L3.352 105.383l177.922 103.698 176.66-102.962-177.922-103.7z"/>
                </g>
                <g transform="translate(-219 -42) matrix(-1 0 0 1 450.688 304.25)">
                    <path fill="url(#prefix__ai)" d="M180.643 209.892L0 104.408 0 167.441 180.643 272.925z"/>
                    <path fill="url(#prefix__aj)" d="M180.643 211.034L361.286 106.017 361.286 167.907 180.643 272.925z"/>
                    <use fill="#000" filter="url(#prefix__ao)" xlink:href="#prefix__ap"/>
                    <use fill="#091D4F" xlink:href="#prefix__ap"/>
                    <path fill="url(#prefix__an)" stroke="url(#prefix__am)" stroke-width="3.375" d="M180.012 2.419L3.352 105.383l177.922 103.698 176.66-102.962-177.922-103.7z"/>
                </g>
                <g transform="translate(-219 -42) matrix(-1 0 0 1 450.688 214.25)">
                    <path fill="url(#prefix__ai)" d="M180.643 209.892L0 104.408 0 167.441 180.643 272.925z"/>
                    <path fill="url(#prefix__aj)" d="M180.643 211.034L361.286 106.017 361.286 167.907 180.643 272.925z"/>
                    <use fill="#000" filter="url(#prefix__aq)" xlink:href="#prefix__ar"/>
                    <use fill="#24A1C1" xlink:href="#prefix__ar"/>
                    <path fill="url(#prefix__as)" stroke="url(#prefix__am)" stroke-width="3.375" d="M180.012 2.419L3.352 105.383l177.922 103.698 176.66-102.962-177.922-103.7z"/>
                </g>
                <g>
                    <path fill="url(#prefix__at)" d="M267.785 309.447L0.485 156.599 0.485 467.026 267.785 618.57z" opacity=".187" transform="translate(-219 -42) translate(0 113)"/>
                    <path fill="url(#prefix__au)" d="M534.036 157.141L267.785 309.469 267.785 618.57 534.036 467.901z" opacity=".157" transform="translate(-219 -42) translate(0 113)"/>
                    <path fill="url(#prefix__av)" d="M266.798 0.709L0.485 156.599 267.722 313.031 534.036 157.141z" opacity=".222" transform="translate(-219 -42) translate(0 113)"/>
                </g>
                <path fill="url(#prefix__aw)" d="M534.036 0.141L267.785 152.469 267.785 941.57 534.036 790.901z" opacity=".43" transform="translate(-219 -42)"/>
                <path fill="url(#prefix__ax)" d="M267.785 422.447L0.485 269.599 0.485 790.026 267.785 941.57z" opacity=".142" transform="translate(-219 -42)"/>
            </g>
        </g>
    </g>
</svg>
