<svg xmlns="http://www.w3.org/2000/svg" xmlns:xlink="http://www.w3.org/1999/xlink" width="1440" height="640" viewBox="0 0 1440 640">
    <defs>
        <linearGradient id="prefix__b" x1="93.267%" x2="12.125%" y1="57.095%" y2="44.797%">
            <stop offset="0%" stop-color="#0A183F" stop-opacity=".981"/>
            <stop offset="100%" stop-color="#110325"/>
        </linearGradient>
        <linearGradient id="prefix__g" x1="100%" x2="16.416%" y1="33.015%" y2="56.936%">
            <stop offset="0%" stop-color="#557BD7"/>
            <stop offset="100%" stop-color="#1643AF"/>
        </linearGradient>
        <linearGradient id="prefix__f" x1="46.672%" x2="46.672%" y1="100%" y2="34.88%">
            <stop offset="0%" stop-color="#FFF" stop-opacity=".158"/>
            <stop offset="100%" stop-color="#FFF" stop-opacity="0"/>
        </linearGradient>
        <linearGradient id="prefix__h" x1="-44.408%" x2="100%" y1="6.487%" y2="73.336%">
            <stop offset="0%" stop-color="#081537"/>
            <stop offset="100%" stop-color="#14388E"/>
        </linearGradient>
        <linearGradient id="prefix__i" x1="-38.234%" x2="106.55%" y1="87.164%" y2="18.209%">
            <stop offset="0%" stop-color="#7898E5"/>
            <stop offset="100%" stop-color="#4B76DD"/>
        </linearGradient>
        <linearGradient id="prefix__r" x1="69.185%" x2="21.574%" y1="40.486%" y2="56.712%">
            <stop offset="0%" stop-color="#A4BFFF"/>
            <stop offset="100%" stop-color="#638AE7"/>
        </linearGradient>
        <linearGradient id="prefix__s" x1="33.261%" x2="66.739%" y1="19.969%" y2="83.989%">
            <stop offset="0%" stop-color="#8CD9ED"/>
            <stop offset="100%" stop-color="#6CBACE"/>
        </linearGradient>
        <linearGradient id="prefix__t" x1="74.268%" x2="39.604%" y1="67.667%" y2="34.637%">
            <stop offset="0%" stop-color="#004557"/>
            <stop offset="100%" stop-color="#097692"/>
        </linearGradient>
        <linearGradient id="prefix__u" x1="88.697%" x2="10.887%" y1="58.551%" y2="36.669%">
            <stop offset="0%" stop-color="#24A1C1"/>
            <stop offset="100%" stop-color="#7BC6D9"/>
        </linearGradient>
        <linearGradient id="prefix__v" x1="51.688%" x2="60.865%" y1="5.202%" y2="70.795%">
            <stop offset="0%" stop-color="#004557" stop-opacity="0"/>
            <stop offset="33.193%" stop-color="#045A71" stop-opacity=".364"/>
            <stop offset="62.342%" stop-color="#056077" stop-opacity=".456"/>
            <stop offset="100%" stop-color="#097692" stop-opacity="0"/>
        </linearGradient>
        <linearGradient id="prefix__w" x1="48.693%" x2="43.768%" y1="40.674%" y2="71.254%">
            <stop offset="0%" stop-color="#8CD9ED"/>
            <stop offset="100%" stop-color="#6CBACE" stop-opacity="0"/>
        </linearGradient>
        <linearGradient id="prefix__x" x1="-44.408%" x2="100%" y1="6.487%" y2="73.336%">
            <stop offset="0%" stop-color="#081537"/>
            <stop offset="100%" stop-color="#14388E"/>
        </linearGradient>
        <linearGradient id="prefix__y" x1="-38.234%" x2="106.55%" y1="87.164%" y2="18.209%">
            <stop offset="0%" stop-color="#7898E5"/>
            <stop offset="100%" stop-color="#4B76DD"/>
        </linearGradient>
        <linearGradient id="prefix__C" x1="100%" x2="16.416%" y1="33.015%" y2="56.936%">
            <stop offset="0%" stop-color="#557BD7"/>
            <stop offset="100%" stop-color="#1643AF"/>
        </linearGradient>
        <linearGradient id="prefix__B" x1="46.672%" x2="46.672%" y1="100%" y2="34.88%">
            <stop offset="0%" stop-color="#FFF" stop-opacity=".158"/>
            <stop offset="100%" stop-color="#FFF" stop-opacity="0"/>
        </linearGradient>
        <linearGradient id="prefix__H" x1="69.185%" x2="21.574%" y1="40.486%" y2="56.712%">
            <stop offset="0%" stop-color="#A4BFFF"/>
            <stop offset="100%" stop-color="#638AE7"/>
        </linearGradient>
        <linearGradient id="prefix__I" x1="33.261%" x2="66.739%" y1="19.969%" y2="83.989%">
            <stop offset="0%" stop-color="#8CD9ED"/>
            <stop offset="100%" stop-color="#6CBACE"/>
        </linearGradient>
        <linearGradient id="prefix__J" x1="74.268%" x2="39.604%" y1="67.667%" y2="34.637%">
            <stop offset="0%" stop-color="#004557"/>
            <stop offset="100%" stop-color="#097692"/>
        </linearGradient>
        <linearGradient id="prefix__K" x1="88.697%" x2="10.887%" y1="58.551%" y2="36.669%">
            <stop offset="0%" stop-color="#24A1C1"/>
            <stop offset="100%" stop-color="#7BC6D9"/>
        </linearGradient>
        <linearGradient id="prefix__L" x1="51.688%" x2="60.865%" y1="5.202%" y2="70.795%">
            <stop offset="0%" stop-color="#004557" stop-opacity="0"/>
            <stop offset="33.193%" stop-color="#045A71" stop-opacity=".364"/>
            <stop offset="62.342%" stop-color="#056077" stop-opacity=".456"/>
            <stop offset="100%" stop-color="#097692" stop-opacity="0"/>
        </linearGradient>
        <linearGradient id="prefix__M" x1="48.693%" x2="43.768%" y1="40.674%" y2="71.254%">
            <stop offset="0%" stop-color="#8CD9ED"/>
            <stop offset="100%" stop-color="#6CBACE" stop-opacity="0"/>
        </linearGradient>
        <path id="prefix__a" d="M0 0H1440V640H0z"/>
        <path id="prefix__d" d="M0 0H1440V640H0z"/>
        <path id="prefix__k" d="M145.263 206.538c0-1.407-.866-3.045-1.932-3.654l-62.515-35.751c-1.066-.61-1.932.038-1.932 1.446v5.1c0 1.408.866 3.046 1.932 3.655l62.515 35.751c1.066.61 1.932-.038 1.932-1.446v-5.1z"/>
        <path id="prefix__m" d="M263.666 132.537c2.697 1.54 4.887 5.674 4.887 9.228 0 3.554-2.19 5.19-4.887 3.651-2.697-1.539-4.887-5.674-4.887-9.228 0-3.554 2.19-5.19 4.887-3.65zm18.201 10.386c2.697 1.539 4.887 5.674 4.887 9.228 0 3.554-2.19 5.19-4.887 3.651-2.697-1.539-4.887-5.674-4.887-9.228 0-3.554 2.19-5.19 4.887-3.651zm18.201 10.385c2.698 1.54 4.887 5.674 4.887 9.229 0 3.554-2.19 5.19-4.887 3.65-2.697-1.538-4.886-5.673-4.886-9.227 0-3.554 2.19-5.19 4.886-3.652z"/>
        <path id="prefix__o" d="M145.263 206.538c0-1.407-.866-3.045-1.932-3.654l-62.515-35.751c-1.066-.61-1.932.038-1.932 1.446v5.1c0 1.408.866 3.046 1.932 3.655l62.515 35.751c1.066.61 1.932-.038 1.932-1.446v-5.1z"/>
        <path id="prefix__q" d="M263.666 132.537c2.697 1.54 4.887 5.674 4.887 9.228 0 3.554-2.19 5.19-4.887 3.651-2.697-1.539-4.887-5.674-4.887-9.228 0-3.554 2.19-5.19 4.887-3.65zm18.201 10.386c2.697 1.539 4.887 5.674 4.887 9.228 0 3.554-2.19 5.19-4.887 3.651-2.697-1.539-4.887-5.674-4.887-9.228 0-3.554 2.19-5.19 4.887-3.651zm18.201 10.385c2.698 1.54 4.887 5.674 4.887 9.229 0 3.554-2.19 5.19-4.887 3.65-2.697-1.538-4.886-5.673-4.886-9.227 0-3.554 2.19-5.19 4.886-3.652z"/>
        <path id="prefix__A" d="M161.403 229.487c0-1.564-.962-3.384-2.146-4.06l-69.462-39.724c-1.184-.677-2.146.043-2.146 1.607v5.667c0 1.564.962 3.384 2.146 4.061l69.462 39.723c1.184.678 2.146-.042 2.146-1.606v-5.668z"/>
        <path id="prefix__E" d="M161.403 229.487c0-1.564-.962-3.384-2.146-4.06l-69.462-39.724c-1.184-.677-2.146.043-2.146 1.607v5.667c0 1.564.962 3.384 2.146 4.061l69.462 39.723c1.184.678 2.146-.042 2.146-1.606v-5.668z"/>
        <path id="prefix__G" d="M161.403 229.487c0-1.564-.962-3.384-2.146-4.06l-69.462-39.724c-1.184-.677-2.146.043-2.146 1.607v5.667c0 1.564.962 3.384 2.146 4.061l69.462 39.723c1.184.678 2.146-.042 2.146-1.606v-5.668z"/>
        <filter id="prefix__j" width="107.5%" height="121.5%" x="-3.8%" y="-5.4%" filterUnits="objectBoundingBox">
            <feOffset dy="5" in="SourceAlpha" result="shadowOffsetOuter1"/>
            <feColorMatrix in="shadowOffsetOuter1" values="0 0 0 0 1 0 0 0 0 1 0 0 0 0 1 0 0 0 0.135134397 0"/>
        </filter>
        <filter id="prefix__l" width="110.8%" height="128.7%" x="-5.4%" y="-7.2%" filterUnits="objectBoundingBox">
            <feOffset dy="5" in="SourceAlpha" result="shadowOffsetOuter1"/>
            <feColorMatrix in="shadowOffsetOuter1" values="0 0 0 0 1 0 0 0 0 1 0 0 0 0 1 0 0 0 0.140406469 0"/>
        </filter>
        <filter id="prefix__n" width="107.5%" height="121.5%" x="-3.8%" y="-5.4%" filterUnits="objectBoundingBox">
            <feOffset dy="5" in="SourceAlpha" result="shadowOffsetOuter1"/>
            <feColorMatrix in="shadowOffsetOuter1" values="0 0 0 0 1 0 0 0 0 1 0 0 0 0 1 0 0 0 0.135134397 0"/>
        </filter>
        <filter id="prefix__p" width="110.8%" height="128.7%" x="-5.4%" y="-7.2%" filterUnits="objectBoundingBox">
            <feOffset dy="5" in="SourceAlpha" result="shadowOffsetOuter1"/>
            <feColorMatrix in="shadowOffsetOuter1" values="0 0 0 0 1 0 0 0 0 1 0 0 0 0 1 0 0 0 0.140406469 0"/>
        </filter>
        <filter id="prefix__z" width="108.1%" height="123.3%" x="-4.1%" y="-5.8%" filterUnits="objectBoundingBox">
            <feOffset dy="6" in="SourceAlpha" result="shadowOffsetOuter1"/>
            <feColorMatrix in="shadowOffsetOuter1" values="0 0 0 0 1 0 0 0 0 1 0 0 0 0 1 0 0 0 0.135134397 0"/>
        </filter>
        <filter id="prefix__D" width="108.1%" height="123.3%" x="-4.1%" y="-5.8%" filterUnits="objectBoundingBox">
            <feOffset dy="6" in="SourceAlpha" result="shadowOffsetOuter1"/>
            <feColorMatrix in="shadowOffsetOuter1" values="0 0 0 0 1 0 0 0 0 1 0 0 0 0 1 0 0 0 0.135134397 0"/>
        </filter>
        <filter id="prefix__F" width="108.1%" height="123.3%" x="-4.1%" y="-5.8%" filterUnits="objectBoundingBox">
            <feOffset dy="6" in="SourceAlpha" result="shadowOffsetOuter1"/>
            <feColorMatrix in="shadowOffsetOuter1" values="0 0 0 0 1 0 0 0 0 1 0 0 0 0 1 0 0 0 0.135134397 0"/>
        </filter>
    </defs>
    <g fill="none" fill-rule="evenodd">
        <mask id="prefix__c" fill="#fff">
            <use xlink:href="#prefix__a"/>
        </mask>
        <use fill="url(#prefix__b)" xlink:href="#prefix__a"/>
        <g mask="url(#prefix__c)">
            <mask id="prefix__e" fill="#fff">
                <use xlink:href="#prefix__d"/>
            </mask>
            <g mask="url(#prefix__e)" opacity=".124">
                <g>
                    <path fill="url(#prefix__g)" stroke="url(#prefix__f)" stroke-width="3.038" d="M162.011 2.177L3.016 94.845l160.13 93.328 158.995-92.666-160.13-93.33z" transform="translate(394 194) matrix(-1 0 0 1 405.319 355.125)"/>
                    <g transform="translate(394 194) matrix(-1 0 0 1 405.319 274.125)">
                        <path fill="url(#prefix__h)" d="M162.579 188.903L0 93.967 0 150.697 162.579 245.633z"/>
                        <path fill="url(#prefix__i)" d="M162.579 189.931L325.157 95.415 325.157 151.116 162.579 245.633z"/>
                        <use fill="#000" filter="url(#prefix__j)" xlink:href="#prefix__k"/>
                        <use fill="#091D4F" xlink:href="#prefix__k"/>
                        <g transform="matrix(-1 0 0 1 563.735 0)">
                            <use fill="#000" filter="url(#prefix__l)" xlink:href="#prefix__m"/>
                            <use fill="#3359B4" xlink:href="#prefix__m"/>
                        </g>
                        <path fill="url(#prefix__g)" stroke="url(#prefix__f)" stroke-width="3.038" d="M162.011 2.177L3.016 94.845l160.13 93.328 158.995-92.666-160.13-93.33z"/>
                    </g>
                    <g transform="translate(394 194) matrix(-1 0 0 1 405.319 193.125)">
                        <path fill="url(#prefix__h)" d="M162.579 188.903L0 93.967 0 150.697 162.579 245.633z"/>
                        <path fill="url(#prefix__i)" d="M162.579 189.931L325.157 95.415 325.157 151.116 162.579 245.633z"/>
                        <use fill="#000" filter="url(#prefix__n)" xlink:href="#prefix__o"/>
                        <use fill="#24A1C1" xlink:href="#prefix__o"/>
                        <g transform="matrix(-1 0 0 1 563.735 0)">
                            <use fill="#000" filter="url(#prefix__p)" xlink:href="#prefix__q"/>
                            <use fill="#67519E" xlink:href="#prefix__q"/>
                        </g>
                        <path fill="url(#prefix__r)" stroke="url(#prefix__f)" stroke-width="3.038" d="M162.011 2.177L3.016 94.845l160.13 93.328 158.995-92.666-160.13-93.33z"/>
                    </g>
                    <g>
                        <path fill="url(#prefix__s)" d="M240.707 277.903L0.137 140.339 0.137 419.723 240.707 556.113z" opacity=".187" transform="translate(394 194) translate(0 102.6)"/>
                        <path fill="url(#prefix__t)" d="M480.332 140.827L240.707 277.922 240.707 556.113 480.332 420.511z" opacity=".157" transform="translate(394 194) translate(0 102.6)"/>
                        <path fill="url(#prefix__u)" d="M239.818 0.038L0.137 140.339 240.65 281.128 480.332 140.827z" opacity=".222" transform="translate(394 194) translate(0 102.6)"/>
                    </g>
                    <path fill="url(#prefix__v)" d="M480.332 0.427L240.707 137.522 240.707 847.713 480.332 712.111z" opacity=".43" transform="translate(394 194)"/>
                    <path fill="url(#prefix__w)" d="M240.707 380.503L0.137 242.939 0.137 711.323 240.707 847.713z" opacity=".142" transform="translate(394 194)"/>
                </g>
            </g>
            <g mask="url(#prefix__e)" opacity=".099">
                <g>
                    <g transform="translate(-219 -42) matrix(-1 0 0 1 450.688 394.25)">
                        <path fill="url(#prefix__x)" d="M180.643 209.892L0 104.408 0 167.441 180.643 272.925z"/>
                        <path fill="url(#prefix__y)" d="M180.643 211.034L361.286 106.017 361.286 167.907 180.643 272.925z"/>
                        <use fill="#000" filter="url(#prefix__z)" xlink:href="#prefix__A"/>
                        <use fill="#091D4F" xlink:href="#prefix__A"/>
                        <path fill="url(#prefix__C)" stroke="url(#prefix__B)" stroke-width="3.375" d="M180.012 2.419L3.352 105.383l177.922 103.698 176.66-102.962-177.922-103.7z"/>
                    </g>
                    <g transform="translate(-219 -42) matrix(-1 0 0 1 450.688 304.25)">
                        <path fill="url(#prefix__x)" d="M180.643 209.892L0 104.408 0 167.441 180.643 272.925z"/>
                        <path fill="url(#prefix__y)" d="M180.643 211.034L361.286 106.017 361.286 167.907 180.643 272.925z"/>
                        <use fill="#000" filter="url(#prefix__D)" xlink:href="#prefix__E"/>
                        <use fill="#091D4F" xlink:href="#prefix__E"/>
                        <path fill="url(#prefix__C)" stroke="url(#prefix__B)" stroke-width="3.375" d="M180.012 2.419L3.352 105.383l177.922 103.698 176.66-102.962-177.922-103.7z"/>
                    </g>
                    <g transform="translate(-219 -42) matrix(-1 0 0 1 450.688 214.25)">
                        <path fill="url(#prefix__x)" d="M180.643 209.892L0 104.408 0 167.441 180.643 272.925z"/>
                        <path fill="url(#prefix__y)" d="M180.643 211.034L361.286 106.017 361.286 167.907 180.643 272.925z"/>
                        <use fill="#000" filter="url(#prefix__F)" xlink:href="#prefix__G"/>
                        <use fill="#24A1C1" xlink:href="#prefix__G"/>
                        <path fill="url(#prefix__H)" stroke="url(#prefix__B)" stroke-width="3.375" d="M180.012 2.419L3.352 105.383l177.922 103.698 176.66-102.962-177.922-103.7z"/>
                    </g>
                    <g>
                        <path fill="url(#prefix__I)" d="M267.785 309.447L0.485 156.599 0.485 467.026 267.785 618.57z" opacity=".187" transform="translate(-219 -42) translate(0 113)"/>
                        <path fill="url(#prefix__J)" d="M534.036 157.141L267.785 309.469 267.785 618.57 534.036 467.901z" opacity=".157" transform="translate(-219 -42) translate(0 113)"/>
                        <path fill="url(#prefix__K)" d="M266.798 0.709L0.485 156.599 267.722 313.031 534.036 157.141z" opacity=".222" transform="translate(-219 -42) translate(0 113)"/>
                    </g>
                    <path fill="url(#prefix__L)" d="M534.036 0.141L267.785 152.469 267.785 941.57 534.036 790.901z" opacity=".43" transform="translate(-219 -42)"/>
                    <path fill="url(#prefix__M)" d="M267.785 422.447L0.485 269.599 0.485 790.026 267.785 941.57z" opacity=".142" transform="translate(-219 -42)"/>
                </g>
            </g>
        </g>
    </g>
</svg>
