<svg xmlns="http://www.w3.org/2000/svg" xmlns:xlink="http://www.w3.org/1999/xlink" width="587" height="624" viewBox="0 0 587 624">
    <defs>
        <linearGradient id="prefix__c" x1="88.033%" x2="44.429%" y1="100%" y2="-17.628%">
            <stop offset="0%" stop-color="#06102A"/>
            <stop offset="100%" stop-color="#1E54D5"/>
        </linearGradient>
        <linearGradient id="prefix__d" x1="70.934%" x2="46.933%" y1="100%" y2="-17.628%">
            <stop offset="0%" stop-color="#06102A"/>
            <stop offset="100%" stop-color="#1E54D5"/>
        </linearGradient>
        <linearGradient id="prefix__e" x1="50%" x2="82.218%" y1="3.665%" y2="83.146%">
            <stop offset="0%" stop-color="#FFF" stop-opacity=".128"/>
            <stop offset="100%" stop-color="#FFF" stop-opacity="0"/>
        </linearGradient>
        <linearGradient id="prefix__g" x1="13.863%" x2="89.495%" y1="4.407%" y2="99.435%">
            <stop offset="0%" stop-color="#5988FF"/>
            <stop offset="100%" stop-color="#1E54D5"/>
        </linearGradient>
        <linearGradient id="prefix__f" x1="51.875%" x2="58.318%" y1="6.567%" y2="68.745%">
            <stop offset="0%" stop-color="#FFF" stop-opacity=".212"/>
            <stop offset="100%" stop-color="#FFF" stop-opacity="0"/>
        </linearGradient>
        <linearGradient id="prefix__i" x1="54.504%" x2="29.992%" y1="-20.313%" y2="93.015%">
            <stop offset="0%" stop-color="#3964C9"/>
            <stop offset="100%" stop-color="#081435"/>
        </linearGradient>
        <linearGradient id="prefix__k" x1="69.185%" x2="21.574%" y1="38.326%" y2="58.236%">
            <stop offset="0%" stop-color="#DFE8FF"/>
            <stop offset="100%" stop-color="#A9C2FF"/>
        </linearGradient>
        <linearGradient id="prefix__j" x1="46.672%" x2="46.672%" y1="100%" y2="34.88%">
            <stop offset="0%" stop-color="#FFF" stop-opacity=".158"/>
            <stop offset="100%" stop-color="#FFF" stop-opacity="0"/>
        </linearGradient>
        <linearGradient id="prefix__o" x1="75.681%" x2="51.887%" y1="52.534%" y2="20.697%">
            <stop offset="0%" stop-color="#1E54D5" stop-opacity="0"/>
            <stop offset="100%" stop-color="#1E54D5"/>
        </linearGradient>
        <linearGradient id="prefix__n" x1="57.207%" x2="70.758%" y1="27.13%" y2="50%">
            <stop offset="0%" stop-color="#3F8DEC"/>
            <stop offset="100%" stop-color="#1E54D5" stop-opacity="0"/>
        </linearGradient>
        <linearGradient id="prefix__s" x1="61.082%" x2="38.059%" y1="53.634%" y2="25.248%">
            <stop offset="0%" stop-color="#00A697" stop-opacity="0"/>
            <stop offset="100%" stop-color="#00A697"/>
        </linearGradient>
        <linearGradient id="prefix__r" x1="54.713%" x2="69.527%" y1="27.547%" y2="47.08%">
            <stop offset="0%" stop-color="#00D2C8"/>
            <stop offset="100%" stop-color="#00A697" stop-opacity="0"/>
        </linearGradient>
        <linearGradient id="prefix__t" x1="34.248%" x2="52.632%" y1="4.407%" y2="95.632%">
            <stop offset="0%" stop-color="#0F1639" stop-opacity=".66"/>
            <stop offset="100%" stop-color="#0A061D"/>
        </linearGradient>
        <linearGradient id="prefix__w" x1="36.885%" x2="65.506%" y1="0%" y2="100%">
            <stop offset="0%" stop-color="#1B4CC1"/>
            <stop offset="100%" stop-color="#08163A"/>
        </linearGradient>
        <linearGradient id="prefix__v" x1="48.141%" x2="69.291%" y1="-2.035%" y2="85.077%">
            <stop offset="0%" stop-color="#FFF" stop-opacity=".239"/>
            <stop offset="100%" stop-color="#FFF" stop-opacity="0"/>
        </linearGradient>
        <linearGradient id="prefix__y" x1="34.248%" x2="52.632%" y1="4.407%" y2="95.632%">
            <stop offset="0%" stop-color="#5988FF"/>
            <stop offset="100%" stop-color="#1746B4"/>
        </linearGradient>
        <linearGradient id="prefix__x" x1="50.817%" x2="53.626%" y1="6.567%" y2="68.745%">
            <stop offset="0%" stop-color="#FFF" stop-opacity=".212"/>
            <stop offset="100%" stop-color="#FFF" stop-opacity="0"/>
        </linearGradient>
        <linearGradient id="prefix__z" x1="45.473%" x2="59.022%" y1="11.467%" y2="110.615%">
            <stop offset="0%" stop-color="#7BC8DC"/>
            <stop offset="100%" stop-color="#076A83"/>
        </linearGradient>
        <linearGradient id="prefix__A" x1="50%" x2="50%" y1="6.955%" y2="91.209%">
            <stop offset="0%" stop-color="#FFF"/>
            <stop offset="100%" stop-color="#FFF" stop-opacity="0"/>
        </linearGradient>
        <linearGradient id="prefix__B" x1="41.881%" x2="58.198%" y1="4.693%" y2="93.595%">
            <stop offset="0%" stop-color="#1C1F59" stop-opacity=".172"/>
            <stop offset="100%" stop-color="#1B2057"/>
        </linearGradient>
        <linearGradient id="prefix__C" x1="43.288%" x2="67.54%" y1="0%" y2="141.875%">
            <stop offset="0%" stop-color="#1B4CC1"/>
            <stop offset="100%" stop-color="#08163A"/>
        </linearGradient>
        <linearGradient id="prefix__E" x1="59.086%" x2="36.538%" y1="21.992%" y2="69.76%">
            <stop offset="0%" stop-color="#DFE8FF"/>
            <stop offset="100%" stop-color="#A9C2FF"/>
        </linearGradient>
        <linearGradient id="prefix__D" x1="46.672%" x2="46.672%" y1="100%" y2="34.88%">
            <stop offset="0%" stop-color="#FFF" stop-opacity=".158"/>
            <stop offset="100%" stop-color="#FFF" stop-opacity="0"/>
        </linearGradient>
        <linearGradient id="prefix__G" x1="55.191%" x2="38.934%" y1="14.511%" y2="69.76%">
            <stop offset="0%" stop-color="#A4BFFF"/>
            <stop offset="100%" stop-color="#5D82DC"/>
        </linearGradient>
        <linearGradient id="prefix__F" x1="46.672%" x2="46.672%" y1="100%" y2="34.88%">
            <stop offset="0%" stop-color="#FFF" stop-opacity=".158"/>
            <stop offset="100%" stop-color="#FFF" stop-opacity="0"/>
        </linearGradient>
        <linearGradient id="prefix__J" x1="8.041%" x2="72.222%" y1="0%" y2="76.816%">
            <stop offset="0%" stop-color="#92B0FF"/>
            <stop offset="100%" stop-color="#8CABF3"/>
        </linearGradient>
        <linearGradient id="prefix__K" x1="33.261%" x2="66.739%" y1="19.969%" y2="83.989%">
            <stop offset="0%" stop-color="#8CD9ED"/>
            <stop offset="100%" stop-color="#6CBACE"/>
        </linearGradient>
        <linearGradient id="prefix__L" x1="74.268%" x2="39.604%" y1="67.667%" y2="34.637%">
            <stop offset="0%" stop-color="#004557"/>
            <stop offset="100%" stop-color="#097692"/>
        </linearGradient>
        <linearGradient id="prefix__M" x1="88.697%" x2="10.887%" y1="58.551%" y2="36.669%">
            <stop offset="0%" stop-color="#24A1C1"/>
            <stop offset="100%" stop-color="#7BC6D9"/>
        </linearGradient>
        <linearGradient id="prefix__N" x1="33.261%" x2="66.739%" y1="19.969%" y2="83.989%">
            <stop offset="0%" stop-color="#8CD9ED"/>
            <stop offset="100%" stop-color="#6CBACE"/>
        </linearGradient>
        <linearGradient id="prefix__O" x1="74.268%" x2="39.604%" y1="67.667%" y2="34.637%">
            <stop offset="0%" stop-color="#004557"/>
            <stop offset="100%" stop-color="#097692"/>
        </linearGradient>
        <linearGradient id="prefix__P" x1="88.697%" x2="10.887%" y1="58.551%" y2="36.669%">
            <stop offset="0%" stop-color="#24A1C1"/>
            <stop offset="100%" stop-color="#7BC6D9"/>
        </linearGradient>
        <linearGradient id="prefix__Q" x1="33.261%" x2="66.739%" y1="19.969%" y2="83.989%">
            <stop offset="0%" stop-color="#8CD9ED"/>
            <stop offset="100%" stop-color="#6CBACE"/>
        </linearGradient>
        <linearGradient id="prefix__R" x1="74.268%" x2="39.604%" y1="67.667%" y2="34.637%">
            <stop offset="0%" stop-color="#004557"/>
            <stop offset="100%" stop-color="#097692"/>
        </linearGradient>
        <linearGradient id="prefix__S" x1="88.697%" x2="10.887%" y1="58.551%" y2="36.669%">
            <stop offset="0%" stop-color="#24A1C1"/>
            <stop offset="100%" stop-color="#7BC6D9"/>
        </linearGradient>
        <filter id="prefix__b" width="100%" height="100%" x="0%" y="0%" filterUnits="objectBoundingBox">
            <feGaussianBlur in="SourceGraphic"/>
        </filter>
        <filter id="prefix__h" width="133.2%" height="123.6%" x="-16.6%" y="-11.8%" filterUnits="objectBoundingBox">
            <feGaussianBlur in="SourceGraphic" stdDeviation="16"/>
        </filter>
        <filter id="prefix__l" width="120.8%" height="120.7%" x="-12.5%" y="-10.3%" filterUnits="objectBoundingBox">
            <feOffset dx="-6" in="SourceAlpha" result="shadowOffsetOuter1"/>
            <feGaussianBlur in="shadowOffsetOuter1" result="shadowBlurOuter1" stdDeviation="9"/>
            <feComposite in="shadowBlurOuter1" in2="SourceAlpha" operator="out" result="shadowBlurOuter1"/>
            <feColorMatrix in="shadowBlurOuter1" values="0 0 0 0 0.0235294118 0 0 0 0 0.062745098 0 0 0 0 0.164705882 0 0 0 0.28715035 0"/>
        </filter>
        <filter id="prefix__p" width="120.8%" height="127.5%" x="-12.5%" y="-13.7%" filterUnits="objectBoundingBox">
            <feOffset dx="-6" in="SourceAlpha" result="shadowOffsetOuter1"/>
            <feGaussianBlur in="shadowOffsetOuter1" result="shadowBlurOuter1" stdDeviation="9"/>
            <feComposite in="shadowBlurOuter1" in2="SourceAlpha" operator="out" result="shadowBlurOuter1"/>
            <feColorMatrix in="shadowBlurOuter1" values="0 0 0 0 0.0235294118 0 0 0 0 0.062745098 0 0 0 0 0.164705882 0 0 0 0.332440997 0"/>
        </filter>
        <filter id="prefix__u" width="156.2%" height="133.2%" x="-28.1%" y="-16.6%" filterUnits="objectBoundingBox">
            <feGaussianBlur in="SourceGraphic" stdDeviation="18"/>
        </filter>
        <filter id="prefix__H" width="141.7%" height="132.3%" x="-20.8%" y="-8.1%" filterUnits="objectBoundingBox">
            <feOffset dy="5" in="SourceAlpha" result="shadowOffsetOuter1"/>
            <feColorMatrix in="shadowOffsetOuter1" values="0 0 0 0 0.564705882 0 0 0 0 0.678431373 0 0 0 0 0.949019608 0 0 0 1 0"/>
        </filter>
        <path id="prefix__m" d="M256.93 183.45c15.922-9.067 13.676-21.85 27.061-29.407 13.384-7.56 7.75 59.136 27.833 47.309l.786-.463v37.873c0 14.385-8.656 31.086-19.413 37.626l-.49.29-249.27 143.495c-10.861 6.252-19.702-.25-19.9-14.512l-.003-.49v-45.599l.524.515c2.948 2.813 6.602 4.762 14.073.38 16.54-9.704 10.659-82.21 21.017-88.447 10.358-6.238 21.08 76.433 33.876 68.607 12.796-7.826 14.992-49.13 27.806-56.593 12.814-7.462 12.247 26.873 27.984 17.612 15.738-9.262 13.473-90.301 26.423-97.757 12.952-7.455 8.16 32.423 26.69 21.675 18.531-10.75 11.258-82.576 27.943-92.181 16.686-9.605 11.14 59.134 27.06 50.067z"/>
        <path id="prefix__q" d="M159.317 288.25c20.306-11.752 6.627-42.807 22.111-51.558 15.485-8.75 11.844 35.746 28.784 25.828 16.938-9.918 13.347-36.472 26.988-44.397 13.639-7.924 17.539 43.186 32.245 34.61 14.706-8.575 15.284-34.392 29.394-42.841 6.609-3.958 10.316 4.599 13.77 14.02v14.85c0 14.385-8.655 31.086-19.412 37.626l-.49.29-249.27 143.495c-10.861 6.252-19.702-.25-19.9-14.512l-.005-.49v-77.28c2.84-.723 6.101-1.934 10.092-4.122 14.595-8 11.18 55.466 29.377 45.251 18.198-10.215 11.058-43.575 29.766-54.879 18.708-11.304 14.314-100.265 30.016-109.317 15.703-9.052 16.226 95.18 36.534 83.426z"/>
        <path id="prefix__I" d="M199 222.643c0-4.556 2.709-9.93 6-11.904 3.292-1.975 6 .15 6 4.705-.005 2.593-.894 5.567-2.396 8.012v9.95c0 2.736-1.627 5.964-3.604 7.15s-3.604-.09-3.604-2.826v-9.95c-1.502-.643-2.391-2.55-2.396-5.137z"/>
        <radialGradient id="prefix__a" cx="50%" cy="50%" r="45.672%" fx="50%" fy="50%" gradientTransform="matrix(0 .90323 -1 0 1 .048)">
            <stop offset="0%" stop-color="#9D0FB0"/>
            <stop offset="100%" stop-color="#9D0FB0" stop-opacity="0"/>
        </radialGradient>
    </defs>
    <g fill="none" fill-rule="evenodd" transform="translate(0 -58)">
        <ellipse cx="322" cy="356.5" fill="url(#prefix__a)" filter="url(#prefix__b)" opacity=".544" rx="322" ry="356.5"/>
        <g>
            <path fill="url(#prefix__c)" d="M135.83 6.999l.047.026c19.67-10.993 45.011-9.261 72.208 6.449 58.43 33.752 106.379 120.984 110.95 200.652 26.358 24.846 45.065 67.885 45.065 104.756 0 23.678-7.605 40.642-19.73 48.567l.111.062-34.083 19.689-13.021-7.522 16.449-9.5c-3.218-1.077-6.522-2.54-9.892-4.406l-1.126-.636-195.02-112.655c-43.008-24.845-78.007-91.685-78.007-148.993 0-15.54 2.573-28.81 7.183-39.4l-10.564-6.1 31.854-18.402.11.062c13.036-6.73 29.591-5.917 47.64 3.97 1.936-4.802 4.133-9.222 6.568-13.252l-8.596-4.966L135.83 6.999l.046.026-.046-.026z" transform="translate(271 58)"/>
            <path fill="url(#prefix__d)" d="M279.4 237.618l40.213-22.672-.47-.446c26.294 24.76 44.957 67.646 44.957 104.388 0 3.632-.18 7.105-.528 10.411L326.956 345.4 279.4 237.618z" opacity=".68" transform="translate(271 58)"/>
            <path stroke="url(#prefix__e)" stroke-width="1.1" d="M207.81 13.95C180.826-1.636 155.672-3.41 136.097 7.48L105.075 25.4l8.26 4.77c-2.538 4.135-4.82 8.69-6.821 13.654l-.23.575-.544-.299c-17.842-9.773-34.216-10.622-47.224-4.03L27.5 57.987l10.165 5.87c-4.707 10.606-7.334 23.957-7.334 39.631 0 57.116 34.861 123.751 77.733 148.516l195.02 112.655 1.12.635c3.746 2.073 7.415 3.647 10.971 4.74l-16.699 9.644 11.92 6.886 33.685-19.584c12.003-7.853 19.469-24.68 19.469-48.098 0-36.73-18.635-79.604-45.065-104.725-4.56-79.48-52.376-166.53-110.676-200.207z" transform="translate(271 58)"/>
            <path fill="url(#prefix__g)" stroke="url(#prefix__f)" stroke-width="1.1" d="M75.725 61.75c-10.242-5.634-19.996-8.306-28.887-8.287-9.175.02-17.423 2.908-24.323 8.35C8.902 72.552.55 93.176.55 121.207c0 57.18 34.755 123.892 77.496 148.685L272.47 382.673c8.169 4.739 15.963 7.088 23.079 7.266 7.345.184 13.96-1.952 19.5-6.15 10.962-8.307 17.7-24.638 17.7-46.946 0-36.772-18.579-79.695-44.927-104.843-4.546-79.571-52.217-166.72-110.34-200.435-22.075-12.805-42.917-16.298-60.445-11.1-17.55 5.204-31.748 19.12-40.537 41.008l-.23.576c-.181-.098-.363-.199-.546-.3z" transform="translate(271 58)"/>
        </g>
        <g transform="matrix(-1 0 0 1 501 145)">
            <path fill="#06102A" d="M289.212 17.41c0-14.602-8.919-21.324-19.903-15.001L20.04 145.904C9.056 152.227.138 169.217.138 183.82v205.77c0 14.603 8.918 21.325 19.903 15.002l249.27-143.495c10.983-6.323 19.902-23.314 19.902-37.916V17.41z" filter="url(#prefix__h)" opacity=".201"/>
            <path fill="url(#prefix__i)" d="M312.609 32.992c0-14.603-8.919-21.324-19.903-15.002L43.436 161.486c-10.984 6.322-19.902 23.313-19.902 37.915v205.77c0 14.603 8.918 21.325 19.903 15.002l249.27-143.495c10.983-6.323 19.902-23.313 19.902-37.916V32.992z"/>
            <path fill="url(#prefix__k)" stroke="url(#prefix__j)" stroke-width="1.191" d="M300.373 16.21c-2.27.047-4.759.793-7.37 2.296L43.733 162.002l-.484.286c-1.122.683-2.226 1.483-3.3 2.382-.237.2-.473.403-.707.612l-.594.541c-.384.36-.77.737-1.15 1.126l-.44.46-.433.466c-.211.232-.424.471-.86.975l-.602.722-.625.785c-.205.264-.412.537-.617.813l-.565.78-.374.536-.568.844-.587.915-.358.582-.337.563-.525.912-.332.6-.326.608c-.252.476-.498.961-.9 1.787l-.322.681-.42.929-.274.635c-.23.543-.454 1.094-.667 1.648l-.367.978-.233.656-.33.979-.226.71-.206.678-.195.68c-.15.536-.292 1.078-.425 1.62-.246 1.01-.458 2.023-.635 3.034-.134.77-.248 1.54-.34 2.307l-.067.603c-.086.817-.146 1.634-.18 2.446l-.026.867-.006.659v1.806L312.013 35.33l-.003-2.826c-.068-4.958-1.2-8.963-3.129-11.772-1.928-2.807-4.659-4.398-7.887-4.517l-.62-.005z"/>
            <use fill="#000" filter="url(#prefix__l)" xlink:href="#prefix__m"/>
            <path fill="url(#prefix__o)" stroke="url(#prefix__n)" stroke-linejoin="square" stroke-width="3" d="M25.034 362.827l.004 42.823c.092 6.505 2.035 11.342 5.344 13.756 1.565 1.14 3.425 1.706 5.485 1.64 2.108-.067 4.408-.784 6.821-2.173l249.262-143.49.475-.281c10.388-6.32 18.685-22.469 18.685-36.34v-35.356c-2.017.89-3.798 1.039-5.373.664-2.139-.509-3.971-2.017-5.499-4.355-3.481-5.33-5.397-15.2-7.146-24.502-1.339-7.12-2.579-13.888-4.525-17.734-.58-1.146-1.184-2.033-1.969-2.4-.557-.26-1.176-.122-1.869.27-6.138 3.465-8.808 8.109-11.631 12.922-3.329 5.675-6.836 11.59-15.425 16.482-2.104 1.198-3.91 1.27-5.482.63-1.58-.645-2.982-2.114-4.154-4.316-2.575-4.838-4.165-13.41-5.729-22.05-1.538-8.5-3.048-17.073-5.678-21.866-.811-1.48-1.699-2.597-2.83-3.024-.93-.351-1.98-.136-3.182.556-7.91 4.554-9.918 23.713-12.337 42.945-2.728 21.695-5.865 43.585-15.6 49.233-2.264 1.313-4.223 1.925-5.923 2.036-2.046.132-3.762-.437-5.233-1.5-3.377-2.439-5.379-7.823-7.175-13.015-1.291-3.731-2.45-7.347-4.31-9.113-.491-.467-1.038-.78-1.692-.813-.696-.034-1.47.22-2.362.733-6.004 3.457-8.246 23.434-10.993 43.87-3.235 24.06-6.99 48.92-15.418 53.88-1.897 1.116-3.591 1.656-5.11 1.778-1.789.143-3.362-.276-4.776-1.104-3.243-1.898-5.604-6.178-7.824-10.414-1.72-3.285-3.333-6.545-5.527-8.048-.641-.439-1.337-.701-2.121-.686-.798.015-1.664.302-2.632.865-6.217 3.62-9.65 15.618-13.266 27.418-3.878 12.655-7.93 25.133-14.512 29.159-.969.592-1.931.808-2.88.728-.93-.079-1.867-.453-2.788-1.144-1.566-1.174-3.143-3.365-4.66-6.34-3.685-7.22-7.222-19.213-10.636-30.835-2.992-10.183-5.888-20.076-8.742-26.086-.997-2.099-1.956-3.704-2.943-4.575-.266-.235-.519-.418-1.236-.35-4.422 2.662-5.337 18.126-6.83 34.763-2.05 22.818-4.755 48.15-14.202 53.692-3.617 2.122-6.427 2.84-8.703 2.78-2.044-.056-3.703-.726-5.153-1.713z"/>
            <g>
                <use fill="#000" filter="url(#prefix__p)" xlink:href="#prefix__q"/>
                <path fill="url(#prefix__s)" stroke="url(#prefix__r)" stroke-linejoin="square" stroke-width="3" d="M160.068 289.549c-1.316.761-2.568 1.109-3.753 1.126-1.281.02-2.499-.344-3.653-1.068-2.112-1.326-4.043-3.973-5.742-7.654-4.118-8.918-7.104-24.063-9.957-38.636-2.438-12.459-4.777-24.491-7.72-31.674-1.02-2.489-2.07-4.376-3.289-5.346-.374-.298-.757-.497-1.172-.527-.402-.03-.815.103-1.25.354-7.342 4.233-9.786 26.625-12.733 49.527-3.404 26.463-7.312 53.766-17.256 59.774-9.069 5.48-11.699 16.413-14.428 27.058-2.935 11.447-5.983 22.57-15.38 27.845-2.355 1.322-4.412 1.563-6.217 1.081-1.936-.516-3.64-1.906-5.104-4.032-3.31-4.804-5.438-13.57-7.452-22.08-1.7-7.186-3.317-14.178-5.692-18.11-.726-1.2-1.494-2.112-2.44-2.473-.743-.283-1.564-.134-2.485.37-3.61 1.98-6.644 3.183-9.313 3.954l.006 76.612c.092 6.505 2.035 11.342 5.344 13.756 1.565 1.14 3.425 1.706 5.485 1.64 2.108-.067 4.408-.784 6.821-2.173l249.262-143.49.475-.281c10.388-6.32 18.684-22.469 18.684-36.34V224.18c-1.846-5.024-3.727-9.795-6.187-12.3-.77-.783-1.59-1.33-2.524-1.453-.856-.112-1.775.145-2.789.753-6.722 4.026-10.168 12.207-13.726 20.36-3.933 9.01-7.983 18-15.683 22.49-1.883 1.098-3.626 1.369-5.245 1.06-1.703-.325-3.302-1.323-4.786-2.886-3.338-3.515-6.147-10.058-8.887-16.56-2.476-5.876-4.89-11.718-7.767-14.87-.894-.979-1.818-1.69-2.844-1.916-.853-.188-1.751.001-2.718.563-6.17 3.585-8.514 11.253-11.117 19.197-3.169 9.667-6.625 19.786-15.866 25.197-2.04 1.194-3.83 1.675-5.403 1.656-1.843-.022-3.435-.711-4.83-1.918-3.082-2.663-5.142-8.147-7.101-13.636-1.67-4.68-3.253-9.366-5.73-11.68-.729-.68-1.541-1.127-2.498-1.185-.958-.057-2.024.259-3.242.947-6.841 3.867-7.405 12.472-8.285 21.416-1.128 11.459-2.538 23.61-13.813 30.135z"/>
            </g>
        </g>
        <g transform="matrix(-1 0 0 1 336 292)">
            <g>
                <path fill="url(#prefix__t)" d="M166.869 13.732l83.404 86.881c5.348 5.606 8.944 14.46 8.942 22.017v124.315c.044 86.397-96.085 78.595-96.085 78.595S67 222.432 67 136.06V11.744C66.997 4.184 70.593-.52 75.942.046l81.822 9.189c3.467.39 6.688 1.98 9.105 4.497z" filter="url(#prefix__u)" opacity=".714" transform="matrix(-1 0 0 1 260 0)"/>
                <g stroke-width="2.16">
                    <path fill="url(#prefix__w)" stroke="url(#prefix__v)" d="M40.277 1.61c-1.172-.124-2.258.04-3.51.28L5.728 19.793l26.806 15.463v101.294c0 83.303 89.797 182.18 95.551 188.431 2.204.14 12.944.647 26.452-1.53l6.282 3.62 17.77-10.247c12.435-5.127 24.573-13.357 32.935-26.548 6.784-10.702 11.075-24.661 11.065-42.841V123.12c.003-7.301-3.476-15.855-8.643-21.27l-83.402-86.879c-2.241-2.334-5.23-3.81-8.445-4.172L40.277 1.61z" transform="matrix(-1 0 0 1 260 0) translate(0 7)"/>
                    <path fill="url(#prefix__y)" stroke="url(#prefix__x)" d="M8.822 19.165c-2.267-.24-4.168.641-5.5 2.384-1.451 1.9-2.243 4.75-2.242 8.24v124.316c0 83.308 89.807 182.193 95.552 188.433 6.792.438 94.545 4.507 94.503-77.547V140.675c.002-7.302-3.476-15.855-8.644-21.27L99.09 32.524c-2.242-2.334-5.23-3.81-8.446-4.172L8.822 19.165z" transform="matrix(-1 0 0 1 260 0) translate(0 7)"/>
                </g>
                <g>
                    <path fill="url(#prefix__z)" stroke="url(#prefix__A)" stroke-width="4.32" d="M7.268 2.32c-1.44-.15-2.644.407-3.488 1.506-1.082 1.407-1.621 3.533-1.62 6.106v103.727c0 67.88 72.265 148.16 79.472 155.997 8.36.465 77.47 2.308 77.437-63.477V102.453c.001-5.795-2.779-12.579-6.9-16.875L82.816 13.714C80.75 11.574 78 10.22 75.045 9.89L7.268 2.319z" transform="matrix(-1 0 0 1 260 0) translate(12.298 53.62)"/>
                    <g>
                        <g opacity=".443">
                            <path fill="#D7F7E9" d="M70.39 31.426c0-.815-.506-1.763-1.13-2.116L36.177 10.59c-.624-.353-1.13.022-1.13.837v2.954c0 .815.506 1.763 1.13 2.116l33.085 18.72c.623.353 1.13-.022 1.13-.838v-2.953z" transform="matrix(-1 0 0 1 260 0) translate(12.298 53.62) translate(26.822 26.244)"/>
                            <path fill="#FFF" d="M30.568 9.093c0-.815-.506-1.763-1.13-2.116L18.24.641c-.623-.353-1.13.022-1.13.837v2.954c0 .815.507 1.763 1.13 2.116l11.198 6.336c.624.353 1.13-.022 1.13-.837V9.093zM20.112 40.245c0-.815-.506-1.764-1.13-2.117L1.641 28.317c-.624-.353-1.13.022-1.13.837v2.953c0 .815.506 1.763 1.13 2.116l17.341 9.812c.624.353 1.13-.022 1.13-.837v-2.953zM8.095 45.208c0-.815-.507-1.763-1.13-2.116L1.64 40.08c-.624-.353-1.13.022-1.13.837v2.953c0 .815.506 1.764 1.13 2.117l5.324 3.012c.623.353 1.13-.022 1.13-.837v-2.954z" transform="matrix(-1 0 0 1 260 0) translate(12.298 53.62) translate(26.822 26.244)"/>
                            <path fill="#D7F7E9" d="M34.044 59.89c0-.814-.507-1.762-1.13-2.115L12.05 45.97c-.624-.353-1.13.022-1.13.837v2.953c0 .815.506 1.763 1.13 2.116l20.864 11.805c.623.353 1.13-.022 1.13-.837v-2.953zM47.512 55.748c0-.815-.506-1.763-1.13-2.116L24.194 41.078c-.624-.353-1.13.022-1.13.837v2.953c0 .815.506 1.763 1.13 2.116L46.382 59.54c.624.353 1.13-.022 1.13-.837v-2.954zM41.859 27.233c0-.819-.509-1.772-1.135-2.126L6.718 5.866c-.626-.355-1.135.022-1.135.841v2.967c0 .819.509 1.771 1.135 2.126L40.724 31.04c.626.355 1.135-.022 1.135-.84v-2.968z" transform="matrix(-1 0 0 1 260 0) translate(12.298 53.62) translate(26.822 26.244)"/>
                        </g>
                        <g opacity=".443">
                            <path fill="#D7F7E9" d="M35.525 21.237c0-.815-.506-1.763-1.13-2.116L1.311.4C.687.048.18.423.18 1.238V4.19c0 .815.506 1.764 1.13 2.117l33.084 18.72c.624.353 1.13-.022 1.13-.838v-2.953z" transform="matrix(-1 0 0 1 260 0) translate(12.298 53.62) translate(26.822 26.244) translate(62.429 68.426)"/>
                            <path fill="#FFF" d="M19.285 25.344c0-.815-.507-1.763-1.13-2.116L6.957 16.892c-.624-.353-1.13.022-1.13.837v2.953c0 .815.506 1.763 1.13 2.116l11.198 6.336c.623.353 1.13-.022 1.13-.837v-2.953zM13.41 45.547c0-.816-.506-1.764-1.13-2.117l-5.323-3.012c-.624-.353-1.13.022-1.13.837v2.954c0 .815.506 1.763 1.13 2.116l5.324 3.012c.623.353 1.13-.022 1.13-.837v-2.953z" transform="matrix(-1 0 0 1 260 0) translate(12.298 53.62) translate(26.822 26.244) translate(62.429 68.426)"/>
                            <path fill="#D7F7E9" d="M39.36 60.229c0-.815-.507-1.763-1.13-2.116L17.366 46.308c-.624-.353-1.13.022-1.13.837v2.954c0 .814.506 1.763 1.13 2.116L38.23 64.02c.623.353 1.13-.022 1.13-.837v-2.954zM52.828 56.087c0-.815-.506-1.764-1.13-2.117L29.51 41.416c-.624-.353-1.13.022-1.13.837v2.954c0 .815.506 1.763 1.13 2.116l22.188 12.554c.624.353 1.13-.022 1.13-.837v-2.953z" transform="matrix(-1 0 0 1 260 0) translate(12.298 53.62) translate(26.822 26.244) translate(62.429 68.426)"/>
                        </g>
                        <g opacity=".236">
                            <path fill="#D7F7E9" d="M35.525 21.237c0-.815-.506-1.763-1.13-2.116L1.311.4C.687.048.18.423.18 1.238V4.19c0 .815.506 1.764 1.13 2.117l33.084 18.72c.624.353 1.13-.022 1.13-.838v-2.953z" transform="matrix(-1 0 0 1 260 0) translate(12.298 53.62) translate(26.822 26.244) rotate(180 52.72 105.663)"/>
                            <path fill="#FFF" d="M25.428 40.583c0-.815-.506-1.763-1.13-2.116L6.957 28.655c-.624-.353-1.13.022-1.13.837v2.954c0 .815.506 1.763 1.13 2.116l17.341 9.812c.624.353 1.13-.023 1.13-.838v-2.953zM13.41 45.547c0-.816-.506-1.764-1.13-2.117l-5.323-3.012c-.624-.353-1.13.022-1.13.837v2.954c0 .815.506 1.763 1.13 2.116l5.324 3.012c.623.353 1.13-.022 1.13-.837v-2.953z" transform="matrix(-1 0 0 1 260 0) translate(12.298 53.62) translate(26.822 26.244) rotate(180 52.72 105.663)"/>
                            <path fill="#D7F7E9" d="M39.36 60.229c0-.815-.507-1.763-1.13-2.116L17.366 46.308c-.624-.353-1.13.022-1.13.837v2.954c0 .814.506 1.763 1.13 2.116L38.23 64.02c.623.353 1.13-.022 1.13-.837v-2.954zM52.828 56.087c0-.815-.506-1.764-1.13-2.117L29.51 41.416c-.624-.353-1.13.022-1.13.837v2.954c0 .815.506 1.763 1.13 2.116l22.188 12.554c.624.353 1.13-.022 1.13-.837v-2.953zM58.375 47.469c0-.819-.509-1.772-1.135-2.126L23.234 26.102c-.626-.355-1.135.022-1.135.84v2.968c0 .819.509 1.771 1.135 2.126L57.24 51.277c.626.355 1.135-.022 1.135-.841v-2.967z" transform="matrix(-1 0 0 1 260 0) translate(12.298 53.62) translate(26.822 26.244) rotate(180 52.72 105.663)"/>
                        </g>
                    </g>
                </g>
            </g>
            <path fill="url(#prefix__B)" d="M188.47 158.075v-25.718c0-21.22-13.073-31.113-28.96-21.917-15.727 9.106-28.697 33.729-28.954 54.81l-.083 26.4-4.614 2.671c-1.512.876-2.752 3.166-2.852 5.212l-.007.266v69.69c0 2.037 1.194 3.013 2.697 2.255l.162-.088 67.282-38.95c1.512-.876 2.752-3.167 2.852-5.213l.007-.265v-69.69c0-2.038-1.194-3.013-2.697-2.256l-.162.088-4.67 2.705zm-29.393-30.623l.39-.233c8.907-5.156 16.254.273 16.414 12.03l.003.395v25.717l-32.834 19.008v-25.717c0-11.855 7.198-25.808 16.027-31.2z" opacity=".248"/>
            <path fill="url(#prefix__C)" d="M219.285 157l-23.004 13.192.102.057-45.5 26.093c-1.524.875-2.775 3.164-2.876 5.208l-.007.265v69.638c0 .9.235 1.592.63 2.02l-.058.03.233.135c.12.096.252.172.394.226L166.875 284l30.388-17.426-17.046-9.777 38.538-22.1c1.525-.875 2.775-3.164 2.877-5.208l.007-.265v-52.109L238 167.733l-16.594-9.517c-.345-.868-1.047-1.282-1.906-1.094l-.215-.122z"/>
            <path fill="url(#prefix__E)" stroke="url(#prefix__D)" stroke-width="2.143" d="M190.52 113.364c-15.477 8.942-28.19 33.139-28.448 53.825l.185 29.09 6.78 4.442 7.95-5.157-8.354-4.828 3.803-2.196v-27.945c0-12.389 7.687-26.963 16.968-32.326 2.377-1.373 4.654-2.036 6.732-2.083 2.243-.05 4.269.608 5.974 1.896 3.157 2.384 5.25 7.019 5.335 13.518l.025 28.639 7.164 4.14 8.312-5.366-8.353-4.828 3.308-1.91v-27.946c0-7.663-1.74-13.81-4.767-18.024l1.177-.678-3.765-2.176c-2.527-2.185-5.609-3.357-9.057-3.379-3.372-.022-7.08 1.046-10.969 3.292z"/>
            <path fill="url(#prefix__G)" stroke="url(#prefix__F)" stroke-width="2.916" d="M237.542 170.511c0-.444-.014-.869-.67-.906l-67.283 38.96c-1.214.704-2.131 2.617-2.131 4.217v69.707c0 .444.014.869.67.906l67.282-38.96c1.215-.704 2.132-2.617 2.132-4.217V170.51z"/>
            <use fill="#000" filter="url(#prefix__H)" xlink:href="#prefix__I"/>
            <use fill="#67519E" xlink:href="#prefix__I"/>
            <path fill="url(#prefix__J)" d="M169 202l.088-28.471c0-21.091 13.07-45.968 28.956-55.11 15.885-9.14 28.956.692 28.956 21.784v28.42l-12.585 7.243v-28.42c0-11.958-7.41-17.532-16.415-12.35-9.005 5.183-16.415 19.285-16.415 31.241v28.42L169 202z"/>
        </g>
        <g>
            <path fill="url(#prefix__K)" d="M30.24 35.133L0.54 18.15 0.54 52.642 30.24 69.48z" transform="translate(50 93)"/>
            <path fill="url(#prefix__L)" d="M59.823 18.21L30.24 35.135 30.24 69.48 59.823 52.739z" transform="translate(50 93)"/>
            <path fill="url(#prefix__M)" d="M30.13 0.829L0.54 18.15 30.233 35.531 59.823 18.21z" transform="translate(50 93)"/>
        </g>
        <g>
            <path fill="url(#prefix__N)" d="M15.12 17.567L0.27 9.075 0.27 26.321 15.12 34.74z" transform="translate(0 236)"/>
            <path fill="url(#prefix__O)" d="M29.912 9.105L15.12 17.568 15.12 34.74 29.912 26.37z" transform="translate(0 236)"/>
            <path fill="url(#prefix__P)" d="M15.065 0.414L0.27 9.075 15.117 17.766 29.912 9.105z" transform="translate(0 236)"/>
        </g>
        <g>
            <path fill="url(#prefix__Q)" d="M71.776 82.719L0.496 41.96 0.496 124.74 71.776 165.152z" transform="translate(464 560)"/>
            <path fill="url(#prefix__R)" d="M142.776 42.104L71.776 82.725 71.776 165.152 142.776 124.974z" transform="translate(464 560)"/>
            <path fill="url(#prefix__S)" d="M71.513 0.389L0.496 41.96 71.759 83.675 142.776 42.104z" transform="translate(464 560)"/>
        </g>
    </g>
</svg>
