<svg xmlns="http://www.w3.org/2000/svg" xmlns:xlink="http://www.w3.org/1999/xlink" width="426" height="456" viewBox="0 0 426 456">
    <defs>
        <linearGradient id="prefix__c" x1="92.142%" x2="43.827%" y1="100%" y2="-17.628%">
            <stop offset="0%" stop-color="#06102A"/>
            <stop offset="100%" stop-color="#1E54D5"/>
        </linearGradient>
        <linearGradient id="prefix__d" x1="73.196%" x2="46.602%" y1="100%" y2="-17.628%">
            <stop offset="0%" stop-color="#06102A"/>
            <stop offset="100%" stop-color="#1E54D5"/>
        </linearGradient>
        <linearGradient id="prefix__e" x1="50%" x2="85.699%" y1="3.665%" y2="83.146%">
            <stop offset="0%" stop-color="#FFF" stop-opacity=".128"/>
            <stop offset="100%" stop-color="#FFF" stop-opacity="0"/>
        </linearGradient>
        <linearGradient id="prefix__g" x1="9.959%" x2="93.761%" y1="4.407%" y2="99.435%">
            <stop offset="0%" stop-color="#5988FF"/>
            <stop offset="100%" stop-color="#1E54D5"/>
        </linearGradient>
        <linearGradient id="prefix__f" x1="52.077%" x2="59.217%" y1="6.567%" y2="68.745%">
            <stop offset="0%" stop-color="#FFF" stop-opacity=".212"/>
            <stop offset="100%" stop-color="#FFF" stop-opacity="0"/>
        </linearGradient>
        <linearGradient id="prefix__i" x1="54.991%" x2="27.83%" y1="-20.313%" y2="93.015%">
            <stop offset="0%" stop-color="#3964C9"/>
            <stop offset="100%" stop-color="#081435"/>
        </linearGradient>
        <linearGradient id="prefix__k" x1="69.185%" x2="21.574%" y1="39.464%" y2="57.433%">
            <stop offset="0%" stop-color="#DFE8FF"/>
            <stop offset="100%" stop-color="#A9C2FF"/>
        </linearGradient>
        <linearGradient id="prefix__j" x1="46.672%" x2="46.672%" y1="100%" y2="34.88%">
            <stop offset="0%" stop-color="#FFF" stop-opacity=".158"/>
            <stop offset="100%" stop-color="#FFF" stop-opacity="0"/>
        </linearGradient>
        <linearGradient id="prefix__o" x1="75.862%" x2="51.9%" y1="52.303%" y2="23.368%">
            <stop offset="0%" stop-color="#1E54D5" stop-opacity="0"/>
            <stop offset="100%" stop-color="#1E54D5"/>
        </linearGradient>
        <linearGradient id="prefix__n" x1="57.257%" x2="70.904%" y1="29.215%" y2="50%">
            <stop offset="0%" stop-color="#3F8DEC"/>
            <stop offset="100%" stop-color="#1E54D5" stop-opacity="0"/>
        </linearGradient>
        <linearGradient id="prefix__s" x1="61.082%" x2="38.059%" y1="53.279%" y2="27.661%">
            <stop offset="0%" stop-color="#00A697" stop-opacity="0"/>
            <stop offset="100%" stop-color="#00A697"/>
        </linearGradient>
        <linearGradient id="prefix__r" x1="54.713%" x2="69.527%" y1="29.736%" y2="47.365%">
            <stop offset="0%" stop-color="#00D2C8"/>
            <stop offset="100%" stop-color="#00A697" stop-opacity="0"/>
        </linearGradient>
        <linearGradient id="prefix__t" x1="32.546%" x2="52.916%" y1="4.407%" y2="95.632%">
            <stop offset="0%" stop-color="#0F1639" stop-opacity=".66"/>
            <stop offset="100%" stop-color="#0A061D"/>
        </linearGradient>
        <linearGradient id="prefix__w" x1="35.468%" x2="67.181%" y1="0%" y2="100%">
            <stop offset="0%" stop-color="#1B4CC1"/>
            <stop offset="100%" stop-color="#08163A"/>
        </linearGradient>
        <linearGradient id="prefix__v" x1="47.94%" x2="71.375%" y1="-2.035%" y2="85.077%">
            <stop offset="0%" stop-color="#FFF" stop-opacity=".239"/>
            <stop offset="100%" stop-color="#FFF" stop-opacity="0"/>
        </linearGradient>
        <linearGradient id="prefix__y" x1="32.546%" x2="52.916%" y1="4.407%" y2="95.632%">
            <stop offset="0%" stop-color="#5988FF"/>
            <stop offset="100%" stop-color="#1746B4"/>
        </linearGradient>
        <linearGradient id="prefix__x" x1="50.906%" x2="54.018%" y1="6.567%" y2="68.745%">
            <stop offset="0%" stop-color="#FFF" stop-opacity=".212"/>
            <stop offset="100%" stop-color="#FFF" stop-opacity="0"/>
        </linearGradient>
        <linearGradient id="prefix__z" x1="44.984%" x2="59.997%" y1="11.467%" y2="110.615%">
            <stop offset="0%" stop-color="#7BC8DC"/>
            <stop offset="100%" stop-color="#076A83"/>
        </linearGradient>
        <linearGradient id="prefix__A" x1="50%" x2="50%" y1="6.955%" y2="91.209%">
            <stop offset="0%" stop-color="#FFF"/>
            <stop offset="100%" stop-color="#FFF" stop-opacity="0"/>
        </linearGradient>
        <linearGradient id="prefix__B" x1="41.004%" x2="59.084%" y1="4.693%" y2="93.595%">
            <stop offset="0%" stop-color="#1C1F59" stop-opacity=".172"/>
            <stop offset="100%" stop-color="#1B2057"/>
        </linearGradient>
        <linearGradient id="prefix__C" x1="42.563%" x2="69.435%" y1="0%" y2="141.875%">
            <stop offset="0%" stop-color="#1B4CC1"/>
            <stop offset="100%" stop-color="#08163A"/>
        </linearGradient>
        <linearGradient id="prefix__E" x1="60.067%" x2="35.084%" y1="21.992%" y2="69.76%">
            <stop offset="0%" stop-color="#DFE8FF"/>
            <stop offset="100%" stop-color="#A9C2FF"/>
        </linearGradient>
        <linearGradient id="prefix__D" x1="46.672%" x2="46.672%" y1="100%" y2="34.88%">
            <stop offset="0%" stop-color="#FFF" stop-opacity=".158"/>
            <stop offset="100%" stop-color="#FFF" stop-opacity="0"/>
        </linearGradient>
        <linearGradient id="prefix__G" x1="55.752%" x2="37.739%" y1="14.511%" y2="69.76%">
            <stop offset="0%" stop-color="#A4BFFF"/>
            <stop offset="100%" stop-color="#5D82DC"/>
        </linearGradient>
        <linearGradient id="prefix__F" x1="46.672%" x2="46.672%" y1="100%" y2="34.88%">
            <stop offset="0%" stop-color="#FFF" stop-opacity=".158"/>
            <stop offset="100%" stop-color="#FFF" stop-opacity="0"/>
        </linearGradient>
        <linearGradient id="prefix__J" x1="3.508%" x2="74.623%" y1="0%" y2="76.816%">
            <stop offset="0%" stop-color="#92B0FF"/>
            <stop offset="100%" stop-color="#8CABF3"/>
        </linearGradient>
        <linearGradient id="prefix__K" x1="31.452%" x2="68.548%" y1="19.969%" y2="83.989%">
            <stop offset="0%" stop-color="#8CD9ED"/>
            <stop offset="100%" stop-color="#6CBACE"/>
        </linearGradient>
        <linearGradient id="prefix__L" x1="76.89%" x2="38.481%" y1="67.667%" y2="34.637%">
            <stop offset="0%" stop-color="#004557"/>
            <stop offset="100%" stop-color="#097692"/>
        </linearGradient>
        <linearGradient id="prefix__M" x1="88.697%" x2="10.887%" y1="57.717%" y2="37.969%">
            <stop offset="0%" stop-color="#24A1C1"/>
            <stop offset="100%" stop-color="#7BC6D9"/>
        </linearGradient>
        <linearGradient id="prefix__N" x1="31.452%" x2="68.548%" y1="19.969%" y2="83.989%">
            <stop offset="0%" stop-color="#8CD9ED"/>
            <stop offset="100%" stop-color="#6CBACE"/>
        </linearGradient>
        <linearGradient id="prefix__O" x1="76.89%" x2="38.481%" y1="67.667%" y2="34.637%">
            <stop offset="0%" stop-color="#004557"/>
            <stop offset="100%" stop-color="#097692"/>
        </linearGradient>
        <linearGradient id="prefix__P" x1="88.697%" x2="10.887%" y1="57.717%" y2="37.969%">
            <stop offset="0%" stop-color="#24A1C1"/>
            <stop offset="100%" stop-color="#7BC6D9"/>
        </linearGradient>
        <linearGradient id="prefix__Q" x1="31.452%" x2="68.548%" y1="19.969%" y2="83.989%">
            <stop offset="0%" stop-color="#8CD9ED"/>
            <stop offset="100%" stop-color="#6CBACE"/>
        </linearGradient>
        <linearGradient id="prefix__R" x1="76.89%" x2="38.481%" y1="67.667%" y2="34.637%">
            <stop offset="0%" stop-color="#004557"/>
            <stop offset="100%" stop-color="#097692"/>
        </linearGradient>
        <linearGradient id="prefix__S" x1="88.697%" x2="10.887%" y1="57.717%" y2="37.969%">
            <stop offset="0%" stop-color="#24A1C1"/>
            <stop offset="100%" stop-color="#7BC6D9"/>
        </linearGradient>
        <filter id="prefix__b" width="100%" height="100%" x="0%" y="0%" filterUnits="objectBoundingBox">
            <feGaussianBlur in="SourceGraphic"/>
        </filter>
        <filter id="prefix__h" width="133.2%" height="124.8%" x="-16.6%" y="-12.4%" filterUnits="objectBoundingBox">
            <feGaussianBlur in="SourceGraphic" stdDeviation="10.56"/>
        </filter>
        <filter id="prefix__l" width="121%" height="122%" x="-12.6%" y="-11%" filterUnits="objectBoundingBox">
            <feOffset dx="-4" in="SourceAlpha" result="shadowOffsetOuter1"/>
            <feGaussianBlur in="shadowOffsetOuter1" result="shadowBlurOuter1" stdDeviation="6"/>
            <feComposite in="shadowBlurOuter1" in2="SourceAlpha" operator="out" result="shadowBlurOuter1"/>
            <feColorMatrix in="shadowBlurOuter1" values="0 0 0 0 0.0235294118 0 0 0 0 0.062745098 0 0 0 0 0.164705882 0 0 0 0.28715035 0"/>
        </filter>
        <filter id="prefix__p" width="121%" height="129.2%" x="-12.6%" y="-14.6%" filterUnits="objectBoundingBox">
            <feOffset dx="-4" in="SourceAlpha" result="shadowOffsetOuter1"/>
            <feGaussianBlur in="shadowOffsetOuter1" result="shadowBlurOuter1" stdDeviation="6"/>
            <feComposite in="shadowBlurOuter1" in2="SourceAlpha" operator="out" result="shadowBlurOuter1"/>
            <feColorMatrix in="shadowBlurOuter1" values="0 0 0 0 0.0235294118 0 0 0 0 0.062745098 0 0 0 0 0.164705882 0 0 0 0.332440997 0"/>
        </filter>
        <filter id="prefix__u" width="156.2%" height="134.9%" x="-28.1%" y="-17.5%" filterUnits="objectBoundingBox">
            <feGaussianBlur in="SourceGraphic" stdDeviation="11.88"/>
        </filter>
        <filter id="prefix__H" width="150.5%" height="141.2%" x="-25.3%" y="-10.3%" filterUnits="objectBoundingBox">
            <feOffset dy="4" in="SourceAlpha" result="shadowOffsetOuter1"/>
            <feColorMatrix in="shadowOffsetOuter1" values="0 0 0 0 0.564705882 0 0 0 0 0.678431373 0 0 0 0 0.949019608 0 0 0 1 0"/>
        </filter>
        <path id="prefix__m" d="M169.574 115.023c10.508-5.685 9.026-13.7 17.86-18.438 8.834-4.74 5.116 37.078 18.37 29.663l.518-.29v23.746c0 9.02-5.712 19.49-12.812 23.591l-.324.182L28.668 263.45c-7.168 3.92-13.003-.157-13.133-9.1l-.002-.307v-28.59l.345.323c1.946 1.764 4.358 2.985 9.288.237 10.917-6.084 7.035-51.545 13.872-55.456 6.836-3.91 13.913 47.924 22.358 43.017 8.445-4.907 9.894-30.804 18.352-35.484 8.457-4.678 8.083 16.85 18.47 11.043 10.386-5.807 8.892-56.619 17.439-61.294 8.548-4.674 5.385 20.33 17.615 13.59 12.23-6.74 7.43-51.775 18.442-57.797 11.013-6.022 7.352 37.077 17.86 31.392z"/>
        <path id="prefix__q" d="M105.149 180.733c13.403-7.369 4.374-26.84 14.594-32.327 10.22-5.487 7.816 22.413 18.997 16.194 11.18-6.219 8.809-22.868 17.812-27.837 9.002-4.968 11.576 27.078 21.282 21.7 9.706-5.376 10.087-21.563 19.4-26.86 4.362-2.483 6.808 2.883 9.088 8.79v9.31c0 9.02-5.712 19.492-12.812 23.592l-.324.182L28.668 263.45c-7.168 3.92-13.003-.157-13.133-9.1l-.004-.307v-48.454c1.874-.454 4.027-1.213 6.661-2.585 9.632-5.016 7.378 34.778 19.389 28.373 12.01-6.405 7.298-27.322 19.645-34.41 12.348-7.087 9.447-62.866 19.811-68.541 10.364-5.676 10.709 59.678 24.112 52.308z"/>
        <path id="prefix__I" d="M132.34 139.597c0-2.856 1.788-6.226 3.96-7.464 2.172-1.238 3.96.094 3.96 2.95-.003 1.626-.59 3.49-1.581 5.024v6.238c0 1.716-1.074 3.74-2.379 4.484-1.305.744-2.379-.057-2.379-1.772v-6.238c-.99-.404-1.578-1.6-1.581-3.222z"/>
        <radialGradient id="prefix__a" cx="50%" cy="50%" r="43.388%" fx="50%" fy="50%" gradientTransform="matrix(0 .95076 -1 0 1 .025)">
            <stop offset="0%" stop-color="#9D0FB0"/>
            <stop offset="100%" stop-color="#9D0FB0" stop-opacity="0"/>
        </radialGradient>
    </defs>
    <g fill="none" fill-rule="evenodd">
        <ellipse cx="212.52" cy="223.525" fill="url(#prefix__a)" filter="url(#prefix__b)" opacity=".544" rx="212.52" ry="223.525"/>
        <g>
            <path fill="url(#prefix__c)" d="M89.648 4.388l.03.016c12.983-6.892 29.708-5.806 47.658 4.044 38.563 21.163 70.21 75.857 73.227 125.809 17.396 15.579 29.743 42.564 29.743 65.682 0 14.846-5.02 25.482-13.022 30.451l.074.04-22.496 12.344-8.593-4.716 10.856-5.956c-2.124-.676-4.305-1.593-6.529-2.763l-.743-.399-128.712-70.635c-28.386-15.577-51.486-57.486-51.486-93.418 0-9.744 1.699-18.064 4.741-24.704l-6.972-3.825L38.448 24.82l.072.04c8.604-4.22 19.53-3.71 31.443 2.488 1.278-3.01 2.727-5.782 4.334-8.309l-5.673-3.113L89.648 4.388l.03.016-.03-.016z" transform="translate(178.86 36.366)"/>
            <path fill="url(#prefix__d)" d="M184.404 148.986l26.54-14.215-.31-.28c17.355 15.525 29.672 42.415 29.672 65.452 0 2.277-.119 4.454-.348 6.527l-24.167 10.096-31.387-67.58z" opacity=".68" transform="translate(178.86 36.366)"/>
            <path stroke="url(#prefix__e)" stroke-width=".726" d="M137.161 8.766C119.347-1.01 102.741-2.12 89.818 4.71l-20.44 11.217 5.435 2.982c-1.68 2.598-3.191 5.46-5.018 8.762-11.781-6.13-22.593-6.661-31.181-2.527L18.179 36.358l6.689 3.67c-3.113 6.65-4.85 15.025-4.85 24.859 0 17.908 5.76 37.305 15.052 54.166 9.288 16.851 22.105 31.174 36.245 38.934l128.713 70.635.74.398c2.488 1.308 4.925 2.3 7.287 2.985l-11.032 6.053 7.839 4.302 22.238-12.283c7.918-4.92 12.843-15.465 12.843-30.138 0-23.024-12.298-49.897-29.743-65.66-3.009-49.829-34.566-104.4-73.039-125.513z" transform="translate(178.86 36.366)"/>
            <path fill="url(#prefix__g)" stroke="url(#prefix__f)" stroke-width=".726" d="M49.986 38.737c-6.763-3.534-13.203-5.21-19.073-5.198-6.058.013-11.504 1.824-16.06 5.238C5.873 45.506.363 58.431.363 75.997c0 17.928 5.742 37.346 15.006 54.226 9.26 16.871 22.037 31.21 36.134 38.979l128.32 70.714c5.395 2.973 10.541 4.446 15.24 4.558 4.85.115 9.218-1.224 12.877-3.858 7.23-5.205 11.675-15.439 11.675-29.416 0-23.05-12.26-49.954-29.652-65.734-3-49.885-34.461-104.518-72.817-125.655-14.574-8.032-28.334-10.22-39.906-6.96-11.58 3.262-20.952 11.983-27.254 25.886z" transform="translate(178.86 36.366)"/>
        </g>
        <g transform="matrix(-1 0 0 1 330.66 90.915)">
            <path fill="#06102A" d="M190.88 10.917c0-9.156-5.887-13.37-13.136-9.407L13.226 91.482C5.976 95.446.091 106.1.091 115.255v129.018c0 9.156 5.885 13.37 13.135 9.406l164.518-89.971c7.25-3.965 13.136-14.618 13.136-23.774V10.917z" filter="url(#prefix__h)" opacity=".201"/>
            <path fill="url(#prefix__i)" d="M206.322 20.686c0-9.156-5.887-13.37-13.136-9.406L28.668 101.252c-7.25 3.964-13.135 14.617-13.135 23.773v129.017c0 9.157 5.885 13.371 13.135 9.407l164.518-89.972c7.25-3.964 13.136-14.617 13.136-23.773V20.686z"/>
            <path fill="url(#prefix__k)" stroke="url(#prefix__j)" stroke-width=".786" d="M198.242 10.184c-1.5.03-3.143.498-4.867 1.44L28.533 101.779c-.737.426-1.466.928-2.174 1.491-.157.125-.313.253-.467.384l-.392.34c-.255.226-.51.463-1.338 1.29-.136.14-.276.29-.564.607l-.4.455-.41.489c-.134.165-.27.336-.406.509l-.622.828-.37.523-.846 1.29-.785 1.338c-.163.292-.325.595-.801 1.537l-.46.986c-.151.337-.298.682-.44 1.028l-.393 1.019-.634 1.917c-.099.336-.192.673-.279 1.011-.162.633-.302 1.267-.418 1.9-.089.484-.164.967-.269 1.824-.056.51-.096 1.02-.118 1.529l-.022.96v1.11L205.93 22.135l-.002-1.755c-.045-3.1-.79-5.605-2.06-7.362-1.278-1.768-3.093-2.756-5.625-2.834z"/>
            <use fill="#000" filter="url(#prefix__l)" xlink:href="#prefix__m"/>
            <path fill="url(#prefix__o)" stroke="url(#prefix__n)" stroke-linejoin="square" stroke-width="1.98" d="M205.332 127.581c-1.326.56-2.498.656-3.535.422-1.413-.32-2.619-1.27-3.627-2.735-2.302-3.348-3.571-9.547-4.728-15.391-.881-4.455-1.696-8.69-2.978-11.097-.38-.713-.778-1.265-1.292-1.492-.377-.167-.797-.085-1.27.169-4.046 2.17-5.808 5.079-7.67 8.093-2.198 3.562-4.513 7.274-10.187 10.344-1.373.743-2.555.791-3.582.393-1.047-.406-1.972-1.33-2.748-2.716-1.703-3.04-2.756-8.421-3.79-13.85-1.013-5.319-2.006-10.685-3.738-13.685-.534-.923-1.12-1.62-1.864-1.886-.622-.224-1.326-.092-2.134.35-5.212 2.85-6.532 14.857-8.124 26.885-1.805 13.631-3.88 27.364-10.315 30.91-1.488.82-2.775 1.204-3.893 1.273-1.342.082-2.466-.274-3.431-.936-2.236-1.534-3.56-4.916-4.75-8.183-.848-2.329-1.609-4.59-2.83-5.692-.33-.297-.697-.492-1.134-.513-.465-.022-.983.137-1.58.463-3.956 2.164-5.43 14.687-7.238 27.467-2.139 15.116-4.624 30.708-10.193 33.822-2.715 1.518-4.787 1.368-6.487.423-2.145-1.193-3.705-3.88-5.173-6.542-1.132-2.053-2.195-4.094-3.638-5.033-.43-.28-.896-.445-1.421-.435-.532.01-1.11.19-1.755.547-4.096 2.266-6.359 9.782-8.74 17.165-2.565 7.95-5.243 15.78-9.594 18.308-.63.367-1.258.502-1.877.453-.61-.05-1.222-.284-1.825-.713-1.037-.74-2.08-2.117-3.086-3.988-2.433-4.53-4.77-12.055-7.025-19.347-1.973-6.38-3.883-12.58-5.765-16.345-.654-1.308-1.283-2.31-1.932-2.854-.179-.15-.35-.265-.854-.22-2.912 1.667-3.507 11.362-4.49 21.753-1.354 14.339-3.147 30.23-9.39 33.71-2.432 1.354-4.31 1.795-5.862 1.705-1.242-.072-2.295-.481-3.264-1.101l.002 26.86c.06 4.052 1.337 7.067 3.508 8.572 1.038.719 2.274 1.074 3.64 1.032 1.397-.042 2.921-.492 4.52-1.366l164.831-90.148c6.838-3.955 12.308-14.05 12.308-22.728V127.58z"/>
            <g>
                <use fill="#000" filter="url(#prefix__p)" xlink:href="#prefix__q"/>
                <path fill="url(#prefix__s)" stroke="url(#prefix__r)" stroke-linejoin="square" stroke-width="1.98" d="M105.626 181.6c-1.798.989-3.4.901-4.85.037-1.398-.834-2.675-2.498-3.8-4.814-2.72-5.596-4.694-15.099-6.578-24.244-1.608-7.805-3.15-15.344-5.09-19.843-.67-1.551-1.36-2.73-2.159-3.334-.252-.19-.51-.315-.79-.335-.272-.018-.552.064-.847.226-4.839 2.65-6.445 16.687-8.385 31.013-2.251 16.622-4.837 33.747-11.408 37.52-5.974 3.428-7.709 10.275-9.506 16.935-1.941 7.192-3.953 14.175-10.166 17.488-1.543.823-2.89.975-4.073.676-1.279-.324-2.4-1.2-3.367-2.532-2.188-3.018-3.597-8.523-4.93-13.87-1.12-4.495-2.182-8.871-3.747-11.331-.477-.75-.985-1.32-1.606-1.544-.5-.181-1.053-.09-1.675.233-2.374 1.237-4.371 1.99-6.128 2.473l.004 47.988c.06 4.052 1.337 7.067 3.508 8.572 1.038.719 2.274 1.074 3.64 1.032 1.397-.042 2.921-.492 4.52-1.366l164.831-90.148c6.838-3.955 12.308-14.05 12.308-22.728v-9.126c-1.213-3.135-2.45-6.114-4.065-7.677-.512-.494-1.058-.837-1.678-.914-.572-.07-1.187.09-1.866.476-4.43 2.52-6.703 7.645-9.048 12.749-2.6 5.657-5.273 11.299-10.362 14.117-1.233.684-2.373.854-3.434.662-1.122-.203-2.173-.83-3.15-1.807-2.207-2.208-4.064-6.315-5.875-10.4-1.632-3.677-3.222-7.335-5.117-9.307-.592-.616-1.206-1.06-1.884-1.203-.571-.12-1.174-.002-1.823.356-4.064 2.243-5.609 7.044-7.323 12.013-2.095 6.071-4.377 12.424-10.486 15.822-1.339.745-2.513 1.046-3.546 1.034-1.21-.013-2.254-.446-3.17-1.198-2.04-1.675-3.403-5.12-4.7-8.572-1.098-2.924-2.139-5.856-3.769-7.302-.485-.43-1.028-.71-1.664-.746-.638-.036-1.349.161-2.161.597-4.5 2.416-4.872 7.8-5.45 13.384-.746 7.204-1.676 14.837-9.135 18.939z"/>
            </g>
        </g>
        <g transform="matrix(-1 0 0 1 222.76 183.084)">
            <g>
                <path fill="url(#prefix__t)" d="M110.12 8.596l55.06 54.489c3.53 3.514 5.903 9.066 5.902 13.804v77.946c.029 54.17-63.416 49.279-63.416 49.279S44.22 139.464 44.22 85.31V7.364c-.002-4.74 2.372-7.69 5.902-7.335l54.111 5.773c2.222.237 4.298 1.222 5.886 2.794z" filter="url(#prefix__u)" opacity=".714" transform="matrix(-1 0 0 1 172.6 0)"/>
                <g stroke-width="1.426">
                    <path fill="url(#prefix__w)" stroke="url(#prefix__v)" d="M26.587 1.046c-.779-.079-1.5.025-2.332.176L3.838 12.41l17.635 9.664v63.543c0 52.224 59.269 114.206 63.053 118.11 1.435.086 8.532.408 17.464-.958l4.151 2.274 11.74-6.432c8.206-3.214 16.216-8.372 21.734-16.64 4.473-6.703 7.3-15.445 7.295-26.83V77.196c.002-4.565-2.292-9.913-5.692-13.298L86.158 9.41c-1.473-1.458-3.398-2.372-5.46-2.592L26.587 1.046z" transform="matrix(-1 0 0 1 172.6 0) translate(0 4.389)"/>
                    <path fill="url(#prefix__y)" stroke="url(#prefix__x)" d="M5.826 12.052c-1.5-.15-2.761.398-3.644 1.495-.952 1.183-1.47 2.958-1.47 5.13v77.947c0 52.227 59.277 114.214 63.054 118.111 4.418.275 62.41 2.9 62.383-48.585V88.203c.002-4.566-2.291-9.913-5.692-13.299l-55.06-54.487c-1.473-1.458-3.398-2.372-5.46-2.592l-54.11-5.773z" transform="matrix(-1 0 0 1 172.6 0) translate(0 4.389)"/>
                </g>
                <g>
                    <path fill="url(#prefix__z)" stroke="url(#prefix__A)" stroke-width="2.851" d="M4.8 1.525c-.952-.095-1.762.246-2.327.945-.7.866-1.048 2.176-1.047 3.757v65.037c0 42.545 47.696 92.851 52.43 97.74 5.45.297 51.152 1.563 51.13-39.73V64.239c0-3.61-1.828-7.83-4.529-10.505L54.67 8.659c-1.357-1.336-3.128-2.173-5.023-2.374L4.8 1.525z" transform="matrix(-1 0 0 1 172.6 0) translate(8.117 33.62)"/>
                    <g>
                        <g opacity=".443">
                            <path fill="#D7F7E9" d="M46.458 19.704c0-.51-.334-1.105-.746-1.327L23.876 6.64c-.412-.221-.746.014-.746.525v1.852c0 .51.334 1.105.746 1.326l21.836 11.738c.412.221.746-.014.746-.525v-1.852z" transform="matrix(-1 0 0 1 172.6 0) translate(8.117 33.62) translate(17.703 16.455)"/>
                            <path fill="#FFF" d="M20.175 5.701c0-.51-.334-1.105-.746-1.326L12.04.402c-.412-.221-.746.014-.746.525v1.852c0 .51.334 1.105.746 1.327l7.39 3.972c.412.221.746-.014.746-.525V5.701zM13.274 25.233c0-.51-.334-1.105-.746-1.327L1.083 17.754c-.412-.22-.746.014-.746.525v1.852c0 .511.334 1.106.746 1.327l11.445 6.152c.412.221.746-.014.746-.525v-1.852zM5.343 28.346c0-.512-.335-1.106-.746-1.327L1.083 25.13c-.412-.221-.746.014-.746.525v1.852c0 .51.334 1.105.746 1.327l3.514 1.888c.411.222.746-.014.746-.525v-1.851z" transform="matrix(-1 0 0 1 172.6 0) translate(8.117 33.62) translate(17.703 16.455)"/>
                            <path fill="#D7F7E9" d="M22.469 37.551c0-.51-.334-1.105-.746-1.326l-13.77-7.402c-.412-.221-.746.014-.746.525V31.2c0 .51.334 1.105.746 1.326l13.77 7.402c.412.222.746-.014.746-.525v-1.852zM31.358 34.954c0-.51-.334-1.105-.746-1.327l-14.644-7.871c-.412-.222-.746.014-.746.525v1.851c0 .511.334 1.106.746 1.327l14.644 7.872c.412.221.746-.014.746-.525v-1.852zM27.627 17.075c0-.513-.336-1.11-.75-1.333L4.435 3.678c-.414-.222-.75.014-.75.527v1.86c0 .514.336 1.111.75 1.334l22.444 12.064c.413.222.749-.014.749-.528v-1.86z" transform="matrix(-1 0 0 1 172.6 0) translate(8.117 33.62) translate(17.703 16.455)"/>
                        </g>
                        <g opacity=".443">
                            <path fill="#D7F7E9" d="M23.447 13.316c0-.511-.334-1.106-.746-1.327L.865.25C.454.03.12.265.12.776v1.852c0 .511.335 1.106.746 1.327l21.836 11.737c.412.222.746-.014.746-.525v-1.851z" transform="matrix(-1 0 0 1 172.6 0) translate(8.117 33.62) translate(17.703 16.455) translate(41.203 42.903)"/>
                            <path fill="#FFF" d="M12.728 15.89c0-.51-.334-1.105-.746-1.326l-7.39-3.973c-.412-.221-.746.014-.746.525v1.852c0 .51.334 1.105.746 1.327l7.39 3.972c.412.222.746-.014.746-.525v-1.851zM8.851 28.558c0-.511-.334-1.106-.746-1.327l-3.513-1.889c-.412-.221-.746.014-.746.525v1.852c0 .51.334 1.105.746 1.327l3.513 1.888c.412.222.746-.014.746-.525v-1.851z" transform="matrix(-1 0 0 1 172.6 0) translate(8.117 33.62) translate(17.703 16.455) translate(41.203 42.903)"/>
                            <path fill="#D7F7E9" d="M25.977 37.764c0-.511-.334-1.106-.746-1.327l-13.77-7.402c-.411-.221-.745.014-.745.525v1.852c0 .51.334 1.105.746 1.327l13.77 7.401c.411.222.745-.014.745-.525v-1.851zM34.867 35.166c0-.51-.335-1.105-.746-1.327l-14.644-7.871c-.412-.222-.746.014-.746.525v1.852c0 .51.334 1.105.746 1.326l14.644 7.872c.411.221.746-.014.746-.525v-1.852z" transform="matrix(-1 0 0 1 172.6 0) translate(8.117 33.62) translate(17.703 16.455) translate(41.203 42.903)"/>
                        </g>
                        <g opacity=".236">
                            <path fill="#D7F7E9" d="M23.447 13.316c0-.511-.334-1.106-.746-1.327L.865.25C.454.03.12.265.12.776v1.852c0 .511.335 1.106.746 1.327l21.836 11.737c.412.222.746-.014.746-.525v-1.851z" transform="matrix(-1 0 0 1 172.6 0) translate(8.117 33.62) translate(17.703 16.455) rotate(180 34.796 66.25)"/>
                            <path fill="#FFF" d="M16.783 25.446c0-.512-.335-1.106-.746-1.327L4.592 17.967c-.412-.222-.746.013-.746.524v1.852c0 .511.334 1.106.746 1.327l11.445 6.152c.411.222.746-.014.746-.525v-1.851zM8.851 28.558c0-.511-.334-1.106-.746-1.327l-3.513-1.889c-.412-.221-.746.014-.746.525v1.852c0 .51.334 1.105.746 1.327l3.513 1.888c.412.222.746-.014.746-.525v-1.851z" transform="matrix(-1 0 0 1 172.6 0) translate(8.117 33.62) translate(17.703 16.455) rotate(180 34.796 66.25)"/>
                            <path fill="#D7F7E9" d="M25.977 37.764c0-.511-.334-1.106-.746-1.327l-13.77-7.402c-.411-.221-.745.014-.745.525v1.852c0 .51.334 1.105.746 1.327l13.77 7.401c.411.222.745-.014.745-.525v-1.851zM34.867 35.166c0-.51-.335-1.105-.746-1.327l-14.644-7.871c-.412-.222-.746.014-.746.525v1.852c0 .51.334 1.105.746 1.326l14.644 7.872c.411.221.746-.014.746-.525v-1.852zM38.528 29.763c0-.513-.336-1.11-.75-1.333L15.335 16.366c-.414-.223-.75.014-.75.527v1.86c0 .514.336 1.111.75 1.333l22.443 12.065c.414.222.75-.014.75-.528v-1.86z" transform="matrix(-1 0 0 1 172.6 0) translate(8.117 33.62) translate(17.703 16.455) rotate(180 34.796 66.25)"/>
                        </g>
                    </g>
                </g>
            </g>
            <path fill="url(#prefix__B)" d="M125.39 99.113V82.988c0-13.305-8.628-19.508-19.113-13.742-10.38 5.71-18.94 21.148-19.11 34.366l-.055 16.553-3.045 1.675c-.998.548-1.816 1.984-1.883 3.267l-.004.167v43.696c0 1.277.788 1.888 1.78 1.414l.107-.055 44.406-24.423c.998-.549 1.816-1.985 1.883-3.268l.004-.166V98.776c0-1.277-.788-1.889-1.78-1.414l-.107.055-3.082 1.696zm-19.4-19.2l.258-.146c5.879-3.234 10.728.17 10.834 7.543l.001.247.001 16.124-21.67 11.918V99.475c0-7.433 4.75-16.182 10.577-19.563z" opacity=".248"/>
            <path fill="url(#prefix__C)" d="M145.728 98.439l-15.182 8.271.067.036-30.03 16.36c-1.006.55-1.832 1.984-1.899 3.266l-.004.166v43.663c0 .564.155.998.415 1.266l-.037.02.153.084c.08.06.167.108.26.142l11.666 6.355 20.056-10.926-11.25-6.13 25.435-13.857c1.007-.549 1.832-1.984 1.9-3.265l.003-.167.001-32.672 10.798-5.883-10.952-5.967c-.228-.544-.691-.804-1.258-.685l-.142-.077z"/>
            <path fill="url(#prefix__E)" stroke="url(#prefix__D)" stroke-width="1.415" d="M126.73 71.118c-5.088 2.792-9.72 7.973-13.11 14.059-3.41 6.116-5.567 13.155-5.653 19.65l.123 18.21 4.474 2.785 5.196-3.201-5.518-3.03 2.566-1.407v-17.49c0-3.88 1.253-8.108 3.28-11.786 2.037-3.698 4.854-6.832 7.932-8.521 1.565-.859 3.063-1.274 4.43-1.303 1.476-.032 2.807.38 3.928 1.185 2.093 1.501 3.478 4.417 3.536 8.51l.016 17.93 4.73 2.596 5.432-3.332-5.517-3.03 2.24-1.228v-17.49c0-4.82-1.16-8.682-3.174-11.317l.748-.41-2.415-1.326c-1.671-1.373-3.71-2.108-5.991-2.122-2.23-.013-4.682.657-7.253 2.068z"/>
            <path fill="url(#prefix__G)" stroke="url(#prefix__F)" stroke-width="1.925" d="M157.778 106.91c0-.251-.004-.501-.461-.515l-44.406 24.428c-.38.208-.708.606-.955 1.056-.262.478-.434 1.026-.434 1.535v43.706c0 .252.004.502.461.516l44.406-24.428c.38-.208.708-.606.955-1.056.262-.478.434-1.026.434-1.535V106.91z"/>
            <use fill="#000" filter="url(#prefix__H)" xlink:href="#prefix__I"/>
            <use fill="#67519E" xlink:href="#prefix__I"/>
            <path fill="url(#prefix__J)" d="M112.54 126.654l.058-17.851c0-13.224 8.627-28.822 19.11-34.554 10.485-5.731 19.112.434 19.112 13.658v17.82l-8.306 4.54V92.449c0-7.497-4.89-10.992-10.834-7.743-5.943 3.25-10.834 12.092-10.834 19.588v17.82l-8.306 4.541z"/>
        </g>
        <g>
            <path fill="url(#prefix__K)" d="M19.958 22.028L0.356 11.38 0.356 33.006 19.958 43.564z" transform="translate(33 58.311)"/>
            <path fill="url(#prefix__L)" d="M39.483 11.418L19.958 22.03 19.958 43.564 39.483 33.067z" transform="translate(33 58.311)"/>
            <path fill="url(#prefix__M)" d="M19.886 0.52L0.356 11.38 19.954 22.278 39.483 11.418z" transform="translate(33 58.311)"/>
        </g>
        <g>
            <path fill="url(#prefix__N)" d="M9.979 11.014L0.178 5.69 0.178 16.503 9.979 21.782z" transform="translate(0 147.972)"/>
            <path fill="url(#prefix__O)" d="M19.742 5.709L9.979 11.015 9.979 21.782 19.742 16.534z" transform="translate(0 147.972)"/>
            <path fill="url(#prefix__P)" d="M9.943 0.26L0.178 5.69 9.977 11.139 19.742 5.709z" transform="translate(0 147.972)"/>
        </g>
        <g>
            <path fill="url(#prefix__Q)" d="M47.372 51.865L0.327 26.309 0.327 78.212 47.372 103.55z" transform="translate(306.24 351.12)"/>
            <path fill="url(#prefix__R)" d="M94.232 26.399L47.372 51.869 47.372 103.55 94.232 78.358z" transform="translate(306.24 351.12)"/>
            <path fill="url(#prefix__S)" d="M47.198 0.244L0.327 26.309 47.361 52.464 94.232 26.399z" transform="translate(306.24 351.12)"/>
        </g>
    </g>
</svg>
