<svg xmlns="http://www.w3.org/2000/svg" width="92" height="92" viewBox="0 0 92 92">
    <defs>
        <linearGradient id="u0900a8kla" x1="50%" x2="50%" y1="0%" y2="100%">
            <stop offset="0%" stop-color="#D0DBF7"/>
            <stop offset="100%" stop-color="#CFDBF7" stop-opacity="0"/>
        </linearGradient>
        <linearGradient id="v8vwrmadab" x1="50%" x2="50%" y1="0%" y2="100%">
            <stop offset="0%" stop-color="#4572DE"/>
            <stop offset="100%" stop-color="#BFD1FF"/>
        </linearGradient>
        <linearGradient id="hwojfufxsc" x1="50%" x2="50%" y1="0%" y2="100%">
            <stop offset="0%" stop-color="#4572DE"/>
            <stop offset="100%" stop-color="#BFD1FF"/>
        </linearGradient>
        <linearGradient id="fo9iynm5rd" x1="1.175%" x2="98.825%" y1="0%" y2="100%">
            <stop offset="0%" stop-color="#1E54D5"/>
            <stop offset="100%" stop-color="#CAD8FE"/>
            <stop offset="100%" stop-color="#CFDCFF"/>
        </linearGradient>
        <radialGradient id="wmfbonqaie" cx="50%" cy="50%" r="31.019%" fx="50%" fy="50%" gradientTransform="matrix(.7305 -.68291 5.49296 5.8757 -2.612 -2.096)">
            <stop offset="0%" stop-color="#1E54D5"/>
            <stop offset="100%" stop-color="#B2C3F1" stop-opacity="0"/>
        </radialGradient>
        <filter id="c110cbabnf" width="389%" height="350.4%" x="-144.5%" y="-125.2%" filterUnits="objectBoundingBox">
            <feOffset dy="6" in="SourceAlpha" result="shadowOffsetOuter1"/>
            <feGaussianBlur in="shadowOffsetOuter1" result="shadowBlurOuter1" stdDeviation="4"/>
            <feColorMatrix in="shadowBlurOuter1" result="shadowMatrixOuter1" values="0 0 0 0 0.0252608293 0 0 0 0 0.17992315 0 0 0 0 0.549394248 0 0 0 0.364210009 0"/>
            <feMerge>
                <feMergeNode in="shadowMatrixOuter1"/>
                <feMergeNode in="SourceGraphic"/>
            </feMerge>
        </filter>
    </defs>
    <g fill="none" fill-rule="evenodd">
        <g>
            <g>
                <g>
                    <g>
                        <path d="M0 0H92V92H0z" transform="translate(-148 -1290) translate(-1 680) translate(109 570) translate(40 40)"/>
                        <path fill="url(#u0900a8kla)" d="M46 76.188c16.672 0 30.188-13.516 30.188-30.188 0-16.672-13.516-30.188-30.188-30.188-16.672 0-30.188 13.516-30.188 30.188 0 16.672 13.516 30.188 30.188 30.188z" transform="translate(-148 -1290) translate(-1 680) translate(109 570) translate(40 40)"/>
                        <path fill="url(#v8vwrmadab)" fill-rule="nonzero" d="M46.745 14.743c.595.014 1.067.508 1.053 1.103-.014.595-.508 1.067-1.103 1.053-.231-.006-.463-.008-.695-.008-.595 0-1.078-.483-1.078-1.078 0-.596.483-1.079 1.078-1.079.249 0 .497.003.745.01zm5.913.702c.582.126.952.7.825 1.282-.126.582-.7.952-1.282.825-.226-.049-.452-.095-.68-.139-.584-.112-.967-.677-.855-1.262.112-.584.677-.967 1.262-.855.244.047.488.096.73.15zm5.673 1.815c.547.235.8.87.565 1.416-.235.548-.869.8-1.416.565-.212-.09-.426-.18-.64-.265-.553-.222-.82-.85-.6-1.403.223-.552.85-.82 1.403-.598.23.092.46.187.688.285zm5.25 2.881c.491.336.618 1.006.283 1.498-.335.493-1.006.62-1.498.285-.19-.13-.383-.258-.577-.384-.5-.323-.643-.99-.32-1.49.324-.5.991-.643 1.491-.32.208.135.415.272.62.411zm4.557 3.78c.42.422.42 1.105-.002 1.526-.422.42-1.104.42-1.525-.003-.163-.163-.328-.325-.495-.484-.43-.412-.445-1.094-.034-1.525.412-.43 1.094-.445 1.524-.034.18.172.357.345.532.52zm3.802 4.619c.333.493.202 1.163-.291 1.496-.494.333-1.164.203-1.497-.29-.13-.192-.26-.382-.394-.57-.345-.486-.23-1.16.255-1.504.486-.344 1.159-.23 1.503.256.144.202.285.406.424.612zm2.86 5.27c.232.549-.024 1.181-.572 1.414-.548.232-1.181-.024-1.413-.572-.09-.213-.183-.425-.278-.635-.246-.542-.005-1.181.538-1.426.542-.246 1.181-.005 1.426.538.103.226.202.453.299.681zm1.77 5.6c.125.583-.246 1.156-.828 1.281s-1.156-.246-1.28-.828c-.049-.226-.1-.451-.154-.675-.139-.58.218-1.161.797-1.3.58-.14 1.161.218 1.3.797.058.241.113.483.165.726zm.689 5.93c.012.596-.46 1.088-1.056 1.1-.595.013-1.088-.46-1.1-1.055-.005-.231-.012-.463-.022-.693-.027-.595.434-1.099 1.029-1.125.595-.026 1.098.435 1.125 1.03.01.247.019.495.024.743zm-.438 5.94c-.1.588-.656.983-1.243.883-.587-.1-.982-.657-.882-1.244.038-.227.074-.455.108-.684.086-.589.633-.997 1.222-.911.59.086.997.633.911 1.222-.035.246-.074.49-.116.735zm-1.557 5.75c-.21.557-.832.838-1.389.628-.557-.21-.838-.832-.628-1.389.081-.216.16-.434.237-.652.196-.562.811-.858 1.373-.662.562.197.858.812.662 1.374-.082.235-.167.468-.255.7zm-2.64 5.37c-.312.506-.976.663-1.483.35-.507-.312-.664-.977-.351-1.483.121-.197.24-.395.357-.594.3-.514.96-.687 1.475-.387.514.3.687.961.386 1.475-.125.214-.253.427-.383.638zm-3.574 4.725c-.403.439-1.085.468-1.523.066-.44-.403-.469-1.085-.066-1.524.156-.17.31-.342.462-.515.392-.449 1.073-.494 1.52-.102.45.391.495 1.073.103 1.52-.163.187-.329.372-.496.555zm-4.442 4.003c-.478.355-1.154.254-1.508-.224-.355-.478-.255-1.153.223-1.508.186-.138.37-.278.552-.42.47-.366 1.148-.282 1.514.188.365.47.281 1.147-.188 1.513-.196.153-.394.303-.593.45zm-5.132 3.092c-.537.257-1.18.03-1.438-.507-.257-.537-.03-1.181.507-1.438.209-.1.416-.202.622-.306.53-.27 1.18-.058 1.45.472.269.531.057 1.18-.474 1.45-.22.112-.443.222-.667.33zm-5.523 2.025c-.576.151-1.166-.193-1.317-.77-.15-.575.194-1.165.77-1.316.223-.058.446-.12.667-.183.573-.165 1.17.165 1.335.737.165.572-.166 1.17-.738 1.335-.238.068-.477.134-.717.197zm-5.893.954c-.594.038-1.107-.412-1.146-1.006-.038-.594.412-1.107 1.006-1.146.231-.015.461-.033.691-.053.593-.053 1.117.385 1.17.978.052.593-.386 1.117-.979 1.17-.247.022-.494.04-.742.057zm-5.956-.174c-.59-.073-1.01-.612-.936-1.203.073-.59.612-1.01 1.202-.937.23.029.458.055.688.078.593.06 1.025.588.965 1.18-.059.592-.587 1.025-1.18.965-.247-.025-.493-.052-.739-.083zm-5.833-1.303c-.566-.185-.875-.794-.69-1.36.186-.566.794-.875 1.36-.69.22.072.44.141.66.208.57.171.894.773.722 1.343-.171.57-.772.893-1.343.722-.237-.072-.474-.146-.71-.223zm-5.455-2.385c-.52-.29-.707-.946-.418-1.466.29-.52.947-.707 1.467-.418.201.113.404.222.609.33.527.277.73.929.452 1.456-.277.527-.929.73-1.456.452-.22-.115-.437-.233-.654-.354zm-4.887-3.363c-.456-.383-.516-1.063-.134-1.52.383-.455 1.063-.515 1.519-.133.177.148.356.295.536.439.465.371.541 1.05.17 1.515-.372.465-1.05.541-1.516.17-.193-.155-.385-.312-.575-.471zm-4.193-4.255c-.376-.462-.306-1.14.156-1.517.461-.375 1.14-.306 1.516.156.146.18.294.357.445.533.386.453.332 1.134-.12 1.52-.453.387-1.134.333-1.52-.12-.162-.188-.32-.38-.477-.572zm-3.32-4.986c-.28-.525-.083-1.178.442-1.46.525-.28 1.179-.082 1.46.443.109.203.22.406.334.607.293.518.111 1.176-.407 1.47-.518.293-1.176.11-1.47-.408-.122-.216-.241-.433-.358-.652zm-2.275-5.432c-.177-.569.14-1.173.71-1.35.568-.177 1.172.14 1.35.709.068.22.14.44.213.66.19.563-.112 1.175-.676 1.366-.565.19-1.176-.113-1.367-.677-.08-.235-.156-.471-.23-.708zm-1.218-5.844c-.065-.592.362-1.124.954-1.19.592-.065 1.125.362 1.19.954.025.23.053.46.084.688.079.59-.335 1.133-.925 1.212-.59.08-1.133-.335-1.212-.925-.033-.246-.063-.492-.09-.739zm-.09-5.962c.047-.594.567-1.037 1.16-.99.594.047 1.037.567.99 1.16-.018.23-.034.461-.047.692-.033.595-.542 1.05-1.136 1.017-.595-.033-1.05-.542-1.017-1.136.014-.248.03-.496.05-.743zm1.038-5.878c.16-.574.754-.91 1.327-.75.574.16.91.753.75 1.327-.061.223-.12.446-.177.67-.145.578-.731.928-1.309.783-.577-.146-.927-.732-.782-1.31.061-.24.125-.48.191-.72zm2.136-5.558c.266-.532.913-.749 1.446-.483.533.266.75.913.483 1.446-.103.207-.203.415-.302.624-.253.539-.895.77-1.434.518-.539-.253-.77-.895-.518-1.434.106-.225.214-.449.325-.67zm3.145-5.039c.362-.473 1.039-.563 1.512-.2.473.36.563 1.038.2 1.51-.14.184-.278.37-.414.557-.35.48-1.025.587-1.506.237-.482-.35-.588-1.025-.237-1.507.146-.2.294-.4.445-.597zm4.06-4.374c.444-.396 1.126-.356 1.522.088.396.445.356 1.126-.088 1.522-.173.154-.343.31-.512.467-.435.407-1.118.384-1.524-.051-.407-.436-.383-1.118.052-1.524.181-.17.364-.337.55-.502zm4.828-3.537c.511-.304 1.173-.136 1.477.376.305.512.137 1.173-.375 1.478-.199.118-.396.238-.591.36-.505.317-1.17.165-1.487-.34-.316-.504-.164-1.17.34-1.486.21-.131.422-.26.636-.388zm5.406-2.548c.56-.201 1.178.09 1.379.65.2.561-.09 1.179-.651 1.38-.218.077-.434.158-.65.241-.555.215-1.18-.062-1.394-.618-.214-.555.063-1.18.618-1.393.232-.09.464-.176.698-.26zm5.708-1.453c.589-.092 1.14.31 1.232.9.091.588-.312 1.139-.9 1.23-.228.036-.456.074-.683.115-.586.106-1.147-.284-1.253-.87-.105-.586.284-1.146.87-1.252.244-.044.489-.085.734-.123z" transform="translate(-148 -1290) translate(-1 680) translate(109 570) translate(40 40)"/>
                        <path fill="url(#hwojfufxsc)" fill-rule="nonzero" d="M41.111 66.296c.109-.585.672-.972 1.257-.863.223.041.447.079.672.113.589.088.995.637.906 1.226-.088.589-.637.994-1.226.906-.25-.037-.498-.08-.746-.125-.585-.109-.972-.672-.863-1.257zm-5.405-2.135c.267-.532.915-.747 1.447-.48.203.101.408.2.615.294.54.248.778.888.53 1.43-.248.54-.888.778-1.43.53-.229-.105-.456-.214-.681-.327-.532-.267-.748-.915-.48-1.447zm-4.584-3.523c.402-.44 1.084-.469 1.523-.066.168.153.338.304.51.452.453.387.506 1.067.118 1.52-.387.452-1.067.505-1.52.118-.191-.164-.38-.33-.565-.501-.439-.402-.468-1.084-.066-1.523zm-3.425-4.598c.507-.314 1.171-.157 1.484.349.12.193.243.384.369.573.33.495.197 1.164-.298 1.495-.495.33-1.165.197-1.495-.298-.14-.21-.276-.421-.409-.635-.313-.506-.157-1.17.35-1.484zm-2.047-5.382c.573-.162 1.169.17 1.331.744.062.218.128.435.197.651.182.567-.13 1.174-.696 1.356-.567.183-1.175-.13-1.357-.696-.077-.24-.15-.48-.218-.723-.163-.573.17-1.17.743-1.332zm-.494-5.736c.596 0 1.078.483 1.078 1.078 0 .228.004.456.012.682.02.596-.446 1.094-1.041 1.115-.595.02-1.094-.446-1.114-1.041-.009-.252-.013-.504-.013-.756 0-.595.483-1.078 1.078-1.078zm41.64-.719c.594-.02 1.093.446 1.113 1.041.009.252.013.504.013.756 0 .595-.483 1.078-1.078 1.078-.596 0-1.078-.483-1.078-1.078 0-.228-.004-.456-.012-.682-.02-.596.446-1.094 1.041-1.115zm-1.278-5.612c.567-.183 1.175.13 1.357.696.077.24.15.48.218.723.163.573-.17 1.17-.743 1.332-.573.162-1.169-.17-1.331-.744-.062-.218-.128-.435-.197-.651-.182-.567.13-1.174.696-1.356zm-2.77-5.048c.495-.33 1.165-.197 1.495.298.14.21.276.421.409.635.313.506.157 1.17-.35 1.484-.506.314-1.17.157-1.483-.349-.12-.193-.243-.384-.369-.573-.33-.495-.197-1.164.298-1.495zm-4.021-4.087c.387-.452 1.067-.505 1.52-.118.191.164.38.33.565.501.439.402.468 1.084.066 1.523-.402.44-1.084.469-1.523.066-.168-.153-.338-.304-.51-.452-.453-.387-.506-1.067-.118-1.52zm-5.025-2.86c.248-.542.888-.78 1.43-.531.229.105.456.214.681.327.532.267.748.915.48 1.447-.266.532-.914.747-1.446.48-.203-.101-.408-.2-.615-.294-.54-.248-.778-.888-.53-1.43zm-5.648-1.368c.088-.589.637-.994 1.226-.906.25.037.498.08.746.125.585.109.972.672.863 1.257-.109.585-.672.972-1.257.863-.223-.041-.447-.079-.672-.113-.589-.088-.995-.637-.906-1.226z" transform="translate(-148 -1290) translate(-1 680) translate(109 570) translate(40 40)"/>
                        <path fill="url(#fo9iynm5rd)" fill-rule="nonzero" d="M43.41 4.973c.941 0 1.714.724 1.793 1.645.18-.139.407-.221.653-.221C67.53 6.397 85.1 23.967 85.1 45.64c0 21.673-17.57 39.243-39.244 39.243-21.673 0-39.244-17.57-39.244-39.243 0-.105.015-.205.043-.3-.544-.343-.905-.95-.905-1.641 0-1.072.869-1.94 1.94-1.94 1.072 0 1.941.868 1.941 1.94 0 .692-.361 1.299-.906 1.642.029.094.044.195.044.299 0 20.482 16.604 37.087 37.087 37.087 20.483 0 37.088-16.605 37.088-37.087 0-20.483-16.605-37.088-37.088-37.088-.246 0-.473-.082-.654-.221-.023.272-.108.536-.25.771-.51.853-1.616 1.13-2.469.618l-1.17-.703c-.253-.152-.465-.364-.617-.617-.512-.852-.235-1.958.617-2.47l1.17-.702c.28-.167.6-.256.926-.256z" transform="translate(-148 -1290) translate(-1 680) translate(109 570) translate(40 40)"/>
                        <path fill="url(#wmfbonqaie)" fill-rule="nonzero" d="M66.844 44.922c.595 0 1.078.483 1.078 1.078 0 12.107-9.815 21.922-21.922 21.922-.595 0-1.078-.483-1.078-1.078 0-.596.483-1.078 1.078-1.078 10.916 0 19.766-8.85 19.766-19.766 0-.595.482-1.078 1.078-1.078zM46 24.078c.595 0 1.078.483 1.078 1.078 0 .596-.483 1.078-1.078 1.078-10.916 0-19.766 8.85-19.766 19.766 0 .595-.482 1.078-1.078 1.078-.595 0-1.078-.483-1.078-1.078 0-12.107 9.815-21.922 21.922-21.922z" transform="translate(-148 -1290) translate(-1 680) translate(109 570) translate(40 40)"/>
                        <g filter="url(#c110cbabnf)" transform="translate(-148 -1290) translate(-1 680) translate(109 570) translate(40 40) translate(36.656 35.219)">
                            <path fill="#7193E4" d="M9.369 10.699L0.167 5.437 0.167 16.123 9.369 21.339z"/>
                            <path fill="#1E54D5" d="M18.534 5.456L9.369 10.699 9.369 21.339 18.534 16.153z"/>
                            <path fill="#8BADFF" d="M9.335 0.071L0.167 5.437 9.366 10.822 18.534 5.456z"/>
                        </g>
                    </g>
                </g>
            </g>
        </g>
    </g>
</svg>
