<svg xmlns="http://www.w3.org/2000/svg" xmlns:xlink="http://www.w3.org/1999/xlink" width="92" height="92" viewBox="0 0 92 92">
    <defs>
        <filter id="t9zabylifa">
            <feColorMatrix in="SourceGraphic" values="0 0 0 0 0.116200 0 0 0 0 0.329451 0 0 0 0 0.835711 0 0 0 1.000000 0"/>
        </filter>
        <filter id="ppb7voyojf" width="517.4%" height="517.4%" x="-208.7%" y="-139.1%" filterUnits="objectBoundingBox">
            <feOffset dy="6" in="SourceAlpha" result="shadowOffsetOuter1"/>
            <feGaussianBlur in="shadowOffsetOuter1" result="shadowBlurOuter1" stdDeviation="5"/>
            <feColorMatrix in="shadowBlurOuter1" values="0 0 0 0 0 0 0 0 0 0 0 0 0 0 0 0 0 0 0.525677448 0"/>
        </filter>
        <filter id="3z9x11i1xi" width="517.4%" height="517.4%" x="-208.7%" y="-139.1%" filterUnits="objectBoundingBox">
            <feOffset dy="6" in="SourceAlpha" result="shadowOffsetOuter1"/>
            <feGaussianBlur in="shadowOffsetOuter1" result="shadowBlurOuter1" stdDeviation="5"/>
            <feColorMatrix in="shadowBlurOuter1" values="0 0 0 0 0 0 0 0 0 0 0 0 0 0 0 0 0 0 0.525677448 0"/>
        </filter>
        <filter id="yc4arnpgpk" width="517.4%" height="517.4%" x="-208.7%" y="-139.1%" filterUnits="objectBoundingBox">
            <feOffset dy="6" in="SourceAlpha" result="shadowOffsetOuter1"/>
            <feGaussianBlur in="shadowOffsetOuter1" result="shadowBlurOuter1" stdDeviation="5"/>
            <feColorMatrix in="shadowBlurOuter1" values="0 0 0 0 0 0 0 0 0 0 0 0 0 0 0 0 0 0 0.525677448 0"/>
        </filter>
        <filter id="hbf1cyt3rm" width="517.4%" height="517.4%" x="-208.7%" y="-139.1%" filterUnits="objectBoundingBox">
            <feOffset dy="6" in="SourceAlpha" result="shadowOffsetOuter1"/>
            <feGaussianBlur in="shadowOffsetOuter1" result="shadowBlurOuter1" stdDeviation="5"/>
            <feColorMatrix in="shadowBlurOuter1" values="0 0 0 0 0 0 0 0 0 0 0 0 0 0 0 0 0 0 0.525677448 0"/>
        </filter>
        <filter id="qc5jc22kdo" width="240.5%" height="318.8%" x="-70.2%" y="-82.7%" filterUnits="objectBoundingBox">
            <feOffset dy="5" in="SourceAlpha" result="shadowOffsetOuter1"/>
            <feGaussianBlur in="shadowOffsetOuter1" result="shadowBlurOuter1" stdDeviation="6"/>
            <feColorMatrix in="shadowBlurOuter1" values="0 0 0 0 0 0 0 0 0 0 0 0 0 0 0 0 0 0 0.5 0"/>
        </filter>
        <linearGradient id="g4z64x5rgb" x1="50%" x2="50%" y1="1.543%" y2="100%">
            <stop offset="0%" stop-opacity=".211"/>
            <stop offset="100%" stop-opacity=".033"/>
        </linearGradient>
        <linearGradient id="i20rkxqcrc" x1="50%" x2="50%" y1="93.102%" y2="-20.94%">
            <stop offset="0%" stop-opacity=".216"/>
            <stop offset="100%" stop-opacity="0"/>
        </linearGradient>
        <linearGradient id="4a2eisx5we" x1="51.951%" x2="48.139%" y1="99.597%" y2=".403%">
            <stop offset="0%" stop-opacity=".431"/>
            <stop offset="100%" stop-opacity=".776"/>
        </linearGradient>
        <linearGradient id="tahx1zid2h" x1="50%" x2="50%" y1="0%" y2="100%">
            <stop offset="0%" stop-opacity=".5"/>
            <stop offset="100%"/>
        </linearGradient>
        <linearGradient id="983iaafocq" x1="0%" x2="100%" y1="29.399%" y2="70.601%">
            <stop offset="0%" stop-opacity=".616"/>
            <stop offset="100%"/>
        </linearGradient>
        <path id="75975p9nug" d="M40 4.781c-2.382 0-4.313 1.931-4.313 4.313 0 2.381 1.931 4.312 4.313 4.312 2.382 0 4.313-1.93 4.313-4.312 0-2.382-1.931-4.313-4.313-4.313zm0 1.438c1.588 0 2.875 1.287 2.875 2.875S41.588 11.969 40 11.969s-2.875-1.287-2.875-2.875S38.412 6.219 40 6.219z"/>
        <path id="kxnfavfn7j" d="M40 66.594c-2.382 0-4.313 1.93-4.313 4.312 0 2.382 1.931 4.313 4.313 4.313 2.382 0 4.313-1.931 4.313-4.313 0-2.381-1.931-4.312-4.313-4.312zm0 1.437c1.588 0 2.875 1.287 2.875 2.875S41.588 73.781 40 73.781s-2.875-1.287-2.875-2.875 1.287-2.875 2.875-2.875z"/>
        <path id="z4em4ylmtl" d="M9.094 36.406c-2.382 0-4.313 1.931-4.313 4.313 0 2.381 1.931 4.312 4.313 4.312 2.381 0 4.312-1.93 4.312-4.312 0-2.382-1.93-4.313-4.312-4.313zm0 1.438c1.588 0 2.875 1.287 2.875 2.875s-1.287 2.875-2.875 2.875-2.875-1.287-2.875-2.875 1.287-2.875 2.875-2.875z"/>
        <path id="7i06f0z6vn" d="M70.906 36.406c-2.381 0-4.312 1.931-4.312 4.313 0 2.381 1.93 4.312 4.312 4.312 2.382 0 4.313-1.93 4.313-4.312 0-2.382-1.931-4.313-4.313-4.313zm0 1.438c1.588 0 2.875 1.287 2.875 2.875s-1.287 2.875-2.875 2.875-2.875-1.287-2.875-2.875 1.287-2.875 2.875-2.875z"/>
        <path id="rshvihc1jp" d="M54.817 40.91c-.005-1.916-.784-3.747-2.16-5.078-1.135-1.1-2.611-1.781-4.185-1.93-.097-.01-.185-.065-.236-.15-1.971-3.278-5.74-5.025-9.516-4.412-3.776.613-6.798 3.464-7.63 7.197-.028.137-.143.238-.281.249-2.919.218-5.176 2.648-5.18 5.575-.06 1.458.486 2.876 1.508 3.917 1.192 1.072 2.736 1.67 4.339 1.678h16.873c.054 0 .108-.004.16-.011 3.59-.394 6.307-3.426 6.308-7.036z"/>
        <radialGradient id="1disdtnnld" cx="50%" cy="50%" r="31.019%" fx="50%" fy="50%" gradientTransform="matrix(.7305 -.68291 5.49296 5.8757 -2.612 -2.096)">
            <stop offset="0%"/>
            <stop offset="100%" stop-opacity="0"/>
        </radialGradient>
    </defs>
    <g fill="none" fill-rule="evenodd">
        <g>
            <g>
                <g>
                    <g>
                        <g filter="url(#t9zabylifa)" transform="translate(-980 -1290) translate(-1 680) translate(109 570) translate(832) translate(40 40)">
                            <g>
                                <path fill="url(#g4z64x5rgb)" d="M40 .469C61.833.469 79.531 18.167 79.531 40S61.833 79.531 40 79.531.469 61.833.469 40 18.167.469 40 .469zm0 19.765c-10.916 0-19.766 8.85-19.766 19.766 0 10.916 8.85 19.766 19.766 19.766 10.916 0 19.766-8.85 19.766-19.766 0-10.916-8.85-19.766-19.766-19.766z" opacity=".68" transform="translate(6 6)"/>
                                <path fill="url(#i20rkxqcrc)" d="M40 12.688c15.084 0 27.313 12.228 27.313 27.312 0 15.084-12.229 27.313-27.313 27.313S12.687 55.084 12.687 40 24.916 12.687 40 12.687zm0 7.546c-10.916 0-19.766 8.85-19.766 19.766 0 10.916 8.85 19.766 19.766 19.766 10.916 0 19.766-8.85 19.766-19.766 0-10.916-8.85-19.766-19.766-19.766z" transform="translate(6 6)"/>
                                <path fill="url(#1disdtnnld)" fill-rule="nonzero" d="M61.203 38.563c.596 0 1.078.482 1.078 1.078 0 12.107-9.815 21.922-21.922 21.922-.595 0-1.078-.483-1.078-1.079 0-.595.483-1.078 1.078-1.078 10.917 0 19.766-8.85 19.766-19.765 0-.596.483-1.078 1.078-1.078zM40.36 17.718c.596 0 1.078.482 1.078 1.078 0 .595-.482 1.078-1.078 1.078-10.916 0-19.765 8.85-19.765 19.766 0 .595-.483 1.078-1.078 1.078-.596 0-1.078-.483-1.078-1.078 0-12.107 9.814-21.922 21.921-21.922z" transform="translate(6 6)"/>
                                <path fill="url(#4a2eisx5we)" fill-rule="nonzero" d="M47.742 8.956c.578.143.93.728.786 1.306-.144.578-.729.93-1.306.786-.224-.055-.449-.109-.674-.16-.581-.13-.947-.706-.817-1.287.13-.58.707-.946 1.288-.816.242.054.483.111.723.17zm6.625 2.458c.532.268.746.916.478 1.448-.268.532-.916.746-1.448.478-.206-.104-.414-.206-.622-.305-.538-.255-.767-.898-.512-1.436.256-.538.899-.767 1.437-.511.223.106.446.215.667.326zm5.907 3.846c.46.378.527 1.057.15 1.517-.378.46-1.058.528-1.518.15-.179-.147-.359-.291-.54-.434-.47-.367-.552-1.044-.185-1.513.367-.47 1.044-.552 1.513-.185.195.153.389.308.58.465zm4.947 5.069c.366.47.283 1.147-.187 1.513-.47.366-1.147.283-1.513-.186-.142-.183-.287-.363-.433-.542-.377-.46-.31-1.14.151-1.517.461-.377 1.14-.31 1.518.151.156.192.311.385.464.58zm3.725 6.053c.254.54.023 1.181-.516 1.435-.538.254-1.18.023-1.434-.516-.099-.209-.2-.417-.303-.624-.266-.532-.05-1.18.482-1.446.533-.266 1.18-.05 1.446.482.111.222.22.445.325.67zm2.265 6.613c.13.582-.236 1.158-.817 1.288-.581.13-1.158-.237-1.287-.818-.05-.225-.104-.45-.16-.675-.143-.578.21-1.162.788-1.306.577-.143 1.162.21 1.305.787.06.24.117.482.171.724zm-.013 14.058c-.13.58-.708.946-1.289.815-.58-.131-.945-.708-.814-1.289.05-.225.098-.451.144-.678.117-.584.686-.962 1.27-.845.583.118.961.686.844 1.27-.049.243-.1.485-.155.727zm-2.31 6.68c-.257.537-.9.765-1.438.51-.537-.257-.765-.9-.51-1.438.1-.208.197-.418.291-.63.244-.543.882-.786 1.425-.542.543.243.787.881.543 1.424-.101.227-.205.452-.312.675zm-3.717 5.992c-.367.468-1.045.55-1.513.182-.469-.367-.55-1.045-.183-1.514.143-.182.284-.365.422-.55.357-.477 1.033-.575 1.51-.218.476.356.574 1.032.217 1.509-.149.198-.3.395-.453.59zm-4.958 5.056c-.462.376-1.14.308-1.517-.153-.377-.462-.308-1.14.153-1.517.179-.147.356-.295.532-.445.452-.387 1.133-.334 1.52.118s.334 1.133-.118 1.52c-.188.161-.379.32-.57.477zm-5.968 3.856c-.533.266-1.18.05-1.446-.483-.265-.533-.049-1.18.484-1.446.207-.103.413-.21.618-.317.526-.278 1.178-.077 1.456.45s.077 1.179-.45 1.457c-.22.116-.44.229-.662.34zm-6.564 2.413c-.578.143-1.162-.21-1.305-.789-.142-.578.21-1.162.789-1.305.224-.055.448-.113.671-.174.575-.156 1.167.184 1.323.758.156.575-.183 1.167-.757 1.323-.24.065-.48.127-.72.187zm-14.054.295c-.583-.117-.961-.686-.843-1.27.118-.583.687-.961 1.27-.843.227.046.454.089.681.13.587.104.977.663.873 1.25-.104.586-.664.977-1.25.872-.244-.043-.488-.09-.73-.139zM26.9 69.184c-.543-.244-.786-.882-.542-1.425.244-.544.883-.786 1.426-.542.21.095.422.187.635.277.548.23.806.863.574 1.412-.23.549-.863.806-1.412.575-.228-.097-.455-.196-.681-.297zM20.826 65.6c-.476-.357-.573-1.033-.216-1.51.357-.476 1.033-.572 1.51-.215.185.139.371.275.56.41.484.346.597 1.02.25 1.504-.346.484-1.019.597-1.503.25-.202-.144-.403-.29-.601-.439zm-5.163-4.845c-.386-.453-.333-1.134.12-1.52.453-.387 1.133-.333 1.52.12.15.175.302.35.456.521.397.444.36 1.126-.084 1.523s-1.126.359-1.523-.085c-.165-.184-.328-.37-.489-.56zm-3.986-5.879c-.278-.527-.075-1.179.452-1.456.526-.278 1.178-.075 1.456.451.108.205.218.409.33.61.29.52.103 1.177-.417 1.467-.52.29-1.177.103-1.467-.417-.12-.217-.239-.435-.354-.655zm-2.56-6.512c-.155-.575.185-1.167.76-1.322.574-.156 1.166.184 1.322.759.06.223.123.446.189.667.169.571-.157 1.17-.728 1.34-.571.169-1.171-.157-1.34-.728-.07-.238-.138-.477-.203-.716zm-.604-14.046c.105-.586.665-.976 1.252-.87.586.104.976.664.87 1.25-.04.228-.078.456-.114.684-.09.589-.642.992-1.23.9-.589-.09-.992-.642-.9-1.23.038-.245.078-.49.122-.734zm2.012-6.774c.232-.548.864-.804 1.413-.573.548.232.805.865.573 1.413-.09.213-.178.428-.263.643-.22.553-.846.825-1.4.606-.553-.22-.824-.846-.605-1.4.091-.23.185-.46.282-.689zm3.462-6.17c.347-.484 1.02-.595 1.504-.248s.595 1.02.248 1.504c-.134.188-.267.378-.397.568-.336.492-1.007.619-1.498.283-.492-.336-.619-1.007-.283-1.498.14-.205.282-.408.426-.61zm4.715-5.246c.444-.397 1.126-.358 1.522.086.397.444.358 1.126-.086 1.522-.172.154-.343.31-.512.468-.435.407-1.117.384-1.524-.051-.406-.435-.384-1.117.051-1.524.181-.17.364-.336.549-.501zm5.787-4.114c.52-.29 1.177-.102 1.466.419.289.52.101 1.177-.42 1.466-.201.112-.402.227-.601.343-.514.302-1.175.13-1.476-.384-.3-.514-.129-1.175.385-1.476.214-.125.43-.248.646-.368zm6.456-2.705c.571-.169 1.17.158 1.339.73.168.57-.159 1.17-.73 1.338-.222.065-.443.133-.663.204-.567.181-1.174-.131-1.355-.698-.182-.568.13-1.174.698-1.356.236-.076.473-.148.711-.218z" transform="translate(6 6) rotate(2 39.876 40.13)"/>
                                <g fill-rule="nonzero" transform="translate(6 6)">
                                    <use fill="#000" filter="url(#ppb7voyojf)" xlink:href="#75975p9nug"/>
                                    <use fill="url(#tahx1zid2h)" xlink:href="#75975p9nug"/>
                                </g>
                                <g fill-rule="nonzero" transform="translate(6 6)">
                                    <use fill="#000" filter="url(#3z9x11i1xi)" xlink:href="#kxnfavfn7j"/>
                                    <use fill="url(#tahx1zid2h)" xlink:href="#kxnfavfn7j"/>
                                </g>
                                <g fill-rule="nonzero" transform="translate(6 6)">
                                    <use fill="#000" filter="url(#yc4arnpgpk)" xlink:href="#z4em4ylmtl"/>
                                    <use fill="url(#tahx1zid2h)" xlink:href="#z4em4ylmtl"/>
                                </g>
                                <g fill-rule="nonzero" transform="translate(6 6)">
                                    <use fill="#000" filter="url(#hbf1cyt3rm)" xlink:href="#7i06f0z6vn"/>
                                    <use fill="url(#tahx1zid2h)" xlink:href="#7i06f0z6vn"/>
                                </g>
                                <g fill-rule="nonzero" transform="translate(6 6)">
                                    <use fill="#000" filter="url(#qc5jc22kdo)" xlink:href="#rshvihc1jp"/>
                                    <use fill="url(#983iaafocq)" xlink:href="#rshvihc1jp"/>
                                </g>
                            </g>
                        </g>
                    </g>
                </g>
            </g>
        </g>
    </g>
</svg>
