<svg xmlns="http://www.w3.org/2000/svg" xmlns:xlink="http://www.w3.org/1999/xlink" width="746" height="828" viewBox="0 0 746 828">
    <defs>
        <linearGradient id="fkln3lb46b" x1="70.901%" x2="46.938%" y1="100%" y2="-17.628%">
            <stop offset="0%" stop-color="#0F1236"/>
            <stop offset="100%" stop-color="#142557"/>
        </linearGradient>
        <linearGradient id="sqjty5b9xc" x1="41.293%" x2="75.922%" y1="-14.137%" y2="85.855%">
            <stop offset="0%" stop-color="#CD7613" stop-opacity=".571"/>
            <stop offset="100%" stop-color="#CB7414" stop-opacity=".124"/>
        </linearGradient>
        <linearGradient id="5dxq6pxl0d" x1="51.874%" x2="80.469%" y1="6.567%" y2="96.547%">
            <stop offset="0%" stop-color="#CD7613"/>
            <stop offset="100%" stop-color="#CB7414" stop-opacity=".124"/>
        </linearGradient>
        <linearGradient id="c8awxcig5g" x1="54.495%" x2="30.034%" y1="-20.313%" y2="93.015%">
            <stop offset="0%" stop-color="#20346C"/>
            <stop offset="100%" stop-color="#081435"/>
        </linearGradient>
        <linearGradient id="jwc9kqucsj" x1="69.185%" x2="21.574%" y1="38.301%" y2="58.254%">
            <stop offset="0%" stop-color="#213684"/>
            <stop offset="100%" stop-color="#33478F"/>
        </linearGradient>
        <linearGradient id="cfwznljnjl" x1="27.007%" x2="75.13%" y1="4.407%" y2="99.435%">
            <stop offset="0%" stop-color="#122964"/>
            <stop offset="100%" stop-color="#06102A"/>
        </linearGradient>
        <linearGradient id="a9c4bwdofk" x1="47.33%" x2="61.677%" y1="21.243%" y2="71.803%">
            <stop offset="0%" stop-color="#1C43A8" stop-opacity=".387"/>
            <stop offset="100%" stop-color="#0E204F" stop-opacity=".444"/>
        </linearGradient>
        <linearGradient id="s8nhfsh8em" x1="16.198%" x2="83.802%" y1="16.649%" y2="84.01%">
            <stop offset="0%" stop-color="#4ACFE2"/>
            <stop offset="100%" stop-color="#24A1C1" stop-opacity=".519"/>
        </linearGradient>
        <linearGradient id="2t9grwxxeo" x1="67.129%" x2="115.163%" y1="26.956%" y2="109.349%">
            <stop offset="0%" stop-color="#C16E14" stop-opacity="0"/>
            <stop offset="100%" stop-color="#AA6113"/>
        </linearGradient>
        <linearGradient id="2x66ectnys" x1="50%" x2="50%" y1="0%" y2="97.065%">
            <stop offset="0%" stop-color="#1A275F"/>
            <stop offset="100%" stop-color="#0A1749"/>
        </linearGradient>
        <linearGradient id="pl7yy3fwnx" x1="50%" x2="50%" y1="0%" y2="40.571%">
            <stop offset="0%" stop-color="#FFC17F"/>
            <stop offset="43.118%" stop-color="#C77216" stop-opacity=".86"/>
            <stop offset="100%" stop-color="#C47218" stop-opacity="0"/>
        </linearGradient>
        <linearGradient id="lprrnodfvw" x1="50%" x2="50%" y1="0%" y2="97.065%">
            <stop offset="0%" stop-color="#874F1D"/>
            <stop offset="31.675%" stop-color="#1A275F"/>
            <stop offset="100%" stop-color="#162561"/>
        </linearGradient>
        <linearGradient id="olerj37ryy" x1="92.296%" x2="80.844%" y1="40.291%" y2="58.051%">
            <stop offset="0%" stop-color="#0E1032" stop-opacity="0"/>
            <stop offset="30.736%" stop-color="#23357F" stop-opacity=".82"/>
            <stop offset="43.118%" stop-color="#3850AE"/>
            <stop offset="55.168%" stop-color="#243683" stop-opacity=".862"/>
            <stop offset="100%" stop-color="#0E1032" stop-opacity="0"/>
        </linearGradient>
        <linearGradient id="ny5sttyg1F" x1="50%" x2="50%" y1="0%" y2="71.568%">
            <stop offset="0%" stop-color="#C27319" stop-opacity=".562"/>
            <stop offset="30.752%" stop-color="#56392B" stop-opacity=".843"/>
            <stop offset="100%" stop-color="#0E0D2F" stop-opacity="0"/>
        </linearGradient>
        <linearGradient id="nimf76q7yE" x1="50%" x2="50%" y1="0%" y2="67.586%">
            <stop offset="0%" stop-color="#955D2A"/>
            <stop offset="22.042%" stop-color="#6B4631"/>
            <stop offset="100%" stop-color="#0B0423"/>
        </linearGradient>
        <linearGradient id="dad1at9tzG" x1="92.296%" x2="80.844%" y1="40.272%" y2="58.066%">
            <stop offset="0%" stop-color="#0E1032" stop-opacity="0"/>
            <stop offset="30.736%" stop-color="#23357F" stop-opacity=".82"/>
            <stop offset="43.118%" stop-color="#3850AE"/>
            <stop offset="55.168%" stop-color="#243683" stop-opacity=".862"/>
            <stop offset="100%" stop-color="#0E1032" stop-opacity="0"/>
        </linearGradient>
        <linearGradient id="hzydzwe9cL" x1="50%" x2="50%" y1="-13.981%" y2="61.856%">
            <stop offset="0%" stop-color="#8B572A"/>
            <stop offset="100%" stop-color="#1C2E71"/>
        </linearGradient>
        <linearGradient id="p1yrcrjdfO" x1="53.109%" x2="77.838%" y1="51.961%" y2="46.777%">
            <stop offset="0%"/>
            <stop offset="100%" stop-opacity="0"/>
        </linearGradient>
        <linearGradient id="or955mx6qS" x1="38.26%" x2="47.976%" y1="69.564%" y2="44.372%">
            <stop offset="0%" stop-color="#DB7D11" stop-opacity="0"/>
            <stop offset="100%" stop-color="#DB7D11"/>
        </linearGradient>
        <linearGradient id="l306geyh5T" x1="12.997%" x2="129.679%" y1="16.331%" y2="129.682%">
            <stop offset="0%" stop-color="#DB7D11"/>
            <stop offset="100%" stop-color="#DB7D11" stop-opacity=".104"/>
        </linearGradient>
        <linearGradient id="b7bpmv4xpU" x1="38.983%" x2="48.824%" y1="71.733%" y2="44.372%">
            <stop offset="0%" stop-color="#DB7D11" stop-opacity="0"/>
            <stop offset="100%" stop-color="#DB7D11"/>
        </linearGradient>
        <linearGradient id="wjaqrn7ijV" x1="27.627%" x2="98.177%" y1="16.331%" y2="129.682%">
            <stop offset="0%" stop-color="#DB7D11"/>
            <stop offset="100%" stop-color="#DB7D11" stop-opacity=".104"/>
        </linearGradient>
        <radialGradient id="7mnj2lj9oa" cx="50%" cy="50%" r="36.459%" fx="50%" fy="50%">
            <stop offset="0%" stop-color="#FFF"/>
            <stop offset="25.988%" stop-color="#DB7D11" stop-opacity=".783"/>
            <stop offset="100%" stop-color="#DB7D11" stop-opacity="0"/>
        </radialGradient>
        <radialGradient id="j4ywmtmk8i" cx="53.201%" cy="10.744%" r="122.513%" fx="53.201%" fy="10.744%" gradientTransform="scale(.62984 1) rotate(46.765 .688 .469)">
            <stop offset="0%" stop-color="#D37B1C"/>
            <stop offset="100%" stop-color="#CD7613" stop-opacity="0"/>
        </radialGradient>
        <radialGradient id="tscy9hwwrp" cx="50%" cy="50%" r="39.668%" fx="50%" fy="50%" gradientTransform="matrix(0 .9191 -1 0 1 .04)">
            <stop offset="0%" stop-color="#FFF"/>
            <stop offset="25.988%" stop-color="#DB7D11" stop-opacity=".783"/>
            <stop offset="100%" stop-color="#DB7D11" stop-opacity="0"/>
        </radialGradient>
        <radialGradient id="fig83bjrht" cx="50%" cy="93.744%" r="93.672%" fx="50%" fy="93.744%" gradientTransform="scale(.53378 1) rotate(-.266 .718 -93.197)">
            <stop offset="0%" stop-color="#0C0423"/>
            <stop offset="53.071%" stop-color="#0C0626"/>
            <stop offset="71.334%" stop-color="#0E1033"/>
            <stop offset="100%" stop-color="#02051A"/>
        </radialGradient>
        <radialGradient id="1w6ecn050u" cx="50%" cy="90.612%" r="107.943%" fx="50%" fy="90.612%" gradientTransform="matrix(.52308 -.19923 .10634 .97995 .142 .118)">
            <stop offset="0%" stop-color="#0B0322"/>
            <stop offset="78.931%" stop-color="#0E1033"/>
            <stop offset="100%" stop-color="#0F1337"/>
        </radialGradient>
        <radialGradient id="jw57q5w6sz" cx="15.777%" cy="78.028%" r="60.742%" fx="15.777%" fy="78.028%" gradientTransform="matrix(-.38753 -.67503 .20559 -.4278 .059 1.22)">
            <stop offset="0%" stop-color="#FFC27D"/>
            <stop offset="41.514%" stop-color="#DB7D11" stop-opacity=".826"/>
            <stop offset="100%" stop-color="#DB7D11" stop-opacity="0"/>
        </radialGradient>
        <radialGradient id="cdw4o4lf4A" cx="50%" cy="50%" r="117.318%" fx="50%" fy="50%" gradientTransform="matrix(0 1 -1.63012 0 1.315 0)">
            <stop offset="0%" stop-color="#EB8927"/>
            <stop offset="100%" stop-color="#C87315" stop-opacity="0"/>
        </radialGradient>
        <radialGradient id="wlyhvatpdD" cx="50%" cy="90.612%" r="108.779%" fx="50%" fy="90.612%" gradientTransform="matrix(.52154 -.21715 .11602 .97614 .134 .13)">
            <stop offset="0%" stop-color="#0D2359"/>
            <stop offset="100%" stop-color="#081535"/>
        </radialGradient>
        <radialGradient id="vwylhitdiH" cx="50%" cy="100%" r="96.297%" fx="50%" fy="100%" gradientTransform="matrix(0 1 -1.12033 0 1.62 .5)">
            <stop offset="0%" stop-color="#DB7D11"/>
            <stop offset="100%" stop-color="#DB7D11" stop-opacity="0"/>
        </radialGradient>
        <radialGradient id="y5d9dyc3aJ" cx="50%" cy="50%" r="50%" fx="50%" fy="50%" gradientTransform="matrix(0 1 -1.04665 0 1.023 0)">
            <stop offset="0%" stop-color="#BE6F16"/>
            <stop offset="100%" stop-color="#BA6C17" stop-opacity="0"/>
        </radialGradient>
        <radialGradient id="i99u9x4wjP" cx="45.147%" cy="52.462%" r="29.492%" fx="45.147%" fy="52.462%" gradientTransform="matrix(-.57363 .10715 -.04042 -.65 .732 .817)">
            <stop offset="0%" stop-color="#FFE3C4"/>
            <stop offset="100%" stop-color="#CC7613" stop-opacity="0"/>
            <stop offset="100%" stop-color="#CC7613" stop-opacity="0"/>
        </radialGradient>
        <radialGradient id="v8dg3n9dnR" cx="50%" cy="0%" r="63.207%" fx="50%" fy="0%" gradientTransform="matrix(0 1 -.53378 0 .5 -.5)">
            <stop offset="0%" stop-color="#FFB766"/>
            <stop offset="100%" stop-color="#C67316" stop-opacity="0"/>
        </radialGradient>
        <filter id="ox2hjj6hze" width="135.8%" height="125.4%" x="-17.9%" y="-12.7%" filterUnits="objectBoundingBox">
            <feGaussianBlur in="SourceGraphic" stdDeviation="10"/>
        </filter>
        <filter id="si2cft3f2q" width="140.5%" height="175.9%" x="-20.3%" y="-38%" filterUnits="objectBoundingBox">
            <feGaussianBlur in="SourceGraphic" stdDeviation="33"/>
        </filter>
        <filter id="jm36mg75tr" width="130.7%" height="157.8%" x="-15.4%" y="-28.9%" filterUnits="objectBoundingBox">
            <feGaussianBlur in="SourceGraphic" stdDeviation="19.25"/>
        </filter>
        <filter id="qg60ox43mB" width="101.7%" height="104.1%" x="-.8%" y="-1.6%" filterUnits="objectBoundingBox">
            <feMorphology in="SourceAlpha" operator="dilate" radius="2.2" result="shadowSpreadOuter1"/>
            <feOffset dy="2" in="shadowSpreadOuter1" result="shadowOffsetOuter1"/>
            <feComposite in="shadowOffsetOuter1" in2="SourceAlpha" operator="out" result="shadowOffsetOuter1"/>
            <feColorMatrix in="shadowOffsetOuter1" values="0 0 0 0 0.0862745098 0 0 0 0 0.149019608 0 0 0 0 0.380392157 0 0 0 1 0"/>
        </filter>
        <filter id="v2xzcuum0K" width="108.3%" height="115.6%" x="-4.2%" y="-7.8%" filterUnits="objectBoundingBox">
            <feGaussianBlur in="SourceAlpha" result="shadowBlurInner1" stdDeviation="4.5"/>
            <feOffset dy="13" in="shadowBlurInner1" result="shadowOffsetInner1"/>
            <feComposite in="shadowOffsetInner1" in2="SourceAlpha" k2="-1" k3="1" operator="arithmetic" result="shadowInnerInner1"/>
            <feColorMatrix in="shadowInnerInner1" values="0 0 0 0 0 0 0 0 0 0 0 0 0 0 0 0 0 0 0.5 0"/>
        </filter>
        <ellipse id="ak563j3zyv" cx="244.2" cy="130.35" rx="244.2" ry="130.35"/>
        <ellipse id="3088e0uwcC" cx="192.5" cy="102.85" rx="192.5" ry="102.85"/>
        <ellipse id="zk7vkyxoiI" cx="158.4" cy="84.7" rx="158.4" ry="84.7"/>
        <path id="hbpwhr36gf" d="M167.382 10.074c0-8.464-5.164-12.36-11.524-8.696L11.524 84.554C5.164 88.22 0 98.067 0 106.532v119.272c0 8.465 5.164 12.361 11.524 8.696l144.334-83.175c6.36-3.666 11.524-13.514 11.524-21.978V10.074z"/>
        <path id="2vs606f72n" d="M26.64.61c2.416-1.385 4.564-.345 4.564 2.45 0 2.797-2.045 6.239-4.564 7.682-.288.165-.664.317-1.129.458-.36.109-.735.403-1.055.829L8.092 33.8c-.365.485-.493 1.177-.285 1.545.068.12.168.196.289.217l17.739 3.1c.46.08 1.022-.24 1.484-.846l17.835-23.422c.367-.483.5-1.175.295-1.547-.067-.124-.167-.201-.289-.224l-5.565-1.018c-.46-.085-1.025.235-1.489.843l-5.874 7.706c-.148.194-.246.447-.264.68l-.003.076c0 2.796-2.045 6.238-4.564 7.68-2.52 1.444-4.564.346-4.564-2.45 0-2.796 2.045-6.238 4.564-7.682.093-.053.2-.108.322-.164l.193-.085.213-.086c.325-.128.656-.4.942-.777L37.76 5.953c.666-.872 1.469-1.35 2.143-1.278l.09.013 12.132 2.221c1.521.28 1.539 3.161.064 5.2l-.081.111-8.116 10.657c-.367.483-.5 1.176-.295 1.547.072.131.18.21.31.227l8.039 1.026c1.595.204 1.634 3.206.067 5.292L27.7 63.485c-.7.933-1.56 1.425-2.26 1.294L1.165 60.234c-1.568-.294-1.525-3.35.076-5.379l8.126-10.301c.373-.472.517-1.167.323-1.552-.069-.135-.174-.22-.302-.242l-8.224-1.437c-1.52-.265-1.554-3.128-.092-5.176l.081-.11 20.197-26.87c.32-.426.562-.953.684-1.482l.025-.122c.71-3.218 2.323-5.66 4.58-6.953zm11.27 30.863l-9.974 13.352-.092.119c-.678.854-1.488 1.3-2.157 1.182l-9.942-1.77c-.447-.079-.991.221-1.446.799l-5.73 7.275c-.373.471-.517 1.166-.323 1.551.068.134.17.218.297.242l17.51 3.311c.465.088 1.037-.239 1.503-.86l17.66-23.557c.365-.486.492-1.177.284-1.545-.071-.127-.178-.203-.306-.22l-5.822-.753c-.46-.059-1.012.27-1.462.874z"/>
        <path id="nvvf6omfwN" d="M0 0L1045.272 0 1045.272 426.87 0 426.87z"/>
    </defs>
    <g fill="none" fill-rule="evenodd">
        <g>
            <g>
                <g transform="translate(-705 -120) translate(0 120) translate(705)">
                    <circle cx="370.5" cy="445.5" r="329.5" fill="url(#7mnj2lj9oa)" opacity=".523"/>
                    <g>
                        <path fill="#0F1236" d="M119.566 6.182l.04.023c17.359-9.71 39.72-8.18 63.72 5.696 51.56 29.812 93.873 106.861 97.906 177.229C304.492 211.076 321 249.09 321 281.657c0 20.914-6.71 35.898-17.41 42.897l.098.055L273.61 342l-11.49-6.644 14.515-8.39c-2.84-.952-5.755-2.245-8.729-3.892l-.993-.563L94.82 223.007c-37.953-21.944-68.838-80.981-68.838-131.6 0-13.726 2.271-25.446 6.339-34.8L23 51.217l28.11-16.253.096.055c11.504-5.945 26.113-5.226 42.04 3.506 1.708-4.241 3.647-8.145 5.795-11.705l-7.585-4.386 28.11-16.253.04.023-.04-.023z" transform="translate(362 41)"/>
                        <path fill="url(#fkln3lb46b)" d="M246 209.486l35.607-20.09-.416-.396C304.475 210.94 321 248.946 321 281.506c0 3.218-.16 6.296-.468 9.226L288.11 305 246 209.486z" opacity=".871" transform="translate(362 41)"/>
                        <path stroke="url(#sqjty5b9xc)" stroke-width="2" d="M120.06 7.052c17.14-9.54 39.158-7.935 62.765 5.714 51.325 29.676 93.395 106.392 97.41 176.42C303.622 211.632 320 249.347 320 281.658c0 20.44-6.458 35.177-16.937 42.046h0l-29.454 17.14-9.49-5.487 15.006-8.675c-3.462-.957-7.055-2.444-10.725-4.477h0l-.986-.558-172.093-99.504c-37.703-21.8-68.338-80.465-68.338-130.735 0-13.969 2.37-25.839 6.617-35.217h0l-8.602-4.972 26.588-15.374c11.349-5.75 25.629-4.967 41.179 3.559.334.183.665.368.99.552.137-.351.276-.703.418-1.055 1.828-4.537 3.922-8.684 6.257-12.431h0l-6.976-4.034z" transform="translate(362 41)"/>
                        <path fill="#0E1B41" stroke="url(#5dxq6pxl0d)" stroke-width="2" d="M103.384 19.021c15.348-4.552 33.592-1.465 52.914 9.745 51.148 29.677 93.073 106.394 97.073 176.423C276.68 227.632 293 265.349 293 297.659c0 19.467-5.836 33.753-15.41 41.01-4.794 3.634-10.52 5.48-16.876 5.322-6.202-.155-12.993-2.211-20.112-6.342h0l-171.5-99.505C31.529 216.344 1 157.678 1 107.41c0-24.521 7.264-42.596 19.179-51.996 5.996-4.73 13.165-7.24 21.137-7.257 7.767-.017 16.286 2.325 25.232 7.247.335.184.665.37.994.553.136-.352.275-.704.416-1.056 7.683-19.137 20.078-31.327 35.426-35.879z" transform="translate(362 41)"/>
                    </g>
                    <g>
                        <path fill="#06102A" d="M181.548 10.074c0-8.464-5.165-12.36-11.525-8.696L25.69 84.554c-6.36 3.665-11.524 13.513-11.524 21.978v119.272c0 8.465 5.164 12.361 11.524 8.696l144.334-83.175c6.36-3.666 11.525-13.514 11.525-21.978V10.074z" filter="url(#ox2hjj6hze)" opacity=".557" transform="translate(534 225) matrix(-1 0 0 1 195.713 0)"/>
                        <g transform="translate(534 225) matrix(-1 0 0 1 168 9.032)">
                            <mask id="dsse1621kh" fill="#fff">
                                <use xlink:href="#hbpwhr36gf"/>
                            </mask>
                            <use fill="url(#c8awxcig5g)" xlink:href="#hbpwhr36gf"/>
                            <g mask="url(#dsse1621kh)">
                                <g>
                                    <path fill="#132B69" d="M44.898 121.047c0-.534-.326-1.155-.727-1.387l-14.854-8.563c-.402-.232-.727.015-.727.548v1.936c0 .535.325 1.155.727 1.387l14.854 8.564c.401.231.727-.015.727-.549v-1.936zM99.654 152.614c0-.535-.327-1.156-.727-1.388l-14.855-8.563c-.4-.232-.727.014-.727.549v1.935c0 .535.326 1.156.727 1.388l14.855 8.563c.4.23.727-.015.727-.549v-1.935zM153.51 183.662c0-.534-.324-1.156-.726-1.388l-14.854-8.563c-.402-.23-.727.015-.727.55v1.934c0 .535.325 1.157.727 1.388l14.854 8.563c.402.232.727-.014.727-.549v-1.935z" transform="matrix(-1 0 0 1 184.5 21.64)"/>
                                    <g opacity=".624">
                                        <path fill="#263E94" fill-rule="nonzero" d="M80.874 47.657v2.168c0 .598.485 1.084 1.084 1.084.599 0 1.084-.486 1.084-1.084v-2.168c0-.598-.485-1.084-1.084-1.084-.599 0-1.084.486-1.084 1.084zm0 10.838v2.168c0 .598.485 1.084 1.084 1.084.599 0 1.084-.486 1.084-1.084v-2.168c0-.598-.485-1.084-1.084-1.084-.599 0-1.084.486-1.084 1.084zm0 10.838v2.168c0 .598.485 1.084 1.084 1.084.599 0 1.084-.486 1.084-1.084v-2.168c0-.598-.485-1.084-1.084-1.084-.599 0-1.084.486-1.084 1.084zm0 10.838v2.168c0 .598.485 1.084 1.084 1.084.599 0 1.084-.486 1.084-1.084V80.17c0-.598-.485-1.084-1.084-1.084-.599 0-1.084.486-1.084 1.084zm0 10.838v2.168c0 .598.485 1.084 1.084 1.084.599 0 1.084-.486 1.084-1.084v-2.168c0-.598-.485-1.084-1.084-1.084-.599 0-1.084.486-1.084 1.084zm0 10.838v2.168c0 .598.485 1.084 1.084 1.084.599 0 1.084-.486 1.084-1.084v-2.168c0-.598-.485-1.084-1.084-1.084-.599 0-1.084.486-1.084 1.084zm0 10.838v2.168c0 .598.485 1.084 1.084 1.084.599 0 1.084-.486 1.084-1.084v-2.168c0-.598-.485-1.084-1.084-1.084-.599 0-1.084.486-1.084 1.084zm0 10.838v2.168c0 .598.485 1.084 1.084 1.084.599 0 1.084-.486 1.084-1.084v-2.168c0-.598-.485-1.084-1.084-1.084-.599 0-1.084.486-1.084 1.084zM53.946 32.132V34.3c0 .599.485 1.084 1.083 1.084.599 0 1.084-.485 1.084-1.084v-2.168c0-.598-.485-1.083-1.084-1.083-.598 0-1.083.485-1.083 1.083zm0 10.838v2.168c0 .599.485 1.084 1.083 1.084.599 0 1.084-.485 1.084-1.084V42.97c0-.598-.485-1.083-1.084-1.083-.598 0-1.083.485-1.083 1.083zm0 10.838v2.168c0 .599.485 1.084 1.083 1.084.599 0 1.084-.485 1.084-1.084v-2.168c0-.598-.485-1.083-1.084-1.083-.598 0-1.083.485-1.083 1.083zm0 10.838v2.168c0 .599.485 1.084 1.083 1.084.599 0 1.084-.485 1.084-1.084v-2.168c0-.598-.485-1.083-1.084-1.083-.598 0-1.083.485-1.083 1.083zm0 10.838v2.168c0 .599.485 1.084 1.083 1.084.599 0 1.084-.485 1.084-1.084v-2.168c0-.598-.485-1.083-1.084-1.083-.598 0-1.083.485-1.083 1.083zm0 10.839v2.167c0 .599.485 1.084 1.083 1.084.599 0 1.084-.485 1.084-1.084v-2.167c0-.6-.485-1.084-1.084-1.084-.598 0-1.083.485-1.083 1.084zm0 10.838v2.167c0 .599.485 1.084 1.083 1.084.599 0 1.084-.485 1.084-1.084v-2.167c0-.599-.485-1.084-1.084-1.084-.598 0-1.083.485-1.083 1.084zm0 10.838v2.167c0 .599.485 1.084 1.083 1.084.599 0 1.084-.485 1.084-1.084V108c0-.599-.485-1.084-1.084-1.084-.598 0-1.083.485-1.083 1.084zM27.016 16.608v2.167c0 .599.485 1.084 1.083 1.084.6 0 1.084-.485 1.084-1.084v-2.167c0-.599-.485-1.084-1.084-1.084-.598 0-1.083.485-1.083 1.084zm0 10.838v2.167c0 .599.485 1.084 1.083 1.084.6 0 1.084-.485 1.084-1.084v-2.167c0-.599-.485-1.084-1.084-1.084-.598 0-1.083.485-1.083 1.084zm0 10.838v2.167c0 .599.485 1.084 1.083 1.084.6 0 1.084-.485 1.084-1.084v-2.167c0-.599-.485-1.084-1.084-1.084-.598 0-1.083.485-1.083 1.084zm0 10.838v2.167c0 .599.485 1.084 1.083 1.084.6 0 1.084-.485 1.084-1.084v-2.167c0-.599-.485-1.084-1.084-1.084-.598 0-1.083.485-1.083 1.084zm0 10.838v2.167c0 .599.485 1.084 1.083 1.084.6 0 1.084-.485 1.084-1.084V59.96c0-.599-.485-1.084-1.084-1.084-.598 0-1.083.485-1.083 1.084zm0 10.838v2.167c0 .599.485 1.084 1.083 1.084.6 0 1.084-.485 1.084-1.084v-2.167c0-.599-.485-1.084-1.084-1.084-.598 0-1.083.485-1.083 1.084zm0 10.838v2.167c0 .599.485 1.084 1.083 1.084.6 0 1.084-.485 1.084-1.084v-2.167c0-.599-.485-1.084-1.084-1.084-.598 0-1.083.485-1.083 1.084zm0 10.838v2.167c0 .599.485 1.084 1.083 1.084.6 0 1.084-.485 1.084-1.084v-2.167c0-.599-.485-1.084-1.084-1.084-.598 0-1.083.485-1.083 1.084zM.087 1.083v2.168c0 .598.486 1.083 1.084 1.083.599 0 1.084-.485 1.084-1.083V1.083C2.255.485 1.77 0 1.171 0 .573 0 .087.485.087 1.083zm0 10.838v2.168c0 .598.486 1.084 1.084 1.084.599 0 1.084-.486 1.084-1.084V11.92c0-.598-.485-1.084-1.084-1.084-.598 0-1.084.486-1.084 1.084zm0 10.838v2.168c0 .598.486 1.084 1.084 1.084.599 0 1.084-.486 1.084-1.084v-2.168c0-.598-.485-1.084-1.084-1.084-.598 0-1.084.486-1.084 1.084zm0 10.838v2.168c0 .598.486 1.084 1.084 1.084.599 0 1.084-.486 1.084-1.084v-2.168c0-.598-.485-1.084-1.084-1.084-.598 0-1.084.486-1.084 1.084zm0 10.838v2.168c0 .598.486 1.084 1.084 1.084.599 0 1.084-.486 1.084-1.084v-2.168c0-.598-.485-1.084-1.084-1.084-.598 0-1.084.486-1.084 1.084zm0 10.838v2.168c0 .598.486 1.084 1.084 1.084.599 0 1.084-.486 1.084-1.084v-2.168c0-.598-.485-1.084-1.084-1.084-.598 0-1.084.486-1.084 1.084zm0 10.838v2.168c0 .598.486 1.084 1.084 1.084.599 0 1.084-.486 1.084-1.084V66.11c0-.598-.485-1.084-1.084-1.084-.598 0-1.084.486-1.084 1.084zm0 10.838v2.168c0 .598.486 1.084 1.084 1.084.599 0 1.084-.486 1.084-1.084v-2.168c0-.598-.485-1.084-1.084-1.084-.598 0-1.084.486-1.084 1.084zM107.803 63.18v2.168c0 .599.485 1.084 1.084 1.084.598 0 1.083-.485 1.083-1.084V63.18c0-.598-.485-1.083-1.083-1.083-.6 0-1.084.485-1.084 1.083zm0 10.838v2.168c0 .599.485 1.084 1.084 1.084.598 0 1.083-.485 1.083-1.084v-2.168c0-.598-.485-1.083-1.083-1.083-.6 0-1.084.485-1.084 1.083zm0 10.838v2.168c0 .599.485 1.084 1.084 1.084.598 0 1.083-.485 1.083-1.084v-2.168c0-.598-.485-1.083-1.083-1.083-.6 0-1.084.485-1.084 1.083zm0 10.838v2.168c0 .599.485 1.084 1.084 1.084.598 0 1.083-.485 1.083-1.084v-2.168c0-.598-.485-1.083-1.083-1.083-.6 0-1.084.485-1.084 1.083zm0 10.838v2.168c0 .599.485 1.084 1.084 1.084.598 0 1.083-.485 1.083-1.084v-2.168c0-.598-.485-1.083-1.083-1.083-.6 0-1.084.485-1.084 1.083zm0 10.838v2.168c0 .599.485 1.084 1.084 1.084.598 0 1.083-.485 1.083-1.084v-2.168c0-.598-.485-1.083-1.083-1.083-.6 0-1.084.485-1.084 1.083zm0 10.839v2.167c0 .599.485 1.084 1.084 1.084.598 0 1.083-.485 1.083-1.084v-2.167c0-.6-.485-1.084-1.083-1.084-.6 0-1.084.485-1.084 1.084zm0 10.838v2.167c0 .599.485 1.084 1.084 1.084.598 0 1.083-.485 1.083-1.084v-2.167c0-.599-.485-1.084-1.083-1.084-.6 0-1.084.485-1.084 1.084zM134.733 78.705v2.168c0 .598.485 1.083 1.083 1.083.599 0 1.084-.485 1.084-1.083v-2.168c0-.598-.485-1.084-1.084-1.084-.598 0-1.083.486-1.083 1.084zm0 10.838v2.168c0 .598.485 1.083 1.083 1.083.599 0 1.084-.485 1.084-1.083v-2.168c0-.598-.485-1.084-1.084-1.084-.598 0-1.083.486-1.083 1.084zm0 10.838v2.168c0 .598.485 1.084 1.083 1.084.599 0 1.084-.486 1.084-1.084v-2.168c0-.598-.485-1.084-1.084-1.084-.598 0-1.083.486-1.083 1.084zm0 10.838v2.168c0 .598.485 1.084 1.083 1.084.599 0 1.084-.486 1.084-1.084v-2.168c0-.598-.485-1.084-1.084-1.084-.598 0-1.083.486-1.083 1.084zm0 10.838v2.168c0 .598.485 1.084 1.083 1.084.599 0 1.084-.486 1.084-1.084v-2.168c0-.598-.485-1.084-1.084-1.084-.598 0-1.083.486-1.083 1.084zm0 10.838v2.168c0 .598.485 1.084 1.083 1.084.599 0 1.084-.486 1.084-1.084v-2.168c0-.598-.485-1.084-1.084-1.084-.598 0-1.083.486-1.083 1.084zm0 10.838v2.168c0 .598.485 1.084 1.083 1.084.599 0 1.084-.486 1.084-1.084v-2.168c0-.598-.485-1.084-1.084-1.084-.598 0-1.083.486-1.083 1.084zm0 10.838v2.168c0 .598.485 1.084 1.083 1.084.599 0 1.084-.486 1.084-1.084v-2.168c0-.598-.485-1.084-1.084-1.084-.598 0-1.083.486-1.083 1.084zM161.661 94.23v2.167c0 .599.485 1.084 1.084 1.084.599 0 1.084-.485 1.084-1.084V94.23c0-.599-.485-1.084-1.084-1.084-.599 0-1.084.485-1.084 1.084zm0 10.838v2.167c0 .599.485 1.084 1.084 1.084.599 0 1.084-.485 1.084-1.084v-2.167c0-.599-.485-1.084-1.084-1.084-.599 0-1.084.485-1.084 1.084zm0 10.838v2.167c0 .599.485 1.084 1.084 1.084.599 0 1.084-.485 1.084-1.084v-2.167c0-.599-.485-1.084-1.084-1.084-.599 0-1.084.485-1.084 1.084zm0 10.838v2.167c0 .599.485 1.084 1.084 1.084.599 0 1.084-.485 1.084-1.084v-2.167c0-.599-.485-1.084-1.084-1.084-.599 0-1.084.485-1.084 1.084zm0 10.838v2.167c0 .599.485 1.084 1.084 1.084.599 0 1.084-.485 1.084-1.084v-2.167c0-.599-.485-1.084-1.084-1.084-.599 0-1.084.485-1.084 1.084zm0 10.838v2.167c0 .599.485 1.084 1.084 1.084.599 0 1.084-.485 1.084-1.084v-2.167c0-.599-.485-1.084-1.084-1.084-.599 0-1.084.485-1.084 1.084zm0 10.838v2.167c0 .599.485 1.084 1.084 1.084.599 0 1.084-.485 1.084-1.084v-2.167c0-.599-.485-1.084-1.084-1.084-.599 0-1.084.485-1.084 1.084zm0 10.838v2.167c0 .599.485 1.084 1.084 1.084.599 0 1.084-.485 1.084-1.084v-2.167c0-.599-.485-1.084-1.084-1.084-.599 0-1.084.485-1.084 1.084z" transform="matrix(-1 0 0 1 184.5 21.64) translate(9.297 .005)"/>
                                    </g>
                                    <path stroke="url(#j4ywmtmk8i)" stroke-linecap="round" stroke-linejoin="round" stroke-width="2.168" d="M.367 65.161s7.207 5.89 10.494 6.05c6.298.305 18.429-11.5 27.289-6.39 8.86 5.107 17.4 39.2 25.875 37.039C72.79 99.624 81.79 59.255 90.74 64.414c8.95 5.16 17.897 54.72 26.983 68.402 8.132 12.243 20.285-18.53 28.342-7.59 4.689 6.364 15.29 22.22 24.405 33.13 6.592 7.892 12.756 20.352 12.756 20.352" transform="matrix(-1 0 0 1 184.5 21.64)"/>
                                </g>
                            </g>
                        </g>
                        <path fill="url(#jwc9kqucsj)" d="M161.098 9.032l.184.004c3.902.14 6.633 3.773 6.716 9.786l.002.284v1.554L.618 117.21v-1.647l.003-.385.016-.51c.02-.478.055-.96.106-1.442l.04-.352c.053-.45.12-.903.199-1.356.103-.593.228-1.187.372-1.78.077-.32.16-.637.25-.954l.114-.398.12-.398.133-.417.193-.573.137-.386.214-.57c.125-.324.255-.647.391-.968l.162-.373.245-.543.188-.4.095-.196c.14-.286.284-.57.432-.85l.191-.357.195-.353.307-.534.198-.33.21-.343.342-.533.335-.498.22-.315.33-.455c.12-.162.24-.323.363-.48l.365-.46.355-.425.132-.153c.123-.143.248-.283.374-.421l.255-.275.257-.269c.223-.229.45-.451.68-.666l.347-.317c.138-.123.277-.243.417-.361.635-.533 1.29-1.007 1.957-1.413l.284-.168L156.476 10.41c1.572-.906 3.07-1.35 4.437-1.377l.185-.001z" transform="translate(534 225) matrix(-1 0 0 1 168.618 0)"/>
                    </g>
                    <g>
                        <path fill="url(#cfwznljnjl)" stroke="url(#a9c4bwdofk)" stroke-width="1.626" d="M118.599 1.714c.683-.017 1.3.177 1.816.564 1.142.858 1.772 2.574 1.772 4.849h0V80.85c0 2.492-.77 5.185-2.003 7.526-1.218 2.31-2.887 4.288-4.745 5.354h0l-89.637 51.412c-.832.477-1.624.725-2.35.743-.684.017-1.3-.177-1.817-.564-1.142-.858-1.772-2.574-1.772-4.849h0V66.749c0-2.492.77-5.185 2.003-7.526 1.218-2.31 2.887-4.288 4.745-5.354h0l89.636-51.412c.833-.478 1.625-.725 2.352-.743z" transform="translate(76 201)"/>
                        <path fill="#18357C" d="M58.29 112.25v3.35c0 .923-.574 1.999-1.282 2.399L33.35 131.386c-.707.4-1.281-.025-1.281-.95v-3.349c0-.924.574-2 1.281-2.4l23.66-13.386c.707-.4 1.281.025 1.281.949zM40.2 97.04v3.35c0 .923-.574 1.999-1.282 2.399L1.4 124.018c-.707.4-1.28-.026-1.28-.95v-3.35c0-.923.573-1.999 1.28-2.399l37.518-21.228c.708-.4 1.282.025 1.282.949zm2.25-28.62v3.35c0 .923-.574 1.999-1.282 2.399L28.47 81.354c-.707.4-1.281-.025-1.281-.95v-3.349c0-.924.574-2 1.281-2.4l12.698-7.184c.708-.4 1.282.025 1.282.949zm81.09-3.15v3.35c0 .923-.574 1.999-1.282 2.399l-6.037 3.416c-.707.4-1.281-.025-1.281-.95v-3.349c0-.924.574-2 1.281-2.4l6.037-3.415c.708-.4 1.282.025 1.282.949zm14.31-29.7v3.35c0 .923-.574 1.999-1.282 2.399L112.91 54.706c-.707.4-1.281-.025-1.281-.95v-3.349c0-.924.574-2 1.281-2.4l23.66-13.386c.707-.4 1.281.025 1.281.949z" transform="translate(76 201)"/>
                        <g transform="translate(76 201) translate(49.2 38.88)">
                            <use fill="url(#s8nhfsh8em)" xlink:href="#2vs606f72n"/>
                            <use fill="url(#2t9grwxxeo)" xlink:href="#2vs606f72n"/>
                        </g>
                    </g>
                    <g>
                        <ellipse cx="363" cy="394.9" fill="url(#tscy9hwwrp)" opacity=".327" rx="362.45" ry="394.35"/>
                        <g transform="translate(117.7 368.5)">
                            <ellipse cx="244.2" cy="229.35" fill="#070319" fill-opacity=".75" filter="url(#si2cft3f2q)" rx="244.2" ry="130.35"/>
                            <ellipse cx="244" cy="229" fill="#04020C" filter="url(#jm36mg75tr)" opacity=".278" rx="188" ry="100"/>
                            <path fill="url(#fig83bjrht)" stroke="url(#2x66ectnys)" stroke-width="2.2" d="M244.2 20.9c60.3 0 115.506 11.641 158.18 30.93 43.208 19.533 73.548 46.922 83.535 77.97h3.585v26.43c-1.966 35.485-30.12 67.54-74.704 90.634C370.681 269.717 310.521 283.8 244.2 283.8c-66.327 0-126.492-14.086-170.595-36.941C29.043 223.765.92 191.713-.995 156.233h0l-.11-26.433h3.59c9.987-31.048 40.327-58.437 83.536-77.97C128.694 32.542 183.9 20.9 244.2 20.9z"/>
                            <use fill="url(#1w6ecn050u)" xlink:href="#ak563j3zyv"/>
                            <ellipse cx="244.2" cy="130.35" fill="url(#pl7yy3fwnx)" fill-opacity=".3" stroke="url(#lprrnodfvw)" stroke-width="2.2" rx="245.3" ry="131.45"/>
                            <ellipse cx="244.2" cy="130.35" fill="url(#olerj37ryy)" fill-opacity=".3" rx="244.2" ry="130.35"/>
                            <ellipse cx="244.2" cy="130.35" fill="url(#olerj37ryy)" fill-opacity=".3" opacity=".688" rx="244.2" ry="130.35" transform="matrix(-1 0 0 1 488.4 0)"/>
                            <path stroke="url(#jw57q5w6sz)" stroke-dasharray="1.1 8.8" stroke-linecap="round" stroke-linejoin="round" stroke-width="3.3" d="M244.2 235.4C364.488 235.4 462 184.181 462 121 462 57.819 364.488 6.6 244.2 6.6 123.912 6.6 26.4 57.819 26.4 121c0 63.181 97.512 114.4 217.8 114.4z" opacity=".499" transform="matrix(-1 0 0 1 488.4 0)"/>
                            <path stroke="url(#jw57q5w6sz)" stroke-dasharray="1.1 8.8" stroke-linecap="round" stroke-linejoin="round" stroke-width="3.3" d="M244.2 235.4C364.488 235.4 462 184.181 462 121 462 57.819 364.488 6.6 244.2 6.6 123.912 6.6 26.4 57.819 26.4 121c0 63.181 97.512 114.4 217.8 114.4z" opacity=".499"/>
                            <path fill="url(#cdw4o4lf4A)" fill-opacity=".5" fill-rule="nonzero" d="M234.227 224.613l.042-.001 20.938-.212c.827-.008 1.351.86.962 1.564l-.022.039-10.69 17.678c-.305.503-.967.67-1.48.37-.5-.292-.674-.92-.398-1.417l.02-.037 9.056-14.975c.203-.336.09-.77-.252-.969-.113-.066-.243-.1-.375-.1l-17.737.18c-.582.006-1.061-.442-1.09-1.008v-.042c-.007-.572.45-1.042 1.026-1.07zm3.418 5.82h.042l6.96-.099c.829-.012 1.356.856.967 1.563l-.022.038-3.582 5.942c-.304.504-.967.671-1.48.372-.501-.29-.675-.918-.4-1.417l.021-.036 2.274-3.77c.1-.169.044-.386-.127-.485-.057-.033-.122-.05-.188-.05l-4.391.063c-.583.008-1.064-.438-1.095-1.004l-.001-.042c-.008-.572.446-1.044 1.022-1.074z"/>
                        </g>
                        <g transform="translate(169.4 368.5)">
                            <g>
                                <use fill="#000" filter="url(#qg60ox43mB)" xlink:href="#3088e0uwcC"/>
                                <use fill="url(#wlyhvatpdD)" xlink:href="#3088e0uwcC"/>
                                <ellipse cx="192.5" cy="102.85" fill="url(#ny5sttyg1F)" stroke="url(#nimf76q7yE)" stroke-width="2.2" rx="193.6" ry="103.95"/>
                            </g>
                            <ellipse cx="192.5" cy="102.85" fill="url(#dad1at9tzG)" fill-opacity=".3" rx="192.5" ry="102.85"/>
                            <ellipse cx="192.5" cy="102.85" fill="url(#dad1at9tzG)" fill-opacity=".3" rx="192.5" ry="102.85" transform="matrix(-1 0 0 1 385 0)"/>
                            <path stroke="url(#vwylhitdiH)" stroke-dasharray="1.1 37.4" stroke-linecap="round" stroke-linejoin="round" stroke-width="3.3" d="M192.1 187.5c94.717 0 171.5-40.966 171.5-91.5S286.817 4.5 192.1 4.5 20.6 45.466 20.6 96s76.783 91.5 171.5 91.5z"/>
                        </g>
                        <g transform="translate(203.5 368.5)">
                            <mask id="qa0bmkne0M" fill="#fff">
                                <use xlink:href="#zk7vkyxoiI"/>
                            </mask>
                            <g>
                                <use fill="#10072A" xlink:href="#zk7vkyxoiI"/>
                                <use fill="url(#y5d9dyc3aJ)" fill-opacity=".3" xlink:href="#zk7vkyxoiI"/>
                                <use fill="#000" filter="url(#v2xzcuum0K)" xlink:href="#zk7vkyxoiI"/>
                                <ellipse cx="158.4" cy="84.7" stroke="url(#hzydzwe9cL)" stroke-width="2.2" rx="159.5" ry="85.8"/>
                            </g>
                            <g mask="url(#qa0bmkne0M)" opacity=".166">
                                <g transform="translate(-244.2 -130.9)">
                                    <mask id="ig3e9hr4jQ" fill="#fff">
                                        <use xlink:href="#nvvf6omfwN"/>
                                    </mask>
                                    <use fill="url(#p1yrcrjdfO)" xlink:href="#nvvf6omfwN"/>
                                    <path fill="url(#i99u9x4wjP)" fill-rule="nonzero" d="M805.861-70.716c1.159.595 1.043 1.026.706 1.221L437.09 143.767l24.458 14.091 4.24 2.443L836.096-53.44c1.159.595 1.043 1.027.706 1.222L467.203 161.116l1.435.827 21.712 12.51 7.032 4.053 370.03-213.59c1.158.595 1.042 1.027.705 1.222L498.137 179.7c3.472 1.936 13.577 7.702 30.315 17.298L898.726-16.728c1.159.596 1.043 1.027.706 1.222L529.867 197.81c8.098 4.643 17.681 10.145 28.75 16.504L928.962.548c1.159.596 1.043 1.027.706 1.222L560.03 215.126l2.342 1.345c60.318 34.658 162.233 93.335 305.744 176.033.306.177.43.55.303.87l-.045.093c-.119.206-103.215-59.054-309.289-177.78l-30.61 17.657c59.97 34.454 162.746 93.626 308.326 177.516.337.195.453.626.258.963-.119.206-103.296-59.1-309.531-177.92l-29.679 17.113c60.068 34.511 162.614 93.551 307.637 177.12.337.195.453.626.258.964-.118.205-103.065-58.969-308.839-177.521l-30.071 17.345c59.958 34.447 162.764 93.636 308.417 177.568.337.195.453.626.258.964-.119.205-103.326-59.119-309.62-177.972l-29.68 17.113c60.056 34.504 162.632 93.561 307.727 177.172.337.194.453.626.258.963-.118.205-103.095-58.986-308.929-177.573l-29.138 16.802c60.077 34.516 162.601 93.544 307.574 177.084.337.195.453.626.258.963-.119.205-103.044-58.956-308.777-177.485L188.906 429.358c-1.158-.596-1.042-1.027-.705-1.222l215.573-124.425-28.697-16.534L158.67 412.082c-1.158-.596-1.043-1.027-.705-1.222l215.697-124.498-30.177-17.388L138.748 387.15l-11.392 6.576c-1.158-.596-1.043-1.027-.705-1.222l215.634-124.47c-.04-.158-.026-.33.052-.485l.01.005c-3.312-1.843-13.29-7.535-29.935-17.078L96.042 375.37c-1.16-.596-1.044-1.027-.706-1.222l215.668-124.479c-8.081-4.633-17.665-10.134-28.753-16.504L65.806 358.093c-1.158-.595-1.043-1.027-.705-1.221l215.73-124.523c-9.085-5.219-19.156-11.008-30.214-17.366L34.491 339.737c-1.158-.595-1.043-1.027-.705-1.221l215.427-124.341C187.327 178.587 95.001 125.421-27.764 54.679c-.338-.195-.453-.627-.259-.964.113-.195 92.85 53.097 278.21 159.876l29.108-16.78C217.409 161.222 125.135 108.086 2.47 37.401c-.338-.195-.453-.626-.258-.963.112-.195 92.798 53.068 278.056 159.787l29.647-17.09c-61.88-35.586-153.924-88.59-276.13-159.01-.338-.195-.453-.626-.258-.964.112-.194 92.567 52.936 277.364 159.39l30.043-17.322C279.05 125.642 186.745 72.49 64.021 1.77c-.337-.195-.453-.626-.258-.964.112-.194 92.828 53.086 278.147 159.84l29.647-17.091C309.675 107.969 217.602 54.949 95.336-15.506c-.338-.195-.453-.626-.258-.964.112-.194 92.597 52.953 277.454 159.441l30.583-17.632C341.232 89.752 249.077 36.685 126.65-33.862c-.338-.195-.453-.627-.258-.964.112-.194 92.677 52.999 277.696 159.58l.077-.033c.358.184.594.353.74.503l-.01-.005 29.038 16.729 1.747 1.006 370.18-213.67zM405.16 269.814l-29.19 16.834c8.114 4.653 17.698 10.155 28.751 16.505l29.135-16.806c-9.354-5.39-18.92-10.9-28.696-16.534zm-31.592-18.204l-28.492 16.442-.836.48c3.935 2.206 14.037 7.972 30.307 17.3l29.198-16.834c-9.846-5.673-19.904-11.47-30.177-17.388zm62.212.527l-29.726 17.148c8.108 4.65 17.69 10.15 28.747 16.502l29.678-17.115-28.699-16.535zm-31.594-18.205l-17.673 10.2-11.934 6.89-.263.145c3.805 2.13 13.91 7.897 30.314 17.302l29.734-17.148-30.178-17.39zm62.613.3l-30.133 17.374c8.087 4.637 17.67 10.138 28.75 16.504l30.08-17.344-28.697-16.534zm-124.307-1.12l-29.188 16.842 30.017 17.297c.052.03.098.065.139.104l29.038-16.762c-.001-.108.023-.218.074-.32l.01.004c-3.322-1.848-13.352-7.57-30.09-17.166zm92.716-17.083l-13.79 7.956-16.194 9.35c-.004.097-.027.195-.073.287 3.315 1.846 13.354 7.572 30.106 17.176l30.128-17.38-30.177-17.39zm62.212.527l-29.726 17.149c8.112 4.651 17.694 10.152 28.748 16.502l29.676-17.116-28.698-16.535zm-124.3-1.115l-29.734 17.149 30.17 17.385.007.004.075-.043 8.073-4.66 21.726-12.531c-3.778-2.114-13.884-7.882-30.317-17.304zm-60.787.36l-29.144 16.802 28.699 16.535 29.197-16.833c-8.086-4.637-17.67-10.138-28.752-16.504zm153.494-17.45l-29.07 16.779-.796.458c3.883 2.175 13.986 7.942 30.309 17.3l29.735-17.147-30.178-17.39zm63.151-.01l-30.671 17.685c8.09 4.638 17.673 10.14 28.75 16.503l30.62-17.654-28.699-16.535zm-124.844-.81l-30.129 17.382 30.178 17.389 29.874-17.242c-.022-.14-.002-.286.065-.42-3.307-1.84-13.306-7.545-29.988-17.108zm-123.433.088l-29.098 16.787 30.175 17.384 29.137-16.804c-9.087-5.22-19.158-11.01-30.214-17.367zm62.247.503l-29.677 17.117 28.7 16.535 29.727-17.148c-8.108-4.65-17.692-10.15-28.75-16.504zm154.438-17.986l-9.793 5.65-20.832 12.027c-.012.06-.032.12-.06.178l-.01-.006c3.33 1.852 13.397 7.596 30.205 17.232l30.667-17.692-30.177-17.389zm-186.058-.189l-29.643 17.095c9.8 5.646 19.86 11.44 30.175 17.384l29.68-17.113c-9.095-5.225-19.166-11.014-30.212-17.366zm123.43-.087l-29.732 17.149 30.08 17.333c.032.018.062.039.09.06l21.338-12.316 8.546-4.922c-3.697-2.067-13.805-7.835-30.321-17.304zm-60.785.36l-30.08 17.343 28.698 16.535 30.135-17.373c-8.083-4.635-17.667-10.136-28.753-16.505zm-31.632-18.181l-30.036 17.326 30.18 17.386 30.069-17.346c-9.085-5.22-19.156-11.009-30.213-17.366zm123.975-.397l-30.67 17.69 30.177 17.389 30.81-17.78c-3.473-1.936-13.578-7.702-30.317-17.299zm-61.726.9l-29.679 17.116 28.7 16.536 29.727-17.149c-8.105-4.647-17.687-10.148-28.748-16.502zm-31.622-18.176l-29.642 17.096c9.8 5.646 19.86 11.44 30.175 17.384l29.679-17.113c-9.094-5.225-19.165-11.014-30.212-17.367zm63.182-.039l-30.617 17.656 28.698 16.534 30.67-17.686c-8.098-4.643-17.682-10.144-28.751-16.504zm-31.626-18.178l-30.579 17.636 30.179 17.386 30.613-17.655c-9.09-5.223-19.162-11.012-30.213-17.367z" mask="url(#ig3e9hr4jQ)"/>
                                </g>
                            </g>
                        </g>
                        <ellipse cx="361.9" cy="498.85" stroke="url(#v8dg3n9dnR)" stroke-width="2.2" rx="245.3" ry="131.45"/>
                        <g>
                            <g>
                                <path fill="url(#or955mx6qS)" fill-opacity=".5" d="M0 0c24.992 16.998 27.668 141.661 46.674 153.493C71.891 169.191 66.463 79.578 98.45 98.22c36.269 21.136 32.494 83.943 48.923 95.253 23.49 16.17 23.298-23.557 41.857-12.03 19.25 11.955 27.47 70.308 27.47 70.308V276.1L0 150.869" transform="translate(234.3 145.2) translate(0 121)"/>
                                <path stroke="url(#l306geyh5T)" stroke-linecap="round" stroke-linejoin="round" stroke-width="2.2" d="M0 0c24.992 17.008 27.668 141.745 46.674 153.584C71.891 169.29 66.463 79.625 98.45 98.278c36.269 21.15 32.494 83.993 48.923 95.31 23.49 16.179 23.298-23.572 41.857-12.038 19.25 11.962 27.47 70.35 27.47 70.35" transform="translate(234.3 145.2) translate(0 121)"/>
                            </g>
                            <g>
                                <path fill="url(#b7bpmv4xpU)" fill-opacity=".5" d="M47.765 187.797c24.625 15.958 18.003-59.328 49.24-41.035 35.418 20.741 31.013 136.515 47.057 148.571 22.94 17.237 22.908-28.912 43.359-17.148 20.537 11.813 24.196 38.169 24.196 38.169V353.7L0 231.395V0c24.406 18.024 29.205 175.77 47.765 187.797z" transform="translate(234.3 145.2) translate(56.1)"/>
                                <path stroke="url(#wjaqrn7ijV)" stroke-linecap="round" stroke-linejoin="round" stroke-width="2.2" d="M0 2.013C24.406 20.037 29.205 177.782 47.765 189.81h0c24.625 15.958 18.003-59.328 49.24-41.035 35.418 20.741 31.013 136.515 47.057 148.571 22.94 17.237 22.908-28.912 43.359-17.148 20.537 11.813 24.196 38.168 24.196 38.168" transform="translate(234.3 145.2) translate(56.1)"/>
                            </g>
                        </g>
                    </g>
                </g>
            </g>
        </g>
    </g>
</svg>
