<svg xmlns="http://www.w3.org/2000/svg" xmlns:xlink="http://www.w3.org/1999/xlink" width="128" height="128" viewBox="0 0 128 128">
    <defs>
        <filter id="1lcyj9o19a" width="187.1%" height="175%" x="-43.5%" y="-37.5%" filterUnits="objectBoundingBox">
            <feOffset dy="3" in="SourceAlpha" result="shadowOffsetOuter1"/>
            <feGaussianBlur in="shadowOffsetOuter1" result="shadowBlurOuter1" stdDeviation="2"/>
            <feColorMatrix in="shadowBlurOuter1" result="shadowMatrixOuter1" values="0 0 0 0 0.0252608293 0 0 0 0 0.17992315 0 0 0 0 0.549394248 0 0 0 0.364210009 0"/>
            <feMerge>
                <feMergeNode in="shadowMatrixOuter1"/>
                <feMergeNode in="SourceGraphic"/>
            </feMerge>
        </filter>
        <filter id="t4bahnevyc" width="437.5%" height="437.5%" x="-168.8%" y="-106.2%" filterUnits="objectBoundingBox">
            <feMorphology in="SourceAlpha" operator="dilate" radius="2" result="shadowSpreadOuter1"/>
            <feOffset dy="5" in="shadowSpreadOuter1" result="shadowOffsetOuter1"/>
            <feGaussianBlur in="shadowOffsetOuter1" result="shadowBlurOuter1" stdDeviation="3"/>
            <feComposite in="shadowBlurOuter1" in2="SourceAlpha" operator="out" result="shadowBlurOuter1"/>
            <feColorMatrix in="shadowBlurOuter1" values="0 0 0 0 0.0252608293 0 0 0 0 0.17992315 0 0 0 0 0.549394248 0 0 0 0.364210009 0"/>
        </filter>
        <filter id="lgfrb5mwof" width="437.5%" height="437.5%" x="-168.8%" y="-106.2%" filterUnits="objectBoundingBox">
            <feMorphology in="SourceAlpha" operator="dilate" radius="2" result="shadowSpreadOuter1"/>
            <feOffset dy="5" in="shadowSpreadOuter1" result="shadowOffsetOuter1"/>
            <feGaussianBlur in="shadowOffsetOuter1" result="shadowBlurOuter1" stdDeviation="3"/>
            <feComposite in="shadowBlurOuter1" in2="SourceAlpha" operator="out" result="shadowBlurOuter1"/>
            <feColorMatrix in="shadowBlurOuter1" values="0 0 0 0 0.0252608293 0 0 0 0 0.17992315 0 0 0 0 0.549394248 0 0 0 0.364210009 0"/>
        </filter>
        <filter id="x63yaz4phh" width="437.5%" height="437.5%" x="-168.8%" y="-106.2%" filterUnits="objectBoundingBox">
            <feMorphology in="SourceAlpha" operator="dilate" radius="2" result="shadowSpreadOuter1"/>
            <feOffset dy="5" in="shadowSpreadOuter1" result="shadowOffsetOuter1"/>
            <feGaussianBlur in="shadowOffsetOuter1" result="shadowBlurOuter1" stdDeviation="3"/>
            <feComposite in="shadowBlurOuter1" in2="SourceAlpha" operator="out" result="shadowBlurOuter1"/>
            <feColorMatrix in="shadowBlurOuter1" values="0 0 0 0 0.0252608293 0 0 0 0 0.17992315 0 0 0 0 0.549394248 0 0 0 0.364210009 0"/>
        </filter>
        <filter id="aj0td6m1yj" width="437.5%" height="437.5%" x="-168.8%" y="-106.2%" filterUnits="objectBoundingBox">
            <feMorphology in="SourceAlpha" operator="dilate" radius="2" result="shadowSpreadOuter1"/>
            <feOffset dy="5" in="shadowSpreadOuter1" result="shadowOffsetOuter1"/>
            <feGaussianBlur in="shadowOffsetOuter1" result="shadowBlurOuter1" stdDeviation="3"/>
            <feComposite in="shadowBlurOuter1" in2="SourceAlpha" operator="out" result="shadowBlurOuter1"/>
            <feColorMatrix in="shadowBlurOuter1" values="0 0 0 0 0.0252608293 0 0 0 0 0.17992315 0 0 0 0 0.549394248 0 0 0 0.364210009 0"/>
        </filter>
        <circle id="mpo2ffx0rd" cx="64" cy="21" r="4"/>
        <circle id="a18g0lljrg" cx="64" cy="107" r="4"/>
        <circle id="2hgpipzfli" cx="21" cy="64" r="4"/>
        <circle id="efjxalhidk" cx="107" cy="64" r="4"/>
        <linearGradient id="gt8uru4rfb" x1="50%" x2="50%" y1="0%" y2="100%">
            <stop offset="0%" stop-color="#4572DE"/>
            <stop offset="100%" stop-color="#BFD1FF"/>
        </linearGradient>
        <linearGradient id="6cw78fs49e" x1="50%" x2="50%" y1="0%" y2="100%">
            <stop offset="0%" stop-color="#A0BBFC"/>
            <stop offset="100%" stop-color="#688EE8"/>
        </linearGradient>
    </defs>
    <g fill="none" fill-rule="evenodd">
        <path d="M0 0H128V128H0z"/>
        <g opacity=".161">
            <path fill="#7193E4" d="M54.331 62.044L0.97 31.531 0.97 93.502 54.331 123.754z" transform="translate(10 2)"/>
            <path fill="#1E54D5" d="M107.483 31.639L54.331 62.049 54.331 123.754 107.483 93.676z" transform="translate(10 2)"/>
            <path fill="#8BADFF" d="M54.134 0.411L0.97 31.531 54.319 62.76 107.483 31.639z" transform="translate(10 2)"/>
        </g>
        <g filter="url(#1lcyj9o19a)" transform="translate(49 46)">
            <path fill="#7193E4" d="M15.641 17.862L0.279 9.078 0.279 26.918 15.641 35.628z"/>
            <path fill="#1E54D5" d="M30.943 9.109L15.641 17.863 15.641 35.628 30.943 26.968z"/>
            <path fill="#8BADFF" d="M15.585 0.118L0.279 9.078 15.638 18.068 30.943 9.109z"/>
        </g>
        <path fill="url(#gt8uru4rfb)" fill-rule="nonzero" d="M65.037 20.512c.828.02 1.484.707 1.464 1.535-.02.828-.706 1.484-1.534 1.464-.322-.007-.644-.011-.967-.011-.828 0-1.5-.672-1.5-1.5s.672-1.5 1.5-1.5c.346 0 .692.004 1.037.012zm8.227.977c.81.175 1.323.974 1.148 1.784-.176.81-.975 1.323-1.784 1.148-.315-.069-.63-.133-.946-.194-.814-.156-1.347-.942-1.19-1.756.156-.813.942-1.346 1.756-1.19.34.065.678.135 1.016.208zm7.892 2.525c.761.327 1.113 1.21.786 1.97-.327.762-1.209 1.114-1.97.787-.295-.127-.592-.25-.89-.37-.77-.309-1.142-1.182-.834-1.951.309-.769 1.182-1.142 1.951-.833.32.128.64.261.957.397zm7.303 4.009c.685.466.862 1.4.396 2.084-.467.685-1.4.862-2.085.395-.265-.18-.533-.358-.803-.533-.695-.45-.894-1.378-.444-2.074.45-.695 1.378-.895 2.074-.445.29.188.577.379.862.573zm6.342 5.26c.585.586.584 1.536-.003 2.12-.587.586-1.536.585-2.121-.002-.227-.228-.457-.452-.69-.675-.598-.572-.62-1.522-.047-2.12.573-.6 1.523-.62 2.121-.048.25.239.496.48.74.725zm5.289 6.424c.463.687.282 1.62-.405 2.083-.687.463-1.619.282-2.082-.405-.18-.267-.363-.531-.549-.793-.48-.676-.32-1.612.356-2.092.675-.479 1.611-.32 2.09.356.2.281.397.565.59.851zm3.98 7.333c.323.763-.034 1.644-.796 1.967-.763.323-1.643-.033-1.967-.796-.125-.296-.254-.59-.386-.883-.342-.755-.007-1.643.748-1.985.755-.341 1.644-.006 1.985.749.142.314.28.63.416.948zm2.462 7.792c.174.81-.342 1.608-1.152 1.782-.81.173-1.608-.342-1.781-1.152-.068-.315-.139-.628-.214-.94-.193-.806.304-1.615 1.11-1.809.805-.193 1.614.304 1.808 1.11.08.335.156.672.229 1.01zm.959 8.25c.017.828-.64 1.514-1.47 1.53-.827.018-1.513-.64-1.53-1.468-.007-.322-.017-.643-.031-.964-.037-.828.605-1.528 1.432-1.565.828-.036 1.528.605 1.565 1.432.015.345.026.69.034 1.035zm-.61 8.265c-.138.817-.913 1.366-1.73 1.227-.816-.139-1.366-.913-1.227-1.73.054-.316.104-.634.15-.952.12-.82.881-1.387 1.701-1.268.82.12 1.388.881 1.268 1.701-.05.342-.103.682-.161 1.022zm-2.166 7.999c-.292.775-1.157 1.166-1.932.874-.776-.292-1.167-1.158-.875-1.933.114-.3.224-.603.33-.907.274-.782 1.13-1.194 1.911-.92.782.273 1.194 1.13.92 1.911-.114.326-.232.651-.354.975zm-3.672 7.47c-.435.705-1.36.924-2.064.489-.705-.435-.924-1.36-.489-2.065.169-.273.334-.548.497-.826.418-.715 1.337-.956 2.052-.537.715.418.955 1.337.537 2.052-.174.298-.352.593-.533.887zm-4.974 6.575c-.56.61-1.508.652-2.119.092-.61-.56-.652-1.51-.092-2.12.217-.236.432-.476.643-.717.545-.624 1.493-.688 2.117-.142.623.545.687 1.493.141 2.116-.227.26-.457.517-.69.77zm-6.18 5.57c-.665.493-1.605.354-2.098-.312-.494-.665-.355-1.605.31-2.098.26-.192.515-.386.77-.584.653-.51 1.595-.392 2.104.261.51.654.393 1.596-.261 2.105-.272.213-.547.422-.825.628zm-7.14 4.302c-.747.357-1.643.041-2-.706-.358-.747-.042-1.643.706-2 .29-.14.578-.281.864-.427.739-.375 1.641-.08 2.017.658.375.739.08 1.642-.658 2.017-.308.156-.617.309-.929.458zm-7.685 2.817c-.801.21-1.62-.27-1.831-1.07-.21-.802.269-1.622 1.07-1.832.311-.081.621-.167.93-.256.796-.229 1.627.23 1.856 1.027.23.796-.23 1.627-1.026 1.856-.332.096-.665.187-.999.275zm-8.198 1.327c-.826.054-1.54-.573-1.594-1.4-.054-.826.573-1.54 1.4-1.594.32-.02.641-.045.961-.074.825-.073 1.554.537 1.627 1.362.073.825-.536 1.553-1.361 1.627-.344.03-.688.057-1.033.079zm-8.286-.242c-.822-.102-1.406-.851-1.303-1.673.102-.822.851-1.406 1.673-1.304.318.04.637.076.957.108.824.083 1.426.818 1.343 1.642-.083.824-.818 1.426-1.642 1.343-.344-.035-.686-.073-1.028-.116zm-8.116-1.813c-.787-.257-1.217-1.104-.96-1.892.258-.787 1.105-1.217 1.893-.959.305.1.61.196.918.288.793.239 1.243 1.076 1.004 1.869-.238.793-1.075 1.243-1.868 1.004-.33-.1-.66-.203-.987-.31zm-7.59-3.317c-.723-.403-.983-1.317-.58-2.04.402-.724 1.316-.985 2.04-.582.28.156.563.31.847.459.733.385 1.015 1.292.63 2.025-.386.734-1.293 1.016-2.026.63-.306-.16-.609-.325-.91-.492zm-6.799-4.68c-.635-.532-.718-1.479-.186-2.113.532-.635 1.478-.719 2.113-.187.246.207.495.41.746.61.647.517.753 1.461.236 2.109-.517.647-1.46.753-2.108.236-.27-.215-.537-.434-.8-.655zm-5.834-5.92c-.523-.642-.426-1.587.217-2.11.642-.523 1.587-.426 2.11.217.203.25.41.497.618.741.538.63.463 1.577-.167 2.115-.63.538-1.576.463-2.114-.167-.225-.262-.446-.528-.664-.796zm-4.618-6.937c-.39-.73-.116-1.64.615-2.03.73-.391 1.64-.116 2.03.615.152.283.307.565.465.844.408.721.155 1.637-.566 2.045-.72.408-1.636.155-2.044-.566-.17-.3-.337-.603-.5-.908zm-3.166-7.558c-.246-.791.196-1.632.987-1.878.791-.246 1.632.196 1.878.987.096.307.195.612.298.917.265.785-.157 1.636-.942 1.901-.785.265-1.636-.156-1.9-.941-.111-.327-.218-.656-.32-.986zm-1.694-8.13c-.09-.824.504-1.565 1.327-1.655.823-.09 1.564.503 1.655 1.327.035.32.074.639.117.957.11.821-.466 1.576-1.287 1.686-.821.11-1.576-.466-1.686-1.287-.046-.342-.088-.685-.126-1.028zm-.125-8.296c.065-.825.788-1.442 1.614-1.376.825.065 1.442.788 1.376 1.614-.025.32-.047.64-.065.962-.046.828-.753 1.46-1.58 1.415-.828-.046-1.461-.754-1.415-1.581.02-.345.042-.69.07-1.034zm1.444-8.177c.221-.798 1.048-1.266 1.846-1.044.798.222 1.266 1.048 1.044 1.847-.086.31-.168.62-.247.933-.202.803-1.017 1.29-1.82 1.088-.804-.203-1.291-1.018-1.089-1.821.085-.336.173-.67.266-1.003zm2.971-7.733c.37-.741 1.27-1.042 2.012-.672.741.37 1.042 1.27.673 2.012-.144.287-.284.577-.42.868-.353.75-1.246 1.072-1.996.72-.75-.352-1.072-1.245-.72-1.995.146-.313.297-.624.451-.933zm4.376-7.01c.504-.658 1.445-.784 2.103-.28.658.503.783 1.444.28 2.102-.196.256-.388.514-.577.774-.488.67-1.426.817-2.096.33-.67-.488-.817-1.426-.33-2.096.204-.279.41-.556.62-.83zm5.648-6.086c.618-.551 1.567-.496 2.118.122.55.619.496 1.567-.123 2.118-.24.214-.477.43-.712.65-.605.565-1.555.533-2.12-.072-.566-.606-.533-1.555.072-2.12.252-.236.507-.469.765-.698zm6.717-4.92c.712-.424 1.633-.19 2.056.521.424.713.19 1.633-.522 2.056-.276.165-.55.332-.823.503-.701.44-1.627.228-2.068-.473-.44-.702-.228-1.628.474-2.068.292-.184.587-.363.883-.54zm7.522-3.547c.78-.28 1.64.126 1.919.906.28.78-.126 1.638-.906 1.918-.303.109-.604.22-.904.336-.773.299-1.641-.086-1.94-.86-.298-.772.087-1.64.86-1.939.322-.124.646-.244.971-.361zm7.942-2.022c.819-.127 1.586.433 1.713 1.252.128.819-.433 1.585-1.251 1.713-.318.05-.635.102-.951.16-.816.146-1.596-.395-1.743-1.21-.146-.816.395-1.596 1.21-1.743.34-.061.68-.118 1.022-.172z"/>
        <use fill="#000" filter="url(#t4bahnevyc)" xlink:href="#mpo2ffx0rd"/>
        <circle cx="64" cy="21" r="5" fill="#FFF" stroke="url(#6cw78fs49e)" stroke-width="2"/>
        <use fill="#000" filter="url(#lgfrb5mwof)" xlink:href="#a18g0lljrg"/>
        <circle cx="64" cy="107" r="5" fill="#FFF" stroke="url(#6cw78fs49e)" stroke-width="2"/>
        <g>
            <use fill="#000" filter="url(#x63yaz4phh)" xlink:href="#2hgpipzfli"/>
            <circle cx="21" cy="64" r="5" fill="#FFF" stroke="url(#6cw78fs49e)" stroke-width="2"/>
        </g>
        <g>
            <use fill="#000" filter="url(#aj0td6m1yj)" xlink:href="#efjxalhidk"/>
            <circle cx="107" cy="64" r="5" fill="#FFF" stroke="url(#6cw78fs49e)" stroke-width="2"/>
        </g>
    </g>
</svg>
