<svg xmlns="http://www.w3.org/2000/svg" xmlns:xlink="http://www.w3.org/1999/xlink" width="129" height="128" viewBox="0 0 129 128">
    <defs>
        <filter id="i66oi9ozia">
            <feColorMatrix in="SourceGraphic" values="0 0 0 0 1.000000 0 0 0 0 1.000000 0 0 0 0 1.000000 0 0 0 1.000000 0"/>
        </filter>
        <filter id="9ba3rt6clb" width="187.1%" height="175%" x="-43.5%" y="-37.5%" filterUnits="objectBoundingBox">
            <feOffset dy="3" in="SourceAlpha" result="shadowOffsetOuter1"/>
            <feGaussianBlur in="shadowOffsetOuter1" result="shadowBlurOuter1" stdDeviation="2"/>
            <feColorMatrix in="shadowBlurOuter1" result="shadowMatrixOuter1" values="0 0 0 0 0 0 0 0 0 0 0 0 0 0 0 0 0 0 0.364210009 0"/>
            <feMerge>
                <feMergeNode in="shadowMatrixOuter1"/>
                <feMergeNode in="SourceGraphic"/>
            </feMerge>
        </filter>
        <filter id="fmnyizsgtd" width="400%" height="400%" x="-150%" y="-100%" filterUnits="objectBoundingBox">
            <feOffset dy="6" in="SourceAlpha" result="shadowOffsetOuter1"/>
            <feGaussianBlur in="shadowOffsetOuter1" result="shadowBlurOuter1" stdDeviation="5"/>
            <feColorMatrix in="shadowBlurOuter1" values="0 0 0 0 0 0 0 0 0 0 0 0 0 0 0 0 0 0 0.525677448 0"/>
        </filter>
        <filter id="hapaonoc3g" width="400%" height="400%" x="-150%" y="-100%" filterUnits="objectBoundingBox">
            <feOffset dy="6" in="SourceAlpha" result="shadowOffsetOuter1"/>
            <feGaussianBlur in="shadowOffsetOuter1" result="shadowBlurOuter1" stdDeviation="5"/>
            <feColorMatrix in="shadowBlurOuter1" values="0 0 0 0 0 0 0 0 0 0 0 0 0 0 0 0 0 0 0.525677448 0"/>
        </filter>
        <filter id="28rbdwpk6i" width="400%" height="400%" x="-150%" y="-100%" filterUnits="objectBoundingBox">
            <feOffset dy="6" in="SourceAlpha" result="shadowOffsetOuter1"/>
            <feGaussianBlur in="shadowOffsetOuter1" result="shadowBlurOuter1" stdDeviation="5"/>
            <feColorMatrix in="shadowBlurOuter1" values="0 0 0 0 0 0 0 0 0 0 0 0 0 0 0 0 0 0 0.525677448 0"/>
        </filter>
        <filter id="w33hudieuk" width="400%" height="400%" x="-150%" y="-100%" filterUnits="objectBoundingBox">
            <feOffset dy="6" in="SourceAlpha" result="shadowOffsetOuter1"/>
            <feGaussianBlur in="shadowOffsetOuter1" result="shadowBlurOuter1" stdDeviation="5"/>
            <feColorMatrix in="shadowBlurOuter1" values="0 0 0 0 0 0 0 0 0 0 0 0 0 0 0 0 0 0 0.525677448 0"/>
        </filter>
        <path id="892lgysqqe" d="M64 15c-3.314 0-6 2.686-6 6s2.686 6 6 6 6-2.686 6-6-2.686-6-6-6zm0 2c2.21 0 4 1.79 4 4s-1.79 4-4 4-4-1.79-4-4 1.79-4 4-4z"/>
        <path id="rq19ldf2mh" d="M64 101c-3.314 0-6 2.686-6 6s2.686 6 6 6 6-2.686 6-6-2.686-6-6-6zm0 2c2.21 0 4 1.79 4 4s-1.79 4-4 4-4-1.79-4-4 1.79-4 4-4z"/>
        <path id="xas0bfoa8j" d="M21 59c-3.314 0-6 2.686-6 6s2.686 6 6 6 6-2.686 6-6-2.686-6-6-6zm0 2c2.21 0 4 1.79 4 4s-1.79 4-4 4-4-1.79-4-4 1.79-4 4-4z"/>
        <path id="u4vxdtjoel" d="M107 59c-3.314 0-6 2.686-6 6s2.686 6 6 6 6-2.686 6-6-2.686-6-6-6zm0 2c2.21 0 4 1.79 4 4s-1.79 4-4 4-4-1.79-4-4 1.79-4 4-4z"/>
        <linearGradient id="hgoqx3umsc" x1="51.951%" x2="48.139%" y1="99.597%" y2=".403%">
            <stop offset="0%" stop-opacity=".431"/>
            <stop offset="100%" stop-opacity=".776"/>
        </linearGradient>
        <linearGradient id="2ijqt6ob6f" x1="50%" x2="50%" y1="0%" y2="100%">
            <stop offset="0%" stop-opacity=".5"/>
            <stop offset="100%"/>
        </linearGradient>
    </defs>
    <g fill="none" fill-rule="evenodd">
        <g>
            <g>
                <g>
                    <g filter="url(#i66oi9ozia)" transform="translate(-656 -4482) translate(0 4246) translate(548 236) translate(108.5)">
                        <path d="M0 0H128V128H0z"/>
                        <g fill="#000">
                            <path d="M54.331 62.044L0.97 31.531 0.97 93.502 54.331 123.754z" opacity=".1" transform="translate(10 2)"/>
                            <path d="M107.483 31.639L54.331 62.049 54.331 123.754 107.483 93.676z" opacity=".16" transform="translate(10 2)"/>
                            <path d="M54.134 0.411L0.97 31.531 54.319 62.76 107.483 31.639z" opacity=".05" transform="translate(10 2)"/>
                        </g>
                        <g fill="#000" filter="url(#9ba3rt6clb)" transform="translate(49 46)">
                            <path d="M15.641 17.862L0.279 9.078 0.279 26.918 15.641 35.628z" opacity=".5"/>
                            <path d="M30.943 9.109L15.641 17.863 15.641 35.628 30.943 26.968z"/>
                            <path d="M15.585 0.118L0.279 9.078 15.638 18.068 30.943 9.109z" opacity=".2"/>
                        </g>
                        <path fill="url(#hgoqx3umsc)" fill-rule="nonzero" d="M74.772 20.808c.804.2 1.293 1.014 1.093 1.818-.2.804-1.014 1.293-1.818 1.093-.311-.077-.624-.151-.937-.221-.808-.182-1.317-.984-1.136-1.792.181-.809.984-1.317 1.792-1.136.336.076.672.155 1.006.238zm9.217 3.42c.74.373 1.038 1.275.665 2.015-.373.74-1.275 1.037-2.015.665-.287-.145-.575-.286-.866-.424-.748-.355-1.066-1.25-.711-1.998.355-.749 1.25-1.067 1.998-.712.312.148.621.3.93.455zm8.218 5.351c.64.526.734 1.471.208 2.111-.525.64-1.47.734-2.111.208-.249-.204-.5-.405-.753-.603-.652-.51-.767-1.454-.256-2.106.51-.652 1.453-.767 2.106-.257.27.213.54.429.806.647zm6.883 7.052c.51.653.393 1.596-.26 2.106-.653.51-1.595.393-2.105-.26-.198-.253-.399-.504-.603-.753-.524-.641-.43-1.586.211-2.11.641-.526 1.586-.431 2.11.21.22.266.434.536.647.807zm5.183 8.423c.353.75.032 1.643-.718 1.996s-1.643.032-1.996-.718c-.137-.29-.277-.58-.421-.868-.37-.74-.07-1.642.67-2.012.742-.37 1.643-.07 2.013.67.154.31.305.62.452.932zm3.151 9.2c.18.809-.328 1.61-1.137 1.791-.808.18-1.61-.328-1.79-1.137-.07-.314-.145-.627-.222-.939-.2-.804.29-1.618 1.095-1.817.804-.2 1.617.29 1.817 1.095.083.335.162.67.237 1.007zm-.018 19.559c-.182.808-.985 1.315-1.793 1.133-.808-.182-1.316-.984-1.134-1.793.071-.313.138-.627.201-.943.163-.812.954-1.338 1.766-1.175.813.163 1.339.954 1.176 1.766-.068.338-.14.675-.216 1.012zm-3.215 9.293c-.356.748-1.251 1.065-2 .709-.747-.356-1.065-1.251-.708-2 .138-.29.273-.581.404-.875.339-.756 1.226-1.094 1.982-.755.756.338 1.095 1.226.756 1.982-.14.314-.286.628-.434.939zm-5.17 8.337c-.511.652-1.454.765-2.106.254-.652-.511-.765-1.454-.254-2.106.199-.253.395-.509.587-.767.497-.663 1.437-.799 2.1-.303.663.497.799 1.437.303 2.1-.207.276-.417.55-.63.822zm-6.9 7.035c-.64.524-1.586.428-2.11-.213-.524-.642-.428-1.587.213-2.111.25-.203.496-.41.74-.619.63-.538 1.577-.465 2.115.164.539.63.465 1.577-.164 2.115-.262.224-.526.446-.793.664zm-8.302 5.365c-.741.37-1.642.069-2.011-.673-.37-.741-.068-1.642.673-2.011.288-.144.574-.29.859-.441.732-.387 1.64-.107 2.027.626.386.733.106 1.64-.627 2.027-.305.161-.612.319-.92.472zm-9.132 3.357c-.804.198-1.617-.293-1.816-1.097-.198-.805.293-1.617 1.097-1.816.313-.077.624-.158.935-.242.799-.217 1.623.255 1.84 1.054.218.8-.254 1.624-1.054 1.841-.333.09-.667.177-1.002.26zm-19.554.411c-.812-.164-1.337-.955-1.173-1.767.164-.812.956-1.338 1.768-1.174.315.064.63.124.947.18.816.146 1.36.924 1.215 1.74-.146.816-.924 1.36-1.74 1.214-.34-.06-.679-.125-1.017-.193zm-9.36-3.007c-.756-.34-1.094-1.228-.754-1.983.34-.756 1.227-1.093 1.983-.754.293.132.588.26.884.385.763.322 1.121 1.201.8 1.965-.323.763-1.202 1.121-1.966.8-.317-.135-.633-.272-.948-.413zm-8.45-4.985c-.663-.497-.797-1.437-.3-2.1.497-.663 1.437-.797 2.1-.3.257.193.517.383.78.57.673.482.83 1.418.348 2.092-.481.675-1.418.83-2.092.35-.281-.201-.56-.405-.836-.612zm-7.183-6.741c-.538-.63-.463-1.577.167-2.115.63-.538 1.577-.464 2.115.166.208.245.42.487.634.726.553.618.5 1.566-.117 2.119-.618.552-1.566.5-2.118-.118-.23-.257-.457-.516-.68-.778zm-5.546-8.18c-.386-.732-.105-1.64.628-2.026.733-.386 1.64-.104 2.026.629.15.285.304.568.46.849.403.724.143 1.637-.58 2.04-.725.403-1.638.143-2.041-.58-.168-.302-.332-.606-.493-.911zm-3.561-9.06c-.216-.8.257-1.623 1.056-1.84.8-.216 1.624.257 1.84 1.057.084.31.171.62.263.928.235.795-.219 1.63-1.013 1.864-.795.235-1.63-.219-1.864-1.013-.098-.33-.192-.663-.282-.996zm-.84-19.542c.145-.815.925-1.358 1.74-1.212.816.147 1.358.926 1.212 1.741-.056.317-.11.634-.159.952-.127.819-.893 1.38-1.712 1.252-.819-.127-1.38-.893-1.252-1.712.053-.341.11-.681.17-1.02zm2.798-9.424c.323-.763 1.203-1.12 1.966-.797.763.322 1.12 1.203.797 1.966-.125.296-.247.594-.366.893-.305.77-1.176 1.148-1.946.843-.77-.304-1.148-1.176-.843-1.946.127-.321.257-.641.392-.959zm4.817-8.585c.483-.673 1.42-.828 2.093-.345s.828 1.42.345 2.093c-.187.261-.372.525-.553.79-.467.684-1.4.86-2.085.393-.684-.467-.86-1.4-.393-2.084.195-.285.392-.567.593-.847zm6.56-7.3c.618-.55 1.566-.497 2.118.12.552.619.498 1.567-.12 2.119-.24.214-.477.43-.712.65-.605.566-1.554.534-2.12-.07-.566-.606-.534-1.555.07-2.12.252-.236.507-.469.764-.698zm8.051-5.723c.725-.402 1.638-.141 2.04.583.402.724.141 1.637-.583 2.04-.281.156-.56.315-.838.478-.715.419-1.634.179-2.053-.536-.419-.714-.179-1.633.536-2.052.297-.175.597-.346.898-.513zm8.983-3.764c.795-.234 1.629.22 1.863 1.015.234.795-.22 1.63-1.016 1.863-.308.091-.616.185-.922.283-.789.253-1.633-.182-1.886-.97-.252-.79.183-1.634.972-1.887.328-.105.658-.206.989-.304z" transform="rotate(2 63.828 64.18)"/>
                        <g fill-rule="nonzero">
                            <use fill="#000" filter="url(#fmnyizsgtd)" xlink:href="#892lgysqqe"/>
                            <use fill="url(#2ijqt6ob6f)" xlink:href="#892lgysqqe"/>
                        </g>
                        <g fill-rule="nonzero">
                            <use fill="#000" filter="url(#hapaonoc3g)" xlink:href="#rq19ldf2mh"/>
                            <use fill="url(#2ijqt6ob6f)" xlink:href="#rq19ldf2mh"/>
                        </g>
                        <g fill-rule="nonzero">
                            <use fill="#000" filter="url(#28rbdwpk6i)" xlink:href="#xas0bfoa8j"/>
                            <use fill="url(#2ijqt6ob6f)" xlink:href="#xas0bfoa8j"/>
                        </g>
                        <g fill-rule="nonzero">
                            <use fill="#000" filter="url(#w33hudieuk)" xlink:href="#u4vxdtjoel"/>
                            <use fill="url(#2ijqt6ob6f)" xlink:href="#u4vxdtjoel"/>
                        </g>
                    </g>
                </g>
            </g>
        </g>
    </g>
</svg>
