<svg xmlns="http://www.w3.org/2000/svg" width="232" height="148" viewBox="0 0 232 148">
    <g fill="none">
        <path fill="#326DE6" d="M36.156 8.518c-.227-.725-.77-1.314-1.45-1.676L20.886.227C20.524.045 20.116 0 19.754 0c-.363 0-.77 0-1.133.09L4.801 6.752c-.679.317-1.177.906-1.359 1.677L.044 23.334c-.136.77.045 1.54.499 2.175l9.56 11.826c.544.544 1.314.906 2.084.951h15.224c.816.091 1.586-.271 2.084-.951l9.56-11.826c.454-.634.635-1.404.544-2.175L36.156 8.518z" transform="translate(3 55)"/>
        <path fill="#FFF" d="M34.026 22.745c-.045 0-.09 0-.09-.045s-.091-.045-.182-.045c-.18-.046-.362-.046-.543-.046-.091 0-.182 0-.272-.045h-.046c-.498-.045-1.042-.136-1.54-.272-.136-.045-.272-.181-.317-.317.045 0 0 0 0 0l-.363-.09c.182-1.315.09-2.674-.18-3.988-.318-1.314-.862-2.582-1.587-3.715l.272-.272v-.045c0-.136.045-.317.136-.408.408-.363.816-.634 1.269-.906l.272-.136c.18-.09.317-.181.498-.272.045-.045.09-.045.136-.09.045-.046 0-.046 0-.091.408-.317.498-.861.181-1.269-.136-.181-.408-.317-.634-.317-.227 0-.453.09-.635.226l-.045.046c-.045.045-.09.09-.136.09-.136.136-.272.272-.362.408-.046.09-.136.136-.182.181-.317.363-.724.725-1.132.997-.09.045-.181.09-.272.09-.045 0-.136 0-.181-.045h-.046l-.362.227c-.363-.362-.77-.725-1.133-1.087-1.676-1.314-3.76-2.13-5.89-2.357l-.045-.362v.045c-.136-.09-.182-.226-.227-.362 0-.499 0-.997.09-1.54v-.046c0-.09.046-.181.046-.272.045-.181.045-.362.09-.544V5.8c.046-.453-.317-.907-.77-.952-.272-.045-.543.09-.77.317-.181.182-.272.408-.272.635v.226c0 .181.046.363.09.544.046.09.046.181.046.272v.045c.09.498.09.997.09 1.54-.045.136-.09.272-.226.363v.09l-.045.363c-.498.045-.997.136-1.54.227-2.13.453-4.078 1.585-5.574 3.171l-.272-.18h-.045c-.045 0-.09.044-.181.044-.09 0-.181-.045-.272-.09-.408-.317-.815-.68-1.133-1.042-.045-.091-.136-.136-.18-.182-.137-.136-.227-.271-.363-.407-.046-.046-.091-.046-.136-.091l-.046-.045c-.18-.136-.407-.227-.634-.227-.272 0-.498.09-.634.317-.272.408-.181.952.181 1.269.045 0 .045.045.045.045s.09.09.136.09c.136.092.317.182.499.273l.271.136c.454.272.907.543 1.27.906.09.09.18.272.135.408v-.046l.272.272c-.045.09-.09.136-.136.227-1.405 2.22-1.994 4.848-1.586 7.43l-.362.091c0 .045-.046.045-.046.045-.045.136-.18.227-.317.318-.498.136-.997.226-1.54.271-.09 0-.182 0-.272.046-.181 0-.363.045-.544.045-.045 0-.09.045-.181.045-.045 0-.045 0-.09.046-.5.09-.816.543-.726 1.042.09.408.499.68.907.634.09 0 .135 0 .226-.045.045 0 .045 0 .045-.045 0-.046.136 0 .182 0 .18-.046.362-.136.498-.182.09-.045.181-.09.272-.09h.045c.499-.182.952-.318 1.495-.408h.046c.136 0 .272.045.362.136.045 0 .045.045.045.045l.408-.045c.68 2.084 1.949 3.942 3.716 5.301.407.317.77.589 1.223.816l-.227.317c0 .045.046.045.046.045.09.136.09.317.045.453-.181.453-.453.906-.725 1.314v.045c-.045.091-.09.136-.181.227-.09.09-.181.272-.317.453-.046.045-.046.09-.09.136 0 0 0 .045-.046.045-.227.453-.046.997.362 1.224.09.045.227.09.317.09.363 0 .68-.226.861-.543 0 0 0-.046.046-.046 0-.045.045-.09.09-.136.046-.18.136-.317.181-.498l.091-.272c.136-.498.363-.951.59-1.405.09-.135.226-.226.362-.271.045 0 .045 0 .045-.046l.181-.362c1.269.498 2.583.725 3.942.725.816 0 1.631-.09 2.447-.317.498-.091.997-.272 1.45-.408l.18.317c.046 0 .046 0 .046.045.136.046.272.136.363.272.226.453.453.906.589 1.405v.045l.09.272c.046.181.09.362.182.498.045.046.045.09.09.136 0 0 0 .046.045.046.182.317.499.543.861.543.136 0 .227-.045.363-.09.181-.091.362-.272.408-.499.045-.226.045-.453-.046-.68 0-.045-.045-.045-.045-.045 0-.045-.045-.09-.09-.136-.091-.18-.182-.317-.318-.453-.045-.09-.09-.136-.181-.226v-.09c-.317-.409-.544-.862-.725-1.315-.045-.136-.045-.317.045-.453 0-.045.046-.045.046-.045l-.136-.363c2.31-1.404 4.078-3.58 4.893-6.162l.363.045c.045 0 .045-.045.045-.045.09-.09.226-.136.362-.136h.046c.498.09.996.227 1.45.408h.045c.09.045.181.09.272.09.181.091.317.182.498.227.045 0 .09.046.181.046.046 0 .046 0 .091.045.09.045.136.045.227.045.407 0 .77-.272.906-.634-.046-.499-.408-.861-.816-.952zm-13.094-1.404l-1.224.589-1.223-.59-.317-1.313.86-1.088h1.36l.86 1.088-.316 1.314zm7.385-2.945c.227.951.272 1.903.181 2.854l-4.304-1.223c-.408-.09-.634-.499-.544-.906.046-.136.091-.227.182-.318l3.398-3.08c.498.815.86 1.721 1.087 2.673zm-2.447-4.35l-3.715 2.628c-.317.181-.77.136-.997-.181-.09-.091-.136-.182-.136-.318l-.271-4.576c1.993.227 3.76 1.088 5.12 2.447zm-8.2-2.31l.906-.182-.227 4.53c0 .409-.362.726-.77.726-.136 0-.227-.046-.363-.09l-3.76-2.674c1.178-1.133 2.628-1.948 4.213-2.31zm-5.528 3.986l3.353 2.99c.317.273.362.726.09 1.043-.09.136-.181.181-.362.226l-4.395 1.27c-.136-1.904.317-3.852 1.314-5.529zm-.77 7.658l4.485-.77c.363 0 .725.226.77.588.046.136.046.318-.045.453L14.86 27.82c-1.586-1.042-2.854-2.628-3.489-4.44zm10.285 5.618c-.635.136-1.269.227-1.949.227-.951 0-1.948-.182-2.854-.454l2.22-4.032c.227-.272.59-.363.906-.181.136.09.227.18.363.317l2.175 3.942c-.272.045-.544.09-.861.181zm5.527-3.942c-.68 1.088-1.63 2.039-2.718 2.719l-1.767-4.26c-.09-.362.09-.724.408-.86.136-.046.271-.09.407-.09l4.531.77c-.226.634-.498 1.223-.86 1.721z" transform="translate(3 55)"/>
        <path fill="#000" d="M219.523 28.318c.634.046 1.314-.045 1.903-.271.362-.182.589-.59.543-.997-.045-.453-.317-.861-.724-.997-.68-.408-1.45-.77-2.22-.997-.77-.272-1.45-.589-2.085-.906-.589-.272-1.087-.634-1.586-1.088-.453-.453-.77-.951-.996-1.54-.272-.68-.363-1.405-.363-2.13-.045-1.495.634-2.945 1.812-3.85 1.224-.952 2.855-1.405 4.94-1.405.996 0 2.038.09 3.035.317.77.136 1.54.317 2.31.589l-.86 3.851c-.635-.227-1.224-.362-1.858-.544-.725-.18-1.495-.226-2.22-.226-1.54 0-2.31.408-2.31 1.268 0 .182.044.363.09.544.09.181.226.317.408.453.18.136.453.272.77.453.317.182.77.363 1.314.544.906.317 1.812.725 2.628 1.178.634.317 1.178.725 1.63 1.269.409.408.68.906.862 1.495.181.634.272 1.269.272 1.903.09 1.54-.635 3.036-1.949 3.897-1.268.86-3.08 1.314-5.437 1.314-1.314.045-2.582-.091-3.851-.408-.725-.182-1.405-.408-2.084-.635l.815-3.987c.816.317 1.677.59 2.538.77.906.046 1.767.136 2.673.136m-24.966-4.984c-.045-1.359.227-2.718.68-3.987.408-1.087 1.042-2.039 1.858-2.9.77-.77 1.63-1.359 2.628-1.721.996-.408 2.039-.59 3.08-.59 2.447 0 4.396.77 5.8 2.266 1.405 1.495 2.13 3.715 2.13 6.615 0 .272 0 .59-.046.952 0 .362-.045.634-.045.906h-11.055c.09.951.589 1.858 1.404 2.401.997.635 2.175.952 3.353.906.861 0 1.767-.09 2.628-.226.725-.136 1.45-.363 2.13-.68l.68 3.987c-.318.182-.68.272-1.043.408-.498.136-.997.272-1.495.317-.544.091-1.087.182-1.722.272-.589.046-1.223.09-1.857.09-1.405.046-2.764-.18-4.078-.679-1.088-.408-2.04-1.042-2.855-1.857-.77-.816-1.314-1.813-1.676-2.855-.317-1.223-.499-2.447-.499-3.625m11.464-1.857c0-.408-.091-.816-.227-1.224-.09-.407-.317-.725-.544-1.042-.272-.317-.589-.589-.951-.77-.453-.227-.906-.317-1.405-.317-.498 0-.951.09-1.404.317-.363.181-.725.408-.997.725s-.499.68-.634 1.087c-.136.408-.227.816-.272 1.224h6.434M181.28 10.24l4.894-.77v5.074h5.89v4.078h-5.89v6.072c-.045.86.136 1.721.544 2.446.362.59 1.087.907 2.22.907.544 0 1.087-.046 1.586-.136.544-.091 1.042-.227 1.54-.408l.68 3.806c-.634.272-1.314.453-1.994.634-.86.181-1.767.272-2.673.272-1.133.045-2.265-.136-3.308-.544-.815-.317-1.54-.86-2.084-1.495-.543-.68-.906-1.495-1.132-2.356-.227-.997-.318-2.039-.272-3.036V10.24m-19.8 13.094c-.046-1.359.226-2.718.68-3.987.407-1.087 1.041-2.039 1.857-2.9.77-.77 1.63-1.359 2.628-1.721.997-.408 2.039-.59 3.08-.59 2.447 0 4.396.77 5.8 2.266 1.405 1.495 2.13 3.715 2.13 6.615 0 .272 0 .59-.045.952-.046.362-.046.634-.046.906h-11.1c.09.951.589 1.858 1.404 2.401.997.635 2.175.952 3.353.906.86 0 1.767-.09 2.628-.226.725-.136 1.45-.363 2.175-.68l.68 3.987c-.318.182-.68.272-1.043.408-.498.136-.996.272-1.495.317-.544.091-1.087.182-1.722.272-.589.046-1.223.09-1.857.09-1.405.046-2.764-.18-4.078-.679-1.088-.408-2.04-1.042-2.855-1.857-.77-.816-1.314-1.813-1.676-2.855-.363-1.223-.544-2.447-.499-3.625m11.464-1.857c0-.408-.09-.816-.227-1.224-.09-.407-.317-.725-.544-1.042-.271-.317-.589-.589-.951-.77-.453-.227-.906-.317-1.405-.317-.498 0-.951.09-1.404.317-.363.181-.68.408-.952.725-.272.317-.498.68-.634 1.087-.136.408-.227.816-.272 1.224h6.389m-30.04-6.344c1.042-.272 2.13-.498 3.217-.68 1.359-.226 2.763-.316 4.123-.316 1.223-.046 2.446.18 3.624.589.907.317 1.722.86 2.311 1.585.59.725.997 1.586 1.224 2.492.271 1.043.362 2.13.362 3.217v9.742h-4.848v-9.107c0-1.586-.227-2.674-.634-3.353-.408-.635-1.178-.997-2.311-.997-.363 0-.725 0-1.133.045-.408 0-.725.046-1.042.09v13.322h-4.893V15.133m-3.444 3.761c-.453-.09-.951-.227-1.54-.317-.635-.136-1.27-.181-1.903-.181-.363 0-.725.045-1.133.09-.317.046-.634.09-.952.181v13.185h-4.893V15.45c.997-.362 2.039-.634 3.081-.86 1.314-.318 2.673-.453 3.987-.408.317 0 .635.045.952.045.362 0 .725.045 1.132.136.363.045.725.09 1.133.181.317.046.635.136.952.272l-.816 4.078m-30.402 4.44c-.046-1.359.226-2.718.68-3.987.407-1.087 1.041-2.039 1.857-2.9.77-.77 1.631-1.359 2.628-1.721.997-.408 2.039-.59 3.08-.59 2.448 0 4.396.77 5.8 2.266 1.405 1.495 2.13 3.715 2.13 6.57 0 .272 0 .589-.045.951-.046.363-.046.635-.046.907h-11.1c.09.951.589 1.857 1.404 2.4.997.635 2.175.952 3.353.907.86 0 1.767-.09 2.628-.226.725-.136 1.45-.363 2.13-.635l.68 3.987c-.318.182-.68.272-1.043.408-.498.136-.997.272-1.495.317-.544.091-1.088.182-1.722.272-.589.046-1.223.09-1.858.09-1.404.046-2.763-.18-4.077-.679-1.088-.408-2.04-1.042-2.855-1.857-.77-.816-1.314-1.813-1.676-2.855-.272-1.223-.453-2.401-.453-3.625m11.508-1.857c0-.408-.09-.816-.226-1.224-.091-.407-.318-.725-.544-1.042-.272-.317-.59-.589-.952-.77-.453-.227-.906-.317-1.404-.317-.499 0-.952.09-1.405.317-.362.181-.725.408-.997.725-.271.317-.498.68-.634 1.087-.136.408-.227.816-.272 1.224h6.434m-19.438 1.585c0-3.171-1.178-4.712-3.488-4.712-.499 0-.997.046-1.496.182-.407.09-.815.271-1.178.498v8.88c.227.046.544.091.906.137.363.045.77.045 1.224.045 1.178.09 2.31-.408 3.036-1.36.68-1.087 1.042-2.356.996-3.67m4.984.182c0 1.268-.18 2.537-.634 3.76-.362 1.088-.951 2.04-1.722 2.855-.815.815-1.767 1.45-2.809 1.858-1.223.453-2.492.634-3.806.634-.589 0-1.223-.045-1.858-.09-.634-.046-1.268-.137-1.903-.182-.589-.09-1.178-.181-1.767-.317-.589-.09-1.087-.227-1.495-.408V7.114l4.894-.77v8.608c.543-.226 1.132-.408 1.721-.544.635-.136 1.269-.18 1.903-.18 1.133 0 2.22.18 3.263.679.906.408 1.721 1.042 2.356 1.812.68.861 1.178 1.813 1.45 2.855.271 1.132.407 2.401.407 3.67m-20.66 7.974c-1.043.272-2.13.499-3.218.634-1.359.227-2.764.318-4.123.318-1.268.045-2.492-.182-3.67-.59-.906-.362-1.676-.906-2.31-1.63-.59-.77-.997-1.632-1.224-2.583-.272-1.042-.362-2.175-.362-3.262v-9.56h4.893v9.016c0 1.586.227 2.718.634 3.398.408.68 1.178 1.042 2.311 1.042.363 0 .725 0 1.133-.045.408-.045.725-.045 1.042-.136V14.544h4.893v16.674M56.907 20.797c.499-.544.952-1.087 1.496-1.631.498-.59.996-1.133 1.495-1.677.498-.589.951-1.087 1.36-1.585.407-.499.815-.952 1.132-1.314h5.8c-1.179 1.314-2.311 2.628-3.399 3.85-1.132 1.224-2.31 2.493-3.624 3.762.724.68 1.404 1.359 2.038 2.13.68.815 1.36 1.63 2.04 2.536.634.861 1.268 1.768 1.812 2.628.543.861.997 1.677 1.359 2.402h-5.618c-.363-.59-.77-1.178-1.224-1.858-.453-.68-.951-1.36-1.404-2.084-.499-.68-1.042-1.36-1.631-1.994-.499-.589-1.043-1.132-1.632-1.586v7.567h-4.893V7.113l4.893-.77v14.454" transform="translate(3 55)"/>
    </g>
</svg>
