<svg xmlns="http://www.w3.org/2000/svg" width="141" height="24" viewBox="0 0 141 24">
    <g fill="none" fill-rule="nonzero">
        <path fill="#326DE6" d="M22.328 5.284c-.14-.45-.476-.815-.896-1.04L12.898.141a1.56 1.56 0 0 0-.7-.141c-.223 0-.475 0-.699.056L2.965 4.188c-.42.197-.727.562-.84 1.04L.028 14.476a1.78 1.78 0 0 0 .308 1.349l5.904 7.336c.336.338.811.562 1.287.59h9.401c.504.057.98-.168 1.287-.59l5.904-7.336c.28-.394.392-.871.336-1.35l-2.126-9.19z"/>
        <path fill="#FFF" d="M21.05 14.221c-.028 0-.056 0-.056-.028 0-.03-.056-.03-.112-.03-.113-.028-.225-.028-.337-.028-.056 0-.112 0-.168-.028h-.028a5.565 5.565 0 0 1-.955-.172.343.343 0 0 1-.196-.2c.028 0 0 0 0 0l-.224-.058c.112-.831.056-1.69-.113-2.522a7.85 7.85 0 0 0-.982-2.35l.169-.171v-.029c0-.086.028-.2.084-.258.252-.229.505-.4.785-.573l.169-.086c.112-.057.196-.114.308-.172.029-.028.057-.028.085-.057.028-.029 0-.029 0-.057a.568.568 0 0 0 .112-.803.532.532 0 0 0-.393-.2c-.14 0-.28.057-.393.143l-.028.029c-.028.028-.056.057-.084.057-.084.086-.168.172-.225.258-.028.057-.084.086-.112.115-.196.229-.449.458-.701.63a.393.393 0 0 1-.169.057c-.028 0-.084 0-.112-.028h-.028l-.225.143c-.224-.23-.477-.459-.701-.688a7.108 7.108 0 0 0-3.648-1.49l-.028-.23v.03c-.084-.058-.112-.144-.14-.23 0-.315 0-.63.056-.974v-.029c0-.057.028-.114.028-.171.028-.115.028-.23.056-.344v-.172c.028-.287-.197-.573-.477-.602-.169-.029-.337.057-.477.2a.572.572 0 0 0-.169.402v.143c0 .115.029.23.057.344a.37.37 0 0 1 .028.172v.028c.056.316.056.63.056.975-.028.086-.056.172-.14.229v.057l-.029.23c-.308.028-.617.085-.954.143-1.319.286-2.525 1.003-3.451 2.005l-.169-.114h-.028c-.028 0-.056.029-.112.029s-.112-.03-.168-.058c-.253-.2-.505-.43-.702-.659-.028-.057-.084-.086-.112-.114-.084-.086-.14-.172-.225-.258-.028-.029-.056-.029-.084-.058l-.028-.028a.662.662 0 0 0-.393-.144c-.168 0-.308.058-.393.201a.625.625 0 0 0 .113.802c.028 0 .028.029.028.029s.056.057.084.057c.084.058.196.115.309.172l.168.086c.28.172.561.344.786.573.056.058.112.172.084.258v-.029l.168.172c-.028.058-.056.086-.084.144-.87 1.404-1.235 3.066-.982 4.699l-.225.057c0 .029-.028.029-.028.029-.028.086-.112.143-.196.2a5.115 5.115 0 0 1-.954.172c-.056 0-.112 0-.168.029-.113 0-.225.029-.337.029-.028 0-.056.028-.112.028-.029 0-.029 0-.057.029a.558.558 0 0 0-.449.659c.057.258.31.43.562.401.056 0 .084 0 .14-.029.028 0 .028 0 .028-.028 0-.029.084 0 .112 0 .113-.029.225-.086.309-.115.056-.028.112-.057.168-.057h.028c.309-.115.59-.2.926-.258h.028c.085 0 .169.029.225.086.028 0 .028.029.028.029l.253-.029a6.918 6.918 0 0 0 2.3 3.352c.253.201.478.373.758.516l-.14.2c0 .03.028.03.028.03.056.085.056.2.028.286-.112.287-.28.573-.449.83v.03a.502.502 0 0 1-.112.143c-.056.057-.112.172-.197.286-.028.029-.028.058-.056.086 0 0 0 .029-.028.029a.596.596 0 0 0 .225.774c.056.028.14.057.196.057.225 0 .421-.143.533-.344 0 0 0-.029.028-.029 0-.028.028-.057.056-.086.029-.114.085-.2.113-.315l.056-.172c.084-.315.224-.601.365-.888a.437.437 0 0 1 .224-.172c.028 0 .028 0 .028-.028l.112-.23c.786.316 1.6.459 2.442.459a5.51 5.51 0 0 0 1.515-.2c.309-.058.617-.173.898-.259l.112.2c.028 0 .028 0 .028.03a.437.437 0 0 1 .225.171c.14.287.28.574.365.889v.028l.056.172c.028.115.056.23.112.315.028.03.028.058.056.086 0 0 0 .03.028.03.112.2.309.343.533.343.085 0 .14-.029.225-.057a.477.477 0 0 0 .252-.316.752.752 0 0 0-.028-.43c0-.028-.028-.028-.028-.028 0-.029-.028-.057-.056-.086a1.03 1.03 0 0 0-.196-.287c-.028-.057-.056-.085-.112-.143v-.057a3.407 3.407 0 0 1-.45-.831.345.345 0 0 1 .029-.287c0-.028.028-.028.028-.028l-.085-.23a7.059 7.059 0 0 0 3.031-3.896l.225.028c.028 0 .028-.028.028-.028a.315.315 0 0 1 .224-.086h.028c.309.057.618.143.898.258h.028c.056.028.112.057.169.057.112.057.196.114.308.143.028 0 .056.029.113.029.028 0 .028 0 .056.028.056.03.084.03.14.03a.611.611 0 0 0 .561-.402.671.671 0 0 0-.505-.602zm-8.11-.888l-.757.372-.758-.372-.196-.831.533-.688h.842l.533.688-.197.831zm4.574-1.863c.14.602.169 1.204.113 1.806l-2.666-.774c-.253-.057-.393-.315-.337-.573a.464.464 0 0 1 .112-.2l2.105-1.95a5.9 5.9 0 0 1 .673 1.691zM16 8.72l-2.301 1.662c-.196.114-.477.086-.617-.115a.263.263 0 0 1-.085-.2l-.168-2.895A5.238 5.238 0 0 1 16 8.72zm-5.08-1.462l.562-.114-.14 2.865a.472.472 0 0 1-.477.459c-.084 0-.14-.029-.225-.058L8.31 8.72a5.54 5.54 0 0 1 2.61-1.462zM7.497 9.78l2.077 1.891a.467.467 0 0 1 .056.66c-.056.085-.112.114-.224.142l-2.722.803a6.134 6.134 0 0 1 .813-3.496zm-.477 4.842l2.778-.487c.225 0 .45.144.478.373.028.086.028.2-.029.286L9.18 17.43a5.62 5.62 0 0 1-2.16-2.808zm6.37 3.553a5.567 5.567 0 0 1-1.206.144 6.17 6.17 0 0 1-1.768-.287l1.375-2.55c.14-.172.365-.23.561-.115.084.058.14.115.225.201l1.346 2.493a4.477 4.477 0 0 0-.533.114zm3.424-2.492a5.416 5.416 0 0 1-1.684 1.719l-1.094-2.694a.469.469 0 0 1 .252-.544c.084-.029.169-.057.253-.057l2.806.487c-.14.4-.309.773-.533 1.089z"/>
        <path fill="#000" d="M135.874 17.715c.393.028.814-.028 1.18-.169a.627.627 0 0 0 .336-.62c-.028-.281-.196-.535-.45-.62a6.06 6.06 0 0 0-1.375-.619 11.128 11.128 0 0 1-1.292-.563 3.829 3.829 0 0 1-.983-.676 2.673 2.673 0 0 1-.618-.957c-.169-.423-.225-.873-.225-1.324a2.926 2.926 0 0 1 1.124-2.394c.758-.591 1.769-.873 3.06-.873.619 0 1.265.057 1.883.198.477.084.954.197 1.432.366l-.534 2.393c-.393-.14-.758-.225-1.151-.338-.45-.112-.927-.14-1.376-.14-.955 0-1.433.253-1.433.788 0 .113.028.225.056.338.057.113.14.197.253.282.113.084.281.169.478.281.196.113.477.226.814.338.562.197 1.124.45 1.63.732.392.198.73.451 1.01.789.253.253.421.563.534.93.112.394.168.788.168 1.182a2.704 2.704 0 0 1-1.207 2.422c-.787.535-1.91.817-3.37.817a8.506 8.506 0 0 1-2.388-.254c-.45-.112-.87-.253-1.292-.394l.506-2.478c.505.197 1.039.366 1.572.478.562.029 1.096.085 1.658.085m-15.476-3.098c-.028-.845.14-1.69.422-2.478.252-.676.646-1.267 1.151-1.802.478-.48 1.011-.845 1.63-1.07a5.006 5.006 0 0 1 1.909-.367c1.517 0 2.724.48 3.595 1.408.87.93 1.32 2.31 1.32 4.112 0 .169 0 .366-.028.591 0 .226-.028.395-.028.564h-6.853c.056.591.365 1.154.87 1.492a3.618 3.618 0 0 0 2.079.563c.534 0 1.095-.056 1.629-.14.45-.085.899-.226 1.32-.423l.421 2.478c-.196.113-.421.17-.646.254-.309.084-.618.169-.927.197-.337.056-.674.113-1.067.169a15.02 15.02 0 0 1-1.151.056 6.455 6.455 0 0 1-2.528-.422 4.946 4.946 0 0 1-1.77-1.155c-.477-.507-.814-1.126-1.039-1.774a9.06 9.06 0 0 1-.309-2.253m7.106-1.154a2.42 2.42 0 0 0-.14-.76c-.057-.254-.197-.451-.337-.649a1.923 1.923 0 0 0-.59-.478 1.878 1.878 0 0 0-.87-.197c-.31 0-.59.056-.871.197-.225.112-.45.253-.618.45a2.034 2.034 0 0 0-.394.676c-.084.254-.14.507-.168.76h3.988M112.17 6.479L115.203 6v3.154h3.65v2.534h-3.65v3.774a2.82 2.82 0 0 0 .337 1.52c.224.367.674.564 1.376.564.337 0 .674-.028.983-.085a5.29 5.29 0 0 0 .955-.253l.421 2.366c-.393.169-.814.281-1.236.394a8.069 8.069 0 0 1-1.657.169 5.068 5.068 0 0 1-2.05-.338 3.315 3.315 0 0 1-1.292-.93c-.337-.422-.562-.929-.702-1.464a7.158 7.158 0 0 1-.169-1.887v-9.04m-12.273 8.14c-.028-.846.14-1.69.421-2.479.253-.676.646-1.267 1.152-1.802.477-.48 1.01-.845 1.629-1.07a5.006 5.006 0 0 1 1.91-.367c1.516 0 2.724.48 3.595 1.408.87.93 1.32 2.31 1.32 4.112 0 .169 0 .366-.029.591-.028.226-.028.395-.028.564h-6.88c.056.591.365 1.154.87 1.492a3.618 3.618 0 0 0 2.078.563c.534 0 1.096-.056 1.63-.14.449-.085.898-.226 1.347-.423l.422 2.478c-.197.113-.422.17-.646.254-.31.084-.618.169-.927.197-.337.056-.674.113-1.067.169a15.02 15.02 0 0 1-1.152.056 6.455 6.455 0 0 1-2.527-.422 4.946 4.946 0 0 1-1.77-1.155c-.477-.507-.814-1.126-1.039-1.774-.225-.76-.337-1.52-.309-2.253m7.106-1.154a2.42 2.42 0 0 0-.14-.76c-.057-.254-.197-.451-.338-.649a1.923 1.923 0 0 0-.59-.478 1.878 1.878 0 0 0-.87-.197c-.31 0-.59.056-.87.197a1.833 1.833 0 0 0-.59.45 2.034 2.034 0 0 0-.394.676c-.084.254-.14.507-.168.76h3.96M88.38 9.52c.646-.169 1.32-.31 1.994-.422.843-.141 1.713-.198 2.556-.198.758-.028 1.516.113 2.247.366a3.207 3.207 0 0 1 1.432.986c.365.45.618.986.758 1.549.169.648.225 1.324.225 2v6.054h-3.005v-5.66c0-.986-.14-1.662-.393-2.084-.253-.394-.73-.62-1.433-.62-.224 0-.45 0-.702.028-.253 0-.45.029-.646.057v8.28h-3.033V9.52m-2.135 2.337c-.28-.056-.59-.14-.954-.197a5.58 5.58 0 0 0-1.18-.112c-.225 0-.45.028-.702.056a4.35 4.35 0 0 0-.59.113v8.195h-3.033V9.717a14.761 14.761 0 0 1 1.91-.535 9.222 9.222 0 0 1 2.471-.253c.197 0 .393.028.59.028.225 0 .45.028.702.084.225.028.45.057.702.113.197.028.393.084.59.169l-.506 2.534m-18.845 2.76c-.028-.845.14-1.69.421-2.478.253-.676.646-1.267 1.152-1.802.477-.48 1.011-.845 1.629-1.07a5.006 5.006 0 0 1 1.91-.367c1.516 0 2.724.48 3.595 1.408.87.93 1.32 2.31 1.32 4.084 0 .169 0 .366-.028.591-.029.226-.029.395-.029.564h-6.88c.056.59.365 1.154.87 1.492a3.618 3.618 0 0 0 2.078.563c.534 0 1.096-.056 1.63-.14.449-.085.898-.226 1.32-.395l.42 2.478c-.196.113-.42.17-.645.254-.31.084-.618.169-.927.197-.337.056-.674.113-1.067.169a15.02 15.02 0 0 1-1.152.056 6.455 6.455 0 0 1-2.527-.422 4.946 4.946 0 0 1-1.77-1.155c-.477-.507-.814-1.126-1.039-1.774-.169-.76-.28-1.492-.28-2.253m7.133-1.154a2.42 2.42 0 0 0-.14-.76c-.057-.254-.197-.451-.338-.649a1.923 1.923 0 0 0-.59-.478 1.878 1.878 0 0 0-.87-.197c-.309 0-.59.056-.87.197-.225.112-.45.253-.619.45a2.034 2.034 0 0 0-.393.676c-.084.254-.14.507-.168.76h3.988m-12.049.986c0-1.971-.73-2.929-2.162-2.929a3.48 3.48 0 0 0-.927.113 2.38 2.38 0 0 0-.73.31v5.52c.14.028.337.056.561.084.225.028.478.028.759.028a2.141 2.141 0 0 0 1.881-.845 4.045 4.045 0 0 0 .618-2.28m3.09.112c0 .788-.113 1.577-.394 2.337a4.762 4.762 0 0 1-1.067 1.774 5.092 5.092 0 0 1-1.741 1.155c-.758.282-1.545.394-2.36.394-.364 0-.758-.028-1.15-.056-.394-.028-.787-.084-1.18-.113-.366-.056-.73-.112-1.096-.197a3.662 3.662 0 0 1-.927-.253V4.535l3.034-.478v5.35a6.73 6.73 0 0 1 1.067-.338 5.58 5.58 0 0 1 1.18-.112c.702 0 1.376.112 2.022.422a4.084 4.084 0 0 1 1.46 1.127c.421.535.73 1.126.899 1.774a9.96 9.96 0 0 1 .253 2.28m-12.807 4.957c-.646.17-1.32.31-1.994.395-.843.14-1.714.197-2.556.197a6.221 6.221 0 0 1-2.275-.366 3.703 3.703 0 0 1-1.433-1.014 4.228 4.228 0 0 1-.758-1.605c-.168-.648-.225-1.352-.225-2.028V9.154h3.034v5.604c0 .986.14 1.69.393 2.112.253.423.73.648 1.432.648.225 0 .45 0 .702-.028.253-.029.45-.029.646-.085V9.154h3.034v10.363M35.075 13.04c.309-.338.59-.676.927-1.014.308-.366.617-.704.926-1.042.31-.366.59-.676.843-.985.253-.31.505-.592.702-.817h3.595c-.73.817-1.432 1.633-2.106 2.394a56.98 56.98 0 0 1-2.247 2.337c.45.423.87.845 1.264 1.324.42.507.842 1.014 1.263 1.577a28.31 28.31 0 0 1 1.124 1.633c.337.535.618 1.042.842 1.493h-3.482c-.225-.366-.478-.732-.758-1.155-.281-.422-.59-.845-.871-1.295a13.913 13.913 0 0 0-1.011-1.24 6.684 6.684 0 0 0-1.011-.985v4.703H32.04V4.535l3.034-.478v8.983"/>
    </g>
</svg>
