<svg xmlns="http://www.w3.org/2000/svg" width="241" height="41" viewBox="0 0 241 41">
    <g fill="none" fill-rule="nonzero">
        <path fill="#326DE6" d="M38.326 9.119c-.24-.776-.817-1.407-1.537-1.795L22.14.243C21.756.049 21.324 0 20.94 0c-.385 0-.817 0-1.201.097l-14.65 7.13a2.6 2.6 0 0 0-1.44 1.795L.047 24.979c-.144.825.048 1.65.528 2.328l10.134 12.66c.577.582 1.393.97 2.21 1.018h16.137c.865.097 1.681-.29 2.21-1.018L41.4 27.307c.48-.679.672-1.503.576-2.328l-3.65-15.86z"/>
        <path fill="#FFF" d="M36.133 24.54c-.048 0-.096 0-.096-.05 0-.049-.097-.049-.193-.049-.193-.05-.385-.05-.578-.05-.096 0-.193 0-.29-.049h-.047a9.507 9.507 0 0 1-1.638-.296.59.59 0 0 1-.337-.347c.048 0 0 0 0 0l-.385-.098c.192-1.434.096-2.918-.193-4.352a13.585 13.585 0 0 0-1.686-4.054l.289-.297v-.05c0-.147.048-.345.144-.444a8.634 8.634 0 0 1 1.35-.989l.288-.148c.193-.1.337-.198.53-.297.048-.05.096-.05.145-.099.048-.05 0-.05 0-.099.433-.346.53-.94.192-1.384a.912.912 0 0 0-.674-.346c-.241 0-.482.099-.674.247l-.049.05c-.048.049-.096.098-.144.098a3.174 3.174 0 0 0-.385.445c-.049.1-.145.149-.193.198-.337.396-.77.791-1.204 1.088-.097.05-.193.099-.29.099-.048 0-.144 0-.192-.05h-.048l-.386.247c-.385-.395-.818-.79-1.204-1.186-1.782-1.434-3.998-2.324-6.262-2.571l-.048-.396v.05c-.144-.1-.192-.248-.24-.396 0-.544 0-1.088.096-1.681v-.05c0-.098.048-.197.048-.296.048-.198.048-.396.096-.594v-.296c.048-.495-.337-.99-.819-1.039-.289-.049-.578.1-.818.347a.989.989 0 0 0-.29.692v.247c0 .198.049.396.097.593a.642.642 0 0 1 .048.297v.05c.096.543.096 1.087.096 1.68-.048.149-.096.297-.24.396v.099l-.049.396c-.53.049-1.06.148-1.637.247-2.264.494-4.336 1.73-5.925 3.46l-.29-.197h-.047c-.048 0-.097.05-.193.05s-.193-.05-.289-.1a8.974 8.974 0 0 1-1.204-1.137c-.048-.098-.145-.148-.193-.197-.144-.149-.24-.297-.385-.445-.048-.05-.096-.05-.145-.1l-.048-.049a1.133 1.133 0 0 0-.674-.247c-.29 0-.53.099-.675.346a1.083 1.083 0 0 0 .193 1.385c.048 0 .048.05.048.05s.097.098.145.098c.144.099.337.198.53.297l.289.148c.481.297.963.593 1.348.989.097.099.193.297.145.445v-.05l.289.297c-.048.099-.096.148-.145.247-1.493 2.423-2.119 5.29-1.685 8.11l-.386.098c0 .05-.048.05-.048.05-.048.148-.193.247-.337.346-.53.148-1.06.247-1.638.296-.096 0-.193 0-.289.05-.193 0-.385.05-.578.05-.048 0-.096.049-.193.049-.048 0-.048 0-.096.05a.963.963 0 0 0-.77 1.136c.096.445.53.742.963.693.096 0 .144 0 .24-.05.049 0 .049 0 .049-.05 0-.049.144 0 .192 0 .193-.049.386-.148.53-.197.097-.05.193-.099.29-.099h.047a8.413 8.413 0 0 1 1.59-.445h.048c.145 0 .29.05.386.148.048 0 .048.05.048.05l.433-.05c.723 2.275 2.071 4.302 3.95 5.785.434.346.819.643 1.3.89l-.24.346c0 .05.048.05.048.05a.599.599 0 0 1 .048.494c-.193.495-.482.99-.77 1.434v.05c-.049.099-.097.148-.193.247-.097.099-.193.297-.338.494-.048.05-.048.1-.096.149 0 0 0 .05-.048.05-.24.494-.048 1.087.385 1.334.097.05.241.099.338.099.385 0 .722-.247.915-.593 0 0 0-.05.048-.05 0-.05.048-.099.096-.148.048-.198.145-.346.193-.544l.096-.297c.145-.544.386-1.038.626-1.532a.751.751 0 0 1 .386-.297c.048 0 .048 0 .048-.05l.193-.395c1.348.544 2.745.791 4.19.791a9.41 9.41 0 0 0 2.601-.346c.53-.099 1.06-.297 1.542-.445l.192.346c.048 0 .048 0 .048.05.145.049.29.148.386.296.24.495.482.989.626 1.533v.05l.096.296c.049.198.097.396.193.544.048.05.048.099.096.148 0 0 0 .05.049.05.192.346.53.593.915.593.144 0 .24-.05.385-.099.193-.099.385-.297.434-.544a1.304 1.304 0 0 0-.049-.741c0-.05-.048-.05-.048-.05 0-.05-.048-.099-.096-.148a1.777 1.777 0 0 0-.337-.495.865.865 0 0 0-.193-.247v-.099c-.337-.445-.578-.94-.77-1.434a.599.599 0 0 1 .048-.494c0-.05.048-.05.048-.05l-.145-.395c2.457-1.533 4.335-3.906 5.202-6.725l.386.05c.048 0 .048-.05.048-.05a.539.539 0 0 1 .385-.148h.048c.53.099 1.06.247 1.542.445h.048c.096.05.193.099.289.099.193.099.337.198.53.247.048 0 .096.05.192.05.049 0 .049 0 .097.05.096.049.144.049.24.049.434 0 .82-.297.964-.693-.048-.544-.434-.94-.867-1.038zm-13.92-1.533l-1.301.643-1.3-.643-.338-1.434.915-1.186h1.445l.916 1.186-.338 1.434zm7.85-3.214a9.71 9.71 0 0 1 .193 3.115l-4.575-1.335c-.434-.099-.675-.544-.579-.989a.802.802 0 0 1 .193-.346l3.613-3.362c.53.89.915 1.879 1.156 2.917zm-2.6-4.746l-3.95 2.867c-.337.198-.819.149-1.06-.197a.455.455 0 0 1-.144-.346l-.29-4.994a8.972 8.972 0 0 1 5.444 2.67zm-8.719-2.522l.964-.198-.241 4.945c0 .445-.386.79-.819.79-.145 0-.24-.049-.385-.098l-3.998-2.917c1.252-1.236 2.793-2.126 4.48-2.522zm-5.876 4.351l3.564 3.263a.809.809 0 0 1 .097 1.138c-.097.148-.193.197-.386.247l-4.672 1.384a10.63 10.63 0 0 1 1.397-6.032zm-.82 8.356l4.77-.84c.385 0 .77.247.818.642a.599.599 0 0 1-.048.495l-1.83 4.549a9.69 9.69 0 0 1-3.71-4.846zm10.935 6.131a9.507 9.507 0 0 1-2.071.248c-1.012 0-2.071-.198-3.035-.495l2.36-4.4c.241-.297.627-.396.964-.198.144.099.24.198.385.346l2.312 4.302c-.289.049-.578.098-.915.197zm5.877-4.301a9.323 9.323 0 0 1-2.89 2.966l-1.879-4.647c-.096-.396.096-.792.433-.94.145-.05.29-.099.434-.099l4.817.84c-.241.693-.53 1.336-.915 1.88z"/>
        <path fill="#000" d="M233.23 30.569a4.777 4.777 0 0 0 2.025-.292c.386-.194.627-.632.579-1.069-.049-.486-.338-.923-.772-1.069a10.376 10.376 0 0 0-2.362-1.07 19.05 19.05 0 0 1-2.218-.971c-.626-.292-1.157-.68-1.687-1.166a4.616 4.616 0 0 1-1.06-1.653c-.29-.729-.386-1.506-.386-2.284-.049-1.603.675-3.158 1.928-4.13 1.302-1.02 3.037-1.507 5.255-1.507 1.06 0 2.17.098 3.23.34.82.146 1.639.34 2.459.632l-.916 4.13c-.675-.242-1.302-.388-1.977-.582-.771-.195-1.59-.243-2.362-.243-1.64 0-2.459.437-2.459 1.36 0 .195.048.39.096.584.097.194.242.34.434.486.193.145.482.291.82.485.337.195.82.39 1.398.584.964.34 1.928.777 2.796 1.263.675.34 1.254.778 1.736 1.36.434.438.723.973.916 1.604.193.68.289 1.361.289 2.041a4.675 4.675 0 0 1-2.073 4.18c-1.35.923-3.278 1.409-5.785 1.409a14.527 14.527 0 0 1-4.098-.437c-.771-.195-1.495-.438-2.218-.68l.868-4.277c.868.34 1.784.632 2.7.826.964.049 1.88.146 2.844.146m-26.563-5.346c-.048-1.458.24-2.915.723-4.276.434-1.166 1.109-2.187 1.977-3.11.82-.826 1.735-1.458 2.796-1.847a8.553 8.553 0 0 1 3.278-.632c2.603 0 4.676.827 6.17 2.43 1.495 1.604 2.267 3.985 2.267 7.095 0 .292 0 .632-.049 1.02 0 .39-.048.68-.048.972h-11.763c.096 1.021.627 1.993 1.495 2.576a6.186 6.186 0 0 0 3.567.972c.916 0 1.88-.097 2.796-.243a9.489 9.489 0 0 0 2.266-.729l.723 4.276c-.337.195-.723.292-1.109.438-.53.146-1.06.291-1.59.34-.58.097-1.158.194-1.833.292-.626.048-1.301.097-1.976.097a11.027 11.027 0 0 1-4.339-.73 8.486 8.486 0 0 1-3.037-1.992c-.82-.874-1.398-1.943-1.784-3.061-.337-1.312-.53-2.624-.53-3.888m12.197-1.992c0-.438-.097-.875-.241-1.312-.097-.438-.338-.778-.579-1.118a3.305 3.305 0 0 0-1.012-.826 3.209 3.209 0 0 0-1.495-.34c-.53 0-1.012.097-1.494.34-.386.194-.771.437-1.06.777-.29.34-.531.73-.676 1.167a6.407 6.407 0 0 0-.289 1.312h6.846M192.54 11.179l5.207-.826v5.443h6.267v4.373h-6.267v6.512c-.048.923.145 1.847.579 2.624.385.632 1.157.972 2.362.972.578 0 1.157-.048 1.687-.146a9.041 9.041 0 0 0 1.64-.437l.722 4.082c-.674.292-1.398.486-2.12.68a13.78 13.78 0 0 1-2.845.292 8.659 8.659 0 0 1-3.52-.583 5.691 5.691 0 0 1-2.217-1.604c-.579-.729-.964-1.604-1.205-2.527a12.415 12.415 0 0 1-.29-3.256V11.18m-21.067 14.044c-.048-1.458.241-2.915.723-4.276.434-1.166 1.109-2.187 1.977-3.11.82-.826 1.735-1.458 2.796-1.847a8.553 8.553 0 0 1 3.278-.632c2.603 0 4.676.827 6.17 2.43 1.495 1.604 2.267 3.985 2.267 7.095 0 .292 0 .632-.049 1.02-.048.39-.048.68-.048.972h-11.811c.096 1.021.627 1.993 1.494 2.576a6.186 6.186 0 0 0 3.568.972c.916 0 1.88-.097 2.796-.243a10.614 10.614 0 0 0 2.314-.729l.723 4.276c-.337.195-.723.292-1.109.438-.53.146-1.06.291-1.59.34-.579.097-1.157.194-1.832.292-.627.048-1.302.097-1.977.097a11.027 11.027 0 0 1-4.339-.73 8.486 8.486 0 0 1-3.037-1.992c-.82-.874-1.398-1.943-1.784-3.061-.385-1.312-.578-2.624-.53-3.888m12.197-1.992c0-.438-.096-.875-.241-1.312-.097-.438-.338-.778-.579-1.118a3.305 3.305 0 0 0-1.012-.826 3.209 3.209 0 0 0-1.495-.34c-.53 0-1.012.097-1.494.34a3.148 3.148 0 0 0-1.012.777c-.29.34-.53.73-.675 1.167a6.408 6.408 0 0 0-.29 1.312h6.798m-31.963-6.804a38.862 38.862 0 0 1 3.423-.728c1.446-.243 2.94-.34 4.387-.34 1.302-.05 2.603.194 3.857.631.964.34 1.832.923 2.458 1.701.627.777 1.061 1.7 1.302 2.673.29 1.117.386 2.284.386 3.45v10.448h-5.159v-9.768c0-1.7-.24-2.867-.675-3.596-.433-.68-1.253-1.069-2.458-1.069-.386 0-.772 0-1.205.049-.434 0-.772.048-1.11.097v14.287h-5.206V16.427m-3.664 4.034c-.482-.097-1.012-.243-1.639-.34a9.53 9.53 0 0 0-2.025-.195c-.385 0-.771.049-1.205.098-.337.048-.675.097-1.012.194v14.141h-5.207V16.768c1.06-.39 2.17-.68 3.278-.924a15.75 15.75 0 0 1 4.243-.437c.337 0 .675.049 1.012.049.386 0 .771.048 1.205.145.386.049.772.098 1.206.195.337.048.674.146 1.012.291l-.868 4.374m-32.348 4.762c-.049-1.458.24-2.915.723-4.276.434-1.166 1.109-2.187 1.976-3.11.82-.826 1.736-1.458 2.797-1.847a8.553 8.553 0 0 1 3.278-.632c2.603 0 4.676.827 6.17 2.43 1.495 1.604 2.266 3.985 2.266 7.046 0 .292 0 .632-.048 1.021-.048.389-.048.68-.048.972h-11.811c.096 1.02.626 1.992 1.494 2.575a6.186 6.186 0 0 0 3.568.972c.916 0 1.88-.097 2.796-.243a12.183 12.183 0 0 0 2.266-.68l.723 4.276c-.338.195-.723.292-1.109.438-.53.146-1.06.291-1.59.34-.58.097-1.158.194-1.833.292-.627.048-1.302.097-1.976.097a11.027 11.027 0 0 1-4.34-.73 8.486 8.486 0 0 1-3.037-1.992c-.82-.874-1.398-1.943-1.783-3.061-.29-1.312-.482-2.576-.482-3.888m12.245-1.992c0-.438-.097-.875-.241-1.312-.097-.438-.338-.778-.579-1.118a3.305 3.305 0 0 0-1.012-.826 3.209 3.209 0 0 0-1.495-.34c-.53 0-1.012.097-1.494.34-.386.194-.771.437-1.06.777-.29.34-.531.73-.676 1.167a6.407 6.407 0 0 0-.289 1.312h6.846m-20.682 1.7c0-3.401-1.253-5.053-3.712-5.053-.53 0-1.06.048-1.591.194a4.074 4.074 0 0 0-1.253.535v9.524c.24.049.578.098.964.146.385.049.82.049 1.301.049a3.668 3.668 0 0 0 3.23-1.458 7.007 7.007 0 0 0 1.061-3.936m5.303.194c0 1.36-.193 2.721-.675 4.033a8.225 8.225 0 0 1-1.832 3.062 8.736 8.736 0 0 1-2.989 1.992c-1.301.486-2.651.68-4.05.68-.626 0-1.301-.048-1.976-.096-.675-.05-1.35-.146-2.025-.195a25.457 25.457 0 0 1-1.88-.34c-.627-.097-1.157-.243-1.59-.437V7.826L100.75 7v9.233a11.509 11.509 0 0 1 1.832-.583 9.53 9.53 0 0 1 2.024-.194c1.206 0 2.363.194 3.472.729a7.014 7.014 0 0 1 2.506 1.943c.724.924 1.254 1.944 1.543 3.062.29 1.215.434 2.575.434 3.936m-21.983 8.553a26.668 26.668 0 0 1-3.423.68c-1.447.243-2.941.34-4.387.34-1.35.049-2.652-.194-3.905-.631a6.356 6.356 0 0 1-2.459-1.75 7.313 7.313 0 0 1-1.302-2.77c-.289-1.117-.385-2.332-.385-3.499V15.796h5.206v9.67c0 1.701.241 2.916.675 3.645.434.729 1.254 1.118 2.459 1.118.386 0 .771 0 1.205-.049.434-.049.771-.049 1.109-.146V15.796h5.207v17.883M60.207 22.502c.53-.583 1.012-1.166 1.59-1.75.53-.631 1.061-1.214 1.591-1.798.53-.631 1.013-1.166 1.447-1.7.434-.535.867-1.02 1.205-1.41h6.17c-1.253 1.41-2.458 2.819-3.615 4.13-1.205 1.313-2.459 2.674-3.857 4.034.772.73 1.495 1.458 2.17 2.284.723.875 1.446 1.75 2.17 2.722.674.923 1.349 1.895 1.928 2.818a29.98 29.98 0 0 1 1.446 2.576h-5.978c-.386-.632-.82-1.264-1.302-1.993-.482-.729-1.012-1.458-1.494-2.235a23.984 23.984 0 0 0-1.736-2.138 11.5 11.5 0 0 0-1.735-1.701v8.115H55V7.826L60.207 7v15.502"/>
    </g>
</svg>
