<svg xmlns="http://www.w3.org/2000/svg" width="138" height="88" viewBox="0 0 138 88">
    <g fill="none">
        <path fill="#326DE6" d="M21.506 5.065c-.134-.431-.458-.781-.862-.997L12.424.135C12.208.027 11.966 0 11.75 0c-.216 0-.458 0-.674.054l-8.22 3.96c-.404.189-.7.539-.808.997L.026 13.874c-.08.458.027.916.297 1.294l5.686 7.031c.324.323.782.539 1.24.566h9.056c.485.054.943-.162 1.24-.566l5.686-7.031c.27-.378.378-.836.324-1.294l-2.049-8.81z" transform="translate(1.784 32.703)"/>
        <path fill="#FFF" d="M20.24 13.524c-.027 0-.054 0-.054-.027s-.054-.027-.108-.027c-.108-.027-.216-.027-.323-.027-.054 0-.108 0-.162-.027h-.027c-.297-.026-.62-.08-.916-.161-.081-.027-.162-.108-.19-.189.028 0 0 0 0 0l-.215-.054c.108-.78.054-1.59-.107-2.37-.19-.782-.513-1.536-.944-2.21l.162-.161v-.027c0-.081.027-.189.08-.243.243-.215.486-.377.755-.538l.162-.081c.108-.054.189-.108.297-.162.027-.027.053-.027.08-.054.027-.027 0-.027 0-.054.243-.188.297-.512.108-.754-.08-.108-.242-.189-.377-.189s-.27.054-.377.135l-.027.027c-.027.027-.054.054-.081.054-.081.08-.162.162-.216.242-.027.054-.08.081-.108.108-.188.216-.43.431-.673.593-.054.027-.108.054-.162.054-.027 0-.081 0-.108-.027h-.027l-.215.135c-.216-.216-.459-.432-.674-.647-.997-.781-2.237-1.266-3.504-1.401l-.027-.216v.027c-.08-.053-.108-.134-.135-.215 0-.296 0-.593.054-.916v-.027c0-.054.027-.108.027-.162.027-.107.027-.215.054-.323v-.162c.027-.269-.189-.538-.458-.565-.162-.027-.323.054-.458.188-.108.108-.162.243-.162.377v.135c0 .108.027.216.054.323.027.054.027.108.027.162v.027c.054.296.054.593.054.916-.027.08-.054.162-.135.215v.054l-.027.216c-.296.027-.593.08-.916.135-1.267.269-2.426.943-3.315 1.885l-.162-.107h-.027c-.027 0-.054.027-.108.027s-.107-.027-.161-.054c-.243-.189-.486-.404-.674-.62-.027-.054-.081-.08-.108-.108-.08-.08-.135-.161-.216-.242-.027-.027-.053-.027-.08-.054l-.027-.027c-.108-.08-.243-.135-.378-.135-.161 0-.296.054-.377.189-.162.242-.108.566.108.754.027 0 .027.027.027.027s.054.054.08.054c.081.054.19.108.297.162l.162.08c.27.162.539.324.754.54.054.053.108.161.081.242v-.027l.162.162c-.027.053-.054.08-.08.134-.836 1.32-1.187 2.883-.944 4.419l-.216.053c0 .027-.027.027-.027.027-.027.081-.108.135-.188.189-.297.08-.593.135-.917.162-.054 0-.108 0-.161.027-.108 0-.216.026-.324.026-.027 0-.054.027-.108.027-.027 0-.027 0-.054.027-.296.054-.485.324-.43.62.053.242.296.404.538.377.054 0 .081 0 .135-.027.027 0 .027 0 .027-.027s.08 0 .108 0c.108-.027.215-.08.296-.107.054-.027.108-.054.162-.054h.027c.296-.108.566-.189.89-.243h.026c.081 0 .162.027.216.081.027 0 .027.027.027.027l.242-.027c.405 1.24 1.16 2.344 2.21 3.152.243.189.458.35.728.485l-.135.189c0 .027.027.027.027.027.054.08.054.188.027.269-.108.27-.27.539-.431.781v.027c-.027.054-.054.081-.108.135-.054.054-.108.161-.189.27-.026.026-.026.053-.053.08 0 0 0 .027-.027.027-.135.27-.027.593.215.727.054.027.135.054.189.054.215 0 .404-.134.512-.323 0 0 0-.027.027-.027 0-.027.027-.054.054-.08.027-.109.08-.19.108-.297l.054-.162c.08-.296.215-.566.35-.835.054-.08.135-.135.215-.162.027 0 .027 0 .027-.026l.108-.216c.755.296 1.536.431 2.345.431.485 0 .97-.054 1.455-.189.297-.053.593-.161.863-.242l.108.189c.027 0 .027 0 .027.027.08.026.161.08.215.161.135.27.27.539.35.835v.027l.054.162c.027.108.054.215.108.296.027.027.027.054.054.081 0 0 0 .027.027.027.108.189.297.323.512.323.081 0 .135-.027.216-.054.108-.053.215-.161.242-.296.027-.135.027-.27-.027-.404 0-.027-.027-.027-.027-.027 0-.027-.026-.054-.053-.08-.054-.109-.108-.19-.19-.27-.026-.054-.053-.081-.107-.135v-.054c-.189-.242-.323-.512-.431-.781-.027-.08-.027-.189.027-.27 0-.026.027-.026.027-.026l-.081-.216c1.374-.835 2.426-2.128 2.91-3.664l.216.027c.027 0 .027-.027.027-.027.054-.054.135-.08.216-.08h.027c.296.053.593.134.862.242h.027c.054.027.108.054.162.054.108.054.189.107.296.134.027 0 .054.027.108.027.027 0 .027 0 .054.027.054.027.08.027.135.027.242 0 .458-.161.539-.377-.027-.296-.243-.512-.485-.566zm-7.79-.835l-.727.35-.728-.35-.188-.781.512-.647h.808l.512.647-.188.781zm4.394-1.751c.135.566.162 1.131.108 1.697l-2.56-.727c-.243-.054-.378-.297-.324-.539.027-.08.054-.135.108-.189l2.021-1.832c.296.485.512 1.024.647 1.59zm-1.456-2.586l-2.21 1.562c-.188.108-.458.081-.592-.108-.054-.053-.081-.107-.081-.188l-.162-2.721c1.186.135 2.237.646 3.045 1.455zM10.51 6.978l.54-.108-.135 2.694c0 .242-.216.431-.459.431-.08 0-.134-.027-.215-.054l-2.237-1.59c.7-.673 1.563-1.158 2.506-1.373zm-3.288 2.37l1.995 1.779c.188.161.215.43.054.62-.054.08-.108.107-.216.134l-2.614.754c-.081-1.131.188-2.29.781-3.287zm-.458 4.553l2.668-.458c.216 0 .431.135.458.35.027.081.027.19-.027.27L8.84 16.542c-.943-.62-1.698-1.563-2.075-2.64zm6.118 3.341c-.377.08-.755.135-1.159.135-.566 0-1.159-.108-1.698-.27l1.32-2.397c.136-.162.351-.216.54-.108.08.054.135.108.215.188l1.294 2.344c-.162.027-.323.054-.512.108zm3.288-2.344c-.404.647-.97 1.213-1.617 1.617l-1.051-2.533c-.054-.215.054-.43.242-.512.081-.027.162-.054.243-.054l2.695.458c-.135.378-.296.728-.512 1.024z" transform="translate(1.784 32.703)"/>
        <path fill="#000" d="M130.578 16.838c.378.027.782-.027 1.132-.162.216-.107.35-.35.324-.592-.027-.27-.19-.512-.432-.593-.404-.243-.862-.458-1.32-.593-.458-.161-.863-.35-1.24-.539-.35-.161-.647-.377-.943-.646-.27-.27-.458-.566-.593-.916-.162-.404-.216-.835-.216-1.266-.027-.89.377-1.752 1.078-2.29.728-.566 1.698-.835 2.938-.835.593 0 1.213.053 1.806.188.458.08.916.189 1.374.35l-.512 2.29c-.377-.134-.728-.215-1.105-.323-.431-.108-.89-.135-1.32-.135-.917 0-1.375.243-1.375.755 0 .107.027.215.054.323.054.108.135.188.242.27.108.08.27.161.459.269.188.107.458.215.781.323.54.189 1.078.431 1.563.7.378.19.701.432.97.755.243.242.405.539.513.889.107.377.161.754.161 1.131.054.916-.377 1.805-1.159 2.317-.754.512-1.832.782-3.234.782-.781.026-1.536-.054-2.29-.243-.432-.108-.836-.242-1.24-.377l.485-2.37c.485.188.997.35 1.51.457.538.027 1.05.08 1.59.08m-14.85-2.963c-.028-.808.134-1.616.403-2.37.243-.647.62-1.213 1.105-1.725.459-.458.97-.808 1.564-1.023.592-.243 1.212-.35 1.832-.35 1.456 0 2.614.457 3.45 1.347.835.889 1.267 2.209 1.267 3.933 0 .162 0 .35-.027.566 0 .215-.027.377-.027.538h-6.576c.054.566.35 1.105.835 1.428.593.377 1.294.566 1.995.54.512 0 1.05-.055 1.563-.136.43-.08.862-.215 1.266-.404l.405 2.371c-.189.108-.405.162-.62.243-.297.08-.593.161-.89.188-.323.054-.646.108-1.024.162-.35.027-.727.054-1.105.054-.835.027-1.644-.108-2.425-.404-.647-.243-1.213-.62-1.698-1.105-.458-.485-.782-1.078-.997-1.697-.19-.728-.297-1.455-.297-2.156m6.819-1.104c0-.243-.054-.485-.135-.728-.054-.242-.189-.43-.323-.62-.162-.188-.35-.35-.566-.457-.27-.135-.54-.189-.836-.189-.296 0-.566.054-.835.189-.216.108-.432.242-.593.43-.162.19-.297.405-.378.647-.08.243-.134.485-.161.728h3.827M107.83 6.089l2.911-.458v3.017h3.504v2.425h-3.504v3.61c-.027.512.08 1.023.323 1.454.216.35.647.54 1.321.54.324 0 .647-.028.943-.082.324-.053.62-.134.917-.242l.404 2.263c-.377.162-.782.27-1.186.377-.512.108-1.05.162-1.59.162-.674.027-1.348-.081-1.967-.323-.486-.189-.917-.512-1.24-.89-.324-.404-.54-.889-.674-1.4-.135-.593-.189-1.213-.162-1.805V6.089m-11.777 7.785c-.027-.808.134-1.616.404-2.37.242-.647.62-1.213 1.105-1.725.458-.458.97-.808 1.563-1.023.593-.243 1.213-.35 1.833-.35 1.455 0 2.614.457 3.45 1.347.835.889 1.266 2.209 1.266 3.933 0 .162 0 .35-.027.566-.027.215-.027.377-.027.538h-6.603c.054.566.35 1.105.836 1.428.593.377 1.293.566 1.994.54.512 0 1.051-.055 1.563-.136.432-.08.863-.215 1.294-.404l.404 2.371c-.188.108-.404.162-.62.243-.296.08-.593.161-.889.188-.323.054-.647.108-1.024.162-.35.027-.728.054-1.105.054-.836.027-1.644-.108-2.426-.404-.647-.243-1.213-.62-1.698-1.105-.458-.485-.781-1.078-.997-1.697-.216-.728-.323-1.455-.296-2.156m6.818-1.104c0-.243-.054-.485-.134-.728-.054-.242-.19-.43-.324-.62-.162-.188-.35-.35-.566-.457-.27-.135-.539-.189-.835-.189-.297 0-.566.054-.836.189-.215.108-.404.242-.566.43-.162.19-.296.405-.377.647-.081.243-.135.485-.162.728h3.8M85.004 8.998c.62-.161 1.266-.296 1.913-.404.809-.135 1.644-.188 2.453-.188.727-.027 1.455.107 2.156.35.539.188 1.024.512 1.374.943.35.43.593.943.728 1.481.162.62.216 1.267.216 1.913v5.792H90.96V13.47c0-.943-.135-1.59-.377-1.993-.243-.377-.701-.593-1.375-.593-.216 0-.431 0-.674.027-.242 0-.431.027-.62.054v7.92h-2.91V8.998m-2.049 2.236c-.27-.054-.566-.134-.916-.188-.377-.081-.755-.108-1.132-.108-.216 0-.431.027-.674.054-.188.027-.377.054-.566.108v7.84h-2.91V9.186c.592-.216 1.212-.377 1.832-.512.782-.189 1.59-.27 2.372-.243.189 0 .377.027.566.027.216 0 .431.027.674.081.215.027.43.054.673.108.19.027.378.08.566.162l-.485 2.424m-18.084 2.64c-.027-.808.135-1.616.404-2.37.243-.647.62-1.213 1.105-1.725.458-.458.97-.808 1.563-1.023.593-.243 1.213-.35 1.833-.35 1.456 0 2.614.457 3.45 1.347.835.889 1.267 2.209 1.267 3.906 0 .162 0 .35-.027.566-.027.215-.027.377-.027.539h-6.603c.054.565.35 1.104.835 1.427.593.378 1.294.566 1.995.54.512 0 1.05-.055 1.563-.136.43-.08.862-.215 1.266-.377l.405 2.371c-.189.108-.405.162-.62.243-.297.08-.593.161-.89.188-.323.054-.646.108-1.024.162-.35.027-.727.054-1.105.054-.835.027-1.644-.108-2.425-.404-.647-.243-1.213-.62-1.698-1.105-.458-.485-.782-1.078-.997-1.697-.162-.728-.27-1.428-.27-2.156m6.846-1.104c0-.243-.054-.485-.135-.728-.054-.242-.189-.43-.324-.62-.161-.188-.35-.35-.566-.457-.269-.135-.539-.189-.835-.189-.296 0-.566.054-.835.189-.216.108-.432.242-.593.43-.162.19-.297.405-.378.647-.08.243-.134.485-.161.728h3.827m-11.562.943c0-1.886-.701-2.802-2.076-2.802-.296 0-.593.027-.89.108-.242.054-.484.161-.7.296v5.28c.135.027.324.054.54.081.215.027.457.027.727.027.7.054 1.374-.242 1.806-.808.404-.647.62-1.4.593-2.182m2.964.108c0 .754-.108 1.508-.377 2.236-.216.646-.566 1.212-1.024 1.697-.485.485-1.051.862-1.671 1.104-.728.27-1.483.378-2.264.378-.35 0-.728-.027-1.105-.054s-.755-.081-1.132-.108c-.35-.054-.7-.108-1.051-.189-.35-.053-.647-.134-.89-.242V4.23l2.911-.458V8.89c.324-.134.674-.242 1.024-.323.378-.08.755-.108 1.132-.108.674 0 1.32.108 1.94.404.54.243 1.025.62 1.402 1.078.404.512.7 1.078.863 1.697.161.674.242 1.428.242 2.183m-12.29 4.741c-.62.162-1.266.296-1.913.377-.809.135-1.644.189-2.453.189-.754.027-1.482-.108-2.183-.35-.539-.216-.997-.54-1.374-.97-.35-.458-.593-.97-.728-1.536-.162-.62-.216-1.293-.216-1.94V8.648h2.911v5.361c0 .943.135 1.617.377 2.02.243.405.701.62 1.375.62.216 0 .431 0 .674-.027.242-.027.431-.027.62-.08V8.648h2.91v9.914M33.85 12.366c.297-.324.566-.647.89-.97.296-.35.592-.674.889-.997.296-.35.566-.646.808-.943.243-.296.486-.566.674-.781h3.45c-.7.781-1.375 1.562-2.021 2.29-.674.727-1.375 1.482-2.156 2.236.43.404.835.808 1.212 1.266.405.485.809.97 1.213 1.509.377.512.755 1.05 1.078 1.562.324.512.593.997.809 1.428h-3.342c-.216-.35-.458-.7-.728-1.104-.27-.404-.566-.809-.835-1.24-.297-.404-.62-.808-.97-1.185-.297-.35-.62-.673-.97-.943v4.5h-2.912V4.23l2.911-.458v8.594" transform="translate(1.784 32.703)"/>
    </g>
</svg>
