<svg xmlns="http://www.w3.org/2000/svg" width="392" height="168" viewBox="0 0 392 168">
    <defs>
        <filter id="lndnilwpxa">
            <feColorMatrix in="SourceGraphic" values="0 0 0 0 0.000000 0 0 0 0 0.000000 0 0 0 0 0.000000 0 0 0 1.000000 0"/>
        </filter>
    </defs>
    <g fill="none" fill-rule="evenodd">
        <g>
            <g>
                <g>
                    <g>
                        <path fill="#FAFAFA" d="M0 0H392V168H0z" transform="translate(-732 -2560) translate(315 2392) translate(1 168) translate(416)"/>
                        <g filter="url(#lndnilwpxa)" transform="translate(-732 -2560) translate(315 2392) translate(1 168) translate(416) translate(76 60)">
                            <path fill="#000" fill-rule="nonzero" d="M14.168.298c.711-.397 1.58-.397 2.291 0L36.34 11.39c.277.154.602.2.911.129.434-.1.792-.15 1.076-.15 2.08 0 3.782 1.344 3.782 3.022 0 1.677-1.702 3.022-3.782 3.022-.303 0-.684-.057-1.146-.17-.314-.078-.646-.033-.928.124L7.813 33.206c-.134.074-.225.207-.244.346l-.006.076c0 .197.108.378.28.475l18.33 10.226c.387.216.86.216 1.246 0l6.791-3.789c.264-.147.357-.478.209-.74-.05-.086-.121-.157-.209-.206L25.976 35c-.775-.433-1.05-1.406-.612-2.174.144-.254.356-.464.613-.607l8.374-4.672c.105-.059.175-.162.19-.268l.005-.062c0-1.678 1.702-3.022 3.781-3.022 2.08 0 3.782 1.344 3.782 3.022 0 1.03-.643 1.936-1.621 2.48l-.1.055c-.594.308-1.302.487-2.06.487-.315 0-.71-.061-1.188-.183-.317-.08-.653-.036-.938.123L30.9 33.137c-.264.147-.358.478-.209.739.05.086.121.158.209.206l8.234 4.594c.776.433 1.05 1.406.613 2.174-.145.254-.357.464-.613.607l-11.192 6.245c-.712.397-1.58.397-2.292 0L5.793 36.622c-.278-.155-.605-.2-.916-.128-.442.104-.806.156-1.095.156C1.702 36.65 0 35.306 0 33.628c0-1.678 1.702-3.022 3.782-3.022.298 0 .673.055 1.128.165.313.075.643.03.923-.126l28.482-15.863c.124-.07.208-.192.226-.32l.005-.071c0-.208-.113-.4-.297-.502L15.936 3.67c-.386-.216-.859-.216-1.246 0L7.902 7.459c-.264.147-.357.478-.209.739.05.086.122.157.209.206L16.137 13c.776.433 1.05 1.407.613 2.175-.145.253-.357.463-.613.606l-8.371 4.672c-.11.06-.182.168-.198.278l-.005.064c0 1.678-1.702 3.022-3.781 3.022-.975 0-1.867-.295-2.54-.782l-.088-.066C.444 22.42 0 21.65 0 20.794c0-1.678 1.702-3.022 3.782-3.022.311 0 .703.06 1.177.18.317.08.652.035.937-.123l5.317-2.966c.263-.148.357-.479.208-.74-.05-.086-.121-.157-.208-.206L2.978 9.323c-.776-.433-1.05-1.407-.613-2.175.144-.254.356-.463.613-.607zm92.559 14.538c2.273 0 4.386.586 5.961 1.65 1.25.844 2.265 2.143 2.675 3.425.235.735.271 1.007.273 2.076.002.665-.016 1.113-.053 1.32-.369 2.1-1.247 3.556-2.77 4.592-1.227.833-2.767 1.32-4.781 1.513-1.014.097-2.868.088-4.07-.02-1.019-.091-2.27-.252-2.805-.36-.158-.033-.45-.086-.764-.14l-.316-.055c-.472-.08-.904-.15-.91-.144-.006.006-.079.471-.162 1.035-.133.9-.152 1.124-.155 1.842v.319c.002.46.022.595.094.876.278 1.084.893 1.809 2.007 2.369 1.096.551 2.245.79 3.981.827.769.016 1.162.005 1.643-.047 1.166-.126 1.697-.264 3.246-.843.386-.144.78-.275.875-.291.204-.035.586.037.808.152.401.207.738.76.736 1.206-.002.522-.175.838-.684 1.25-1.216.983-2.768 1.586-4.62 1.794-.661.075-2.17.086-2.898.021-2.052-.18-3.477-.537-4.779-1.196-1.016-.514-1.79-1.152-2.37-1.95l-.268-.367c-.006-.006-.1.107-.21.252-.487.638-1.231 1.324-1.959 1.805-1.05.694-2.558 1.224-4.084 1.434-.455.063-1.964.115-2.351.081-2.674-.234-4.717-1.054-6.203-2.49-1.512-1.46-2.161-3.363-1.905-5.588.295-2.56 1.492-4.368 3.59-5.423 1.617-.813 3.23-1.122 5.859-1.123 1.866 0 3.43.155 5.817.577.59.104 1.1.19 1.135.19.05 0 .09-.191.198-.954.195-1.381.23-1.858.177-2.41-.062-.644-.143-.951-.383-1.45-.619-1.287-2.089-2.075-4.448-2.384-.675-.089-2.233-.101-2.909-.023-1.133.13-1.765.296-3.175.833-.824.314-.828.315-1.157.295-.566-.034-.952-.294-1.2-.808-.101-.212-.12-.3-.12-.585 0-.429.11-.656.493-1.02.857-.815 2.3-1.51 3.756-1.808.933-.19 1.392-.23 2.62-.229 1.271.004 2.084.075 3.214.289 1.878.355 3.305.98 4.38 1.922.32.28.801.829 1.008 1.15.063.098.128.178.144.178.016 0 .12-.118.232-.262 1.629-2.11 4.372-3.304 7.587-3.303zM56.913 7.855c.535 0 .998.173 1.389.52.405.36.607.845.607 1.451v5.01h4.8c.678 0 1.235.515 1.302 1.176l.007.133c0 .678-.515 1.236-1.175 1.303l-.134.007-4.8-.001v12.772l.002.378c.008 1.112.055 2.004.14 2.677.11.764.212 1.52.495 1.917.299.414.637.718 1.014.83.33.11.775.173 1.334.187l.247.003h2.264c.824.023 1.486.698 1.486 1.527 0 .75-.54 1.374-1.253 1.503l-.135.018-.075.004v.003h-3.137l-.347-.006c-1.942-.063-3.477-.666-4.606-1.808-1.143-1.142-1.74-3.041-1.79-5.697l-.003-.367V17.454H51.49c-.678 0-1.235-.515-1.302-1.175l-.007-.134c0-.677.515-1.235 1.175-1.302l.134-.007h3.145l.346-5.01c0-.635.188-1.126.564-1.473.376-.332.832-.498 1.367-.498zm90.178-3.491c.578 0 1.077.193 1.494.58.391.347.606.812.645 1.394l.006.199V25.62l10.97-9.895c.355-.302.734-.452 1.136-.452.516 0 .967.198 1.353.594.403.397.604.84.604 1.332 0 .395-.152.758-.458 1.09l-.121.123-8.772 7.73 9.593 9.943c.355.365.532.777.532 1.237 0 .508-.21.96-.629 1.356-.402.397-.87.595-1.401.595-.501 0-.939-.176-1.313-.526l-.137-.14-11.357-11.893v10.362c0 .676-.225 1.215-.675 1.617-.434.387-.948.58-1.543.58-.594 0-1.1-.185-1.518-.556-.377-.347-.583-.825-.621-1.434l-.006-.207V6.536c0-.675.217-1.207.65-1.593.45-.386.973-.58 1.568-.58zm-8.728 10.472c.579 0 1.077.2 1.495.601.39.36.606.843.645 1.447l.006.206v19.904c0 .701-.225 1.26-.675 1.678-.434.4-.948.6-1.543.6s-1.1-.191-1.519-.575c-.376-.36-.583-.857-.62-1.487l-.007-.216V17.09c0-.701.217-1.252.651-1.653.45-.4.973-.6 1.567-.6zm31.055-10.472c.28 0 .514.105.701.317.156.176.247.392.273.648l.008.158V38.15l-.008.158c-.026.255-.117.471-.273.647-.187.212-.42.318-.7.318-.313 0-.554-.098-.725-.293-.147-.168-.231-.395-.252-.682l-.006-.148V5.487l.006-.149c.02-.287.105-.514.252-.681.17-.196.412-.293.724-.293zm-36.917 0v.003l.074.003c.779.07 1.389.724 1.389 1.52 0 .83-.662 1.506-1.486 1.528h-2.265c-.676 0-1.203.064-1.58.191-.377.112-.716.415-1.014.829-.283.398-.386 1.153-.496 1.917-.085.673-.131 1.566-.14 2.677l-.001.379v1.425h3.927c.723 0 1.31.586 1.31 1.31 0 .722-.587 1.309-1.31 1.309l-3.928-.001v19.622c0 .608-.181 1.106-.546 1.492l-.128.125c-.434.387-.948.58-1.543.58s-1.101-.185-1.519-.556c-.376-.347-.583-.825-.62-1.434l-.007-.207V17.454h-3.49c-.724 0-1.31-.586-1.31-1.309s.586-1.309 1.31-1.309h3.49V12.24c0-2.848.598-4.87 1.793-6.063 1.128-1.142 2.664-1.745 4.606-1.809l.347-.005h3.137zm52.057 10.472c5.3 0 7.998 2.795 8.094 8.383l.003.313V38.01l-.006.147c-.022.286-.109.512-.261.678-.178.195-.428.292-.752.292-.323 0-.581-.105-.775-.316-.162-.175-.256-.39-.283-.644l-.008-.157v-3.401l-.157.314c-.702 1.338-1.676 2.383-2.922 3.135-1.34.81-2.868 1.215-4.581 1.215-1.487 0-2.844-.308-4.072-.923-1.229-.616-2.206-1.45-2.933-2.502-.728-1.053-1.107-2.227-1.14-3.522-.032-1.782.404-3.158 1.31-4.13.904-.971 2.423-1.668 4.556-2.089 2.032-.4 4.84-.61 8.426-.63l.543-.001h.97v-2.04l-.004-.359c-.046-2.116-.505-3.673-1.378-4.67-.92-1.053-2.367-1.579-4.339-1.579-1.551 0-2.933.203-4.145.607-1.212.405-2.173.867-2.884 1.385-.13.097-.396.283-.8.559-.404.275-.736.413-.994.413-.226 0-.428-.09-.606-.268-.178-.178-.267-.396-.267-.655 0-.616.566-1.264 1.697-1.944 1.131-.68 2.367-1.198 3.709-1.554 1.341-.357 2.674-.535 4-.535zm13.488-10.472c.326 0 .579.097.758.292.154.167.242.393.264.68l.006.147v14.363l.148-.32c.713-1.468 1.732-2.61 3.057-3.429 1.42-.876 3.124-1.314 5.114-1.314 2.088 0 3.931.503 5.53 1.51 1.599 1.005 2.838 2.417 3.72 4.235.88 1.818 1.32 3.944 1.32 6.378 0 2.467-.44 4.633-1.32 6.5-.882 1.866-2.121 3.31-3.72 4.333-1.599 1.023-3.442 1.534-5.53 1.534-1.99 0-3.695-.438-5.114-1.315-1.325-.818-2.344-1.975-3.057-3.472l-.148-.325v3.846l-.005.144c-.043.65-.384.976-1.023.976-.326 0-.58-.098-.759-.292-.153-.167-.241-.394-.263-.68l-.006-.148V5.483l.005-.144c.042-.65.383-.975 1.023-.975zm33.629 10.472c1.2 0 2.353.162 3.456.486 1.104.324 2.078.777 2.922 1.36.616.454 1.063.85 1.338 1.19.276.34.414.689.414 1.045 0 .227-.08.43-.243.607-.162.179-.357.268-.584.268-.26 0-.682-.243-1.266-.73-.844-.647-1.729-1.181-2.654-1.602-.925-.421-2.085-.632-3.48-.632-1.818 0-3.287.43-4.407 1.288-1.12.858-1.68 1.983-1.68 3.376 0 .842.18 1.53.536 2.065.357.534.966.996 1.826 1.384.86.389 2.085.761 3.676 1.118 2.24.55 3.96 1.109 5.16 1.676 1.201.566 2.053 1.247 2.556 2.04.503.794.755 1.806.755 3.036 0 1.944-.803 3.506-2.41 4.689-1.607 1.182-3.74 1.773-6.402 1.773-1.266 0-2.532-.187-3.797-.559-1.266-.372-2.402-.883-3.408-1.53-.65-.421-1.088-.77-1.315-1.045-.227-.275-.34-.59-.34-.947 0-.227.08-.43.243-.607.162-.178.357-.268.584-.268.162 0 .381.09.657.268.276.178.463.3.56.364.941.68 1.923 1.239 2.946 1.676 1.022.437 2.312.656 3.87.656 2.11 0 3.733-.389 4.868-1.166 1.136-.777 1.704-1.879 1.704-3.304 0-.842-.202-1.538-.608-2.089-.406-.55-1.071-1.028-1.996-1.433s-2.248-.801-3.968-1.19c-2.856-.648-4.901-1.474-6.134-2.478-1.234-1.004-1.85-2.332-1.85-3.983 0-2.008.787-3.644 2.36-4.907 1.575-1.263 3.612-1.895 6.11-1.895zm-152.27 0c.544 0 .969.196 1.274.587.323.39.485.847.485 1.368 0 .489-.145.912-.434 1.27-.288.343-.705.514-1.248.514-2.294 0-3.86.57-5.134 1.71-1.232 1.117-1.887 2.602-1.912 4.453v12.256c0 .701-.225 1.26-.675 1.678-.434.4-.948.6-1.543.6-.594 0-1.1-.191-1.518-.575-.402-.385-.61-.925-.626-1.619l-.001-19.988c0-.701.217-1.252.65-1.653.45-.4.973-.6 1.568-.6.578 0 1.077.2 1.494.6.417.385.634.908.65 1.57l.001.083v3.073c.425-1.515 1.275-2.777 2.549-3.787 1.291-1.026 2.62-1.54 4.42-1.54zm111.286 12.437h-1.429c-3.16.014-5.586.15-7.281.41-1.784.275-3.033.742-3.747 1.403s-1.07 1.637-1.07 2.927c0 1.483.551 2.7 1.654 3.651 1.103.951 2.498 1.427 4.185 1.427 1.46 0 2.773-.347 3.941-1.04 1.168-.693 2.084-1.652 2.75-2.878.609-1.123.94-2.381.99-3.776l.007-.383v-1.741zm16.533-10.691c-2.634 0-4.666.893-6.096 2.68-1.43 1.785-2.146 4.302-2.146 7.55 0 3.28.715 5.813 2.146 7.6 1.43 1.786 3.479 2.679 6.145 2.679 2.6 0 4.633-.91 6.096-2.728 1.463-1.819 2.195-4.368 2.195-7.648 0-3.216-.732-5.708-2.195-7.478-1.463-1.77-3.511-2.655-6.145-2.655zM89.706 27.835c-1.624.093-2.287.239-3.262.716-.5.244-.845.51-1.118.86-.391.5-.627 1-.792 1.671-.12.489-.132 1.769-.021 2.181.187.695.41 1.088.91 1.609.685.713 1.588 1.189 2.708 1.426.573.122.556.12 1.515.106.696-.01.956-.03 1.241-.095 1.208-.275 2.285-.893 3.067-1.761.713-.792 1.298-1.979 1.62-3.286.182-.737.483-2.789.416-2.831-.026-.017-.185-.043-.354-.059-.168-.016-.648-.073-1.066-.129-2.485-.329-4.01-.457-4.864-.408zm15.154-9.843c-.885.166-1.633.47-2.293.928-1.218.849-2.06 2.128-2.528 3.845-.184.674-.233.933-.397 2.096l-.151 1.072.203.023c.612.07 1.992.242 2.794.349.504.066 1.123.138 1.375.158.729.06 2.036.054 2.75-.011 1.007-.091 1.626-.252 2.387-.62.632-.306 1-.619 1.348-1.147.512-.777.712-1.512.706-2.605-.003-.779-.067-1.103-.329-1.662-.583-1.25-1.954-2.144-3.752-2.45-.45-.076-1.653-.062-2.113.024zm33.49-13.628c.775 0 1.402.214 1.88.642.477.415.715.968.715 1.659 0 .677-.238 1.23-.716 1.658-.477.415-1.111.622-1.902.622-.79 0-1.424-.207-1.902-.622-.477-.428-.716-.98-.716-1.658 0-.677.239-1.23.716-1.659.492-.428 1.134-.642 1.925-.642z"/>
                        </g>
                    </g>
                </g>
            </g>
        </g>
    </g>
</svg>
