<svg xmlns="http://www.w3.org/2000/svg" xmlns:xlink="http://www.w3.org/1999/xlink" width="223" height="361" viewBox="0 0 223 361">
    <defs>
        <linearGradient id="prefix__b" x1="48.159%" x2="48.159%" y1="-26.886%" y2="28.763%">
            <stop offset="0%" stop-color="#3D6FE7"/>
            <stop offset="100%" stop-color="#EBCFEF"/>
        </linearGradient>
        <linearGradient id="prefix__g" x1="56.058%" x2="46.615%" y1="48.952%" y2="51.385%">
            <stop offset="0%" stop-color="#3353A1"/>
            <stop offset="100%" stop-color="#12327F"/>
        </linearGradient>
        <linearGradient id="prefix__j" x1="58.904%" x2="45.069%" y1="49.039%" y2="49.705%">
            <stop offset="0%" stop-color="#FFF" stop-opacity=".104"/>
            <stop offset="100%" stop-color="#FFF" stop-opacity="0"/>
        </linearGradient>
        <linearGradient id="prefix__k" x1="60.526%" x2="49.226%" y1="47.814%" y2="51.486%">
            <stop offset="0%" stop-color="#3F6CDA"/>
            <stop offset="100%" stop-color="#1843AA"/>
        </linearGradient>
        <linearGradient id="prefix__n" x1="58.904%" x2="45.069%" y1="48.435%" y2="49.52%">
            <stop offset="0%" stop-color="#FFF" stop-opacity=".104"/>
            <stop offset="100%" stop-color="#FFF" stop-opacity="0"/>
        </linearGradient>
        <linearGradient id="prefix__o" x1="57.372%" x2="45.299%" y1="11.608%" y2="53.593%">
            <stop offset="0%" stop-color="#5BC0DA"/>
            <stop offset="72.24%" stop-color="#2EA5C4"/>
            <stop offset="100%" stop-color="#24A1C1"/>
        </linearGradient>
        <linearGradient id="prefix__r" x1="58.839%" x2="46.831%" y1="-21.418%" y2="29.924%">
            <stop offset="0%" stop-color="#54C9D5"/>
            <stop offset="100%" stop-color="#2A98AA"/>
        </linearGradient>
        <linearGradient id="prefix__u" x1="66.306%" x2="46.502%" y1="4.272%" y2="57.742%">
            <stop offset="0%" stop-color="#FADE38"/>
            <stop offset="100%" stop-color="#F3BA1A"/>
        </linearGradient>
        <linearGradient id="prefix__x" x1="63.131%" x2="47.183%" y1="4.272%" y2="57.742%">
            <stop offset="0%" stop-color="#FADE38"/>
            <stop offset="100%" stop-color="#F3BA1A"/>
        </linearGradient>
        <linearGradient id="prefix__y" x1="58.754%" x2="50%" y1="34.378%" y2="59.65%">
            <stop offset="0%" stop-color="#C36BC7"/>
            <stop offset="100%" stop-color="#903995"/>
        </linearGradient>
        <linearGradient id="prefix__z" x1="42.213%" x2="42.213%" y1="71.506%" y2="29.781%">
            <stop offset="0%" stop-color="#B39879"/>
            <stop offset="100%" stop-color="#827260"/>
        </linearGradient>
        <linearGradient id="prefix__C" x1="50%" x2="50%" y1="22.486%" y2="77.203%">
            <stop offset="0%" stop-color="#FFF" stop-opacity="0"/>
            <stop offset="100%" stop-color="#FFF" stop-opacity=".151"/>
        </linearGradient>
        <linearGradient id="prefix__D" x1="50%" x2="50%" y1="9.317%" y2="83.69%">
            <stop offset="0%" stop-color="#5A666A"/>
            <stop offset="100%" stop-color="#284148"/>
        </linearGradient>
        <linearGradient id="prefix__E" x1="55.061%" x2="50%" y1="49.659%" y2="50.408%">
            <stop offset="0%" stop-color="#5181F2"/>
            <stop offset="100%" stop-color="#1E54D5"/>
        </linearGradient>
        <linearGradient id="prefix__H" x1="58.904%" x2="45.069%" y1="49.626%" y2="49.885%">
            <stop offset="0%" stop-color="#FFF" stop-opacity=".104"/>
            <stop offset="100%" stop-color="#FFF" stop-opacity="0"/>
        </linearGradient>
        <linearGradient id="prefix__L" x1="45.953%" x2="54.959%" y1="49.513%" y2="50.806%">
            <stop offset="0%" stop-color="#6F95F2"/>
            <stop offset="100%" stop-color="#456FD5"/>
        </linearGradient>
        <linearGradient id="prefix__O" x1="58.904%" x2="45.069%" y1="49.071%" y2="49.715%">
            <stop offset="0%" stop-color="#FFF" stop-opacity=".104"/>
            <stop offset="100%" stop-color="#FFF" stop-opacity="0"/>
        </linearGradient>
        <linearGradient id="prefix__S" x1="55.419%" x2="50%" y1="49.641%" y2="50.359%">
            <stop offset="0%" stop-color="#9FBAFB"/>
            <stop offset="100%" stop-color="#7898E5"/>
        </linearGradient>
        <linearGradient id="prefix__V" x1="58.904%" x2="45.069%" y1="49.671%" y2="49.899%">
            <stop offset="0%" stop-color="#FFF" stop-opacity=".104"/>
            <stop offset="100%" stop-color="#FFF" stop-opacity="0"/>
        </linearGradient>
        <linearGradient id="prefix__Z" x1="41.519%" x2="48.363%" y1="49.315%" y2="50.531%">
            <stop offset="0%" stop-color="#5181F2"/>
            <stop offset="100%" stop-color="#1E54D5"/>
        </linearGradient>
        <linearGradient id="prefix__ac" x1="58.904%" x2="45.069%" y1="49.513%" y2="49.851%">
            <stop offset="0%" stop-color="#FFF" stop-opacity=".104"/>
            <stop offset="100%" stop-color="#FFF" stop-opacity="0"/>
        </linearGradient>
        <linearGradient id="prefix__ag" x1="46.657%" x2="50%" y1="48.72%" y2="51.55%">
            <stop offset="0%" stop-color="#3F6CDA"/>
            <stop offset="100%" stop-color="#1843AA"/>
        </linearGradient>
        <linearGradient id="prefix__aj" x1="58.904%" x2="45.069%" y1="48.579%" y2="49.564%">
            <stop offset="0%" stop-color="#FFF" stop-opacity=".104"/>
            <stop offset="100%" stop-color="#FFF" stop-opacity="0"/>
        </linearGradient>
        <filter id="prefix__e" width="100%" height="100%" x="0%" y="0%" filterUnits="objectBoundingBox">
            <feGaussianBlur in="SourceGraphic"/>
        </filter>
        <filter id="prefix__f" width="211.5%" height="190.5%" x="-55.8%" y="-45.2%" filterUnits="objectBoundingBox">
            <feGaussianBlur in="SourceGraphic" stdDeviation="27.325"/>
        </filter>
        <filter id="prefix__i" width="101.6%" height="110.9%" x="-.8%" y="-5.5%" filterUnits="objectBoundingBox">
            <feGaussianBlur in="SourceAlpha" result="shadowBlurInner1" stdDeviation="3.5"/>
            <feOffset dy="7" in="shadowBlurInner1" result="shadowOffsetInner1"/>
            <feComposite in="shadowOffsetInner1" in2="SourceAlpha" k2="-1" k3="1" operator="arithmetic" result="shadowInnerInner1"/>
            <feColorMatrix in="shadowInnerInner1" values="0 0 0 0 1 0 0 0 0 1 0 0 0 0 1 0 0 0 0.088833042 0"/>
        </filter>
        <filter id="prefix__m" width="101.6%" height="108.8%" x="-.8%" y="-4.4%" filterUnits="objectBoundingBox">
            <feGaussianBlur in="SourceAlpha" result="shadowBlurInner1" stdDeviation="3.5"/>
            <feOffset dy="7" in="shadowBlurInner1" result="shadowOffsetInner1"/>
            <feComposite in="shadowOffsetInner1" in2="SourceAlpha" k2="-1" k3="1" operator="arithmetic" result="shadowInnerInner1"/>
            <feColorMatrix in="shadowInnerInner1" values="0 0 0 0 1 0 0 0 0 1 0 0 0 0 1 0 0 0 0.088833042 0"/>
        </filter>
        <filter id="prefix__q" width="106.3%" height="104.3%" x="-3.2%" y="-2.2%" filterUnits="objectBoundingBox">
            <feGaussianBlur in="SourceAlpha" result="shadowBlurInner1" stdDeviation="3.5"/>
            <feOffset dy="2" in="shadowBlurInner1" result="shadowOffsetInner1"/>
            <feComposite in="shadowOffsetInner1" in2="SourceAlpha" k2="-1" k3="1" operator="arithmetic" result="shadowInnerInner1"/>
            <feColorMatrix in="shadowInnerInner1" values="0 0 0 0 0.654901961 0 0 0 0 0.850980392 0 0 0 0 0.901960784 0 0 0 1 0"/>
        </filter>
        <filter id="prefix__s" width="125.6%" height="119%" x="-12.8%" y="-9.5%" filterUnits="objectBoundingBox">
            <feOffset in="SourceAlpha" result="shadowOffsetOuter1"/>
            <feGaussianBlur in="shadowOffsetOuter1" result="shadowBlurOuter1" stdDeviation="3.5"/>
            <feColorMatrix in="shadowBlurOuter1" values="0 0 0 0 0 0 0 0 0 0 0 0 0 0 0 0 0 0 0.204955201 0"/>
        </filter>
        <filter id="prefix__v" width="138%" height="125.4%" x="-28.5%" y="-12.7%" filterUnits="objectBoundingBox">
            <feOffset dx="-7" in="SourceAlpha" result="shadowOffsetOuter1"/>
            <feGaussianBlur in="shadowOffsetOuter1" result="shadowBlurOuter1" stdDeviation="3.5"/>
            <feColorMatrix in="shadowBlurOuter1" values="0 0 0 0 0 0 0 0 0 0 0 0 0 0 0 0 0 0 0.204955201 0"/>
        </filter>
        <filter id="prefix__B" width="100.7%" height="107.8%" x="-.4%" y="-3.9%" filterUnits="objectBoundingBox">
            <feGaussianBlur in="SourceAlpha" result="shadowBlurInner1" stdDeviation="1"/>
            <feOffset dy="1" in="shadowBlurInner1" result="shadowOffsetInner1"/>
            <feComposite in="shadowOffsetInner1" in2="SourceAlpha" k2="-1" k3="1" operator="arithmetic" result="shadowInnerInner1"/>
            <feColorMatrix in="shadowInnerInner1" values="0 0 0 0 1 0 0 0 0 1 0 0 0 0 1 0 0 0 0.229376093 0"/>
        </filter>
        <filter id="prefix__G" width="101.6%" height="117.9%" x="-.8%" y="-9%" filterUnits="objectBoundingBox">
            <feGaussianBlur in="SourceAlpha" result="shadowBlurInner1" stdDeviation="3.5"/>
            <feOffset dy="7" in="shadowBlurInner1" result="shadowOffsetInner1"/>
            <feComposite in="shadowOffsetInner1" in2="SourceAlpha" k2="-1" k3="1" operator="arithmetic" result="shadowInnerInner1"/>
            <feColorMatrix in="shadowInnerInner1" values="0 0 0 0 1 0 0 0 0 1 0 0 0 0 1 0 0 0 0.088833042 0"/>
        </filter>
        <filter id="prefix__I" width="104.2%" height="146.2%" x="-2.1%" y="-23.1%" filterUnits="objectBoundingBox">
            <feGaussianBlur in="SourceGraphic" stdDeviation="6"/>
        </filter>
        <filter id="prefix__J" width="104.6%" height="151.3%" x="-2.3%" y="-25.6%" filterUnits="objectBoundingBox">
            <feOffset dx="-4" dy="4" in="SourceAlpha" result="shadowOffsetInner1"/>
            <feComposite in="shadowOffsetInner1" in2="SourceAlpha" k2="-1" k3="1" operator="arithmetic" result="shadowInnerInner1"/>
            <feColorMatrix in="shadowInnerInner1" values="0 0 0 0 0.694874238 0 0 0 0 0.750601698 0 0 0 0 1 0 0 0 0.726152753 0"/>
        </filter>
        <filter id="prefix__N" width="101.6%" height="111.4%" x="-.8%" y="-5.7%" filterUnits="objectBoundingBox">
            <feGaussianBlur in="SourceAlpha" result="shadowBlurInner1" stdDeviation="3.5"/>
            <feOffset dy="7" in="shadowBlurInner1" result="shadowOffsetInner1"/>
            <feComposite in="shadowOffsetInner1" in2="SourceAlpha" k2="-1" k3="1" operator="arithmetic" result="shadowInnerInner1"/>
            <feColorMatrix in="shadowInnerInner1" values="0 0 0 0 1 0 0 0 0 1 0 0 0 0 1 0 0 0 0.088833042 0"/>
        </filter>
        <filter id="prefix__P" width="104.2%" height="129.3%" x="-2.1%" y="-14.6%" filterUnits="objectBoundingBox">
            <feGaussianBlur in="SourceGraphic" stdDeviation="6"/>
        </filter>
        <filter id="prefix__Q" width="104.6%" height="132.5%" x="-2.3%" y="-16.3%" filterUnits="objectBoundingBox">
            <feOffset dx="-4" dy="4" in="SourceAlpha" result="shadowOffsetInner1"/>
            <feComposite in="shadowOffsetInner1" in2="SourceAlpha" k2="-1" k3="1" operator="arithmetic" result="shadowInnerInner1"/>
            <feColorMatrix in="shadowInnerInner1" values="0 0 0 0 0.694874238 0 0 0 0 0.750601698 0 0 0 0 1 0 0 0 0.726152753 0"/>
        </filter>
        <filter id="prefix__U" width="101.6%" height="119.1%" x="-.8%" y="-9.6%" filterUnits="objectBoundingBox">
            <feGaussianBlur in="SourceAlpha" result="shadowBlurInner1" stdDeviation="3.5"/>
            <feOffset dy="7" in="shadowBlurInner1" result="shadowOffsetInner1"/>
            <feComposite in="shadowOffsetInner1" in2="SourceAlpha" k2="-1" k3="1" operator="arithmetic" result="shadowInnerInner1"/>
            <feColorMatrix in="shadowInnerInner1" values="0 0 0 0 1 0 0 0 0 1 0 0 0 0 1 0 0 0 0.088833042 0"/>
        </filter>
        <filter id="prefix__W" width="104.2%" height="149.2%" x="-2.1%" y="-24.6%" filterUnits="objectBoundingBox">
            <feGaussianBlur in="SourceGraphic" stdDeviation="6"/>
        </filter>
        <filter id="prefix__X" width="104.6%" height="154.6%" x="-2.3%" y="-27.3%" filterUnits="objectBoundingBox">
            <feOffset dx="-4" dy="4" in="SourceAlpha" result="shadowOffsetInner1"/>
            <feComposite in="shadowOffsetInner1" in2="SourceAlpha" k2="-1" k3="1" operator="arithmetic" result="shadowInnerInner1"/>
            <feColorMatrix in="shadowInnerInner1" values="0 0 0 0 0.694874238 0 0 0 0 0.750601698 0 0 0 0 1 0 0 0 0.726152753 0"/>
        </filter>
        <filter id="prefix__ab" width="101.9%" height="117.9%" x="-.9%" y="-9%" filterUnits="objectBoundingBox">
            <feGaussianBlur in="SourceAlpha" result="shadowBlurInner1" stdDeviation="3.5"/>
            <feOffset dy="7" in="shadowBlurInner1" result="shadowOffsetInner1"/>
            <feComposite in="shadowOffsetInner1" in2="SourceAlpha" k2="-1" k3="1" operator="arithmetic" result="shadowInnerInner1"/>
            <feColorMatrix in="shadowInnerInner1" values="0 0 0 0 1 0 0 0 0 1 0 0 0 0 1 0 0 0 0.088833042 0"/>
        </filter>
        <filter id="prefix__ad" width="104.8%" height="146.2%" x="-2.4%" y="-23.1%" filterUnits="objectBoundingBox">
            <feGaussianBlur in="SourceGraphic" stdDeviation="6"/>
        </filter>
        <filter id="prefix__ae" width="105.3%" height="151.3%" x="-2.6%" y="-25.6%" filterUnits="objectBoundingBox">
            <feOffset dx="-4" dy="4" in="SourceAlpha" result="shadowOffsetInner1"/>
            <feComposite in="shadowOffsetInner1" in2="SourceAlpha" k2="-1" k3="1" operator="arithmetic" result="shadowInnerInner1"/>
            <feColorMatrix in="shadowInnerInner1" values="0 0 0 0 0.694874238 0 0 0 0 0.750601698 0 0 0 0 1 0 0 0 0.726152753 0"/>
        </filter>
        <filter id="prefix__ai" width="101.5%" height="108.8%" x="-.8%" y="-4.4%" filterUnits="objectBoundingBox">
            <feGaussianBlur in="SourceAlpha" result="shadowBlurInner1" stdDeviation="3.5"/>
            <feOffset dy="7" in="shadowBlurInner1" result="shadowOffsetInner1"/>
            <feComposite in="shadowOffsetInner1" in2="SourceAlpha" k2="-1" k3="1" operator="arithmetic" result="shadowInnerInner1"/>
            <feColorMatrix in="shadowInnerInner1" values="0 0 0 0 1 0 0 0 0 1 0 0 0 0 1 0 0 0 0.088833042 0"/>
        </filter>
        <filter id="prefix__ak" width="104%" height="122.6%" x="-2%" y="-11.3%" filterUnits="objectBoundingBox">
            <feGaussianBlur in="SourceGraphic" stdDeviation="6"/>
        </filter>
        <filter id="prefix__al" width="104.4%" height="125.1%" x="-2.2%" y="-12.5%" filterUnits="objectBoundingBox">
            <feOffset dx="-4" dy="4" in="SourceAlpha" result="shadowOffsetInner1"/>
            <feComposite in="shadowOffsetInner1" in2="SourceAlpha" k2="-1" k3="1" operator="arithmetic" result="shadowInnerInner1"/>
            <feColorMatrix in="shadowInnerInner1" values="0 0 0 0 0.694874238 0 0 0 0 0.750601698 0 0 0 0 1 0 0 0 0.726152753 0"/>
        </filter>
        <path id="prefix__a" d="M0 0H223V361H0z"/>
        <path id="prefix__h" d="M0 128.413l18.475-5.468c18.475-5.263 55.425-16.505 92.375-40.88 36.95-24.68 73.9-62.494 110.85-57.23 36.95 5.467 73.9 54.523 110.85 65.407 36.95 11.088 73.9-16.505 110.85-38.12 36.95-21.82 73.9-38.172 110.85-35.463 36.95 2.912 73.9 24.374 110.85 43.638 36.95 19.06 73.9 35.412 110.85 46.297 36.95 11.088 73.9 16.198 92.375 19.11l18.475 2.709v16.352H0v-16.352z"/>
        <path id="prefix__l" d="M130.8 137.654h18c18 0 54 0 90-18.311 36-18.037 72-55.071 108-58.5 36-3.43 72 25.375 108 29.284 36 3.635 72-18.311 108-18.311s72 21.946 108 7.338c36-14.882 72-65.633 108-76.812 36-10.767 72 18.037 108 36.554 36 18.517 72 25.376 90 29.285l18 3.635V159.6h-864v-21.946z"/>
        <path id="prefix__p" d="M298.965 36.435c-12.426-10.699-29.614-12.632-47.646-12.632-17.633 1.395-34.414 4.621-46.154 14.906-18.929-12.166-36.408 17.059-14.184 24.443-6.247 24.127.878 48.781-.113 73.366-.892 22.106-6.707 51.648 5.575 71.518 10.47 16.936 32.879 22.983 51.427 23.647 23.615.844 52.28-4.917 63.751-27.817 10.905-21.765 7.842-48.901 6.458-72.387-1.396-23.713 1.237-47.845-4.91-70.71 21.79-7.67 4.728-37.505-14.204-24.334"/>
        <path id="prefix__t" d="M259.369 110.607l-74.701-15.899s1.381 14.956 1.421 22.506l-3.728.073c-1.44 0-2.607 1.165-2.607 2.605v22.793c0 2.088 1.316 3.948 3.284 4.645l3.132.842c-2.089 8.965-3.473 41.398-3.473 41.398s2.42 4.78 9.978 9.084c7.558 4.305 19.71 6.723 30.234 6.245 10.522-.477 27.502-2.728 29.38-3.973 1.878-1.246 4.998-5.186 6.171-8.233 1.174-3.05 3.624-40.11 3.454-54.473-.17-14.362-2.545-27.613-2.545-27.613z"/>
        <path id="prefix__w" d="M327.167 144.257v-22.793c0-1.44-1.166-2.605-2.607-2.605h-3.505c.004-.187.004-.38.002-.586-.106-7.099.104-23.565.104-23.565l-65.142 15.899s-2.406 13.251-2.578 27.613c-.173 14.362 2.309 51.424 3.496 54.47 1.188 3.047 4.345 6.988 6.25 8.233 1.902 1.246 12.59 3.499 23.243 3.974 10.655.477 22.96-1.94 30.613-6.245 7.652-4.305 10.103-9.084 10.103-9.084s-1.327-30.731-3.35-40.635l.088-.031c1.968-.697 3.283-2.558 3.283-4.645"/>
        <path id="prefix__A" d="M.173 161.271s-2.252-8.632 14.489-5.33c200.445 39.543 290.958 28.008 386.331 15.514 2.874 2.775-1.029 7.429-1.029 7.429s-64.48 17.756-153.052 14.57c0-.002-108.065 4.198-246.74-32.183"/>
        <path id="prefix__F" d="M17.4 0l16.02 1.846C49.38 3.83 81.6 7.312 113.4 12.988c31.98 5.467 64.2 13.128 96 9.298 31.98-3.83 64.2-18.456 96-12.989 31.98 5.676 64.2 31.444 96 29.703 31.98-1.741 64.2-31.688 96-29.703 31.98 1.846 64.2 35.274 96 48.263 31.98 13.127 64.2 5.467 96-5.572 31.98-11.247 64.2-25.872 96-33.428 31.98-7.417 64.2-7.417 79.8-7.417h16.2V78h-864V0z"/>
        <path id="prefix__K" d="M17.4 0l16.02 1.846C49.38 3.83 81.6 7.312 113.4 12.988c31.98 5.467 64.2 13.128 96 9.298 31.98-3.83 64.2-18.456 96-12.989 31.98 5.676 64.2 31.444 96 29.703 31.98-1.741 64.2-31.688 96-29.703 31.98 1.846 64.2 35.274 96 48.263 31.98 13.127 64.2 5.467 96-5.572 31.98-11.247 64.2-25.872 96-33.428 31.98-7.417 64.2-7.417 79.8-7.417h16.2V78h-864V0z"/>
        <path id="prefix__M" d="M0 87.857l16.02-11.696C31.98 64.246 64.2 41.183 96 32.233c31.98-8.621 64.2-3.13 96 11.696 31.98 14.825 64.2 37.888 96 49.804 31.98 11.696 64.2 11.696 96-5.876 31.98-17.571 64.2-52.714 96-52.714 31.98 0 64.2 35.143 96 29.267 31.98-5.656 64.2-52.879 96-55.624 31.98-2.746 64.2 37.888 96 43.928 31.98 6.04 64.2-23.611 79.8-38.053L864 0v123H0V87.857z"/>
        <path id="prefix__R" d="M0 87.857l16.02-11.696C31.98 64.246 64.2 41.183 96 32.233c31.98-8.621 64.2-3.13 96 11.696 31.98 14.825 64.2 37.888 96 49.804 31.98 11.696 64.2 11.696 96-5.876 31.98-17.571 64.2-52.714 96-52.714 31.98 0 64.2 35.143 96 29.267 31.98-5.656 64.2-52.879 96-55.624 31.98-2.746 64.2 37.888 96 43.928 31.98 6.04 64.2-23.611 79.8-38.053L864 0v123H0V87.857z"/>
        <path id="prefix__T" d="M6.6 125.243l18-3.117c18-3 54-9.41 90-23.305 36-14.071 72-35.628 108-32.628 36 3.117 72 31.084 108 37.289 36 6.321 72-9.41 108-21.732 36-12.44 72-21.762 108-20.218 36 1.66 72 13.896 108 24.879 36 10.866 72 20.188 108 26.393 36 6.321 72 9.234 90 10.895l18 1.544v9.322H6.6v-9.322z"/>
        <path id="prefix__Y" d="M6.6 125.243l18-3.117c18-3 54-9.41 90-23.305 36-14.071 72-35.628 108-32.628 36 3.117 72 31.084 108 37.289 36 6.321 72-9.41 108-21.732 36-12.44 72-21.762 108-20.218 36 1.66 72 13.896 108 24.879 36 10.866 72 20.188 108 26.393 36 6.321 72 9.234 90 10.895l18 1.544v9.322H6.6v-9.322z"/>
        <path id="prefix__aa" d="M17.4 87.6l14.029 1.846c13.976 1.984 42.19 5.466 70.038 11.142 28.004 5.467 56.22 13.128 84.066 9.298 28.005-3.83 56.22-18.456 84.067-12.989 28.005 5.676 56.22 31.444 84.067 29.703 28.004-1.741 56.22-31.688 84.066-29.703 28.005 1.846 56.22 35.274 84.067 48.263 28.005 13.127 56.22 5.467 84.067-5.572 28.004-11.247 56.22-25.872 84.066-33.428 28.005-7.417 56.22-7.417 69.88-7.417H774V165.6H17.4v-78z"/>
        <path id="prefix__af" d="M17.4 87.6l14.029 1.846c13.976 1.984 42.19 5.466 70.038 11.142 28.004 5.467 56.22 13.128 84.066 9.298 28.005-3.83 56.22-18.456 84.067-12.989 28.005 5.676 56.22 31.444 84.067 29.703 28.004-1.741 56.22-31.688 84.066-29.703 28.005 1.846 56.22 35.274 84.067 48.263 28.005 13.127 56.22 5.467 84.067-5.572 28.004-11.247 56.22-25.872 84.066-33.428 28.005-7.417 56.22-7.417 69.88-7.417H774V165.6H17.4v-78z"/>
        <path id="prefix__ah" d="M17.4 184.454h18.888c18.887 0 56.662 0 94.437-18.311 37.775-18.037 75.55-55.071 113.325-58.5 37.775-3.43 75.55 25.375 113.325 29.284 37.775 3.635 75.55-18.311 113.325-18.311 37.775 0 75.55 21.946 113.325 7.338 37.775-14.882 75.55-65.633 113.325-76.812 37.775-10.767 75.55 18.037 113.325 36.554 37.775 18.517 75.55 25.376 94.438 29.285L924 118.616V206.4H17.4v-21.946z"/>
        <path id="prefix__am" d="M17.4 184.454h18.888c18.887 0 56.662 0 94.437-18.311 37.775-18.037 75.55-55.071 113.325-58.5 37.775-3.43 75.55 25.375 113.325 29.284 37.775 3.635 75.55-18.311 113.325-18.311 37.775 0 75.55 21.946 113.325 7.338 37.775-14.882 75.55-65.633 113.325-76.812 37.775-10.767 75.55 18.037 113.325 36.554 37.775 18.517 75.55 25.376 94.438 29.285L924 118.616V206.4H17.4v-21.946z"/>
        <radialGradient id="prefix__d" cx="50%" cy="50%" r="56.405%" fx="50%" fy="50%" gradientTransform="matrix(0 .88645 -1 0 1 .057)">
            <stop offset="0%" stop-color="#9D0FB0"/>
            <stop offset="100%" stop-color="#9D0FB0" stop-opacity="0"/>
        </radialGradient>
        <radialGradient id="prefix__an" cx="89.009%" cy="22.464%" r="197.404%" fx="89.009%" fy="22.464%" gradientTransform="scale(-1 -.56561) rotate(-82.67 -.353 .926)">
            <stop offset="0%" stop-color="#9477FF"/>
            <stop offset="100%" stop-color="#00172B"/>
        </radialGradient>
    </defs>
    <g fill="none" fill-rule="evenodd">
        <mask id="prefix__c" fill="#fff">
            <use xlink:href="#prefix__a"/>
        </mask>
        <use fill="url(#prefix__b)" xlink:href="#prefix__a"/>
        <g mask="url(#prefix__c)">
            <g>
                <g transform="translate(-488 -92) translate(320.375)">
                    <ellipse cx="278.7" cy="314.432" fill="url(#prefix__d)" filter="url(#prefix__e)" opacity=".549" rx="278.7" ry="314.4"/>
                    <ellipse cx="289.833" cy="282.06" fill="#D961EA" filter="url(#prefix__f)" rx="73.5" ry="90.6"/>
                </g>
                <g fill-rule="nonzero">
                    <g transform="translate(-488 -92) translate(0 222.6)">
                        <use fill="url(#prefix__g)" xlink:href="#prefix__h"/>
                        <use fill="#000" filter="url(#prefix__i)" xlink:href="#prefix__h"/>
                        <path stroke="url(#prefix__j)" stroke-linejoin="square" stroke-width="1.8" d="M554.18 17.556C517.4 14.86 480.631 31.18 443.857 52.896c-4.946 2.894-9.888 5.892-14.83 8.89-32.26 19.57-64.513 38.988-96.737 29.318-17.34-5.108-34.698-18.56-52.046-32.037-19.562-15.197-39.107-30.446-58.677-33.342-28.114-4.005-56.19 17.234-84.279 38.328-8.646 6.493-17.293 12.986-25.94 18.761-37.053 24.443-74.102 35.72-92.627 40.997L.9 129.085v14.78h885V129.19l-17.706-2.596c-1.823-.287-3.816-.594-5.97-.926-19.8-3.054-53.166-8.2-86.533-18.213-36.998-10.899-74.001-27.272-111.004-46.359-3.918-2.043-7.833-4.108-11.747-6.174-32.921-17.371-65.836-34.772-98.76-37.367z"/>
                    </g>
                    <g transform="translate(-488 -92) translate(0 222.6)">
                        <use fill="url(#prefix__k)" xlink:href="#prefix__l"/>
                        <use fill="#000" filter="url(#prefix__m)" xlink:href="#prefix__l"/>
                        <path stroke="url(#prefix__n)" stroke-linejoin="square" stroke-width="1.8" d="M886.388 39.697c-7.44-3.827-14.88-8.092-22.319-12.357-28.324-16.24-56.655-32.616-85.011-24.135-18.773 5.83-37.534 22.52-56.312 39.178-17.198 15.257-34.406 30.494-51.602 37.603-22.676 9.2-45.347 4.071-68.029-1.116-13.438-3.073-26.876-6.154-40.315-6.154-16.543 0-33.084 4.668-49.626 9.325-19.49 5.486-38.978 10.949-58.464 8.981-15.775-1.713-31.546-8.164-47.315-14.628-20.169-8.268-40.335-16.577-60.51-14.655-22.866 2.178-45.711 18.038-68.57 33.846-13.036 9.017-26.075 18.03-39.112 24.562-35.076 17.842-70.156 18.39-88.734 18.406H131.7V158.7h862.2V72.552l-17.285-3.49c-1.285-.28-2.663-.574-4.126-.886-19.066-4.073-52.583-11.239-86.1-28.48z"/>
                    </g>
                </g>
                <g fill="#FFF" opacity=".859" transform="translate(-488 -92) rotate(180 362.7 71.4)">
                    <rect width="18" height="5.7" x="16.8" opacity=".276" rx="2.85"/>
                    <rect width="34.8" height="5.7" x="40.925" opacity=".276" rx="2.85"/>
                    <rect width="49.8" height="5.7" y="15" opacity=".276" rx="2.85"/>
                    <rect width="9.3" height="5.7" x="54.725" y="15" opacity=".276" rx="2.85"/>
                </g>
                <g transform="translate(-488 -92) translate(346.906 151.849)">
                    <path fill="#C8962C" fill-rule="nonzero" d="M184.668 94.708s16.617-14.456 65.806-14.456c45.125 0 57.807 10.228 70.685 14.456l-67.195 32.81-69.296-32.81z"/>
                    <path fill="#F6D2A2" fill-rule="nonzero" d="M168.899 138.22c.305 6.271 6.574 3.37 9.415 1.409 2.697-1.86 3.484-.314 3.72-3.988.157-2.413.434-4.829.296-7.252-4.075-.368-8.508.6-11.85 3.026-1.723 1.25-4.95 5.24-1.581 6.805"/>
                    <path fill="#C6B199" fill-rule="nonzero" d="M168.899 138.22c.913-.338 1.88-.579 2.498-1.404l-2.498 1.404"/>
                    <path fill="#F6D2A2" fill-rule="nonzero" d="M302.975 215.401c4.83 2.986 13.659 12.018 6.413 16.395-6.962 6.37-10.86-6.992-16.97-8.843 2.632-3.571 5.968-6.826 10.557-7.552M216.678 225.608c-5.67.877-8.861 5.987-13.588 8.583-4.454 2.654-6.157-.849-6.56-1.56-.248-.114-.399-.109-.54-.104-.259.007-.481.016-1.177-.683-4.127-6.513 4.303-11.27 8.691-14.507 6.118-1.236 9.95 4.061 13.174 8.271M335.948 137.424c-.305 6.27-6.574 3.368-9.415 1.408-2.694-1.86-3.484-.314-3.72-3.987-.157-2.414-.434-4.83-.296-7.252 4.075-.369 8.508.6 11.851 3.025 1.722 1.25 4.949 5.24 1.58 6.806"/>
                    <path fill="#C6B199" fill-rule="nonzero" d="M335.948 137.424c-.913-.338-1.88-.58-2.498-1.404l2.498 1.404"/>
                    <g fill-rule="nonzero">
                        <use fill="url(#prefix__o)" xlink:href="#prefix__p"/>
                        <use fill="#000" filter="url(#prefix__q)" xlink:href="#prefix__p"/>
                    </g>
                    <path fill="url(#prefix__r)" fill-rule="nonzero" d="M251.317 23.803c-8.817.697-17.42 1.853-25.286 4.12-7.867 2.267-14.997 5.645-20.868 10.788-18.93-12.166-36.408 17.06-14.184 24.444-6.247 24.126.877 48.78-.114 73.366-.891 22.105-6.706 51.648 5.576 71.517 3.927 6.352 9.53 11.171 15.981 14.75 10.752 5.964 23.852 8.481 35.446 8.897-52.83-26.727-52.77-50.263-50.11-98.195 1.907-34.36-17.186-85.232 53.559-109.687"/>
                    <path fill="#0E7F91" fill-rule="nonzero" d="M193.143 55.075c-3.17-1.676-5.495-3.95-3.555-7.613 1.795-3.392 5.13-3.024 8.3-1.348l-4.745 8.961zM307.978 51.891c3.17-1.676 5.495-3.95 3.555-7.613-1.795-3.392-5.128-3.023-8.3-1.348l4.745 8.961z"/>
                    <path fill="#FFF" fill-rule="nonzero" d="M262.323 84.86c.022 3.596.819 7.633.138 11.458-.918 1.735-2.72 1.917-4.275 2.62-2.148-.337-3.955-1.748-4.816-3.755-.551-4.365.206-8.592.345-12.96l8.608 2.638zM255.563 56.068c4.32 25.084 45.352 18.452 39.46-6.848-5.286-22.685-40.894-16.406-39.46 6.848M206.528 60.127c5.596 21.838 40.587 16.248 39.267-5.66-1.58-26.237-44.618-21.174-39.267 5.66"/>
                    <path fill="#EAEFEF" fill-rule="nonzero" d="M206.528 60.127c1.996 7.793 7.74 12.095 14.238 13.404-14.238-13.404-12.093-31.615 2.798-36.136-10.29 1.34-19.712 9.315-17.036 22.732M255.745 57.9c1.996 7.793 7.74 12.095 14.238 13.405-14.238-13.405-12.41-31.31 2.479-35.832-10.288 1.342-19.393 9.01-16.717 22.427"/>
                    <path fill="#010101" fill-rule="nonzero" d="M226.015 55.581c3.262 0 5.909 2.863 5.909 6.396 0 3.534-2.645 6.394-5.91 6.394-3.264 0-5.908-2.862-5.908-6.394 0-3.531 2.647-6.396 5.909-6.396z"/>
                    <path fill="#FFF" fill-rule="nonzero" d="M228.702 61.795c.769 0 1.393.729 1.393 1.627s-.624 1.626-1.393 1.626-1.393-.728-1.393-1.626c0-.898.624-1.627 1.393-1.627z"/>
                    <ellipse cx="275.561" cy="59.633" fill="#010101" fill-rule="nonzero" rx="5.81" ry="6.394"/>
                    <path fill="#FFF" fill-rule="nonzero" d="M278.203 59.45c.757 0 1.37.729 1.37 1.627s-.613 1.626-1.37 1.626c-.757 0-1.37-.728-1.37-1.626 0-.898.613-1.626 1.37-1.626z"/>
                    <path fill="#EAEAEA" fill-rule="nonzero" d="M258.186 98.937c-2.148-.336-3.955-1.747-4.816-3.754-.551-4.365.206-8.592.345-12.96l1.557.477s-3.955 13.282 2.914 16.237z"/>
                    <path fill="#FFF" fill-rule="nonzero" d="M243.709 84.47c-2.841 6.884 1.585 20.646 9.296 10.494-.55-4.366.206-8.593.346-12.96l-9.642 2.467z"/>
                    <path fill="#EAEAEA" fill-rule="nonzero" d="M243.709 84.47c-2.271 5.499.1 15.391 5.076 13.966-6.978-3.12-3.406-14.393-3.406-14.393l-1.67.428z"/>
                    <path fill="#F6D2A2" fill-rule="nonzero" d="M244.51 73.792c-4.804.408-8.733 6.117-6.232 10.634 3.31 5.983 10.692-.53 15.293.08 5.294.11 9.63 5.593 13.88.99 4.73-5.117-2.036-10.102-7.32-12.33l-15.62.626z"/>
                    <path fill="#DFBC92" fill-rule="nonzero" d="M244.51 73.792c-.572.05-1.13.172-1.667.359-3.981 1.39-6.768 6.294-4.565 10.275 1.511 2.733 3.872 2.858 6.43 2.248-9.084-3.773-.197-12.882-.197-12.882z"/>
                    <path fill="#010101" fill-rule="nonzero" d="M243.905 73.54c-.355-8.317 15.516-9.357 17.39-2.394 1.87 6.945-16.607 8.56-17.39 2.395-.622-4.921 0 0 0 0z"/>
                    <g fill-rule="nonzero">
                        <use fill="#000" filter="url(#prefix__s)" xlink:href="#prefix__t"/>
                        <use fill="url(#prefix__u)" xlink:href="#prefix__t"/>
                    </g>
                    <path fill="#C8962C" fill-rule="nonzero" d="M321.161 94.708s-.21 16.466-.104 23.565c.107 7.098-4.125 2.616-4.483 13.778-.357 11.161 4.176 9.046 6.562 14.509 2.387 5.462 4.01 43.01 4.01 43.01s-2.45 4.78-10.103 9.084c-7.653 4.305-19.958 6.723-30.613 6.245-10.654-.477-23.234-2.728-25.136-3.973-1.902-1.246-5.06-5.186-6.25-8.233-1.187-3.047-3.668-40.108-3.496-54.47.173-14.363 2.579-27.614 2.579-27.614l67.034-15.9"/>
                    <g fill-rule="nonzero">
                        <use fill="#000" filter="url(#prefix__v)" xlink:href="#prefix__w"/>
                        <use fill="url(#prefix__x)" xlink:href="#prefix__w"/>
                    </g>
                    <path fill="url(#prefix__y)" fill-rule="nonzero" d="M293.77 29.266c-2.105 13.383-65.468 3.432-63.362-9.95C232.513 5.934 257.954-.45 265.9.06c17.675 1.137 29.976 15.825 27.87 29.207z"/>
                    <path fill="#5D2568" fill-rule="nonzero" d="M236.558 27.103c-4.152-2.321-6.593-4.978-6.153-7.786C232.511 5.933 257.952-.451 265.898.059c-16.576 5.075-33.974 16.159-29.34 27.044z"/>
                    <path fill="#9D4D9E" fill-rule="nonzero" d="M291.892 41.203c-3.139.418-7.51 2.084-32.183-1.79-24.672-3.874-28.166-6.62-31.182-8.16-3.016-1.538-4.192-2.36-3.87-4.41l.71-4.52c.321-2.05 2.578-3.399 5.036-3.011 0 0 7.714 4.857 31.182 8.16 23.466 3.302 32.183 1.789 32.183 1.789 2.46.385 4.192 2.361 3.87 4.41l-.71 4.52c-.321 2.05-1.894 2.593-5.036 3.012z"/>
                    <path fill="#5D2568" fill-rule="nonzero" d="M230.58 32.329c-.816-.407-1.443-.766-2.05-1.078-3.017-1.539-4.192-2.361-3.87-4.41l.709-4.52c.322-2.05 2.578-3.4 5.036-3.012 0 0 .788.497 2.624 1.28-4.209.11-7.014 8.053-2.449 11.74z"/>
                    <path fill="#692C6D" fill-rule="nonzero" d="M228.146 29.33c-.438-.105-.71-.549-.605-.986l1.634-6.848c.104-.437.549-.71.987-.605.437.104.71.548.605.985l-1.634 6.848c-.105.438-.55.71-.987.605z"/>
                    <path fill="#903995" fill-rule="nonzero" d="M232.728 31.322c-.437-.104-.71-.548-.605-.986l1.634-6.847c.104-.438.549-.71.987-.606.437.104.71.549.605.986l-1.634 6.848c-.105.437-.547.709-.987.605zM237.173 32.86c-.438-.103-.71-.548-.606-.985l1.635-6.848c.104-.437.549-.709.986-.605.438.104.71.549.606.986l-1.635 6.848c-.106.437-.548.709-.986.605zM241.98 34.047c-.438-.104-.71-.548-.606-.985l1.635-6.848c.104-.437.549-.71.986-.605.438.104.71.548.606.986l-1.635 6.847c-.106.438-.549.71-.986.605zM246.68 35.225c-.438-.104-.71-.549-.606-.986l1.635-6.848c.104-.437.549-.709.986-.605.438.104.71.548.606.986l-1.635 6.847c-.104.438-.548.71-.986.606zM251.93 36.584c-.443-.088-.732-.52-.644-.962l1.37-6.905c.087-.442.52-.73.962-.643.443.088.731.52.644.962l-1.37 6.905c-.088.442-.52.73-.963.643zM257.56 37.404c-.446-.071-.75-.492-.682-.936l1.102-6.952c.071-.444.492-.75.937-.68.445.07.75.491.681.935l-1.102 6.952c-.071.447-.492.752-.937.681zM262.841 38.238c-.447-.054-.768-.463-.714-.91l.842-6.99c.055-.446.464-.768.91-.713.448.054.77.463.715.91l-.842 6.99c-.054.446-.464.765-.91.713zM268.022 38.647c-.447-.054-.769-.463-.715-.91l.843-6.99c.054-.446.463-.768.91-.713.447.054.77.463.715.91l-.842 6.99c-.055.444-.464.765-.911.713zM273.245 39.486c-.45-.037-.785-.435-.748-.881l.585-7.016c.038-.449.435-.785.882-.747.447.038.785.435.748.882l-.585 7.015c-.035.45-.433.785-.882.747zM278.591 39.93c-.45-.037-.785-.434-.747-.88l.584-7.016c.038-.45.435-.785.882-.747.45.037.786.435.748.881l-.585 7.016c-.037.447-.435.785-.882.747zM283.675 40.136c-.45-.016-.805-.397-.79-.846l.248-7.034c.016-.45.397-.804.847-.79.45.014.804.397.79.846l-.249 7.035c-.014.451-.395.806-.846.79zM289.042 40.139c-.45 0-.818-.369-.818-.818v-7.04c0-.448.369-.817.818-.817.45 0 .818.369.818.818v7.039c-.002.45-.369.818-.818.818zM293.678 39.408c-.449 0-.818-.368-.818-.817v-7.04c0-.449.369-.818.818-.818.45 0 .819.37.819.818v7.04c0 .449-.37.817-.819.817z"/>
                    <path fill="#5E5F5F" fill-rule="nonzero" d="M244.707 123.009H258.659V124.373H244.707z"/>
                    <path fill="#444545" fill-rule="nonzero" d="M239.366 123.693L247.376 128.314 247.376 119.071zM266.463 123.693L258.453 119.071 258.453 128.314z"/>
                    <path fill="#5E5F5F" fill-rule="nonzero" d="M244.707 145.285H258.659V146.649H244.707z"/>
                    <path fill="#444545" fill-rule="nonzero" d="M239.366 145.966L247.376 150.587 247.376 141.345 239.366 145.966M266.463 145.966L258.453 141.345 258.453 150.587z"/>
                    <path fill="#5E5F5F" fill-rule="nonzero" d="M259.605 167.212L245.651 167.212 245.651 165.848 259.605 165.848 259.605 167.212"/>
                    <path fill="#444545" fill-rule="nonzero" d="M240.312 166.528L248.322 171.152 248.322 161.907 240.312 166.528M267.409 166.528L259.4 161.907 259.4 171.152 267.409 166.528"/>
                    <path fill="#E2A02A" fill-rule="nonzero" d="M193.709 96.632l-9.041-1.924s1.381 14.956 1.421 22.506l-3.728.073c-1.44 0-2.607 1.165-2.607 2.605v22.793c0 2.088 1.316 3.948 3.284 4.645l3.132.842c-2.089 8.965-3.473 41.398-3.473 41.398s2.42 4.78 9.978 9.084c-4.634-12.852 12.374-91.08 1.034-102.022"/>
                    <path fill="url(#prefix__z)" fill-rule="nonzero" d="M.173 161.271s44.524 93.617 99.253 110.3c54.726 16.683 199.433 7.415 235.609 5.562 36.176-1.853 57.51-58.394 64.932-98.25 0 0-182.738 35.223-399.794-17.612"/>
                    <path fill="#695D50" fill-rule="nonzero" d="M393.906 203.96c-38.738 7.231-97.308 13.422-175.667 8.754-118.212-7.025-180.703-19.525-203.577-25.018.652 1.087 1.336 2.205 2.03 3.333 25.045 5.815 87.406 17.688 201.382 24.467 18.92 1.125 36.699 1.619 53.328 1.619 51.583 0 92.13-4.756 121.6-10.166.313-1 .608-1.993.904-2.988M267.695 242.372c47.914 0 86.302-4.104 115.143-9.025.478-1.012.953-2.028 1.414-3.056-38.68 6.746-95.25 12.114-169.722 7.682-89.358-5.312-146.85-13.75-179.499-19.927.828 1.102 1.668 2.201 2.52 3.3 33.275 6.144 90.129 14.251 176.816 19.409 18.917 1.123 36.696 1.617 53.328 1.617M210.653 266.014c18.92 1.125 36.699 1.62 53.329 1.62 40.625 0 74.403-2.95 101.322-6.846.928-1.026 1.836-2.095 2.728-3.194-38.017 5.718-90.437 9.625-157.218 5.643-65.972-3.922-114.56-9.548-148.634-14.712 1.254 1.148 2.515 2.28 3.792 3.377 33.93 5 81.323 10.342 144.681 14.112"/>
                    <g fill-rule="nonzero">
                        <use fill="#695D50" xlink:href="#prefix__A"/>
                        <use fill="#000" filter="url(#prefix__B)" xlink:href="#prefix__A"/>
                    </g>
                    <path fill="#857869" fill-rule="nonzero" d="M177.015 263.809l-25.493-.374 25.493.374M65.996 251.9c7.028 6.023 14.425 11.211 22.08 15.05 32.602 8.145 67.576 11.417 99.672 11.417 37.614 0 71.285-4.491 92.6-10.897-5.324.106-10.781.163-16.364.163-16.632 0-34.41-.494-53.329-1.62-11.489-.682-22.456-1.417-32.911-2.193l-.729-.011.729.011-.729-.011.01-.043-.01.043-.03-.045.03.045-25.493-.374.501-1.688-.501 1.688.501-1.688c-35.09-3.058-63.519-6.528-86.027-9.847m92.852-13.133c-6.806 4.489-20.55 8.79-43.282 8.79-16.067 0-36.626-2.15-62.386-7.901 2.919 3.073 5.92 6.041 9.003 8.864 23.19 3.515 53.106 7.242 90.647 10.504l6.018-20.257"/>
                    <path fill="#514B41" fill-rule="nonzero" d="M177.741 263.818c10.454.775 21.423 1.51 32.912 2.194 18.92 1.125 36.699 1.619 53.329 1.619 5.585 0 11.04-.057 16.364-.163 2.212-.665 4.287-1.35 6.222-2.052l-7.58-.111.634-.596-.634.596-.118-.582.118.582-25.493-.376-25.496-.376-25.493-.373-24.765-.362M62.183 248.52c1.258 1.153 2.528 2.28 3.813 3.38 22.508 3.319 50.94 6.786 86.027 9.845l.81-2.723c-37.544-3.257-67.46-6.987-90.65-10.502"/>
                    <path fill="#FAE9D3" fill-rule="nonzero" d="M334.401 136.809l-.326 4.172.326-4.172m.246-3.137l-7.48 1.733v3.846c1.55.969 3.724 1.99 5.524 1.99.497 0 .967-.078 1.386-.258l.326-4.172c-.36-.191-.688-.437-.953-.79l.972.547.225-2.896m0 0l-.227 2.894.227-2.894"/>
                    <path fill="#E4D9CD" fill-rule="nonzero" d="M334.42 136.566l-.019.243.019-.243m-.972-.546c.265.352.591.598.953.789l.019-.243-.972-.546"/>
                    <path fill="#F9DEA1" fill-rule="nonzero" d="M327.167 135.403l-20.987 4.857 17.898 10.219c-.092-.558-.187-1.076-.284-1.546l.088-.031c1.968-.697 3.283-2.56 3.283-4.645V135.403"/>
                    <path fill="#FAE9D3" fill-rule="nonzero" d="M171.224 137.024l.102 4.929-.102-4.929m-.056-2.7l.054 2.591-.054-2.59.054 2.59.177-.099c-.054.073-.113.144-.175.208l.102 4.929c.265.056.542.082.83.082 1.25 0 2.676-.491 3.953-1.118l-4.941-6.592 4.941 6.595c.83-.407 1.597-.87 2.205-1.291.558-.385 1.034-.624 1.44-.794v-3.68l-8.586-.83"/>
                    <path fill="#E4D9CD" fill-rule="nonzero" d="M171.222 136.964l.003.162-.003-.162m.264-.148l-.264.148.003.162c.092-.099.176-.2.26-.31"/>
                    <path fill="#F9DEA1" fill-rule="nonzero" d="M196.65 136.788c-.774 9.19-1.858 18.86-2.8 27.807l5.065 6.758-5.064-6.758c-.384 3.652-.746 7.181-1.05 10.511l6.114-3.753-6.115 3.753c-.189 2.057-.357 4.038-.499 5.924 4.405.305 8.746.58 13.01.818l-6.396-10.495 6.397 10.495c4.198.234 8.324.437 12.395.61l2.832-10.982-2.832 10.982c5.02.212 9.94.38 14.778.506l-11.946-11.486-12.282-33.567-9.34 33.44 9.342-33.443-11.61-1.12"/>
                    <path fill="#F2D3A0" fill-rule="nonzero" d="M192.803 175.106l-8.668 5.321c2.75.213 5.477.414 8.17.6.138-1.883.308-3.864.498-5.92m-7.473-21.884c-.965 7.46-1.72 19.05-2.17 27.129.325.026.649.052.973.075l8.667-5.32c.305-3.331.667-6.86 1.05-10.512l-8.52-11.372m-5.576-18.069v7.529c0 2.087 1.316 3.947 3.284 4.645l3.132.841c-.296 1.267-.577 3.005-.842 5.052l8.523 11.372c.941-8.947 2.025-18.615 2.798-27.808l-16.895-1.63"/>
                    <path fill="#CBC2B8" fill-rule="nonzero" d="M168.461 211.993l-1.85.636 2.198 2.768c6.337.657 12.817 1.231 19.43 1.716 7.835.572 15.168 1.144 22.038 1.718l.646-3.772c-15.073-.944-29.217-1.974-42.462-3.066m-1.705-.142l-.142.775 1.85-.636c-.57-.044-1.143-.092-1.708-.139m48.174-18.617l-.795 3.082 8.372-2.874c-2.366-.052-4.9-.12-7.577-.208m-2.732-.094l1.937 3.176.795-3.082c-.894-.03-1.803-.061-2.732-.094m-41.55-2.534l-3.39 18.494c2.566.212 5.151.423 7.787.63l15.326-5.261-15.326 5.262c11.456.907 23.572 1.768 36.35 2.564l2.738-15.98-23.762 8.154 23.762-8.155-1.938-3.177c-10.652-.387-23.52-1.075-38.246-2.26l16.422 13.594-16.422-13.594c-1.088-.087-2.188-.177-3.302-.271" opacity=".4"/>
                    <path fill="#B2A9A1" fill-rule="nonzero" d="M175.047 209.733l-6.586 2.26c13.243 1.092 27.389 2.122 42.462 3.066l.473-2.761c-12.776-.797-24.893-1.657-36.349-2.565m-7.787-.631l-.504 2.751c.565.048 1.138.095 1.708.142l6.585-2.26c-2.637-.21-5.223-.42-7.79-.633M171.04 188.466l-.393 2.14c1.114.094 2.212.184 3.305.271l-2.912-2.41m46.67-6.012l-2.78 10.777c2.678.087 5.209.156 7.577.208l15.387-5.283-5.407-5.198c-4.838-.123-9.758-.289-14.778-.504m-12.395-.61l6.884 11.295c.93.033 1.838.066 2.732.094l2.78-10.776c-4.072-.175-8.197-.378-12.396-.612m-21.181-1.419l-13.093 8.04 2.914 2.41c14.726 1.187 27.592 1.875 38.246 2.26l-6.884-11.294c-4.265-.239-8.605-.51-13.01-.818-2.697-.184-5.424-.385-8.173-.598m-12.906-1.082l-.187 9.121 13.093-8.039-.972-.075c-3.922-.31-7.894-.643-11.934-1.007m0 0l-.187 9.121.187-9.121"/>
                    <path fill="#F9DEA1" fill-rule="nonzero" d="M208.259 137.908L208.259 137.908 220.541 171.476 232.104 147.401 208.259 137.908"/>
                    <path fill="#F9DEA1" fill-rule="nonzero" d="M232.104 147.401l-11.563 24.075 31.357-18.038c-.035-.81-.068-1.614-.097-2.402l-4.425-.815v.369l-.942-.544-14.33-2.645"/>
                    <path fill="#E5CC9B" fill-rule="nonzero" d="M251.801 151.034l.097 2.402 1.848-1.064-.04-.988-1.905-.35" opacity=".58"/>
                    <path fill="#F9DEA1" fill-rule="nonzero" d="M251.898 153.438l-31.357 18.038 11.946 11.485c6.74.173 13.325.265 19.743.28l1.54-.528c-.39-4.406-.79-9.845-1.143-15.501h-4.305v3.94l-8.01-4.621 8.01-4.621v3.94h4.22c-.249-4.167-.47-8.41-.644-12.412"/>
                    <path fill="#E5CC9B" fill-rule="nonzero" d="M254.52 167.212h-1.893c.35 5.656.75 11.095 1.143 15.501l1.838-.631c-.377-4.29-.755-9.483-1.089-14.87m-.773-14.838l-1.848 1.064c.17 4.002.393 8.247.646 12.412h1.893c-.275-4.536-.514-9.167-.691-13.476" opacity=".58"/>
                    <path fill="#FFF" fill-rule="nonzero" d="M326.564 178.402l.095 1.63c.558-.047 1.104-.096 1.663-.146l-1.758-1.484"/>
                    <path fill="#F9DEA1" fill-rule="nonzero" d="M253.77 182.713l-1.54.527c.532.003 1.057.003 1.587.003-.017-.175-.033-.353-.047-.53"/>
                    <path fill="#E5CC9B" fill-rule="nonzero" d="M255.605 182.082l-1.838.631c.017.177.03.357.048.53h.316c.523 0 1.056 0 1.576-.003-.033-.378-.066-.763-.102-1.158" opacity=".58"/>
                    <path fill="#F9DEA1" fill-rule="nonzero" d="M285.416 171.85l-23.762 8.157-6.049 2.075c.036.395.069.78.102 1.158 15.073-.028 29.3-.47 42.958-1.22l-13.25-10.17m-30.378-20.218l27.112-5.344-27.112 5.344m27.112-5.344l24.034-6.026-24.034 6.026m24.031-6.026l2.997 23.432-2.997-23.432-24.034 6.026-27.11 5.344-1.33-.246c.012.329.026.655.04.988l1.29-.742-1.29.742c.177 4.31.416 8.94.688 13.474h4.963v-3.94l8.01 4.62-8.01 4.622v-3.938h-4.88c.334 5.387.712 10.582 1.086 14.87l6.049-2.075 23.761-8.158-30.38-20.217 30.38 20.217-3.269-25.561 3.27 25.561 13.251 10.174c9.585-.525 18.893-1.201 27.991-1.99-.03-.53-.061-1.076-.094-1.631l-17.387-14.708 17.387 14.708c-.53-9.054-1.396-21.355-2.486-27.921l-17.896-10.219"/>
                    <path fill="#9C9999" fill-rule="nonzero" d="M246.434 150.046L247.376 150.587 247.376 150.219 246.434 150.046"/>
                    <path fill="#ACA9A9" fill-rule="nonzero" d="M259.4 165.848L254.437 165.848 252.544 165.848 248.322 165.848 248.322 167.212 252.627 167.212 254.519 167.212 259.4 167.212 259.4 165.848"/>
                    <path fill="#9C9999" fill-rule="nonzero" d="M248.322 161.907L240.312 166.528 248.322 171.152 248.322 167.212 248.322 165.848 248.322 161.907M259.4 161.907L259.4 165.848 259.4 167.212 259.4 171.152 267.409 166.528 259.4 161.907"/>
                    <path fill="#CBC2B8" fill-rule="nonzero" d="M236.62 216.413l3.827 5.278c15.88 1.74 28.128 3.558 37.494 5.562l4.262-8.675 21.108-2.092c-10.12.404-20.758.627-31.909.627-11.085 0-22.68-.22-34.783-.7m105.671-2.522c-7.165.678-14.685 1.274-22.553 1.76l3.705 18.228c2.22-.376 4.383-.785 6.483-1.225l12.365-18.763m-119.783-20.449l-8.372 2.874 20.363 17.225c.037.002.073.002.11.005l2.584-19.948-1.176.002c-3.655 0-8.18-.04-13.51-.158m36.43 14.873l24.873-13.1-24.873 13.1m76.272-18.177c-19.173 2.125-41.837 3.696-66.928 3.696-6.948 0-14.068-.12-21.368-.382 0 0-1.164.044-3.402.085l15.426 14.775-15.426-14.775c-1.58.028-3.697.054-6.318.061l-2.583 19.948c12.875.541 25.174.787 36.897.787 27.355 0 51.58-1.343 72.674-3.409l-8.972-20.786" opacity=".4"/>
                    <path fill="#B2A9A1" fill-rule="nonzero" d="M344.18 210.924c-21.093 2.066-45.319 3.409-72.674 3.409-11.726 0-24.024-.246-36.897-.787l-.01.08.01-.08c-.038-.003-.074-.003-.111-.005l.101.085 2.02 2.787c12.105.48 23.698.7 34.786.7 11.15 0 21.789-.223 31.908-.627l16.268-1.612.159.778c7.867-.487 15.387-1.083 22.553-1.761l1.916-2.908-24.628 3.891 24.628-3.89-.029-.06M237.894 188.16l-15.387 5.282c5.33.118 9.852.158 13.507.158.404 0 .795 0 1.176-.002l.704-5.439m0 0l-.704 5.44c2.62-.008 4.74-.034 6.318-.062l-5.614-5.378m-5.407-5.198l5.407 5.198 14.336-4.919c-6.418-.014-13.004-.106-19.743-.279m95.832-3.075l-1.663.147c-9.095.789-18.406 1.465-27.991 1.99l9.337 7.167-9.337-7.167c-13.661.747-27.887 1.189-42.958 1.22l-1.576.002h-.316c-.53 0-1.056 0-1.588-.002l-14.335 4.918 5.616 5.378c2.238-.04 3.402-.085 3.402-.085 7.297.262 14.417.383 21.367.383 25.092 0 47.758-1.572 66.928-3.697l-3.009-6.97-24.194 6.022 24.194-6.023-3.877-3.283m3.977-.36c-1.318.124-2.65.244-3.977.36l3.88 3.28.097-3.64"/>
                    <path fill="#CBC2B8" fill-rule="nonzero" d="M234.25 216.316l-.604 4.659c2.332.236 4.606.478 6.799.719l-3.828-5.279-2.368-.099m-23.324-1.257l-.646 3.772c8.488.71 16.256 1.42 23.37 2.144l.603-4.659c-5.297-.222-10.688-.496-16.176-.822-2.408-.142-4.79-.289-7.151-.435m3.21-18.743l-2.737 15.982c2.26.142 4.54.279 6.841.416 5.52.328 10.938.602 16.26.827l-20.364-17.225" opacity=".4"/>
                    <path fill="#B2A9A1" fill-rule="nonzero" d="M211.398 212.298l-.473 2.76c2.36.147 4.743.294 7.151.436 5.488.326 10.881.598 16.176.822l.347-2.69-.347 2.69c.792.033 1.58.066 2.367.097l-2.02-2.787-.101-.085c-5.323-.225-10.742-.499-16.261-.827-2.302-.137-4.58-.277-6.839-.416"/>
                    <path fill="#CBC2B8" fill-rule="nonzero" d="M345.162 213.612c-.949.095-1.91.187-2.872.279l-12.365 18.763c7.568-1.586 14.324-3.585 20.001-5.956l-4.764-13.086" opacity=".4"/>
                    <path fill="#B2A9A1" fill-rule="nonzero" d="M344.206 210.983l-1.916 2.908c.963-.092 1.923-.184 2.872-.279l-.956-2.629"/>
                    <path fill="#CBC2B8" fill-rule="nonzero" d="M166.614 212.629l-.731 2.458c.975.106 1.947.208 2.928.31l-2.197-2.768m0 0l-.731 2.458.73-2.458M319.737 215.652c-5.315.328-10.787.61-16.424.834l-21.107 2.092-4.263 8.675c12.336 2.64 19.658 5.602 23.641 9.131 7.716-.51 15.061-1.356 21.86-2.505l-3.707-18.227" opacity=".4"/>
                    <path fill="#B2A9A1" fill-rule="nonzero" d="M319.579 214.877l-16.268 1.612c5.637-.225 11.108-.506 16.424-.835l-.156-.777"/>
                    <path fill="#CBC2B8" fill-rule="nonzero" d="M355.518 262.118c-11.686 1.494-24.52 2.79-38.508 3.747l12.97.191-12.97-.191 12.97.191 25.493.376.045-4.314m.128-12.405c-10.68.11-22.74 1.272-36.772 3.92-5.642 1.066-11.128 1.926-16.453 2.604-2.275 2.87-6.876 5.66-13.37 8.238 25.262-.782 47.436-2.7 66.496-5.146l.099-9.616" opacity=".4"/>
                    <path fill="#B2A9A1" fill-rule="nonzero" d="M355.547 259.33c-19.06 2.446-41.232 4.365-66.496 5.145-.8.317-1.627.631-2.483.943l17.916.263 12.526.184-12.526-.184 12.526.184c13.985-.96 26.82-2.255 38.508-3.747l.029-2.789"/>
                    <path fill="#A59D97" fill-rule="nonzero" d="M164.47 236.325c-1.23 0-2.265.204-3.103.646 3.615.304 7.298.605 11.05.898-3.222-.967-5.865-1.544-7.946-1.544"/>
                    <path fill="#C2BAB1" fill-rule="nonzero" d="M152.02 261.747l-.5 1.688 25.493.374-.031-.045c-8.67-.648-16.985-1.322-24.961-2.017m7.324-23.316c-.161.114-.327.225-.497.338l-6.018 20.258c7.094.617 14.456 1.215 22.101 1.791l-15.586-22.387M177.015 263.809l.729.011-.729-.011m.01-.043l-.01.043.729.011-.72-.054m69.715-6.701l6.636 7.724c3.633.045 7.217.069 10.746.069 5.025 0 9.94-.045 14.754-.132l-1.327-6.531c-2.333.066-4.63.099-6.89.099-8.484-.002-16.45-.454-23.919-1.23m-17.443-2.502l-1.235 9.54c8.703.359 17.136.581 25.311.685l-6.635-7.725c-6.15-.638-11.963-1.496-17.441-2.5m-13.384-2.868l11.645 12.389.506.021 1.235-9.54c-4.707-.865-9.171-1.837-13.386-2.87m-33.794-10.55l-4.476 19.875c10.531.783 21.585 1.525 33.174 2.213 5.687.338 11.263.621 16.741.848l-11.645-12.388c-5.664-1.388-10.889-2.886-15.682-4.385-6.928-2.165-12.958-4.333-18.112-6.162"/>
                    <path fill="url(#prefix__C)" d="M355.473 267.02h-.01l-50.981-.748h-.012l-25.484-.374h-.01l-25.48-.373h-.015l-25.486-.374h-.005l-25.484-.373h-.014l-25.482-.374H177l-25.487-.373c-.184-.003-.357-.092-.468-.241-.111-.15-.142-.34-.09-.518l7.546-25.403.002-.005 7.537-25.368 4.412-24.082.622-30.34-.494-23.728c-.003-.118.03-.23.09-.326v-.005c.023-.038.051-.073.085-.104l.002-.002c.061-.06.135-.107.22-.135.085-.028.17-.038.255-.028l37.082 3.583c.06.005.119.019.17.043l23.784 9.469 22.766 4.2 26.986-5.32 24.017-6.021.012-.002 28.464-6.59c.185-.043.376.004.52.127.143.123.218.307.204.494l-1.708 21.85-.735 27.484 11.953 27.691.016.043 11.508 31.627c.015.038.024.078.031.118V242.55c.005.029.005.06.005.088l-.246 23.805c-.002.158-.066.307-.178.416-.106.102-.255.16-.409.16z"/>
                    <path fill="url(#prefix__D)" fill-rule="nonzero" d="M355.473 267.02h-.01l-50.981-.748h-.012l-25.484-.374h-.01l-25.48-.373h-.015l-25.486-.374h-.005l-25.484-.373h-.014l-25.482-.374H177l-25.487-.373c-.184-.003-.357-.092-.468-.241-.111-.15-.142-.34-.09-.518l7.546-25.403.002-.005 7.537-25.368 4.412-24.082.622-30.34-.494-23.728c-.003-.118.03-.23.09-.326v-.005c.023-.038.051-.073.085-.104l.002-.002c.061-.06.135-.107.22-.135.085-.028.17-.038.255-.028l37.082 3.583c.06.005.119.019.17.043l23.784 9.469 22.766 4.2 26.986-5.32 24.017-6.021.012-.002 28.464-6.59c.185-.043.376.004.52.127.143.123.218.307.204.494l-1.708 21.85-.735 27.484 11.953 27.691.016.043 11.508 31.627c.015.038.024.078.031.118V242.55c.005.029.005.06.005.088l-.246 23.805c-.002.158-.066.307-.178.416-.106.102-.255.16-.409.16zm-23.989-1.533l23.405.345.225-21.858-23.63 21.513zm-25.78-.378l23.55.345-4.805-23.638-18.744 23.293zm-25.247-.372l23.464.346L305 241.618l-24.543 23.12zm45.057-23.628l4.84 23.808 23.946-21.803-28.786-2.005zm-70.89 23.248l23.64.347-5.357-26.367-18.283 26.02zm-25.95-.38l23.52.344-20.478-23.838-3.042 23.493zm45.278-26.434l5.406 26.606 24.954-23.508-30.36-3.098zm-70.743 26.06l23.407.345-19.852-21.115-3.555 20.77zm103.014-22.82l-1.065 23.118 18.4-22.862-17.335-.256zM177.75 263.227l23.681.348-17.474-27.905-6.207 27.557zm54.78-23.61l20.297 23.627-1.135-24.642-19.161 1.016zm-24.894 2.414l19.939 21.21 3.042-23.488-22.981 2.278zm-55.327 20.823l23.56.345-16.587-23.825-6.973 23.48zm100.565-24.314l1.133 24.635 18.023-25.649-19.156 1.014zm-67.812-3.33l17.126 27.346 3.527-20.593-20.653-6.753zm-24.973 3.257l16.641 23.902 6.196-27.51-22.837 3.608zm165.738 1.48l29.023 2.023-10.799-29.677-18.224 27.653zm-115.175-19.811l-3.558 20.76 22.868-2.266-19.31-18.494zm-25.51 13.856l20.772 6.794 3.548-20.714-24.32 13.92zm121.508 5.616l17.403.256-4.733-23.293-12.67 23.037zm-32.533-3.238l29.834 3.045-21.567-19.868-8.267 16.823zm9.455-17.333l21.93 20.203 13.016-23.666-34.946 3.463zm36.708-3.673l4.793 23.58 17.902-27.169-22.695 3.589zm-85.287-.185l-3.016 23.285 19.163-1.014-16.147-22.27zm-23.525 4.099l19.395 18.577 3.04-23.472-22.435 4.895zm47.68-9.216l-6.144 27.29 19.277-1.022-13.133-26.268zm-92.294 3.824l-6.957 23.415 22.702-3.585-15.745-19.83zm68.752.125l16.36 22.565 6.188-27.486-22.548 4.921zm24.592-4.493l13.01 26.025 8.195-16.672-21.205-9.353zm-69.445-4.04l-6.186 27.484 24.607-14.084-18.42-13.4zm-23.158 7.437l15.792 19.888 6.176-27.431-21.968 7.543zm46.948-15.478l-3.553 20.737 22.312-4.87-18.759-15.867zm-22.903 7.226l18.196 13.24 3.546-20.703-21.742 7.463zm116.202-14.393l-24.206 27.573 35.066-3.475-10.86-24.098zm-47.55 17.998l21.378 9.43 1.476-21.464-22.853 12.034zm24.077-12.585l-1.457 21.19 23.4-26.653-21.943 5.463zm47.85-10.973l-11.71 29.42 22.85-3.612-11.14-25.808zm-23.386 4.882l10.712 23.767 11.678-29.341-22.39 5.574zm-70.502-.194l-3.04 23.474 22.433-4.898-19.393-18.576zm-23.021 7.14l18.839 15.937 3.035-23.446-21.874 7.51zm-43.871-6.972l-4.064 22.176 21.807-7.486-17.743-14.69zm90.708-8.505l-2.519 26.22 23.04-12.132-20.52-14.088zm-23.144 7.344l19.459 18.638 2.514-26.18-21.973 7.542zm-39.864-15.551l-7.92 30.703 22.026-7.56-14.106-23.143zm-27.088 15.683l17.98 14.885 7.946-30.802-25.926 15.917zm48.808-15.934l-5.878 22.799 21.805-7.486-15.927-15.313zm-20.887-.654l13.937 22.866 5.87-22.753-19.807-.113zm85.958 1.04l-1.476 21.455 22.217-5.53-20.74-15.925zm-22.971 7.192l20.331 13.958 1.474-21.444-21.805 7.486zm46.754-15.26l-1.08 23.505 22.304-5.552-21.224-17.953zm-23.064 7.13l20.817 15.98 1.081-23.495-21.898 7.514zm-114.416-13.049l-.582 28.396 26.038-15.986-25.456-12.41zm49.284 12.592l16.19 15.568 15.993-34.08-32.183 18.512zm33.33-18.168l-15.825 33.721 21.935-7.528-6.11-26.193zm55.507 10.488l21.286 18.007.683-25.547-21.969 7.54zm-54.404-10.963l6.131 26.283 22.011-7.555-28.142-18.728zm26.945-5.48l3.016 23.584 21.922-7.524-24.938-16.06zm-83.2 23.293l19.998.116-11.36-31.043-8.638 30.927zm56.863-18.83l28.107 18.705-3.026-23.65-25.081 4.946zm-84.114-16.893l26.227 34.995 8.83-31.608-35.057-3.387zm59.995 13.024l-10.541 21.948 31.45-18.093-20.91-3.855zm-23.17-9.12l11.344 31.01 10.68-22.24-22.025-8.77zm-37.024 18.748l24.73 12.055-25.18-33.598.45 21.543zm134.672-16.329l2.754 21.536 21.836-7.495-24.59-14.041zm-23.303 5.165l24.815 15.981-2.751-21.512-22.064 5.53zm24.17-6.033l24.634 14.065 1.575-20.132-26.21 6.067z"/>
                    <path fill="#F6D2A2" fill-rule="nonzero" d="M330.63 128.78c-1.204-.45-2.431-.49-3.463-.2v6.808c.27.15.554.284.857.395 2.502.931 5.114.118 5.835-1.818.72-1.93-.726-4.254-3.229-5.186z"/>
                    <path fill="#1AA1C1" fill-rule="nonzero" d="M318.874 253.635c-98.016 18.506-147.9-24.67-158.219-16.192-9.86 8.1-41.69 16.908-107.511 2.208 8.601 9.067 17.95 17.236 27.807 23.342 64.288 13.428 78.578-17.248 114.113 3.747 34.416 20.359 104.474-7.196 162.157 1.642 5.926-4.585 11.263-10.724 16.017-17.841-14.727-1.574-32.048-1.12-54.364 3.094z"/>
                    <path fill="#7AC7DA" fill-rule="nonzero" d="M195.064 266.737c-35.535-20.995-49.825 9.682-114.113-3.746 5.987 3.708 12.161 6.658 18.472 8.58 54.727 16.683 199.434 7.415 235.61 5.562 8.144-.418 15.536-3.607 22.186-8.755-57.681-8.836-127.739 18.718-162.155-1.64z"/>
                    <path fill="#F6D2A2" fill-rule="nonzero" d="M179.754 129.38c-1.142-.544-2.66-.608-4.142-.057-2.502.931-3.945 3.253-3.226 5.186.721 1.934 3.333 2.747 5.836 1.818.572-.213 1.085-.501 1.535-.84v-6.107h-.003z"/>
                </g>
                <g fill-rule="nonzero">
                    <g transform="translate(-488 -92) translate(7.8 343.2)">
                        <use fill="url(#prefix__E)" xlink:href="#prefix__F"/>
                        <use fill="#000" filter="url(#prefix__G)" xlink:href="#prefix__F"/>
                        <path stroke="url(#prefix__H)" stroke-linejoin="square" stroke-width="1.8" d="M18.3 1.01V77.1h862.2V12.043h-16.256c-15.891.003-47.381.144-78.64 7.394-21.508 5.11-43.212 13.465-64.904 21.812-10.344 3.98-20.685 7.96-31.001 11.588-32.022 11.116-64.455 18.768-96.64 5.555-12.478-5.096-25.025-13.323-37.594-21.571-19.363-12.708-38.774-25.509-58.117-26.625-16.733-1.045-33.568 6.864-50.427 14.736-15.164 7.08-30.349 14.143-45.472 14.967-18.498 1.012-37.146-7.18-55.804-15.417-13.477-5.95-26.96-11.913-40.402-14.299-20.566-3.535-41.312 1.41-62.052 6.327-11.239 2.665-22.476 5.327-33.684 6.67-26.847 3.233-53.994-1.683-81.045-6.596-5.076-.921-10.148-1.842-15.214-2.708C86.76 9.148 59.986 5.944 42.568 3.859c-3.487-.417-6.599-.79-9.26-1.12L18.3 1.009z"/>
                    </g>
                    <g style="mix-blend-mode:overlay" fill="#000" filter="url(#prefix__I)" transform="translate(-488 -92) translate(7.8 343.2)">
                        <use filter="url(#prefix__J)" xlink:href="#prefix__K"/>
                    </g>
                    <g transform="translate(-488 -92) translate(7.8 343.2) matrix(-1 0 0 1 864 0)">
                        <use fill="url(#prefix__L)" xlink:href="#prefix__M"/>
                        <use fill="#000" filter="url(#prefix__N)" xlink:href="#prefix__M"/>
                        <path stroke="url(#prefix__O)" stroke-linejoin="square" stroke-width="1.8" d="M863.1 2.028l-14.696 13.3c-15.75 14.582-48.317 44.363-80.571 38.27-14.18-2.693-28.453-12.184-42.743-21.723-17.667-11.792-35.362-23.708-53.013-22.193-16.267 1.405-32.614 14.619-49.001 27.775-15.643 12.558-31.321 25.081-46.92 27.84-17.283 3.193-34.714-5.54-52.163-14.365-14.672-7.421-29.352-14.89-43.993-14.89-21.048 0-42.251 15.59-63.46 31.085-10.712 7.827-21.424 15.65-32.107 21.519-32.043 17.706-64.512 17.72-96.742 5.932-18.298-6.856-36.73-17.386-55.173-27.927-13.642-7.796-27.29-15.598-40.897-21.906-31.596-14.73-63.608-20.21-95.387-11.643-31.677 8.915-63.774 31.908-79.676 43.78L.9 88.314V122.1h862.2V2.028z"/>
                    </g>
                    <g style="mix-blend-mode:overlay" fill="#000" filter="url(#prefix__P)" transform="translate(-488 -92) translate(7.8 343.2) matrix(-1 0 0 1 864 0)">
                        <use filter="url(#prefix__Q)" xlink:href="#prefix__R"/>
                    </g>
                    <g transform="translate(-488 -92) translate(7.8 343.2)">
                        <use fill="url(#prefix__S)" xlink:href="#prefix__T"/>
                        <use fill="#000" filter="url(#prefix__U)" xlink:href="#prefix__T"/>
                        <path stroke="url(#prefix__V)" stroke-linejoin="square" stroke-width="1.8" d="M546.559 62.431c-35.888-1.539-71.776 7.768-107.665 20.17-4.819 1.648-9.635 3.358-14.45 5.068-31.336 11.123-62.671 22.2-94 16.699-16.876-2.909-33.759-10.571-50.639-18.245-19.095-8.68-38.186-17.38-57.283-19.033-27.446-2.288-54.885 9.816-82.327 21.875-8.423 3.701-16.845 7.402-25.267 10.694-36.075 13.924-72.145 20.348-90.18 23.354L7.5 126v7.665h862.2v-7.596l-17.177-1.473c-1.774-.164-3.715-.34-5.813-.529-19.282-1.74-51.774-4.671-84.266-10.377-36.033-6.21-72.068-15.541-108.104-26.418-3.816-1.164-7.63-2.342-11.444-3.52-32.113-9.914-64.224-19.84-96.337-21.32z"/>
                    </g>
                    <g style="mix-blend-mode:overlay" fill="#000" filter="url(#prefix__W)" transform="translate(-488 -92) translate(7.8 343.2)">
                        <use filter="url(#prefix__X)" xlink:href="#prefix__Y"/>
                    </g>
                    <g transform="translate(-488 -92) translate(7.8 343.2) matrix(-1 0 0 1 791.4 0)">
                        <use fill="url(#prefix__Z)" xlink:href="#prefix__aa"/>
                        <use fill="#000" filter="url(#prefix__ab)" xlink:href="#prefix__aa"/>
                        <path stroke="url(#prefix__ac)" stroke-linejoin="square" stroke-width="1.8" d="M18.3 88.626V164.7h754.8V99.643h-14.123c-13.906.003-41.46.142-68.813 7.387-18.825 5.108-37.822 13.46-56.809 21.803-9.06 3.982-18.117 7.962-27.153 11.59-28.098 11.139-56.55 18.787-84.784 5.552-10.934-5.1-21.93-13.332-32.945-21.587-16.925-12.684-33.887-25.478-50.799-26.593-14.623-1.042-29.327 6.863-44.055 14.716-13.304 7.094-26.63 14.162-39.896 14.987-16.229 1.015-32.595-7.18-48.967-15.435-11.788-5.943-23.578-11.9-35.335-14.284-17.979-3.53-36.114 1.415-54.244 6.324-9.85 2.667-19.699 5.33-29.522 6.674-23.532 3.237-47.328-1.68-71.04-6.597-4.444-.921-8.885-1.842-13.32-2.708C78.1 96.745 54.66 93.542 39.41 91.457c-3.053-.417-5.779-.79-8.109-1.12L18.3 88.627z"/>
                    </g>
                    <g style="mix-blend-mode:overlay" fill="#000" filter="url(#prefix__ad)" transform="translate(-488 -92) translate(7.8 343.2) matrix(-1 0 0 1 791.4 0)">
                        <use filter="url(#prefix__ae)" xlink:href="#prefix__af"/>
                    </g>
                    <g transform="translate(-488 -92) translate(7.8 343.2) matrix(-1 0 0 1 941.4 0)">
                        <use fill="url(#prefix__ag)" xlink:href="#prefix__ah"/>
                        <use fill="#000" filter="url(#prefix__ai)" xlink:href="#prefix__ah"/>
                        <path stroke="url(#prefix__aj)" stroke-linejoin="square" stroke-width="1.8" d="M810.279 86.505c-7.806-3.827-15.612-8.091-23.418-12.356-29.743-16.252-59.492-32.627-89.264-24.141-19.705 5.831-39.4 22.526-59.11 39.19-18.042 15.252-36.092 30.486-54.132 37.593-23.778 9.195-47.551 4.064-71.333-1.119-14.107-3.075-28.214-6.156-42.322-6.156-17.366 0-34.73 4.67-52.096 9.328-20.439 5.483-40.878 10.945-61.315 8.979-16.545-1.712-33.086-8.162-49.626-14.623-21.176-8.274-42.35-16.584-63.532-14.661-24.003 2.179-47.988 18.042-71.984 33.858-13.677 9.015-27.357 18.027-41.034 24.558-36.792 17.835-73.588 18.382-93.074 18.398H18.3V205.5h904.8v-86.141l-18.164-3.496c-1.349-.279-2.794-.573-4.33-.886-20.002-4.072-55.164-11.236-90.327-28.472z"/>
                    </g>
                    <g style="mix-blend-mode:overlay" fill="#000" filter="url(#prefix__ak)" transform="translate(-488 -92) translate(7.8 343.2) matrix(-1 0 0 1 941.4 0)">
                        <use filter="url(#prefix__al)" xlink:href="#prefix__am"/>
                    </g>
                </g>
                <g fill="#FFF" opacity=".69" transform="translate(-488 -92) translate(682.8 222.6)">
                    <rect width="11.314" height="3.583" x="10.56" opacity=".276" rx="1.791"/>
                    <rect width="21.874" height="3.583" x="25.724" opacity=".276" rx="1.791"/>
                    <rect width="31.303" height="3.583" y="9.429" opacity=".276" rx="1.791"/>
                </g>
                <g fill="#FFF" opacity=".587" transform="translate(-488 -92) translate(445.8 145.8)">
                    <rect width="34.668" height="5.7" x="9.066" opacity=".276" rx="2.85"/>
                    <rect width="9.6" height="5.7" x="49.925" opacity=".276" rx="2.85"/>
                    <rect width="34.8" height="5.7" x="40.925" y="15" opacity=".276" rx="2.85"/>
                    <rect width="49.8" height="5.7" y="30" opacity=".276" rx="2.85"/>
                    <rect width="9.3" height="5.7" x="54.725" y="30" opacity=".276" rx="2.85"/>
                </g>
                <path fill="url(#prefix__an)" opacity=".505" style="mix-blend-mode:overlay" d="M475.058 80.177H725.058V522.177H475.058z" transform="translate(-488 -92)"/>
            </g>
        </g>
    </g>
</svg>
