<svg xmlns="http://www.w3.org/2000/svg" width="113" height="72" viewBox="0 0 113 72">
    <g fill="none">
        <g fill="#FFF">
            <path d="M6.748 16.334c-.231-.011-.463.005-.69.047-.768.124-1.453.55-1.903 1.183-.45.633-.626 1.42-.49 2.183.165 1.56 1.83 2.876 3.372 2.915.158.004.317-.006.473-.031 1.668-.27 2.105-1.987 1.83-3.673-.31-1.904-1.67-2.576-2.592-2.624zm1.635 4.512c-.144.214-.394.333-.651.307-.46-.036-.813-.423-.808-.884-.003-.296.054-.59.168-.863.148-.358.011-.771-.322-.97-.198-.123-.435-.165-.663-.118-.221.043-.416.17-.543.356-.086.138-.153.287-.2.443l-.02.063c-.076.193-.197.249-.279.238-.06-.01-.11-.057-.125-.117-.086-.522.086-1.052.461-1.425.327-.325.786-.482 1.243-.425.482.058.904.35 1.13.778.216.517.164 1.107-.139 1.578l-.05.11c-.11.185-.116.413-.017.603.087.116.225.182.37.178.069 0 .137-.01.203-.027.085-.019.174-.038.228.026.037.041.042.102.014.149z" transform="translate(1.461 20.432)"/>
            <path d="M28.066 24.045c.348-.882.549-1.815.595-2.762 0-1.164-.66-1.647-1.08-1.647-.013-.045-.096-.349-.21-.714-.066-.212-.144-.42-.233-.623.344-.475.49-1.064.406-1.644-.069-.447-.282-.86-.607-1.175-.616-.523-1.351-.886-2.14-1.058-.12-.033-.512-.14-.546-.151-.003-.022-.029-1.283-.053-1.824-.01-.542-.09-1.081-.24-1.603-.186-.748-.571-1.433-1.114-1.982 1.359-1.404 2.207-2.952 2.205-4.279-.004-2.553-3.147-3.325-7.02-1.725l-.821.347c-.004-.003-1.484-1.452-1.506-1.471C11.286-2.108-2.523 13.2 1.892 16.918l.965.815c-.26.696-.352 1.445-.268 2.184.13 1.075.662 2.061 1.49 2.762.802.727 1.84 1.144 2.923 1.174 1.718 3.948 5.643 6.37 10.246 6.507 4.937.146 9.081-2.164 10.818-6.315zm1.013-4.673c.423.545.64 1.222.615 1.91-.045 1.076-.27 2.136-.666 3.136l-.01.024c-.895 2.151-2.46 3.959-4.461 5.156-2.084 1.21-4.458 1.832-6.868 1.798-.157 0-.315-.002-.472-.007-2.378-.05-4.7-.734-6.725-1.983-1.782-1.115-3.224-2.697-4.17-4.573-1.09-.169-2.106-.65-2.928-1.384-1.022-.871-1.676-2.096-1.833-3.43-.07-.647-.032-1.302.111-1.937l-.447-.379C.492 17.071.053 16.165.012 15.2c-.037-.993.135-1.982.504-2.904.92-2.507 3.034-5.492 5.658-7.986 1.171-1.135 2.47-2.13 3.87-2.965C11.214.597 12.555.165 13.94.09c.893-.023 1.763.286 2.44.868.04.033.619.6 1.059 1.03l.192-.08c1.301-.567 2.7-.877 4.118-.913 2.629 0 4.33 1.408 4.333 3.587.002 1.344-.66 2.851-1.878 4.31.332.512.583 1.072.744 1.66.173.602.268 1.224.282 1.85.012.27.024.702.034 1.083.898.227 1.73.668 2.421 1.285.47.464.777 1.067.878 1.72.102.643.002 1.303-.285 1.888.025.073.052.153.078.237l.065.212c.253.137.477.322.658.545z" transform="translate(1.461 20.432)"/>
            <path d="M25.95 18.097c.338-.318.518-.77.488-1.234-.034-.231-.142-.445-.308-.61-.486-.403-1.065-.68-1.685-.805-.283-.08-.475-.132-.682-.2-.368-.123-.55-.221-.591-.92-.018-.306-.071-1.37-.09-1.81-.033-.771-.125-1.825-.773-2.26-.164-.109-.356-.17-.553-.178-.11-.007-.222.004-.329.032-.328.077-.627.247-.86.491-.61.556-1.425.831-2.248.758-.453-.02-.933-.09-1.483-.123l-.322-.02c-1.47.044-2.686 1.157-2.858 2.616-.316 2.189 1.254 3.32 1.708 3.984.07.085.113.188.124.298-.011.12-.07.233-.161.313-1.275 1.435-1.735 3.417-1.222 5.265.06.218.137.432.23.638 1.146 2.703 4.7 3.962 8.171 2.817.455-.15.896-.338 1.319-.562.761-.38 1.446-.897 2.02-1.525.895-.907 1.483-2.072 1.681-3.33.105-.697-.048-.966-.257-1.096-.147-.083-.317-.114-.485-.09-.088-.546-.243-1.08-.461-1.59l-.374-.859zM20.26 7.657c.056.013.091-.084.041-.112-.83-.43-1.744-.668-2.678-.7-.018 0-.034-.01-.043-.027-.008-.017-.006-.036.005-.05.145-.19.315-.36.504-.505.017-.014.024-.037.016-.058-.007-.02-.028-.033-.05-.032-1.143.112-2.242.5-3.203 1.128-.016.011-.038.011-.055 0-.017-.012-.025-.032-.02-.052.077-.288.19-.565.338-.825.01-.018.007-.04-.007-.056-.015-.015-.038-.018-.056-.009-1.388.762-2.624 1.77-3.649 2.975-.017.018-.016.047 0 .066.018.018.046.021.066.006 1.188-.829 2.526-1.418 3.94-1.736 1.595-.368 3.253-.372 4.85-.013M16.173 3.747s-1.202-1.39-1.564-1.493C12.376 1.652 7.554 4.97 4.475 9.351 3.23 11.124 1.446 14.264 2.3 15.88c.303.363.645.691 1.019.98.571-.8 1.431-1.347 2.398-1.526 1.214-3.39 3.345-6.377 6.157-8.63 1.349-1.103 2.787-2.092 4.3-2.956" transform="translate(1.461 20.432)"/>
        </g>
        <path fill="#000" d="M8.302 20.786c.035.043.04.103.014.151-.133.214-.375.335-.626.312-.455-.049-.794-.441-.776-.898-.004-.3.051-.597.161-.876.144-.36.015-.772-.309-.986-.188-.124-.418-.167-.638-.119-.215.045-.403.175-.521.361-.083.142-.147.293-.192.45l-.02.064c-.073.196-.189.253-.267.243-.037-.006-.088-.03-.121-.12-.083-.525.08-1.059.444-1.447.305-.327.75-.488 1.194-.431.471.064.879.361 1.085.79.207.525.158 1.118-.133 1.602l-.049.112c-.105.19-.11.418-.015.612.08.117.214.184.355.181.066 0 .131-.01.195-.027.082-.02.167-.04.219.026m20.315.506c-.046.945-.246 1.876-.592 2.757-1.725 4.141-5.842 6.447-10.747 6.301-4.572-.136-8.472-2.553-10.178-6.493-1.078-.03-2.109-.446-2.905-1.172-.822-.7-1.35-1.684-1.48-2.756-.084-.737.008-1.484.266-2.18l-.958-.813c-4.386-3.71 9.332-18.986 13.72-15.152l1.495 1.469.816-.347c3.848-1.597 6.97-.826 6.974 1.721.002 1.325-.84 2.87-2.19 4.27.54.549.922 1.232 1.106 1.978.149.521.23 1.059.24 1.6.023.54.049 1.798.051 1.82l.542.15c.785.173 1.516.535 2.127 1.056.323.316.535.727.603 1.173.083.578-.062 1.166-.403 1.64.089.203.166.41.23.622.114.365.197.668.21.713.417 0 1.073.481 1.073 1.643zM9.235 19.02c-.298-1.934-1.604-2.616-2.49-2.665-.223-.011-.446.004-.664.048-1.582.32-2.475 1.667-2.3 3.418.264 1.618 1.605 2.843 3.241 2.96.152.005.305-.006.455-.031 1.603-.274 2.022-2.018 1.758-3.73zm2.703-12.277c1.34-1.1 2.769-2.087 4.273-2.95 0 0-1.194-1.387-1.555-1.49-2.218-.6-7.008 2.71-10.067 7.083-1.237 1.77-3.009 4.903-2.162 6.514.301.362.64.69 1.012.978.567-.797 1.421-1.344 2.383-1.523 1.204-3.38 3.32-6.36 6.116-8.612zm4.82 15.304c.12.524.517.94 1.035 1.084.265.099.537.173.815.222 3.508.604 6.788-1.405 7.526-1.911.056-.038.092-.001.048.066-.022.036-.047.07-.073.103-.903 1.168-3.333 2.52-6.493 2.52-1.379 0-2.757-.487-3.263-1.234-.785-1.16-.039-2.854 1.27-2.677l.572.065c2.033.195 4.082-.134 5.952-.955 1.784-.83 2.458-1.743 2.357-2.482-.034-.23-.142-.442-.308-.604-.488-.401-1.067-.676-1.687-.8-.283-.08-.475-.131-.682-.2-.369-.121-.55-.22-.592-.913-.018-.303-.07-1.36-.09-1.797-.034-.766-.125-1.812-.774-2.244-.165-.109-.356-.17-.553-.178-.111-.006-.222.005-.33.033-.328.076-.627.245-.86.488-.613.552-1.428.825-2.25.752-.454-.02-.934-.09-1.485-.123l-.322-.018c-1.466.038-2.683 1.143-2.861 2.596-.316 2.174 1.256 3.298 1.71 3.957.07.084.113.187.124.296-.012.12-.07.232-.161.31v.002c-1.276 1.419-1.737 3.39-1.223 5.227.06.217.137.429.23.634 1.146 2.684 4.703 3.934 8.179 2.797.455-.149.896-.335 1.32-.558.76-.377 1.446-.89 2.022-1.514.895-.898 1.483-2.056 1.683-3.307.104-.692-.049-.96-.258-1.089-.147-.082-.318-.113-.485-.088-.089-.544-.244-1.074-.462-1.58-.993.748-2.115 1.307-3.31 1.65-1.438.405-2.934.567-4.426.479-.96-.078-1.594-.358-1.833.42 1.451.484 2.993.641 4.513.459.021-.002.043.004.06.018.016.014.027.034.03.055.002.037-.018.072-.052.087 0 0-1.782.83-4.613-.048zm-5.22-12.606c1.179-.827 2.508-1.416 3.913-1.733 1.585-.367 3.233-.372 4.82-.013.055.012.09-.084.04-.112-.823-.428-1.732-.667-2.66-.698-.018 0-.034-.011-.042-.028-.009-.016-.007-.035.004-.05.144-.189.313-.358.501-.503.017-.014.024-.037.016-.058-.008-.02-.028-.033-.05-.032-1.136.112-2.228.498-3.182 1.126-.016.01-.038.01-.055 0-.017-.012-.025-.032-.02-.052.077-.288.19-.564.337-.823.01-.018.007-.041-.008-.056-.014-.015-.037-.018-.055-.009-1.38.76-2.608 1.766-3.625 2.968-.017.019-.017.047 0 .066.017.018.045.021.066.007zm9.237 7.379c.199.126.46.082.608-.1.088-.172-.04-.404-.287-.52-.199-.125-.46-.081-.608.102-.088.17.04.403.287.518zm.758-2.774c.06.308.187.599.374.85.194-.023.389-.023.582 0 .113-.337.123-.701.029-1.045-.14-.634-.33-1.018-.72-.958-.39.06-.404.52-.265 1.153zm.83 1.457c-.201-.058-.417.019-.537.191-.12.173-.116.402.009.571.125.169.343.239.543.175s.337-.249.34-.458c.03-.23-.126-.44-.354-.48z" transform="translate(1.461 20.432)"/>
        <path fill="#000" d="M15.88 15.446c-.062-.009-.089-.035-.097-.07-.024-.11.145-.29.322-.42.527-.385 1.217-.467 1.82-.218.277.114.516.306.687.552.063.103.075.183.034.225-.064.068-.227-.01-.492-.126-.32-.156-.672-.232-1.027-.22-.42.069-.837.161-1.247.277zm2.646.544c-.233-.244-.573-.356-.906-.296-.242.025-.47.12-.659.274-.088.063-.148.157-.169.263 0 .024.01.047.027.063.015.014.036.022.057.021.087-.012.172-.036.253-.07.355-.133.738-.173 1.113-.115.174.02.256.03.294-.03.02-.035.016-.079-.01-.11zM105.494 18.796c-.727 0-1.262-.921-1.262-2.205 0-1.247.55-2.205 1.237-2.205.883 0 1.26.808 1.26 2.205 0 1.452-.347 2.205-1.235 2.205zm.871-7.055c-1.207.029-2.277.787-2.702 1.917-.215.46-.204.594-.36.594-.228 0-.04-.369.062-.803.122-.494.138-1.007.048-1.508h-2.324V23.08h3.172v-3.531c.423.794 1.243 1.297 2.143 1.315 2.293 0 3.448-1.938 3.448-4.557 0-2.969-1.382-4.566-3.487-4.566v.001zm-23.682.213v8.717h3.172v-8.717c-.495.23-1.038.338-1.583.311-.547.026-1.092-.081-1.59-.311zm-3.932-.211c-1.837 0-2.535 1.738-2.676 2.04-.14.301-.21.475-.326.471-.2-.006-.06-.37.017-.606.307-.987.462-2.015.461-3.049.027-.437-.017-.876-.132-1.3h-2.738v11.373h3.172V16.33c0-.708.282-1.944 1.082-1.944.661 0 .869.49.869 1.477v4.81h3.172v-4.62c0-2.24-.372-4.309-2.901-4.309v-.001zm-11.393 4.564c0-.784.73-1.498 2.07-1.498 1.024.027 2.024.324 2.897.862v-3.036s-.928-.892-3.208-.892c-2.404 0-4.406 1.405-4.406 4.429s1.817 4.7 4.4 4.7c1.169.017 2.308-.374 3.22-1.106v-2.884c-.857.578-1.857.907-2.89.948-1.532 0-2.084-.705-2.084-1.522zM60.694 9.3h3.172v11.372h-3.172V9.3zm-9.826 9.33c-.759.175-1.151-.059-1.151-.56 0-.688.712-.964 1.729-.964.448 0 .87.039.87.039-.213.7-.753 1.254-1.448 1.485zm.772-6.887c-1.439-.006-2.862.298-4.173.892v2.623s1.925-1.106 3.487-1.106c1.247 0 1.4.671 1.343 1.229-.48-.084-.969-.116-1.456-.095-2.586 0-3.89 1.173-3.89 3.055 0 1.786 1.466 2.532 2.702 2.532 1.224.046 2.351-.663 2.84-1.785.168-.398.2-.667.351-.667.173 0 .115.193.107.59-.03.556.013 1.115.128 1.66h2.39v-4.295c0-2.682-.949-4.633-3.828-4.633zm45.514-.002c-1.094.055-2.045.77-2.402 1.804-.177.395-.226.707-.37.707-.202 0-.067-.345-.222-.873-.248-1.03-1.212-1.726-2.269-1.638-1.466 0-2.093 1.237-2.39 1.917-.204.464-.205.594-.362.594-.226 0-.038-.369.064-.803.122-.494.138-1.007.048-1.508h-2.324v8.728h3.172v-4.342c0-.857.358-1.944.973-1.944.71 0 .853.546.853 1.554v4.734h3.185v-4.344c0-.763.311-1.944.978-1.944.72 0 .848.766.848 1.554v4.732h3.128v-5.133c0-2.278-.804-3.796-2.909-3.796v.001zm-53.839 0c-1.094.055-2.045.77-2.402 1.804-.177.395-.226.707-.37.707-.202 0-.057-.271-.222-.873-.261-1.022-1.216-1.711-2.269-1.638-1.466 0-2.093 1.237-2.391 1.917-.203.464-.204.594-.36.594-.227 0-.04-.369.063-.803.121-.494.138-1.007.047-1.508h-2.323v8.728h3.172v-4.342c0-.857.358-1.944.973-1.944.71 0 .853.546.853 1.554v4.734h3.185v-4.344c0-.763.311-1.944.978-1.944.72 0 .848.766.848 1.554v4.732h3.128v-5.133c0-2.278-.804-3.796-2.909-3.796v.001zm39.003-1.264c0-.699.87-1.265 1.942-1.265s1.941.566 1.941 1.265c0 .7-.869 1.266-1.941 1.266-1.073 0-1.942-.567-1.942-1.266zm-24.233 1.788c.545.027 1.088-.08 1.583-.311v8.717h-3.172v-8.717l1.589.311zm-1.954-1.788c0-.699.87-1.265 1.941-1.265 1.073 0 1.942.566 1.942 1.265 0 .7-.87 1.266-1.942 1.266s-1.941-.567-1.941-1.266z" transform="translate(1.461 20.432)"/>
    </g>
</svg>
