<svg xmlns="http://www.w3.org/2000/svg" width="221" height="84" viewBox="0 0 221 84">
    <defs>
        <filter id="xtwfjamjta">
            <feColorMatrix in="SourceGraphic" values="0 0 0 0 1.000000 0 0 0 0 1.000000 0 0 0 0 1.000000 0 0 0 1.000000 0"/>
        </filter>
        <filter id="5s7w3x7mbb">
            <feColorMatrix in="SourceGraphic" values="0 0 0 0 0.858824 0 0 0 0 0.490196 0 0 0 0 0.066667 0 0 0 1.000000 0"/>
        </filter>
    </defs>
    <g fill="none" fill-rule="evenodd">
        <g>
            <g>
                <g>
                    <g>
                        <g filter="url(#xtwfjamjta)" transform="translate(-108 -319) translate(0 120) translate(108 140) translate(0 59)">
                            <g>
                                <path fill="#000" fill-rule="nonzero" d="M13.833 55.476c1.764 0 3.322.434 4.673 1.303 1.35.868 2.398 2.088 3.143 3.66.744 1.571 1.116 3.404 1.116 5.5 0 2.067-.372 3.88-1.116 5.438-.745 1.557-1.792 2.764-3.143 3.618-1.351.855-2.909 1.282-4.673 1.282-1.682 0-3.122-.372-4.322-1.116-1.199-.745-2.102-1.82-2.708-3.226v10.752l-.007.146c-.02.233-.094.42-.22.557-.152.165-.366.248-.642.248-.579 0-.868-.317-.868-.951V56.469l.006-.134c.021-.214.095-.39.221-.528.152-.165.366-.248.641-.248.276 0 .49.083.641.248.152.165.228.386.228.662v3.267l.134-.29c.603-1.238 1.46-2.196 2.574-2.874 1.2-.73 2.64-1.096 4.322-1.096zm39.7 0c1.764 0 3.322.428 4.673 1.282 1.35.855 2.398 2.068 3.142 3.64.745 1.57 1.117 3.39 1.117 5.458 0 2.095-.372 3.929-1.117 5.5-.744 1.572-1.792 2.785-3.142 3.64-1.351.854-2.909 1.281-4.673 1.281-1.765 0-3.323-.427-4.673-1.282-1.351-.854-2.399-2.067-3.143-3.639-.745-1.571-1.117-3.405-1.117-5.5 0-2.068.372-3.887 1.117-5.459.744-1.571 1.792-2.784 3.143-3.639 1.35-.854 2.908-1.282 4.673-1.282zm16.293-5.955c.248 0 .455.083.62.248.166.166.248.4.248.703v5.5h5.5l.113.01c.146.024.273.097.384.218.138.152.206.338.206.558 0 .193-.062.359-.186.496-.124.138-.296.207-.517.207h-5.5v11.62l.004.326c.04 1.705.405 2.933 1.092 3.686.73.8 1.868 1.268 3.412 1.406l1.117.083.134.016c.517.083.775.353.775.81 0 .607-.4.87-1.199.786l-1.075-.082-.34-.028c-1.895-.181-3.298-.8-4.21-1.854-.964-1.116-1.446-2.846-1.446-5.19V57.461h-3.433l-.112-.008c-.146-.022-.274-.088-.384-.199-.138-.137-.207-.303-.207-.496 0-.22.07-.406.207-.558.138-.152.303-.228.496-.228h3.433v-5.5l.006-.146c.023-.233.104-.419.242-.557.165-.165.372-.248.62-.248zM29.299 55.56c.276 0 .49.083.641.248.152.165.228.386.228.662v18.774l-.007.146c-.02.234-.094.42-.22.557-.152.166-.366.248-.642.248-.275 0-.49-.082-.64-.248-.152-.165-.228-.4-.228-.703V56.47l.006-.134c.021-.214.095-.39.221-.528.152-.165.366-.248.641-.248zm8.767-8.933c.248 0 .455.09.62.27.166.178.249.406.249.682v27.665l-.007.134c-.023.216-.104.4-.241.549-.166.179-.373.268-.62.268-.276 0-.49-.082-.642-.248-.151-.165-.227-.4-.227-.703V47.578l.006-.146c.021-.234.095-.42.221-.557.152-.166.366-.249.641-.249zM13.833 57.172c-2.26 0-3.998.751-5.21 2.253-1.214 1.503-1.82 3.647-1.82 6.431 0 2.784.606 4.935 1.82 6.451 1.212 1.517 2.935 2.275 5.169 2.275 2.233 0 3.97-.752 5.21-2.254 1.24-1.503 1.861-3.632 1.861-6.39 0-2.756-.62-4.907-1.86-6.45-1.242-1.544-2.965-2.316-5.17-2.316zm39.7 0c-2.206 0-3.936.765-5.19 2.295-1.255 1.53-1.882 3.66-1.882 6.389 0 2.812.613 4.97 1.84 6.472 1.227 1.502 2.957 2.254 5.19 2.254 2.288 0 4.046-.752 5.273-2.254 1.227-1.503 1.84-3.66 1.84-6.472 0-2.73-.627-4.86-1.882-6.39-1.254-1.53-2.984-2.294-5.19-2.294zm-24.234-9.594c.441 0 .807.137 1.096.413.29.276.434.648.434 1.117 0 .44-.151.8-.455 1.075-.303.276-.661.413-1.075.413-.413 0-.772-.137-1.075-.413-.303-.276-.455-.634-.455-1.075 0-.469.145-.841.434-1.117.29-.276.655-.413 1.096-.413zM114.8 0c.686 0 1.276.229 1.771.686.468.417.723.974.765 1.674l.007.214V25.18l12.995-11.722c.42-.356.868-.535 1.345-.535.611 0 1.145.235 1.603.705.477.47.716.995.716 1.577 0 .468-.181.898-.543 1.292l-.144.145-10.39 9.158 11.363 11.778c.42.432.63.92.63 1.465 0 .601-.248 1.137-.744 1.606-.477.47-1.03.705-1.66.705-.602 0-1.125-.213-1.572-.64l-.146-.15-13.453-14.088v12.275c0 .8-.267 1.44-.8 1.916-.514.458-1.123.687-1.828.687-.704 0-1.304-.22-1.8-.658-.45-.416-.695-.99-.736-1.72l-.006-.225V2.574c0-.8.257-1.43.771-1.888C113.477.23 114.095 0 114.8 0zm-10.338 12.406c.686 0 1.276.237 1.771.712.467.432.722 1.01.765 1.736l.006.222v23.579c0 .83-.266 1.493-.8 1.987-.514.475-1.123.712-1.827.712-.705 0-1.305-.228-1.8-.682-.45-.432-.695-1.027-.736-1.785l-.006-.232v-23.58c0-.83.257-1.482.77-1.957.534-.475 1.153-.712 1.857-.712zM97.517 0v.003l.071.003c.93.075 1.661.854 1.661 1.803 0 .983-.783 1.783-1.76 1.809h-2.683c-.8 0-1.425.076-1.872.227-.447.132-.847.491-1.201.982-.335.47-.457 1.366-.587 2.27-.102.813-.158 1.895-.166 3.245l-.002.375v1.689h4.653c.856 0 1.55.694 1.55 1.55 0 .857-.694 1.552-1.55 1.552l-4.653-.001v23.244c0 .728-.22 1.322-.66 1.782l-.14.134c-.513.458-1.123.687-1.827.687s-1.304-.22-1.8-.658c-.45-.416-.695-.99-.736-1.72l-.006-.225V15.507h-4.135c-.857 0-1.55-.694-1.55-1.55 0-.857.693-1.55 1.55-1.55l4.135-.001V9.332c0-3.375.708-5.769 2.124-7.183C89.28.785 91.119.07 93.448.005L93.8 0h3.716zM66.984 12.406c2.693 0 5.196.694 7.062 1.954 1.48 1 2.683 2.54 3.168 4.057.28.872.322 1.194.324 2.46.002.787-.02 1.318-.063 1.565-.436 2.487-1.477 4.21-3.282 5.438-1.453.987-3.277 1.565-5.663 1.793-1.2.115-3.397.104-4.82-.024-1.208-.108-2.691-.299-3.324-.427-.195-.04-.564-.107-.954-.175l-.335-.057c-.555-.095-1.061-.177-1.069-.169-.006.007-.093.558-.192 1.226-.157 1.065-.18 1.331-.183 2.182v.352c.002.565.024.726.111 1.064.33 1.283 1.058 2.142 2.378 2.806 1.298.653 2.66.936 4.716.98.91.019 1.377.005 1.947-.056 1.38-.15 2.01-.312 3.845-.998.457-.17.923-.326 1.036-.345.242-.041.694.043.957.18.475.245.875.899.872 1.428-.003.619-.208.993-.81 1.48-1.44 1.165-3.279 1.88-5.474 2.127-.782.088-2.57.101-3.432.025-2.431-.215-4.119-.637-5.661-1.418-1.204-.609-2.122-1.364-2.807-2.31-.169-.231-.312-.427-.319-.434-.006-.007-.118.127-.248.298-.577.756-1.459 1.569-2.32 2.138-1.245.823-3.031 1.45-4.838 1.7-.54.074-2.328.135-2.786.095-3.168-.277-5.588-1.249-7.348-2.949-1.791-1.73-2.56-3.984-2.257-6.62.35-3.033 1.767-5.175 4.253-6.424 1.916-.963 3.827-1.33 6.94-1.33 2.212-.001 4.065.183 6.891.683.7.123 1.304.224 1.345.225.06 0 .106-.227.234-1.13.232-1.636.274-2.2.21-2.856-.073-.763-.169-1.126-.453-1.717-.734-1.525-2.474-2.458-5.27-2.824-.8-.105-2.645-.12-3.446-.028-1.341.155-2.09.351-3.76.987-.977.372-.982.373-1.371.35-.67-.04-1.128-.348-1.421-.958-.12-.25-.142-.354-.142-.692 0-.508.13-.778.583-1.208 1.016-.966 2.725-1.789 4.45-2.142 1.104-.226 1.648-.273 3.103-.271 1.506.004 2.469.089 3.807.342 2.226.42 3.916 1.162 5.19 2.277.378.33.948.982 1.193 1.362.074.116.151.21.17.21.02 0 .144-.139.275-.31 1.93-2.499 5.18-3.914 8.988-3.912zm-32.366 0c.644 0 1.148.232 1.51.695.382.463.574 1.003.574 1.62 0 .58-.172 1.081-.514 1.506-.342.405-.835.608-1.479.608-2.717 0-4.572.675-6.082 2.026-1.459 1.323-2.234 3.082-2.264 5.275v14.519c0 .83-.266 1.493-.8 1.987-.514.475-1.123.712-1.827.712-.705 0-1.305-.228-1.8-.682-.476-.457-.723-1.096-.741-1.918l-.001-.1V15.077c0-.83.257-1.483.77-1.958.534-.475 1.153-.712 1.857-.712.686 0 1.276.237 1.771.712.493.456.75 1.075.77 1.859l.001.099v3.64c.503-1.794 1.51-3.29 3.02-4.486 1.529-1.216 3.102-1.824 5.235-1.824zM7.974 4.136c.634 0 1.182.205 1.645.615.48.428.72 1.002.72 1.72l-.001 5.934 5.687.001c.809 0 1.473.62 1.544 1.41l.006.14c0 .81-.619 1.474-1.41 1.545l-.14.007h-5.687v15.128l.002.376c.008 1.35.064 2.432.166 3.244.13.905.252 1.8.587 2.271.354.49.754.85 1.201.982.392.132.918.206 1.58.223l.292.003 2.683.001c.977.026 1.76.826 1.76 1.809 0 .896-.652 1.64-1.508 1.784l-.153.019-.072.003v.003h-3.715l-.353-.005c-2.329-.065-4.167-.78-5.515-2.144-1.361-1.36-2.068-3.626-2.12-6.798l-.004-.385V15.507H1.551c-.81 0-1.473-.619-1.545-1.409L0 13.957c0-.809.62-1.473 1.41-1.545l.14-.006h3.726l.41-5.935c0-.753.223-1.335.668-1.745.446-.394.986-.59 1.62-.59zM46.82 27.804c-1.924.11-2.709.282-3.864.847-.592.29-1 .604-1.324 1.018-.464.595-.744 1.185-.939 1.981-.142.58-.156 2.096-.025 2.584.222.823.486 1.289 1.078 1.906.812.844 1.882 1.408 3.209 1.69.678.143.658.142 1.794.124.824-.012 1.133-.036 1.47-.113 1.432-.324 2.707-1.057 3.633-2.085.845-.939 1.538-2.344 1.92-3.893.215-.873.572-3.303.493-3.354-.032-.02-.22-.05-.42-.07-.2-.018-.768-.086-1.264-.152-2.943-.39-4.749-.541-5.76-.483zm17.951-11.66c-1.048.196-1.934.555-2.715 1.1-1.444 1.004-2.44 2.52-2.995 4.554-.218.798-.276 1.105-.47 2.482l-.18 1.27.24.028c.725.083 2.36.287 3.31.413l.204.026.418.052c.416.05.808.093 1.008.11.777.062 2.109.063 2.984.007l.274-.021c1.193-.108 1.926-.299 2.827-.734.75-.363 1.185-.733 1.597-1.358.606-.921.843-1.792.837-3.087-.005-.923-.08-1.306-.39-1.969-.692-1.48-2.316-2.54-4.446-2.902-.531-.09-1.958-.074-2.503.028zM104.445 0c.919 0 1.661.254 2.227.761.565.492.848 1.147.848 1.965 0 .802-.283 1.457-.848 1.965-.566.491-1.317.737-2.254.737-.936 0-1.687-.246-2.253-.737-.565-.508-.848-1.163-.848-1.965s.283-1.457.848-1.965c.583-.507 1.343-.761 2.28-.761z" transform="translate(85.422)"/>
                            </g>
                        </g>
                        <g transform="translate(-108 -319) translate(0 120) translate(108 140) translate(0 59)">
                            <g>
                                <path fill="#DB7D11" fill-rule="nonzero" d="M2.948.622L3.07.62 63.193 0c2.375-.024 3.88 2.513 2.762 4.574l-.063.111-30.696 51.688c-.875 1.473-2.778 1.958-4.25 1.083-1.438-.854-1.935-2.688-1.144-4.145l.06-.105L55.864 9.42c.584-.982.26-2.25-.722-2.834-.325-.193-.698-.293-1.077-.29l-50.931.524C1.462 6.84.084 5.53.004 3.874L0 3.752C-.017 2.08 1.292.703 2.948.622zm9.816 17.02l.122-.005 19.985-.287c2.38-.034 3.893 2.504 2.777 4.57l-.064.112-10.287 17.373c-.872 1.474-2.775 1.96-4.249 1.088-1.439-.852-1.937-2.685-1.148-4.143l.06-.106 6.528-11.025c.29-.491.128-1.125-.363-1.416-.164-.097-.351-.147-.541-.145l-12.61.182c-1.671.024-3.053-1.28-3.14-2.935l-.005-.122c-.024-1.672 1.28-3.054 2.935-3.142z" transform="translate(.646 15.508)"/>
                            </g>
                        </g>
                    </g>
                </g>
            </g>
        </g>
    </g>
</svg>
