<svg xmlns="http://www.w3.org/2000/svg" xmlns:xlink="http://www.w3.org/1999/xlink" width="92" height="92" viewBox="0 0 92 92">
    <defs>
        <linearGradient id="prefix__a" x1="50%" x2="50%" y1="0%" y2="100%">
            <stop offset="0%" stop-color="#D0DBF7"/>
            <stop offset="100%" stop-color="#CFDBF7" stop-opacity="0"/>
        </linearGradient>
        <linearGradient id="prefix__b" x1="50%" x2="50%" y1="0%" y2="100%">
            <stop offset="0%" stop-color="#4572DE"/>
            <stop offset="100%" stop-color="#BFD1FF"/>
        </linearGradient>
        <linearGradient id="prefix__c" x1="1.175%" x2="98.825%" y1="0%" y2="100%">
            <stop offset="0%" stop-color="#1E54D5"/>
            <stop offset="100%" stop-color="#CAD8FE"/>
            <stop offset="100%" stop-color="#CFDCFF"/>
        </linearGradient>
        <linearGradient id="prefix__f" x1="50%" x2="50%" y1="0%" y2="100%">
            <stop offset="0%" stop-color="#A0BBFC"/>
            <stop offset="100%" stop-color="#688EE8"/>
        </linearGradient>
        <linearGradient id="prefix__g" x1="50%" x2="50%" y1="20.964%" y2="100%">
            <stop offset="0%" stop-color="#3264D9"/>
            <stop offset="100%" stop-color="#8BADFF"/>
        </linearGradient>
        <linearGradient id="prefix__j" x1="50%" x2="50%" y1="0%" y2="100%">
            <stop offset="0%" stop-color="#DFE8FF"/>
            <stop offset="100%" stop-color="#BDD0FF"/>
        </linearGradient>
        <filter id="prefix__d" width="144.8%" height="155.8%" x="-22.4%" y="-17.6%" filterUnits="objectBoundingBox">
            <feMorphology in="SourceAlpha" operator="dilate" radius="2" result="shadowSpreadOuter1"/>
            <feOffset dy="5" in="shadowSpreadOuter1" result="shadowOffsetOuter1"/>
            <feGaussianBlur in="shadowOffsetOuter1" result="shadowBlurOuter1" stdDeviation="3"/>
            <feComposite in="shadowBlurOuter1" in2="SourceAlpha" operator="out" result="shadowBlurOuter1"/>
            <feColorMatrix in="shadowBlurOuter1" values="0 0 0 0 0.0252608293 0 0 0 0 0.17992315 0 0 0 0 0.549394248 0 0 0 0.364210009 0"/>
        </filter>
        <filter id="prefix__h" width="144.8%" height="155.8%" x="-22.4%" y="-17.6%" filterUnits="objectBoundingBox">
            <feMorphology in="SourceAlpha" operator="dilate" radius="2" result="shadowSpreadOuter1"/>
            <feOffset dy="5" in="shadowSpreadOuter1" result="shadowOffsetOuter1"/>
            <feMorphology in="SourceAlpha" radius="1" result="shadowInner"/>
            <feOffset dy="5" in="shadowInner" result="shadowInner"/>
            <feComposite in="shadowOffsetOuter1" in2="shadowInner" operator="out" result="shadowOffsetOuter1"/>
            <feGaussianBlur in="shadowOffsetOuter1" result="shadowBlurOuter1" stdDeviation="3"/>
            <feColorMatrix in="shadowBlurOuter1" values="0 0 0 0 0.0252608293 0 0 0 0 0.17992315 0 0 0 0 0.549394248 0 0 0 0.364210009 0"/>
        </filter>
        <rect id="prefix__e" width="60.231" height="48.4" x="0" y="0" rx="5.184"/>
        <rect id="prefix__i" width="60.231" height="48.4" x="0" y="0" rx="5.184"/>
    </defs>
    <g fill="none" fill-rule="evenodd">
        <g>
            <path fill="url(#prefix__a)" d="M45.593 81.416c18.885 0 34.195-15.31 34.195-34.195 0-18.885-15.31-34.194-34.195-34.194-18.885 0-34.195 15.309-34.195 34.194 0 18.885 15.31 34.195 34.195 34.195z" transform="matrix(-1 0 0 1 91.09 0)"/>
            <path fill="url(#prefix__b)" fill-rule="nonzero" d="M46.437 11.815c.674.016 1.208.575 1.192 1.25-.015.674-.575 1.208-1.25 1.192-.261-.006-.523-.01-.786-.01-.675 0-1.221-.546-1.221-1.22 0-.675.546-1.222 1.22-1.222.283 0 .564.004.845.01zm6.698.795c.66.143 1.078.794.935 1.453-.143.659-.794 1.077-1.453.934-.256-.055-.512-.108-.77-.157-.662-.127-1.096-.767-.969-1.43.127-.662.767-1.096 1.43-.969.276.053.552.11.827.17zm6.426 2.057c.62.266.906.984.64 1.604-.266.62-.985.906-1.604.64-.24-.104-.482-.204-.725-.302-.626-.25-.93-.962-.679-1.588.252-.626.963-.93 1.589-.678.26.105.52.213.779.324zm5.946 3.263c.557.38.701 1.14.321 1.697-.38.557-1.139.702-1.696.322-.217-.147-.434-.292-.654-.434-.566-.367-.729-1.123-.362-1.689.366-.566 1.122-.728 1.689-.362.235.153.47.308.702.466zm5.163 4.282c.476.478.475 1.251-.003 1.727-.477.477-1.25.476-1.727-.002-.185-.185-.371-.368-.56-.55-.488-.465-.505-1.238-.04-1.726.467-.487 1.24-.504 1.728-.038.203.194.403.39.602.59zm4.306 5.231c.377.56.23 1.318-.33 1.696-.559.377-1.318.229-1.695-.33-.146-.217-.295-.432-.447-.646-.39-.55-.26-1.312.29-1.703.55-.39 1.312-.26 1.702.29.163.229.323.46.48.693zm3.24 5.97c.263.621-.027 1.338-.648 1.601-.621.264-1.338-.027-1.601-.648-.102-.24-.207-.48-.315-.718-.278-.615-.005-1.338.61-1.616.614-.278 1.338-.005 1.616.61.115.255.228.513.338.771zm2.005 6.344c.141.66-.279 1.31-.938 1.45-.66.142-1.309-.278-1.45-.937-.055-.256-.113-.511-.174-.766-.158-.655.247-1.315.903-1.472.655-.157 1.315.247 1.472.903.065.273.128.547.187.822zm.78 6.717c.014.674-.521 1.232-1.196 1.246-.674.014-1.232-.521-1.246-1.195-.005-.263-.014-.524-.025-.786-.03-.673.492-1.244 1.166-1.274.674-.03 1.244.493 1.274 1.167.012.28.021.56.027.842zm-.495 6.729c-.114.665-.744 1.112-1.41 1-.664-.114-1.111-.745-.998-1.41.044-.257.084-.515.122-.774.097-.668.717-1.13 1.385-1.033.667.097 1.13.717 1.032 1.385-.04.278-.084.555-.131.832zm-1.764 6.512c-.238.631-.943.95-1.574.712-.63-.238-.95-.943-.712-1.574.093-.245.182-.49.269-.738.223-.637.92-.972 1.556-.75.636.223.972.92.75 1.557-.094.265-.19.53-.29.793zm-2.99 6.082c-.354.574-1.107.752-1.68.398-.575-.354-.753-1.107-.399-1.68.138-.223.273-.448.405-.673.34-.583 1.088-.779 1.67-.438.583.34.778 1.088.438 1.67-.142.243-.287.484-.434.723zm-4.05 5.353c-.455.497-1.228.53-1.725.075-.497-.456-.53-1.229-.075-1.726.177-.192.351-.387.524-.584.444-.508 1.215-.56 1.723-.116.508.444.56 1.216.115 1.724-.184.211-.372.42-.561.627zm-5.031 4.535c-.542.401-1.307.288-1.709-.254-.401-.541-.288-1.306.254-1.708.21-.156.419-.315.625-.476.532-.414 1.3-.319 1.714.213.415.532.32 1.3-.213 1.714-.221.173-.445.343-.671.51zm-5.813 3.502c-.609.291-1.338.034-1.629-.574-.291-.609-.034-1.338.575-1.629.236-.113.47-.229.703-.347.602-.305 1.337-.066 1.642.536.306.6.066 1.336-.535 1.642-.25.127-.503.251-.756.372zM54.6 81.481c-.652.171-1.32-.219-1.491-.871-.171-.653.22-1.32.871-1.492.254-.066.506-.135.757-.208.648-.186 1.325.188 1.512.836.186.648-.188 1.325-.836 1.511-.27.078-.54.153-.813.224zm-6.674 1.08c-.673.044-1.255-.466-1.298-1.139-.044-.673.466-1.254 1.139-1.298.261-.017.522-.037.783-.06.672-.06 1.265.436 1.324 1.108.06.672-.436 1.265-1.108 1.325-.28.025-.56.046-.84.064zm-6.747-.196c-.67-.083-1.144-.693-1.061-1.363.083-.67.693-1.144 1.363-1.061.259.032.518.061.779.087.67.068 1.16.666 1.093 1.338-.067.67-.666 1.16-1.337 1.093-.28-.028-.559-.06-.837-.094zm-6.608-1.476c-.64-.21-.99-.9-.78-1.54.21-.642.899-.992 1.54-.782.248.081.497.16.748.235.645.194 1.012.875.817 1.521-.194.646-.875 1.012-1.521.818-.269-.081-.537-.165-.804-.252zm-6.178-2.701c-.59-.328-.802-1.072-.474-1.661.328-.59 1.072-.802 1.661-.474.229.127.459.252.69.373.597.314.827 1.053.513 1.65-.314.597-1.053.826-1.65.512-.248-.13-.495-.264-.74-.4zm-5.536-3.81c-.517-.434-.585-1.204-.152-1.721.433-.517 1.204-.585 1.72-.152.2.168.403.334.608.497.527.42.613 1.19.192 1.716-.421.527-1.19.613-1.717.193-.219-.176-.436-.353-.651-.534zm-4.75-4.82c-.426-.523-.347-1.292.176-1.718.523-.426 1.293-.347 1.718.177.166.203.333.404.504.603.437.513.377 1.284-.136 1.722-.513.438-1.284.377-1.722-.136-.183-.214-.363-.43-.54-.648zm-3.76-5.648c-.318-.595-.094-1.335.5-1.653.595-.318 1.335-.094 1.653.5.124.231.25.46.38.688.332.587.125 1.332-.462 1.665-.587.332-1.332.126-1.664-.461-.139-.245-.274-.491-.407-.739zm-2.577-6.154c-.2-.644.159-1.328.803-1.528.644-.2 1.328.159 1.529.803.078.25.158.499.242.747.216.639-.127 1.332-.766 1.547-.64.216-1.332-.127-1.548-.766-.09-.266-.177-.534-.26-.803zm-1.38-6.619c-.074-.67.41-1.273 1.08-1.347.67-.074 1.274.41 1.348 1.08.029.26.06.52.095.78.09.668-.38 1.282-1.048 1.372-.668.09-1.283-.38-1.373-1.048-.037-.278-.071-.557-.102-.837zm-.102-6.754c.053-.672.642-1.174 1.314-1.12.672.053 1.174.641 1.12 1.314-.02.26-.037.522-.052.783-.037.674-.614 1.19-1.287 1.152-.674-.037-1.19-.614-1.152-1.287.016-.281.035-.562.057-.842zm1.176-6.657c.18-.65.853-1.03 1.503-.85.65.18 1.03.853.85 1.503-.07.252-.137.506-.201.76-.165.654-.829 1.05-1.483.886-.654-.165-1.05-.829-.885-1.483.068-.273.14-.545.216-.816zm2.419-6.296c.301-.603 1.034-.849 1.638-.548.603.302.849 1.035.547 1.638-.116.235-.23.47-.342.707-.286.61-1.013.873-1.624.587-.61-.287-.873-1.014-.587-1.625.12-.254.242-.507.368-.759zm3.563-5.708c.41-.535 1.176-.638 1.712-.228.535.41.638 1.176.228 1.712-.16.208-.316.418-.47.63-.397.545-1.161.666-1.706.269-.546-.397-.666-1.161-.269-1.706.166-.228.334-.453.505-.677zm4.598-4.954c.503-.45 1.275-.405 1.724.1.449.503.404 1.275-.1 1.723-.195.174-.388.35-.58.53-.492.46-1.265.433-1.726-.06-.46-.492-.434-1.265.06-1.726.204-.191.412-.38.622-.567zm5.469-4.007c.58-.345 1.33-.154 1.674.425.345.58.154 1.33-.425 1.674-.225.134-.449.27-.67.41-.572.358-1.325.186-1.684-.386-.358-.571-.186-1.325.386-1.683.238-.15.477-.296.719-.44zm6.124-2.887c.635-.228 1.334.103 1.562.738.228.634-.103 1.334-.738 1.561-.246.089-.491.18-.735.274-.63.243-1.337-.07-1.58-.7-.242-.629.071-1.336.7-1.579.263-.1.526-.199.791-.294zm6.466-1.646c.667-.103 1.291.353 1.395 1.02.103.666-.353 1.29-1.02 1.394-.258.04-.516.083-.774.13-.663.12-1.298-.322-1.418-.986-.12-.663.322-1.298.985-1.418.277-.05.554-.096.832-.14z" transform="matrix(-1 0 0 1 91.09 0)"/>
            <path fill="url(#prefix__c)" fill-rule="nonzero" d="M42.897.565c.994 0 1.8.806 1.8 1.8v.24c.204-.153.458-.244.733-.244 24.55 0 44.453 19.902 44.453 44.453 0 24.55-19.902 44.453-44.453 44.453C20.88 91.267.977 71.365.977 46.814c0-.118.017-.232.048-.34C.409 46.087 0 45.4 0 44.617c0-1.214.984-2.198 2.198-2.198s2.198.984 2.198 2.198c0 .783-.409 1.47-1.025 1.86.032.106.048.22.048.338 0 23.202 18.81 42.01 42.011 42.01 23.202 0 42.01-18.808 42.01-42.01 0-23.202-18.808-42.01-42.01-42.01-.275 0-.53-.092-.734-.245l.001.24c0 .327-.088.647-.256.927-.512.852-1.617 1.129-2.47.617l-2.029-1.217c-.253-.152-.465-.364-.617-.618-.511-.852-.235-1.958.617-2.47l2.03-1.217c.279-.167.6-.256.925-.256z" transform="matrix(-1 0 0 1 91.09 0)"/>
        </g>
        <g transform="translate(15.813 21.563)">
            <use fill="#000" filter="url(#prefix__d)" xlink:href="#prefix__e"/>
            <rect width="62.231" height="50.4" x="-1" y="-1" fill="#FFF" stroke="url(#prefix__f)" stroke-width="2" rx="5.184"/>
            <path fill="url(#prefix__g)" d="M.319 42.26c4.925-11.584 9.85-17.376 14.775-17.376 7.547 0 7.547 4.704 15.094 4.367 7.546-.337 7.546-14.605 15.093-14.605 5.032 0 10.063-2.965 15.094-8.896v39.125c0 2.21-1.79 4-4 4H2.929C1.31 48.875 0 47.564 0 45.946v-2.122c0-.537.108-1.07.319-1.565z"/>
            <use fill="#000" filter="url(#prefix__h)" xlink:href="#prefix__i"/>
            <rect width="62.231" height="50.4" x="-1" y="-1" stroke="url(#prefix__f)" stroke-width="2" rx="5.184"/>
            <path stroke="#1E54D5" stroke-linecap="round" stroke-linejoin="round" stroke-width="2" d="M0 43.596c0-.385.077-.765.227-1.12 4.955-11.728 9.911-17.592 14.867-17.592 7.547 0 7.547 4.704 15.094 4.367 7.546-.337 7.546-14.605 15.093-14.605 5.032 0 10.063-2.965 15.094-8.896"/>
            <path fill="url(#prefix__j)" stroke="#98B5F9" stroke-width="2" d="M55.047-1H5.184C3.476-1 1.93-.308.811.811-.308 1.931-1 3.476-1 5.184v1.732h62.23V5.184c0-1.708-.692-3.254-1.81-4.373C58.3-.308 56.753-1 55.046-1z"/>
        </g>
    </g>
</svg>
