<svg xmlns="http://www.w3.org/2000/svg" xmlns:xlink="http://www.w3.org/1999/xlink" width="116" height="74" viewBox="0 0 116 74">
    <defs>
        <path id="prefix__a" d="M0.005 0.11L108.5 0.11 108.5 38.896 0.005 38.896z"/>
    </defs>
    <g fill="none" fill-rule="evenodd" transform="translate(4 17.5)">
        <mask id="prefix__b" fill="#fff">
            <use xlink:href="#prefix__a"/>
        </mask>
        <path fill="#55565B" d="M46.322 30.899c.019.306 0 .61-.056.911-.055.302-.146.593-.273.872-.127.28-.285.54-.475.782s-.407.457-.65.646c-.524.368-1.095.64-1.712.816-.616.177-1.245.248-1.886.214-.512.002-1.02-.04-1.525-.124-.505-.085-.999-.212-1.482-.381-.483-.17-.948-.378-1.395-.627-.446-.249-.869-.533-1.266-.854l1.602-2.452c1.445 1.046 2.834 1.57 4.165 1.57 1.051 0 1.577-.328 1.577-.981v-.05c0-.359-.271-.661-.813-.906-.198-.082-.838-.286-1.923-.613-2.629-.768-3.943-2.084-3.943-3.947v-.05c-.01-.295.013-.587.071-.876.059-.29.15-.569.274-.837.124-.269.278-.519.461-.751.183-.233.391-.44.623-.625.486-.373 1.02-.652 1.605-.838.585-.185 1.183-.265 1.796-.24.88-.002 1.741.126 2.582.385.84.26 1.623.638 2.348 1.135l-1.43 2.574c-1.397-.817-2.588-1.226-3.573-1.226-.92 0-1.38.303-1.38.907v.05c0 .327.27.62.813.882.213.098.837.327 1.873.686.963.285 1.858.71 2.686 1.275.206.151.39.325.555.52.164.195.303.407.417.635.113.228.198.466.255.714.057.249.083.5.08.754v.05zm9.11 4.314c-.51 1.357-1.076 2.305-1.7 2.844-.375.293-.79.511-1.243.655-.454.143-.919.203-1.395.179-.585.001-1.16-.075-1.725-.229-.565-.154-1.099-.38-1.602-.679l1.257-2.696c.486.319 1.02.49 1.602.515.14.003.277-.015.411-.054.135-.038.26-.096.377-.172.117-.077.22-.17.308-.277.088-.108.158-.226.21-.355l-5.175-13.19h3.968l3.006 8.948 2.884-8.948h3.894l-5.077 13.46zm15.63-4.314c.019.306 0 .61-.056.911-.055.302-.146.593-.273.872-.127.28-.285.54-.475.782s-.407.457-.65.646c-.524.368-1.095.64-1.712.816-.616.177-1.245.248-1.886.214-.512.002-1.02-.04-1.525-.124-.505-.085-.999-.212-1.482-.381-.483-.17-.948-.378-1.395-.627-.446-.249-.869-.533-1.266-.854l1.602-2.452c1.445 1.046 2.834 1.57 4.165 1.57 1.051 0 1.577-.328 1.577-.981v-.05c0-.359-.271-.661-.813-.906-.198-.082-.838-.286-1.923-.613-2.629-.768-3.943-2.084-3.943-3.947v-.05c-.01-.295.013-.587.071-.876.059-.29.15-.569.274-.837.124-.269.278-.519.461-.751.183-.233.391-.44.623-.625.486-.373 1.02-.652 1.605-.838.585-.185 1.183-.265 1.796-.24.88-.002 1.741.126 2.582.385.84.26 1.623.638 2.348 1.135l-1.43 2.574c-1.397-.817-2.588-1.226-3.573-1.226-.92 0-1.38.303-1.38.907v.05c0 .327.27.62.813.882.213.098.837.327 1.873.686.963.285 1.858.71 2.686 1.275.206.151.39.325.555.52.164.195.303.407.417.635.113.228.198.466.255.714.057.249.083.5.08.754v.05zm11.43 3.996v-1.153c-.283.24-.587.45-.91.633-.324.182-.662.333-1.014.453s-.713.205-1.08.258c-.37.052-.74.07-1.11.054-.39.007-.775-.026-1.157-.099-.382-.073-.753-.184-1.111-.334-.359-.15-.698-.335-1.018-.555-.32-.22-.613-.472-.88-.753-1.232-1.275-1.848-2.958-1.848-5.05v-.05c0-2.091.608-3.775 1.823-5.05.27-.282.565-.533.887-.754.321-.22.663-.406 1.023-.556.361-.15.734-.261 1.118-.334.384-.072.771-.104 1.162-.096.735-.026 1.455.065 2.16.275.704.21 1.356.527 1.956.95v-5.736h3.746v17.897h-3.746zm.05-6.595c.019-.481-.053-.948-.215-1.401-.162-.453-.402-.86-.721-1.222-.14-.162-.297-.306-.47-.433-.172-.127-.356-.234-.552-.32-.196-.087-.399-.152-.609-.195-.21-.042-.422-.062-.637-.058-.213-.004-.424.014-.634.056-.209.04-.411.104-.607.188-.196.085-.38.19-.553.313-.173.125-.33.266-.473.424-.162.18-.306.372-.43.58-.125.206-.228.423-.31.65-.083.227-.143.46-.18.698-.037.239-.05.479-.041.72v.049c-.009.239.005.477.043.713.037.236.097.467.18.692.082.225.185.44.31.645.124.205.267.396.428.573.071.079.147.154.226.225.079.07.162.138.248.2s.175.12.268.173c.092.053.187.101.284.145.098.043.197.08.298.114.102.032.205.06.309.082.104.022.21.039.315.05.107.01.213.016.32.016.106 0 .212-.005.318-.016.107-.011.212-.028.316-.05.104-.022.207-.05.308-.082.102-.033.201-.071.299-.114.097-.044.192-.092.284-.145.093-.053.182-.11.268-.173.086-.062.169-.13.248-.2.08-.071.155-.146.226-.225.319-.362.56-.769.721-1.222.162-.454.234-.92.215-1.401v-.05zm5.965-7.992v-3.31h3.943v3.31h-3.943zm.098 14.587V21.754h3.746v13.14h-3.746zm19.895-2.967c0 2.436-.616 4.209-1.848 5.32-1.183 1.079-3.024 1.618-5.521 1.618-1.016.015-2.017-.094-3.006-.327-.988-.232-1.933-.58-2.835-1.046l1.282-3.04c.678.39 1.395.688 2.151.892.756.203 1.526.307 2.31.31 2.513 0 3.77-1.03 3.77-3.09v-.147c-.305.236-.63.443-.97.623-.342.18-.697.33-1.064.448-.368.12-.743.206-1.125.261-.383.055-.767.077-1.154.066-.377.01-.751-.018-1.123-.082-.372-.065-.733-.166-1.085-.303-.35-.137-.685-.307-1.002-.51-.317-.204-.61-.437-.88-.699-.299-.296-.563-.62-.793-.97-.23-.35-.422-.721-.575-1.112-.153-.39-.263-.792-.332-1.205-.069-.414-.094-.83-.075-1.248v-.05c-.018-.419.007-.836.077-1.25.07-.414.183-.816.338-1.207.155-.39.349-.761.582-1.111.233-.35.5-.672.802-.967.268-.26.56-.493.874-.696.315-.203.648-.373.997-.51s.708-.238 1.078-.303c.37-.065.742-.093 1.117-.084.757-.019 1.5.076 2.227.285.728.21 1.407.523 2.037.94v-.98h3.746v10.174zm-3.697-4.29c.006-.205-.01-.408-.049-.609-.038-.201-.098-.396-.179-.584-.08-.189-.18-.366-.3-.533-.12-.167-.256-.319-.408-.456-.157-.137-.326-.26-.505-.366-.18-.107-.367-.197-.563-.27-.196-.074-.396-.13-.602-.166-.206-.038-.413-.056-.622-.056-.21 0-.417.018-.623.056-.205.037-.406.092-.602.165-.196.074-.383.164-.562.27-.18.108-.348.23-.505.367-.15.14-.283.293-.4.46-.116.167-.214.345-.292.533-.079.188-.137.383-.174.583-.037.2-.052.402-.046.606v.049c-.007.205.008.41.044.612.037.202.095.398.173.589.079.19.177.37.294.54.117.169.25.324.4.465.314.282.669.495 1.065.639.397.144.806.209 1.228.195.424.013.834-.054 1.231-.203.397-.148.75-.367 1.06-.655.153-.138.29-.29.409-.457.12-.166.22-.344.3-.532.081-.188.14-.383.18-.584.038-.202.054-.405.048-.61v-.048z" mask="url(#prefix__b)"/>
        <path fill="#00ABC7" d="M19.892 34.833c-.422.004-.843-.02-1.262-.071-.419-.052-.832-.132-1.24-.239-.408-.107-.807-.242-1.197-.403-.39-.16-.767-.347-1.132-.559-.364-.211-.713-.446-1.045-.705-.333-.259-.647-.538-.941-.839-.295-.3-.568-.62-.82-.957-.25-.337-.478-.69-.681-1.058-.732-1.262-2.62-4.607-2.716-4.776-.04-.073-.073-.149-.099-.228-.026-.08-.043-.16-.053-.242-.01-.083-.01-.166-.004-.248.007-.083.022-.165.044-.245.023-.08.054-.156.092-.23.038-.074.083-.144.135-.209.052-.065.11-.125.173-.178.064-.054.132-.101.205-.142.073-.04.15-.073.229-.099.08-.025.16-.043.244-.052.082-.01.166-.011.249-.005.083.007.165.022.245.044.08.023.158.053.232.091.075.038.145.083.21.134.066.052.125.11.18.173.054.063.101.13.142.203.023.042 1.974 3.498 2.696 4.743 1.792 3.088 5.075 4.268 8.78 3.153.08-.024.162-.04.245-.048.084-.008.167-.007.25 0 .083.01.164.026.244.05.08.024.157.056.23.095.074.04.143.085.207.138.065.053.124.112.176.176.053.064.1.133.139.206.039.074.07.15.095.23.024.08.04.16.048.243.008.083.008.165 0 .248-.008.083-.025.164-.049.243-.024.08-.056.156-.096.23-.039.072-.085.141-.138.205-.053.065-.112.123-.177.176-.064.052-.133.098-.207.137-.074.04-.15.071-.23.095-1.109.34-2.243.513-3.403.52z" mask="url(#prefix__b)"/>
        <path fill="#00ABC7" d="M20.168 38.849c-4.852 0-9.38-2.259-11.66-6.185l-5.207-8.973c-.042-.072-.076-.147-.103-.226-.027-.079-.046-.16-.057-.241-.01-.083-.013-.166-.008-.248.006-.083.02-.165.04-.245.022-.08.052-.158.089-.233.037-.074.08-.144.131-.21.051-.066.108-.127.17-.181.064-.055.131-.103.204-.145l3.547-2.037c.072-.042.148-.077.227-.104.08-.027.161-.047.244-.058.083-.011.167-.014.25-.009.084.005.166.018.247.04.081.021.16.05.235.087.075.037.146.08.213.131.066.05.127.107.183.17.055.063.103.13.145.203.042.072.077.147.104.226.027.08.045.16.056.243.011.083.014.166.008.249-.006.083-.02.165-.041.245-.022.081-.052.159-.09.233-.037.075-.08.145-.132.211-.051.066-.109.127-.172.181-.063.055-.131.103-.204.144L6.14 23.522l4.572 7.876c2.478 4.27 8.37 6.05 13.778 4.194 4.32-3.73 5.717-9.697 3.239-13.967l-4.376-7.54c-.043-.072-.078-.147-.105-.226-.028-.08-.047-.16-.059-.243-.011-.082-.015-.165-.01-.249.006-.083.019-.165.04-.246.022-.08.05-.159.088-.234.037-.075.08-.146.132-.212.05-.066.108-.127.17-.182.064-.055.132-.104.204-.146.073-.041.15-.076.229-.102.08-.027.16-.046.244-.057.083-.01.167-.013.25-.007.085.005.167.02.248.041.081.022.16.052.234.09.075.036.146.08.212.132.067.051.127.108.182.172.055.063.103.13.145.203l4.376 7.54c3.12 5.375 1.41 12.82-3.977 17.317-.115.096-.243.17-.383.22-1.746.633-3.548.95-5.406.953z" mask="url(#prefix__b)"/>
        <path fill="#00ABC7" d="M19.785 30.728c-2.01 0-3.713-1.332-4.579-2.822L.171 2C.13 1.928.096 1.853.07 1.774c-.026-.078-.044-.158-.055-.24-.01-.083-.012-.165-.007-.247.006-.083.02-.164.042-.244C.072.963.1.886.138.813.175.737.22.668.27.602.32.537.377.477.44.423.502.369.57.321.64.279.713.238.79.204.868.177c.078-.026.159-.045.241-.056.083-.011.165-.014.248-.009.083.005.165.018.245.04.08.02.158.05.233.085.075.037.145.08.212.13.066.05.127.106.182.167.055.062.104.129.146.2L17.41 26.64c.41.706 1.573 1.918 3.036 1.449.08-.026.16-.043.244-.053.083-.01.166-.01.249-.004.083.007.165.021.245.044.08.023.158.053.232.091.075.038.145.083.21.134.066.052.125.11.18.173.054.063.101.131.142.204.04.072.073.148.1.227.025.08.042.16.052.243.01.082.011.165.004.248-.006.083-.021.164-.044.244-.023.08-.053.157-.092.23-.038.075-.083.144-.135.21-.051.065-.11.124-.173.178-.063.054-.132.101-.205.142-.073.04-.149.073-.228.098-.469.152-.95.229-1.442.23zM16.53 17.36c-.112 0-.222-.015-.33-.043-.108-.03-.21-.071-.307-.127-.096-.055-.184-.122-.263-.201-.08-.079-.147-.166-.202-.262l-4.22-7.27c-.04-.072-.074-.147-.1-.225-.026-.079-.045-.16-.055-.241-.01-.082-.013-.164-.007-.247.006-.082.02-.164.042-.243.021-.08.05-.157.088-.231.037-.074.08-.144.131-.21.051-.065.108-.125.17-.18.063-.054.13-.102.202-.143.072-.042.148-.076.226-.102.079-.027.16-.046.242-.057.082-.01.165-.014.248-.009.083.006.165.019.245.04.08.021.158.05.233.086.075.036.145.08.211.13.067.049.127.105.183.167.055.062.104.128.146.2l3.583 6.173 2.278-1.31c.073-.04.148-.074.227-.1.08-.026.16-.044.242-.055.083-.01.166-.013.249-.007.083.006.164.02.245.041.08.022.158.051.232.088.075.037.145.08.21.131.067.05.127.107.182.17.055.061.103.128.145.2.041.072.075.147.102.225.027.079.046.159.057.24.01.083.014.165.009.248-.006.082-.019.164-.04.244-.021.08-.05.157-.087.231-.036.075-.08.145-.13.21-.05.067-.107.127-.169.182-.062.055-.13.103-.201.145l-3.381 1.942c-.197.113-.41.17-.637.17z" mask="url(#prefix__b)"/>
    </g>
</svg>
