<svg xmlns="http://www.w3.org/2000/svg" xmlns:xlink="http://www.w3.org/1999/xlink" width="223" height="358" viewBox="0 0 223 358">
    <defs>
        <linearGradient id="prefix__j" x1="83.993%" x2="31.787%" y1="83.92%" y2="25.513%">
            <stop offset="0%" stop-color="#FBEBCF"/>
            <stop offset="100%" stop-color="#F6D2A2"/>
        </linearGradient>
        <linearGradient id="prefix__k" x1="16.209%" x2="66.056%" y1="68.934%" y2="29.246%">
            <stop offset="0%" stop-color="#FBEBCF"/>
            <stop offset="100%" stop-color="#F6D2A2"/>
        </linearGradient>
        <linearGradient id="prefix__l" x1="50%" x2="50%" y1="0%" y2="100%">
            <stop offset="0%" stop-color="#A4EDFF"/>
            <stop offset="9.95%" stop-color="#7BCFE4"/>
            <stop offset="25.985%" stop-color="#4DB4CE"/>
            <stop offset="81.015%" stop-color="#3BA1BB"/>
            <stop offset="100%" stop-color="#257D94"/>
        </linearGradient>
        <linearGradient id="prefix__o" x1="50%" x2="50%" y1="0%" y2="100%">
            <stop offset="0%" stop-color="#FBEBCF"/>
            <stop offset="100%" stop-color="#F6D2A2"/>
        </linearGradient>
        <linearGradient id="prefix__r" x1="39.726%" x2="71.787%" y1="91.607%" y2="17.475%">
            <stop offset="0%" stop-color="#A65F00"/>
            <stop offset="31.019%" stop-color="#DD7E00"/>
            <stop offset="100%" stop-color="#FFC478"/>
        </linearGradient>
        <linearGradient id="prefix__v" x1="39.72%" x2="71.8%" y1="91.607%" y2="17.475%">
            <stop offset="0%" stop-color="#A65F00"/>
            <stop offset="31.019%" stop-color="#DD7E00"/>
            <stop offset="100%" stop-color="#FFC478"/>
        </linearGradient>
        <linearGradient id="prefix__x" x1="50%" x2="50%" y1="1.175%" y2="100%">
            <stop offset="0%" stop-color="#C73867"/>
            <stop offset="100%" stop-color="#901550"/>
        </linearGradient>
        <linearGradient id="prefix__y" x1="50%" x2="50%" y1="0%" y2="100%">
            <stop offset="0%" stop-color="#929393"/>
            <stop offset="100%" stop-color="#505151"/>
        </linearGradient>
        <linearGradient id="prefix__z" x1="50%" x2="50%" y1="1.175%" y2="100%">
            <stop offset="0%" stop-color="#C73867"/>
            <stop offset="100%" stop-color="#901550"/>
        </linearGradient>
        <linearGradient id="prefix__A" x1="50%" x2="50%" y1="0%" y2="100%">
            <stop offset="0%" stop-color="#929393"/>
            <stop offset="100%" stop-color="#505151"/>
        </linearGradient>
        <linearGradient id="prefix__B" x1="50%" x2="50%" y1="1.175%" y2="100%">
            <stop offset="0%" stop-color="#C73867"/>
            <stop offset="100%" stop-color="#901550"/>
        </linearGradient>
        <linearGradient id="prefix__C" x1="50%" x2="50%" y1="1.175%" y2="100%">
            <stop offset="0%" stop-color="#C73867"/>
            <stop offset="100%" stop-color="#901550"/>
        </linearGradient>
        <filter id="prefix__f" width="716.6%" height="1334.2%" x="-308.3%" y="-617.1%" filterUnits="objectBoundingBox">
            <feOffset in="SourceAlpha" result="shadowOffsetOuter1"/>
            <feGaussianBlur in="shadowOffsetOuter1" result="shadowBlurOuter1" stdDeviation="3.5"/>
            <feColorMatrix in="shadowBlurOuter1" values="0 0 0 0 0.141176471 0 0 0 0 0.631372549 0 0 0 0 0.756862745 0 0 0 1 0"/>
        </filter>
        <filter id="prefix__h" width="716.6%" height="1334.2%" x="-308.3%" y="-617.1%" filterUnits="objectBoundingBox">
            <feOffset in="SourceAlpha" result="shadowOffsetOuter1"/>
            <feGaussianBlur in="shadowOffsetOuter1" result="shadowBlurOuter1" stdDeviation="3.5"/>
            <feColorMatrix in="shadowBlurOuter1" values="0 0 0 0 0.141176471 0 0 0 0 0.631372549 0 0 0 0 0.756862745 0 0 0 1 0"/>
        </filter>
        <filter id="prefix__n" width="106%" height="103.8%" x="-3%" y="-1.9%" filterUnits="objectBoundingBox">
            <feGaussianBlur in="SourceAlpha" result="shadowBlurInner1" stdDeviation="1.5"/>
            <feOffset dy="4" in="shadowBlurInner1" result="shadowOffsetInner1"/>
            <feComposite in="shadowOffsetInner1" in2="SourceAlpha" k2="-1" k3="1" operator="arithmetic" result="shadowInnerInner1"/>
            <feColorMatrix in="shadowInnerInner1" values="0 0 0 0 1 0 0 0 0 1 0 0 0 0 1 0 0 0 0.280157343 0"/>
        </filter>
        <filter id="prefix__p" width="199.9%" height="172%" x="-50%" y="-29.1%" filterUnits="objectBoundingBox">
            <feOffset dy="6" in="SourceAlpha" result="shadowOffsetOuter1"/>
            <feGaussianBlur in="shadowOffsetOuter1" result="shadowBlurOuter1" stdDeviation="9.5"/>
            <feColorMatrix in="shadowBlurOuter1" result="shadowMatrixOuter1" values="0 0 0 0 0 0 0 0 0 0 0 0 0 0 0 0 0 0 0.438100962 0"/>
            <feOffset dy="6" in="SourceAlpha" result="shadowOffsetOuter2"/>
            <feColorMatrix in="shadowOffsetOuter2" result="shadowMatrixOuter2" values="0 0 0 0 0 0 0 0 0 0 0 0 0 0 0 0 0 0 0.0702032343 0"/>
            <feMerge>
                <feMergeNode in="shadowMatrixOuter1"/>
                <feMergeNode in="shadowMatrixOuter2"/>
            </feMerge>
        </filter>
        <filter id="prefix__s" width="168.2%" height="149.1%" x="-34.1%" y="-17.7%" filterUnits="objectBoundingBox">
            <feGaussianBlur in="SourceAlpha" result="shadowBlurInner1" stdDeviation="1.5"/>
            <feOffset dy="2" in="shadowBlurInner1" result="shadowOffsetInner1"/>
            <feComposite in="shadowOffsetInner1" in2="SourceAlpha" k2="-1" k3="1" operator="arithmetic" result="shadowInnerInner1"/>
            <feColorMatrix in="shadowInnerInner1" values="0 0 0 0 1 0 0 0 0 1 0 0 0 0 1 0 0 0 0.5 0"/>
        </filter>
        <filter id="prefix__t" width="199.9%" height="172%" x="-49.9%" y="-29.1%" filterUnits="objectBoundingBox">
            <feOffset dy="6" in="SourceAlpha" result="shadowOffsetOuter1"/>
            <feGaussianBlur in="shadowOffsetOuter1" result="shadowBlurOuter1" stdDeviation="9.5"/>
            <feColorMatrix in="shadowBlurOuter1" result="shadowMatrixOuter1" values="0 0 0 0 0 0 0 0 0 0 0 0 0 0 0 0 0 0 0.438100962 0"/>
            <feOffset dy="6" in="SourceAlpha" result="shadowOffsetOuter2"/>
            <feColorMatrix in="shadowOffsetOuter2" result="shadowMatrixOuter2" values="0 0 0 0 0 0 0 0 0 0 0 0 0 0 0 0 0 0 0.0702032343 0"/>
            <feMerge>
                <feMergeNode in="shadowMatrixOuter1"/>
                <feMergeNode in="shadowMatrixOuter2"/>
            </feMerge>
        </filter>
        <filter id="prefix__w" width="168.2%" height="149.1%" x="-34.1%" y="-17.7%" filterUnits="objectBoundingBox">
            <feGaussianBlur in="SourceAlpha" result="shadowBlurInner1" stdDeviation="1.5"/>
            <feOffset dy="2" in="shadowBlurInner1" result="shadowOffsetInner1"/>
            <feComposite in="shadowOffsetInner1" in2="SourceAlpha" k2="-1" k3="1" operator="arithmetic" result="shadowInnerInner1"/>
            <feColorMatrix in="shadowInnerInner1" values="0 0 0 0 1 0 0 0 0 1 0 0 0 0 1 0 0 0 0.5 0"/>
        </filter>
        <path id="prefix__a" d="M0 0H223V358H0z"/>
        <path id="prefix__m" d="M56.617.229c21.511 0 41.676 3.068 52.189 23.68 9.435 23.102 6.08 48.015 7.519 72.431 1.235 20.966 3.976 45.187-5.777 64.615-10.26 20.44-35.895 25.583-57.016 24.83-16.59-.593-36.631-5.99-45.994-21.107-10.985-17.734-5.785-44.104-4.987-63.837.945-23.375-6.348-46.82 1.351-69.694C11.89 7.42 33.432 2.057 56.617.229"/>
        <path id="prefix__q" d="M2.038.134s1.375 14.66 1.28 20.98c-.093 6.32 6.058 2.33 6.377 12.269.32 9.939-3.726 8.054-5.857 12.918C1.707 51.166.258 73.946.258 73.946s2.187 4.257 9.018 8.09c6.83 3.832 17.814 5.985 27.325 5.56 9.511-.423 16.305-2.43 18.003-3.538 1.699-1.11 4.518-4.618 5.578-7.331 1.06-2.714 3.276-25.061 3.121-37.85-.154-12.788-2.3-24.587-2.3-24.587L2.037.134z"/>
        <path id="prefix__u" d="M57.742.134s-.188 14.66-.094 20.98c.095 6.32-3.683 2.33-4.002 12.269-.32 9.939 3.727 8.054 5.859 12.918 2.131 4.865 3.58 27.645 3.58 27.645s-2.187 4.257-9.02 8.09c-6.832 3.832-17.82 5.985-27.333 5.56-9.514-.423-16.31-2.43-18.009-3.538-1.699-1.11-4.518-4.618-5.579-7.331-1.06-2.714-3.277-25.061-3.122-37.85C.177 26.09 2.323 14.29 2.323 14.29L57.742.134z"/>
        <radialGradient id="prefix__b" cx="50%" cy="0%" r="160.538%" fx="50%" fy="0%" gradientTransform="matrix(0 .6229 -1 0 .5 -.311)">
            <stop offset="0%" stop-color="#172F6F" stop-opacity=".981"/>
            <stop offset="100%" stop-color="#110325"/>
        </radialGradient>
        <radialGradient id="prefix__d" cx="35.007%" cy="25.023%" r="85.359%" fx="35.007%" fy="25.023%" gradientTransform="matrix(.46617 .512 -.2748 .8495 .256 -.142)">
            <stop offset="0%" stop-color="#24A1C1"/>
            <stop offset="100%" stop-color="#24A1C1" stop-opacity="0"/>
        </radialGradient>
        <radialGradient id="prefix__e" cx="76.605%" cy="68.392%" r="38.095%" fx="76.605%" fy="68.392%" gradientTransform="matrix(0 1 -1.67258 0 1.91 -.082)">
            <stop offset="0%" stop-color="#24A1C1"/>
            <stop offset="100%" stop-color="#24A1C1" stop-opacity="0"/>
        </radialGradient>
        <ellipse id="prefix__g" cx="485.187" cy="210.678" rx="1.703" ry="1"/>
        <ellipse id="prefix__i" cx="607.761" cy="139.176" rx="1.703" ry="1"/>
    </defs>
    <g fill="none" fill-rule="evenodd">
        <mask id="prefix__c" fill="#fff">
            <use xlink:href="#prefix__a"/>
        </mask>
        <use fill="url(#prefix__b)" xlink:href="#prefix__a"/>
        <g mask="url(#prefix__c)">
            <g>
                <path stroke="url(#prefix__d)" stroke-width=".851" d="M308.136 350.487l66.47-38.336c2.106-1.214 4.7-1.214 6.805 0l163.212 94.131h0l69.872-40.298L386.35 234.402c-1.63-.94-2.188-3.022-1.249-4.65.3-.52.73-.95 1.249-1.249l61.355-35.386c2.106-1.215 4.699-1.215 6.804 0l161.512 93.15c1.053.607 2.35.607 3.402 0L682.48 249.9c1.629-.94 2.188-3.022 1.248-4.651-.299-.519-.73-.95-1.248-1.248l-123.063-70.976c-1.629-.94-2.187-3.022-1.248-4.65.3-.52.73-.95 1.248-1.25l59.645-34.399c1.629-.94 2.188-3.021 1.248-4.65-.299-.519-.73-.95-1.248-1.249l-23.095-13.32c-1.63-.94-2.188-3.021-1.249-4.65.3-.519.73-.95 1.249-1.249l63.11-36.398c1.053-.607 2.35-.607 3.403 0l264.88 152.768h0" transform="translate(-415 -61)"/>
                <path stroke="url(#prefix__e)" stroke-width=".851" d="M1.259 40.792l25.245-14.565c2.106-1.215 4.7-1.215 6.806 0l76.173 43.947c1.629.94 2.187 3.022 1.248 4.651-.3.518-.73.949-1.248 1.248L5.112 136.289c-1.629.94-2.188 3.021-1.248 4.65.3.519.73.949 1.248 1.248l76.171 43.946c2.106 1.215 4.7 1.215 6.806 0l53.895-31.093h0l84.687 48.86-109.483 63.163c-1.629.94-2.187 3.022-1.248 4.651.3.518.73.949 1.248 1.248l76.173 43.947c2.106 1.215 4.7 1.215 6.806 0l107.788-62.188c2.106-1.215 4.7-1.215 6.806 0l78.729 45.422c.814.47 1.093 1.51.623 2.325-.15.259-.364.474-.623.624l-23.537 13.579c-.815.47-1.094 1.51-.624 2.325.15.26.365.475.624.624l71.907 41.487c3.257 1.879 4.374 6.043 2.495 9.3-.598 1.038-1.459 1.898-2.495 2.496l-133.02 76.745h0l-84.687-48.86" opacity=".828" transform="translate(-415 -61)"/>
                <g transform="translate(-415 -61)">
                    <use fill="#000" filter="url(#prefix__f)" xlink:href="#prefix__g"/>
                    <use fill="#24A1C1" xlink:href="#prefix__g"/>
                </g>
                <g transform="translate(-415 -61)">
                    <use fill="#000" filter="url(#prefix__h)" xlink:href="#prefix__i"/>
                    <use fill="#24A1C1" xlink:href="#prefix__i"/>
                </g>
            </g>
        </g>
        <g mask="url(#prefix__c)">
            <g transform="translate(24 91)">
                <path fill="#C9781F" fill-rule="nonzero" d="M28.35 82.063S43.144 68.85 86.929 68.85c40.168 0 51.456 9.349 62.921 13.213L90.036 112.05 28.35 82.063z"/>
                <g>
                    <path fill="#F6D2A2" fill-rule="nonzero" d="M1.52 102.359c.272 5.598 5.88 3.008 8.42 1.258 2.41-1.662 3.115-.28 3.326-3.56.139-2.155.388-4.31.265-6.474-3.645-.33-7.61.536-10.599 2.702-1.54 1.116-4.426 4.676-1.412 6.074" transform="translate(18.9 18.9)"/>
                    <path fill="#C6B198" fill-rule="nonzero" d="M1.52 102.359c.816-.303 1.68-.518 2.235-1.254" transform="translate(18.9 18.9)"/>
                    <path fill="#37ABC8" fill-rule="nonzero" d="M14.478 35.672c-21.487-6.026-5.51-33.288 11.745-22.074L14.478 35.672zM109.944 11.552c17.008-11.914 32.377 14.966 12.611 21.729l-12.61-21.73z" transform="translate(18.9 18.9)"/>
                    <path fill="url(#prefix__j)" fill-rule="nonzero" d="M113.603 171.252c4.32 2.666 12.216 10.727 5.735 14.636-6.226 5.686-9.712-6.242-15.177-7.894 2.354-3.188 5.337-6.095 9.442-6.742z" transform="translate(18.9 18.9)"/>
                    <path d="M119.338 185.887c-.96-1.905-1.283-4.129-2.887-5.664" transform="translate(18.9 18.9)"/>
                    <path fill="url(#prefix__k)" fill-rule="nonzero" d="M36.423 180.362c-5.07.783-7.925 5.345-12.152 7.662-3.983 2.369-5.507-.758-5.866-1.393-.624-.284-.572.264-1.535-.704-3.693-5.812 3.847-10.06 7.773-12.947 5.47-1.103 8.897 3.625 11.78 7.382z" transform="translate(18.9 18.9)"/>
                    <path d="M18.406 186.63c.193-2.215 1.954-3.698 2.793-5.571" transform="translate(18.9 18.9)"/>
                    <path fill="#077E91" fill-rule="nonzero" d="M15.375 28.143c-2.835-1.496-4.915-3.527-3.18-6.797 1.605-3.027 4.587-2.699 7.422-1.203l-4.242 8zM118.077 25.3c2.834-1.496 4.914-3.527 3.18-6.797-1.605-3.028-4.588-2.699-7.423-1.203l4.243 8z" transform="translate(18.9 18.9)"/>
                    <path fill="#F6D2A2" fill-rule="nonzero" d="M137.59 101.648c-.272 5.598-5.88 3.008-8.42 1.258-2.41-1.662-3.115-.28-3.326-3.56-.139-2.155-.388-4.31-.265-6.474 3.645-.33 7.61.537 10.6 2.702 1.538 1.116 4.425 4.677 1.411 6.074" transform="translate(18.9 18.9)"/>
                    <path fill="#C6B198" fill-rule="nonzero" d="M137.59 101.648c-.816-.303-1.68-.518-2.235-1.254" transform="translate(18.9 18.9)"/>
                    <g transform="translate(18.9 18.9) translate(10.785)">
                        <use fill="url(#prefix__l)" xlink:href="#prefix__m"/>
                        <use fill="#000" filter="url(#prefix__n)" xlink:href="#prefix__m"/>
                    </g>
                    <path fill="#FFF" fill-rule="nonzero" d="M71.2 29.029c3.862 22.39 40.56 16.47 35.29-6.112-4.727-20.25-36.574-14.645-35.29 6.112M27.345 32.65c5.006 19.494 36.3 14.503 35.12-5.051-1.414-23.42-39.906-18.9-35.12 5.051M78.324 55.13c.017 2.992.71 5.916.111 9.276-.745 1.404-2.207 1.553-3.467 2.12-1.743-.273-3.208-1.414-3.907-3.04-.447-3.534.167-6.957.28-10.493l6.983 2.136z" transform="translate(18.9 18.9)"/>
                    <g fill-rule="nonzero" transform="translate(18.9 18.9) translate(30.43 23.433)">
                        <ellipse cx="5.547" cy="6.038" fill="#000" rx="5.284" ry="5.708"/>
                        <ellipse cx="7.95" cy="7.326" fill="#FFF" rx="1.246" ry="1.451"/>
                    </g>
                    <g fill-rule="nonzero" transform="translate(18.9 18.9) translate(74.725 22.28)">
                        <ellipse cx="5.527" cy="5.769" fill="#000" rx="5.196" ry="5.708"/>
                        <ellipse cx="7.89" cy="7.057" fill="#FFF" rx="1.225" ry="1.451"/>
                    </g>
                    <path fill="#FFF" fill-rule="nonzero" d="M63.222 55.58c-2.305 5.573 1.286 16.716 7.542 8.497-.447-3.535.167-6.957.28-10.493l-7.822 1.996z" transform="translate(18.9 18.9)"/>
                    <path fill="url(#prefix__o)" fill-rule="nonzero" d="M6.62.671c-4.298.366-7.81 5.462-5.576 9.493 2.959 5.34 9.563-.473 13.676.072 4.735.097 8.613 4.992 12.416.885 4.229-4.568-1.82-9.017-6.549-11.007L6.62.671z" transform="translate(18.9 18.9) translate(56.236 44.177)"/>
                </g>
                <g transform="translate(25.65 82.35)">
                    <use fill="#000" filter="url(#prefix__p)" xlink:href="#prefix__q"/>
                    <use fill="url(#prefix__r)" xlink:href="#prefix__q"/>
                    <use fill="#000" filter="url(#prefix__s)" xlink:href="#prefix__q"/>
                    <path fill="#E5E5E5" fill-rule="nonzero" d="M62.285 62.399c-28.008 3.077-60.507-5.43-60.507-5.43s.477-8.63 2.58-11.668c29.13 8.884 58.517 6.068 58.517 6.068.436 4.028.129 7.231-.59 11.03zM58.76 79.407C30.75 82.485.257 73.635.257 73.635S.16 65.346 1.273 61.706c29.13 8.884 60.244 6.67 60.244 6.67-.262 4.374-.887 8.678-2.758 11.031z"/>
                </g>
                <g transform="translate(91.8 82.35)">
                    <use fill="#000" filter="url(#prefix__t)" xlink:href="#prefix__u"/>
                    <use fill="url(#prefix__v)" xlink:href="#prefix__u"/>
                    <use fill="#000" filter="url(#prefix__w)" xlink:href="#prefix__u"/>
                    <path fill="#E5E5E5" fill-rule="nonzero" d="M1.04 62.399c28.017 3.077 60.525-5.43 60.525-5.43s-.478-8.63-2.58-11.668C29.846 54.185.45 51.37.45 51.37c-.436 4.028-.129 7.231.59 11.03zM4.567 79.407c28.016 3.078 58.518-5.772 58.518-5.772s.098-8.289-1.015-11.929c-29.139 8.884-60.261 6.67-60.261 6.67.262 4.374.887 8.678 2.758 11.031z"/>
                </g>
                <g fill-rule="nonzero">
                    <path fill="#D2E261" d="M15.54 42.112c-.898 1.642-2.673 2.435-3.966 1.77l-1.036-.533c-1.294-.664-1.615-2.535-.718-4.178L30.02 2.17C30.916.527 32.692-.266 33.985.4l1.036.532c1.294.665 1.615 2.536.718 4.178l-20.2 37.002z" transform="translate(145.8 66.15)"/>
                    <path fill="#000" d="M6 59.586c-.523.957-1.995 1.194-3.288.528l-1.036-.532C.383 58.917-.242 57.602.28 56.645l9.477-17.36c.523-.956 1.995-1.193 3.288-.528l1.036.532c1.293.665 1.918 1.98 1.396 2.937L6 59.586z" transform="translate(145.8 66.15)"/>
                    <path fill="#9B9B9B" d="M14.426 38.657l-1.036-.533c-1.293-.664-2.617-.7-2.955-.08l-.606 1.11c.339-.621 1.661-.585 2.955.08l1.036.533c1.293.664 2.067 1.707 1.729 2.327l.605-1.11c.34-.62-.435-1.662-1.728-2.327z" transform="translate(145.8 66.15)"/>
                </g>
                <ellipse cx="151.378" cy="115.404" fill="#F6D2A2" fill-rule="nonzero" rx="4.32" ry="3.345" transform="rotate(20.414 151.378 115.404)"/>
                <g fill-rule="nonzero">
                    <path fill="#D2E261" d="M18.212 42.844c.787 1.687 2.458 2.56 3.73 1.952l1.02-.488c1.274-.608 1.668-2.469.88-4.155L6.112 2.17C5.324.485 3.654-.389 2.381.22L1.36.707c-1.273.61-1.667 2.47-.88 4.156l17.731 37.981z" transform="translate(0 67.5)"/>
                    <path fill="#000" d="M26.586 60.782c.459.982 1.863 1.285 3.136.677l1.02-.488c1.273-.609 1.934-1.898 1.475-2.88l-8.32-17.82c-.458-.983-1.862-1.286-3.135-.677l-1.02.487c-1.273.609-1.934 1.899-1.475 2.881l8.32 17.82z" transform="translate(0 67.5)"/>
                    <path fill="#9B9B9B" d="M19.44 39.432l1.019-.487c1.273-.609 2.546-.586 2.843.05l.532 1.14c-.297-.637-1.57-.66-2.843-.051l-1.02.487c-1.273.609-2.064 1.619-1.767 2.256l-.532-1.14c-.297-.636.494-1.646 1.767-2.255z" transform="translate(0 67.5)"/>
                </g>
                <ellipse cx="28.494" cy="115.888" fill="#F6D2A2" fill-rule="nonzero" rx="4.32" ry="3.345" transform="rotate(159.586 28.494 115.888)"/>
                <g fill-rule="nonzero" transform="translate(18.9)">
                    <g>
                        <path fill="url(#prefix__x)" d="M16.93 43.228c-.852 1.533-2.859 2.058-4.484 1.172l-1.87-1.018c-1.625-.885-2.252-2.846-1.402-4.379L28.63 3.948c.85-1.533 2.857-2.058 4.483-1.173l1.87 1.019c1.624.885 2.044 2.542 1.402 4.379-6.815 19.482-19.455 35.055-19.455 35.055z" transform="translate(1.534 17.864)"/>
                        <path fill="url(#prefix__y)" d="M22.075 23.205c5.916-10.66 9.803-19.83 8.877-20.869l.022-.04c-.025-.013-.052-.022-.077-.036-.003-.002-.004-.008-.007-.01l-.003.006c-9.091-4.88-21.322-.047-27.364 10.84C-2.52 23.986-.087 36.808 8.943 41.8l-.003.005c.003.002.008 0 .012 0 .025.015.047.032.072.046l.022-.04c1.382.219 7.113-7.945 13.03-18.605z" transform="translate(1.534 17.864)"/>
                    </g>
                    <g>
                        <path fill="url(#prefix__z)" d="M18.679 43.302c.806 1.556 2.797 2.138 4.447 1.3l1.898-.965c1.65-.839 2.335-2.78 1.53-4.337L8.129 3.703c-.806-1.557-2.797-2.139-4.448-1.3l-1.898.965C.133 4.206-.335 5.85.253 7.704 6.5 27.374 18.68 43.302 18.68 43.302z" transform="translate(102.423 17.864)"/>
                        <path fill="url(#prefix__A)" d="M14.118 23.14C8.515 12.313 4.897 3.037 5.853 2.024l-.021-.04c.026-.012.053-.02.079-.034.003-.002.004-.008.007-.01l.003.006c9.23-4.619 21.314.563 27.037 11.62C38.68 24.622 35.876 37.37 26.705 42.1l.002.006c-.003.001-.008-.002-.012 0-.026.013-.048.03-.073.043l-.021-.04c-1.388.178-6.88-8.146-12.483-18.97z" transform="translate(102.423 17.864)"/>
                    </g>
                    <path fill="#353535" d="M134.784 36.439s-6.807-16.894-14.702-25.825c-7.895-8.932-85.137-11.978-97.82 0C9.576 22.59 4.793 36.439 4.793 36.439v-3.742s5.868-16.446 17.467-25.825c11.6-9.38 87.825-8.886 97.66 0 9.833 8.886 14.863 25.825 14.863 25.825v3.742z"/>
                    <ellipse cx="134.686" cy="32.001" fill="url(#prefix__B)" rx="2.661" ry="6.464" transform="rotate(152.851 134.686 32)"/>
                    <ellipse cx="5.744" cy="31.56" fill="url(#prefix__C)" rx="2.66" ry="6.466" transform="rotate(28.803 5.744 31.56)"/>
                </g>
                <g fill="#FFF" fill-rule="nonzero">
                    <path d="M83.249.194H10.356C-2.733.194-2.688 35.476 9.6 37.51l25.41-1.658c3.071 0 9.205-12.07 10.356-13.02 1.15-.948 4.94-1.064 6.433 0 1.493 1.065 4.888 11.804 7.96 11.804l25.408 2.873C97.036 31.97 94.044.194 83.25.194z" opacity=".6" transform="translate(40.5 32.4)"/>
                    <path d="M29.709 7.489c-8.028-.182-20.59-.108-27.452-.051C1.107 11.264-.176 16.109.46 20.814c6.232 0 19.78.03 29.413.03 5.801 0 10.678 1.111 15.214 2.314.112-.145.206-.252.279-.312 1.15-.949 4.94-1.065 6.433 0 .386.276.902 1.204 1.504 2.421 2.316.496 4.635.838 7.045.869 6.566.084 21.952.057 31.852.029 1.261-4.275.331-8.858.049-13.164-9.667 0-25.03-.221-32.394-.221-10.378 0-19.439-5.049-30.146-5.291z" opacity=".5" transform="translate(40.5 32.4)"/>
                </g>
                <path fill="#000" fill-rule="nonzero" d="M82.581 63.679c-.297-8.293 12.944-9.33 14.508-2.388 1.56 6.925-13.856 8.534-14.508 2.388-.52-4.907 0 0 0 0z"/>
            </g>
        </g>
    </g>
</svg>
