<svg xmlns="http://www.w3.org/2000/svg" xmlns:xlink="http://www.w3.org/1999/xlink" width="194" height="179" viewBox="0 0 194 179">
    <defs>
        <linearGradient id="prefix__a" x1="50%" x2="50%" y1="0%" y2="100%">
            <stop offset="0%" stop-color="#A4EDFF"/>
            <stop offset="9.95%" stop-color="#7BCFE4"/>
            <stop offset="25.985%" stop-color="#4DB4CE"/>
            <stop offset="81.015%" stop-color="#3BA1BB"/>
            <stop offset="100%" stop-color="#257D94"/>
        </linearGradient>
        <linearGradient id="prefix__f" x1="40.077%" x2="71.044%" y1="91.607%" y2="17.475%">
            <stop offset="0%" stop-color="#A65F00"/>
            <stop offset="31.019%" stop-color="#DD7E00"/>
            <stop offset="100%" stop-color="#FFC478"/>
        </linearGradient>
        <linearGradient id="prefix__h" x1="2.826%" x2="100%" y1="46.909%" y2="50%">
            <stop offset="0%" stop-color="#DBD6D6"/>
            <stop offset="100%" stop-color="#FFF"/>
        </linearGradient>
        <linearGradient id="prefix__j" x1="2.826%" x2="100%" y1="46.69%" y2="50%">
            <stop offset="0%" stop-color="#DBD6D6"/>
            <stop offset="100%" stop-color="#FFF"/>
        </linearGradient>
        <linearGradient id="prefix__m" x1="50%" x2="28.68%" y1="93.236%" y2="17.873%">
            <stop offset="0%" stop-color="#A65F00"/>
            <stop offset="0%" stop-color="#AF6400"/>
            <stop offset="31.019%" stop-color="#DD7E00"/>
            <stop offset="100%" stop-color="#FFC478"/>
        </linearGradient>
        <linearGradient id="prefix__o" x1="97.084%" x2="2.826%" y1="48.9%" y2="50%">
            <stop offset="0%" stop-color="#DBD6D6"/>
            <stop offset="100%" stop-color="#FFF"/>
        </linearGradient>
        <linearGradient id="prefix__q" x1="97.084%" x2="2.826%" y1="48.819%" y2="50%">
            <stop offset="0%" stop-color="#DBD6D6"/>
            <stop offset="100%" stop-color="#FFF"/>
        </linearGradient>
        <linearGradient id="prefix__r" x1="42.607%" x2="62.594%" y1="13.879%" y2="80.836%">
            <stop offset="0%" stop-color="#EBF29E"/>
            <stop offset="100%" stop-color="#D2E065"/>
        </linearGradient>
        <linearGradient id="prefix__s" x1="43.814%" x2="60.537%" y1="13.879%" y2="80.836%">
            <stop offset="0%" stop-color="#EBF29E"/>
            <stop offset="100%" stop-color="#D2E065"/>
        </linearGradient>
        <linearGradient id="prefix__t" x1="50%" x2="50%" y1="1.175%" y2="100%">
            <stop offset="0%" stop-color="#C73867"/>
            <stop offset="100%" stop-color="#901550"/>
        </linearGradient>
        <linearGradient id="prefix__u" x1="50%" x2="50%" y1="0%" y2="100%">
            <stop offset="0%" stop-color="#929393"/>
            <stop offset="100%" stop-color="#505151"/>
        </linearGradient>
        <linearGradient id="prefix__v" x1="50%" x2="50%" y1="0%" y2="100%">
            <stop offset="1.175%" stop-color="#C73867"/>
            <stop offset="100%" stop-color="#901550"/>
        </linearGradient>
        <linearGradient id="prefix__w" x1="50%" x2="50%" y1="0%" y2="100%">
            <stop offset="0%" stop-color="#929393"/>
            <stop offset="100%" stop-color="#505151"/>
        </linearGradient>
        <linearGradient id="prefix__x" x1="50%" x2="50%" y1="0%" y2="100%">
            <stop offset="1.175%" stop-color="#C73867"/>
            <stop offset="100%" stop-color="#901550"/>
        </linearGradient>
        <linearGradient id="prefix__y" x1="50%" x2="50%" y1="0%" y2="100%">
            <stop offset="1.175%" stop-color="#C73867"/>
            <stop offset="100%" stop-color="#901550"/>
        </linearGradient>
        <linearGradient id="prefix__C" x1="51.149%" x2="50%" y1="7.764%" y2="92.236%">
            <stop offset="0%" stop-color="#FFE3C3"/>
            <stop offset="33.588%" stop-color="#FFC06E"/>
            <stop offset="100%" stop-color="#E39227"/>
        </linearGradient>
        <linearGradient id="prefix__E" x1="50%" x2="50%" y1="0%" y2="100%">
            <stop offset="0%" stop-color="#FBEBCF"/>
            <stop offset="100%" stop-color="#F6D2A2"/>
        </linearGradient>
        <filter id="prefix__c" width="102.6%" height="101.9%" x="-1.3%" y="-.9%" filterUnits="objectBoundingBox">
            <feGaussianBlur in="SourceAlpha" result="shadowBlurInner1" stdDeviation=".5"/>
            <feOffset dy="1" in="shadowBlurInner1" result="shadowOffsetInner1"/>
            <feComposite in="shadowOffsetInner1" in2="SourceAlpha" k2="-1" k3="1" operator="arithmetic" result="shadowInnerInner1"/>
            <feColorMatrix in="shadowInnerInner1" values="0 0 0 0 1 0 0 0 0 1 0 0 0 0 1 0 0 0 0.280157343 0"/>
        </filter>
        <filter id="prefix__e" width="139.1%" height="127.7%" x="-19.5%" y="-12.1%" filterUnits="objectBoundingBox">
            <feOffset dy="1" in="SourceAlpha" result="shadowOffsetOuter1"/>
            <feGaussianBlur in="shadowOffsetOuter1" result="shadowBlurOuter1" stdDeviation="2.5"/>
            <feColorMatrix in="shadowBlurOuter1" result="shadowMatrixOuter1" values="0 0 0 0 0 0 0 0 0 0 0 0 0 0 0 0 0 0 0.438100962 0"/>
            <feOffset dy="1" in="SourceAlpha" result="shadowOffsetOuter2"/>
            <feColorMatrix in="shadowOffsetOuter2" result="shadowMatrixOuter2" values="0 0 0 0 0 0 0 0 0 0 0 0 0 0 0 0 0 0 0.0702032343 0"/>
            <feMerge>
                <feMergeNode in="shadowMatrixOuter1"/>
                <feMergeNode in="shadowMatrixOuter2"/>
            </feMerge>
        </filter>
        <filter id="prefix__g" width="126.9%" height="119%" x="-13.4%" y="-7.8%" filterUnits="objectBoundingBox">
            <feGaussianBlur in="SourceAlpha" result="shadowBlurInner1" stdDeviation=".5"/>
            <feOffset in="shadowBlurInner1" result="shadowOffsetInner1"/>
            <feComposite in="shadowOffsetInner1" in2="SourceAlpha" k2="-1" k3="1" operator="arithmetic" result="shadowInnerInner1"/>
            <feColorMatrix in="shadowInnerInner1" values="0 0 0 0 1 0 0 0 0 1 0 0 0 0 1 0 0 0 0.5 0"/>
        </filter>
        <filter id="prefix__l" width="138.6%" height="127.7%" x="-19.3%" y="-12.1%" filterUnits="objectBoundingBox">
            <feOffset dy="1" in="SourceAlpha" result="shadowOffsetOuter1"/>
            <feGaussianBlur in="shadowOffsetOuter1" result="shadowBlurOuter1" stdDeviation="2.5"/>
            <feColorMatrix in="shadowBlurOuter1" result="shadowMatrixOuter1" values="0 0 0 0 0 0 0 0 0 0 0 0 0 0 0 0 0 0 0.438100962 0"/>
            <feOffset dy="1" in="SourceAlpha" result="shadowOffsetOuter2"/>
            <feColorMatrix in="shadowOffsetOuter2" result="shadowMatrixOuter2" values="0 0 0 0 0 0 0 0 0 0 0 0 0 0 0 0 0 0 0.0702032343 0"/>
            <feMerge>
                <feMergeNode in="shadowMatrixOuter1"/>
                <feMergeNode in="shadowMatrixOuter2"/>
            </feMerge>
        </filter>
        <filter id="prefix__n" width="126.5%" height="119%" x="-13.3%" y="-7.8%" filterUnits="objectBoundingBox">
            <feGaussianBlur in="SourceAlpha" result="shadowBlurInner1" stdDeviation=".5"/>
            <feOffset in="shadowBlurInner1" result="shadowOffsetInner1"/>
            <feComposite in="shadowOffsetInner1" in2="SourceAlpha" k2="-1" k3="1" operator="arithmetic" result="shadowInnerInner1"/>
            <feColorMatrix in="shadowInnerInner1" values="0 0 0 0 1 0 0 0 0 1 0 0 0 0 1 0 0 0 0.5 0"/>
        </filter>
        <filter id="prefix__z" width="107.4%" height="108%" x="-3.7%" y="-4%" filterUnits="objectBoundingBox">
            <feGaussianBlur in="SourceGraphic" stdDeviation="2.201"/>
        </filter>
        <filter id="prefix__A" width="105.6%" height="106.1%" x="-2.8%" y="-2.4%" filterUnits="objectBoundingBox">
            <feOffset dy="1" in="SourceAlpha" result="shadowOffsetOuter1"/>
            <feGaussianBlur in="shadowOffsetOuter1" result="shadowBlurOuter1" stdDeviation="1.5"/>
            <feColorMatrix in="shadowBlurOuter1" values="0 0 0 0 0 0 0 0 0 0 0 0 0 0 0 0 0 0 0.357599432 0"/>
        </filter>
        <filter id="prefix__D" width="103.9%" height="104.2%" x="-1.9%" y="-1.5%" filterUnits="objectBoundingBox">
            <feGaussianBlur in="SourceAlpha" result="shadowBlurInner1" stdDeviation=".5"/>
            <feOffset in="shadowBlurInner1" result="shadowOffsetInner1"/>
            <feComposite in="shadowOffsetInner1" in2="SourceAlpha" k2="-1" k3="1" operator="arithmetic" result="shadowInnerInner1"/>
            <feColorMatrix in="shadowInnerInner1" values="0 0 0 0 1 0 0 0 0 1 0 0 0 0 1 0 0 0 0.505709135 0"/>
        </filter>
        <path id="prefix__b" d="M122.805 66.137c-6.89-13.593-20.115-15.587-34.252-15.587-15.222 1.195-29.334 4.744-34.59 20.37-5.037 15.07-.283 30.519-.892 45.949-.358 8.847-1.978 19.62-.766 29.362 11.09 6.865 24.14 10.937 38.151 10.937 13.402 0 25.918-3.675 36.67-10.006 2.367-10.754 1.193-22.597.552-33.213-.885-16.147 1.306-32.559-4.873-47.812z"/>
        <path id="prefix__d" d="M1.156 0s.891 9.703.853 13.863c-.069 4.172 3.92 1.554 4.133 8.099.213 6.582-2.437 5.298-3.812 8.526C.942 33.698 0 48.788 0 48.788s1.406 2.838 5.86 5.336c4.452 2.548 11.586 3.958 17.766 3.675 6.18-.283 10.594-1.605 11.68-2.335 1.106-.73 2.92-3.052 3.63-4.833.71-1.8 2.117-16.556 2.01-25.007-.107-8.458-1.476-16.235-1.476-16.235L1.156 0z"/>
        <path id="prefix__k" d="M37.956 0s-.107 9.703-.069 13.863c.069 4.172-2.437 1.554-2.65 8.099-.214 6.582 2.436 5.298 3.843 8.526 1.407 3.21 2.368 18.3 2.368 18.3s-1.444 2.838-5.929 5.336c-4.484 2.548-11.712 3.958-17.96 3.675-6.25-.283-10.733-1.605-11.838-2.335-1.137-.749-2.958-3.052-3.668-4.833-.71-1.8-2.154-16.556-2.047-25.007.106-8.451 1.513-16.235 1.513-16.235L37.956 0z"/>
        <path id="prefix__B" d="M127.345 162.573c-8.258 2.586-16.02 3.977-23.996 1.605-3.454-1.038-6.424-2.945-7.938-7.03 11.034.215 22.163-2.869 31.934 5.425zm-42.629-5.928c-.571 2.549-2.085 4.386-4.163 5.21-3.115 1.266-6.444 2.304-9.772 2.8-5.062.712-12.573-.66-17.453-2.66 3.046-3.48 6.908-5.085 11.11-5.28 6.695-.321 13.402-.07 20.278-.07zm61.551-4.99c-9.596 6.992-25.17 9.188-29.799.749 9.917-1.819 19.531-6.815 29.8-.749zM45.14 148.528c6.23.824 12.39 2.234 19.085 3.48-2.725 3.907-6.016 5.28-9.702 5.6-7.48.642-14.061-2.051-20.599-5.921 3.473-2.694 7.316-3.657 11.216-3.16zm67.932-11.56c1.55 4.084 1.067 7.583-1.476 10.704-3.649 4.474-8.773 6.563-14.155 8.224-.61.164-1.212.29-1.96.447-.32-2.8.748-5.21 2.406-7.136 2.047-2.41 4.415-4.637 6.87-6.6 2.544-2.052 5.376-3.695 8.315-5.639zm-45.933-.176c11.097 5.783 18.213 12.667 17.553 18.979-5.307-1.322-10.092-3.229-14.155-6.708-4.007-3.443-5.232-7.954-3.398-12.271zm58.976-6.343c2.902 2.548 3.58 7.098 1.583 11.132-2.487 4.864-6.688 7.878-11.762 10.647-1.728-10.081 4.948-15.575 10.18-21.78zm-72.057-.328c5.338 6.243 12.001 11.774 10.38 21.42-10.129-2.246-16.145-14.605-10.38-21.42zm107.075 7.338c-8.49 9.15-20.737 12.881-27.4 6.67 6.733-6.337 20.888-9.83 27.4-6.67zm-130.933-1.542c2.33.604 4.628 1.479 6.801 2.48 3.26 1.478 6.444 3.158 9.879 4.832-3.793 3.48-8.026 3.908-12.428 2.945-6.08-1.265-10.921-4.782-15.5-9.275 3.794-1.875 7.53-1.926 11.248-.982zm106.347-15.335c7.103 5.084 5.501 15.499-3.611 22.905-4.327-8.721-.038-15.681 3.61-22.905zm-93.027-.541c5.979 9.042 7.316 17.248 3.686 22.565-8.723-5.921-10.594-16.858-3.686-22.565zm128.063.258c-4.076 8.274-15.33 17.21-24.316 11.704 5.482-7.835 17.697-13.725 24.316-11.704zM33.138 131.355c-9.207 5.638-20.416-3.443-24.46-11.63 6.907-2.447 15.511 2.87 24.46 11.63zm110.761-22.528c7.958 2.888 9.17 14.486 2.368 22.654-6.374-7.048-4.29-14.826-2.368-22.654zm-107.929-.56c3.504 8.545 3.26 18.053-2.085 22.458-5.802-7.494-6.48-18.299 2.085-22.458zm141.911-6.771c-1.884 10.987-12.887 19.463-20.881 16.11 4.383-9.44 13.904-16.809 20.881-16.11zm-175.66-.882c11.16.535 15.613 9.081 21.346 16.217-7.875 3.675-18.2-4.153-21.346-16.217zm146.024-4.643c8.774 1.101 11.838 11.73 7.725 21.42-7.781-5.494-7.781-13.429-7.725-21.42zM32.02 95.178c.07 8.224.038 16.109-7.567 21.527-3.793-6.865-2.738-19.243 7.567-21.527zm147.733-13.391c.213 8.363-6.017 21.886-16.68 19.96 2.223-10.08 9.771-19.123 16.68-19.96zm-17.66 19.992c-8.88-3.656-10.752-11.384-12.428-19.3 7.925-1.265 13.728 7.633 12.428 19.3zM.136 81.246c7.191.604 12.837 7.582 17.164 20.03-4.823.641-8.56-1.266-11.5-4.802-3.547-4.38-4.866-9.59-5.664-15.228zm30.138.484c.157 8.237-5.338 17.142-12.108 19.3-1.318-11.27 3.794-19.37 12.108-19.3zm147.042-19.728c2.26 11.095-2.424 22.8-12.284 23.19 2.116-8.899 2.581-18.338 12.284-23.19zm-12.887 23.152c-6.55-.573-12.71-6.205-16.146-16.431 7.794-2.083 15.361 5.569 16.146 16.43zM32.09 68.044c-3.008 9.508-9.596 16.14-16.146 16.43 0-10.043 7.744-18.017 16.146-16.43zM2.63 61.246c10.024 5.028 10.5 14.467 12.567 23.189-4.578.176-8.742-2.8-10.84-7.652-2.103-4.833-2.191-9.88-1.727-15.537zm160.444 7.482c-9.634.252-14.614-6.242-19.62-12.774 6.978-4.034 17.095 2.586 19.62 12.774zm7.442-25.391c4.735 10.207 2.757 23.126-6.87 25.083.25-9.005-1.64-18.337 6.87-25.083zM36.93 55.275c-5.074 6.67-10.06 13.058-19.543 12.913 2.367-10.414 11.907-16.55 19.543-12.913zM9.374 42.86c6.086 3.587 8.384 11.95 7.065 24.862-3.93-.39-7.693-4.335-8.704-9.15-1.099-5.348-.176-10.49 1.64-15.712zm148.549 9.634c-5.35 2.624-14.77-.963-22.125-8.527 7.442-4.637 17.409-.73 22.125 8.527zm-113.62-9.137c-5.5 6.922-15.687 10.974-22.092 8.721 5.2-9.508 15.185-13.397 22.093-8.721zm115.171-17.123c7.725 10.364 7.373 22.616-.892 26.166-1.758-8.842-6.01-17.563.892-26.166zm-138.727-.623c6.909 8.596 2.726 17.318.93 26.222-4.88-2.177-7.279-7.243-6.374-13.233.728-4.676 2.543-8.867 5.444-12.989zm128.817 12.61c-9.238 3.978-16.805-.25-24.567-4.14 6.23-6.129 17.05-4.33 24.567 4.14zM55.27 33.51c-7.781 3.888-15.33 8.118-24.568 4.14 7.53-8.47 18.37-10.276 24.568-4.14zm88.92-21.628c4.823 4.511 8.773 9.332 9.847 15.895.603 3.725-.785 7.243-3.718 9.722-6.594-7.104-9.678-19.558-6.13-25.617zm-108.043-.61c2.01 3.297 2.085 6.6 1.35 9.954-.891 4.191-4.628 12.026-7.354 15.682-3.541-2.335-4.948-7.174-3.328-12.202 1.664-5.393 5.08-9.546 9.332-13.435zm101.166 14.321c-8.51 5.922-17.164 2.908-25.849.925 3.869-7.305 16.328-7.79 25.849-.925zm-68.371.303c-8.78 2.051-17.409 5.084-25.918-.819 7.404-5.53 20.417-7.796 25.918.819zM123.89.66c6.054 3.19 10.84 6.708 14.062 11.987 2.58 4.229 2.436 8.722-.428 12.416-5.871-7.262-14.488-12.774-13.634-24.403zM55.93.308c1.23 2.838.747 5.532-.497 7.797-1.871 3.373-4.163 6.525-6.512 9.577-1.897 2.38-4.101 4.45-6.362 6.891-2.688-4.14-2.688-7.992-.603-11.811C45.07 7.016 50.182 3.398 55.93.308zm74.086 19.382c-7.782 2.48-21.522-4.191-26.616-13.058 9.772-1.39 21.987 4.676 26.616 13.058zM77.124 5.632c-3.41 6.903-15.412 15.146-26.54 13.34 4.396-8.457 16.322-14.429 26.54-13.34z"/>
    </defs>
    <g fill="none" fill-rule="evenodd" transform="translate(7 6)">
        <path fill="#8C5406" fill-rule="nonzero" d="M49.429 92.233s9.74-8.527 38.61-8.527c26.47 0 33.93 6.01 41.48 8.527L90.085 111.55 49.429 92.233z"/>
        <path fill="#F6D2A2" fill-rule="nonzero" d="M45.315 117.87c.176 3.674 3.843 1.982 5.54.805 1.6-1.108 2.046-.176 2.19-2.335.108-1.41.252-2.838.177-4.279-2.406-.214-4.987.359-6.946 1.768-1.068.775-2.933 3.109-.961 4.04z"/>
        <path fill="#C6B199" fill-rule="nonzero" d="M45.315 117.87c.534-.215 1.106-.36 1.476-.806l-1.476.805z"/>
        <path fill="#F6D2A2" fill-rule="nonzero" d="M134.593 117.404c-.176 3.675-3.844 1.982-5.54.805-1.6-1.107-2.047-.176-2.191-2.334-.107-1.41-.251-2.838-.176-4.28 2.405-.214 4.986.36 6.946 1.769 1.03.736 2.939 3.108.96 4.04z"/>
        <path fill="#E3E0E4" fill-rule="nonzero" d="M134.593 117.404c-.534-.214-1.106-.359-1.476-.806l1.476.806z"/>
        <use fill="url(#prefix__a)" xlink:href="#prefix__b"/>
        <use fill="#000" filter="url(#prefix__c)" xlink:href="#prefix__b"/>
        <path fill="#FFF" fill-rule="nonzero" d="M93.935 87.224c0 1.906.428 4.065.07 6.116-.497.925-1.445 1.02-2.261 1.41-1.137-.177-2.117-.925-2.581-2.014-.283-2.334.106-4.6.176-6.94l4.596 1.428zM84.038 87.01c-1.513 3.675.854 11.025 4.949 5.581-.283-2.334.107-4.6.176-6.94l-5.125 1.359z"/>
        <g transform="translate(48.273 92.233)">
            <mask id="prefix__i" fill="#fff">
                <use xlink:href="#prefix__d"/>
            </mask>
            <use fill="#000" filter="url(#prefix__e)" xlink:href="#prefix__d"/>
            <use fill="url(#prefix__f)" xlink:href="#prefix__d"/>
            <use fill="#000" filter="url(#prefix__g)" xlink:href="#prefix__d"/>
            <path fill="url(#prefix__h)" fill-rule="nonzero" d="M40.287 41.186C22.112 43.237.998 37.618.998 37.618s.32-5.689 1.658-7.709c18.922 5.871 37.989 3.977 37.989 3.977.282 2.662.1 4.79-.358 7.3z" mask="url(#prefix__i)"/>
            <path fill="url(#prefix__j)" fill-rule="nonzero" d="M37.988 52.393C19.814 54.445 0 48.573 0 48.573S-.07 43.1.678 40.69c18.922 5.87 39.112 4.424 39.112 4.424-.182 2.907-.59 5.726-1.802 7.28z" mask="url(#prefix__i)"/>
        </g>
        <g transform="translate(91.58 92.233)">
            <mask id="prefix__p" fill="#fff">
                <use xlink:href="#prefix__k"/>
            </mask>
            <use fill="#000" filter="url(#prefix__l)" xlink:href="#prefix__k"/>
            <use fill="url(#prefix__m)" xlink:href="#prefix__k"/>
            <use fill="#000" filter="url(#prefix__n)" xlink:href="#prefix__k"/>
            <path fill="url(#prefix__o)" fill-rule="nonzero" d="M.697 41.186c18.425 2.051 39.784-3.568 39.784-3.568s-.32-5.689-1.69-7.709C19.618 35.78.301 33.905.301 33.905c-.283 2.643-.1 4.77.396 7.281z" mask="url(#prefix__p)"/>
            <path fill="url(#prefix__q)" fill-rule="nonzero" d="M2.976 52.393c18.426 2.052 38.49-3.82 38.49-3.82s.07-5.474-.678-7.884C21.615 46.559 1.18 45.113 1.18 45.113c.176 2.907.603 5.726 1.796 7.28z" mask="url(#prefix__p)"/>
        </g>
        <path fill="url(#prefix__r)" fill-rule="nonzero" d="M136.891 110.035c-.552 1.108-1.69 1.604-2.543 1.177l-.679-.36c-.803-.427-1.017-1.66-.464-2.762l12.886-24.384c.553-1.107 1.69-1.605 2.544-1.177l.678.359c.804.428 1.017 1.661.465 2.762l-12.887 24.385z"/>
        <path fill="#191919" fill-rule="nonzero" d="M130.78 121.525c-.32.642-1.262.768-2.084.36l-.679-.36c-.803-.428-1.23-1.302-.892-1.944l6.036-11.434c.32-.642 1.262-.768 2.085-.359l.678.359c.804.428 1.23 1.303.892 1.945l-6.035 11.433z"/>
        <path fill="#F6D2A2" fill-rule="nonzero" d="M133.359 115.343c.422-1.137-.424-2.501-1.89-3.048-1.466-.547-2.997-.069-3.42 1.068-.421 1.137.425 2.502 1.89 3.048 1.467.547 2.997.069 3.42-1.068z"/>
        <path fill="url(#prefix__s)" fill-rule="nonzero" d="M43.481 110.431c.534 1.108 1.62 1.693 2.475 1.265l.678-.32c.854-.391 1.105-1.624.603-2.732l-11.75-24.938c-.534-1.107-1.62-1.693-2.475-1.265l-.678.321c-.854.39-1.105 1.624-.603 2.731l11.75 24.938z"/>
        <path fill="#191919" fill-rule="nonzero" d="M49.058 122.199c.32.642 1.23.856 2.085.465l.678-.32c.854-.39 1.263-1.234.98-1.876L47.3 108.764c-.32-.642-1.231-.856-2.085-.466l-.678.321c-.855.39-1.263 1.234-.98 1.875l5.501 11.705z"/>
        <path fill="#F6D2A2" fill-rule="nonzero" d="M50.765 116.738c1.467-.546 2.313-1.911 1.89-3.048-.422-1.137-1.953-1.615-3.419-1.068-1.466.546-2.312 1.911-1.89 3.048.423 1.136 1.954 1.615 3.42 1.068z"/>
        <path fill="url(#prefix__t)" fill-rule="nonzero" d="M53.95 79.446c-.552 1.02-1.871 1.39-2.958.768l-1.23-.68c-1.05-.604-1.477-1.907-.924-2.888l12.818-23.353c.553-1.02 1.871-1.39 2.958-.768l1.23.68c1.05.604 1.35 1.693.924 2.889-4.484 12.95-12.818 23.352-12.818 23.352z"/>
        <path fill="url(#prefix__u)" fill-rule="nonzero" d="M57.385 66.099c3.882-7.117 6.463-13.234 5.86-13.894v-.038s-.038 0-.038-.038c-5.997-3.266-14.049-.038-18.049 7.205-3.988 7.243-2.368 15.801 3.56 19.143l.039.037v-.037c.923.145 4.697-5.311 8.628-12.378z"/>
        <path fill="url(#prefix__v)" fill-rule="nonzero" d="M124.25 79.477c.533 1.02 1.833 1.41 2.92.856l1.23-.642c1.106-.553 1.552-1.837 1.018-2.888L117.272 53.06c-.534-1.02-1.834-1.41-2.92-.855l-1.231.641c-1.105.554-1.407 1.662-1.017 2.889 4.132 13.133 12.145 23.742 12.145 23.742z"/>
        <path fill="url(#prefix__w)" fill-rule="nonzero" d="M121.241 66.03c-3.705-7.206-6.073-13.397-5.445-14.077v-.038s.038 0 .038-.038c6.073-3.083 14.049.39 17.817 7.74 3.774 7.37 1.902 15.84-4.133 19.036l-.037.038v-.038c-.924.151-4.522-5.4-8.24-12.623z"/>
        <path fill="#353635" fill-rule="nonzero" d="M133.255 62.997s-4.629-11.24-9.954-17.198c-5.326-5.96-57.607-7.992-66.223 0C48.46 53.79 45.24 62.997 45.24 62.997v-2.48S49.19 49.55 57.078 43.32c7.887-6.23 59.46-5.902 66.079 0 6.675 5.903 10.06 17.198 10.06 17.198v2.48h.038z"/>
        <path fill="url(#prefix__x)" fill-rule="nonzero" d="M135.155 63.9c.867-.446.69-2.526-.396-4.648-1.086-2.121-2.669-3.48-3.536-3.034-.867.445-.69 2.526.395 4.648 1.086 2.121 2.67 3.48 3.537 3.034z"/>
        <path fill="url(#prefix__y)" fill-rule="nonzero" d="M47.119 60.588c1.146-2.09 1.383-4.165.529-4.635-.854-.47-2.476.841-3.622 2.93-1.146 2.09-1.384 4.165-.53 4.636.855.47 2.476-.842 3.623-2.931z"/>
        <path fill="#FFF" fill-rule="nonzero" d="M90.142 70.346c2.387 13.951 25.152 10.276 21.899-3.8-2.94-12.61-22.702-9.112-21.899 3.8zM62.943 72.612c3.096 12.145 22.52 9.024 21.773-3.14-.879-14.606-24.75-11.793-21.773 3.14z"/>
        <path fill="#000" fill-rule="nonzero" d="M68.281 67.068c1.797 0 3.278 1.605 3.278 3.549 0 1.964-1.475 3.55-3.278 3.55-1.796 0-3.278-1.606-3.278-3.55 0-1.944 1.482-3.55 3.278-3.55z"/>
        <path fill="#FFF" fill-rule="nonzero" d="M69.776 70.523c.427 0 .766.39.766.893 0 .504-.358.894-.766.894-.408 0-.766-.39-.766-.894 0-.478.34-.893.766-.893z"/>
        <path fill="#000" fill-rule="nonzero" d="M95.77 66.193c1.777 0 3.22 1.605 3.22 3.55 0 1.963-1.443 3.548-3.22 3.548-1.778 0-3.222-1.604-3.222-3.549-.02-1.963 1.419-3.549 3.221-3.549z"/>
        <path fill="#FFF" fill-rule="nonzero" d="M97.226 69.635c.427 0 .766.39.766.894s-.339.894-.766.894-.766-.39-.766-.894c0-.466.34-.894.766-.894zM69.776 70.523c-.427 0-.766.39-.766.893 0 .504.358.894.766.894.408 0 .766-.39.766-.894.019-.478-.339-.893-.766-.893z"/>
        <path fill="#FFF" fill-rule="nonzero" d="M97.226 69.635c-.427 0-.766.39-.766.894s.34.894.766.894c.427 0 .766-.39.766-.894 0-.466-.358-.894-.766-.894z"/>
        <path fill="#E99C36" fill-opacity=".387" d="M127.345 163.32c-8.258 2.586-16.02 3.977-23.996 1.604-3.454-1.038-6.424-2.944-7.938-7.029 11.034.214 22.163-2.869 31.934 5.425zm-42.629-5.928c-.571 2.549-2.085 4.386-4.163 5.21-3.115 1.265-6.444 2.304-9.772 2.8-5.062.712-12.573-.66-17.453-2.661 3.046-3.48 6.908-5.085 11.11-5.28 6.695-.32 13.402-.069 20.278-.069zm61.551-4.99c-9.596 6.991-25.17 9.187-29.799.749 9.917-1.819 19.531-6.815 29.8-.75zM45.14 149.274c6.23.825 12.39 2.234 19.085 3.48-2.725 3.908-6.016 5.28-9.702 5.601-7.48.642-14.061-2.052-20.599-5.922 3.473-2.693 7.316-3.656 11.216-3.159zm67.932-11.56c1.55 4.085 1.067 7.583-1.476 10.705-3.649 4.474-8.773 6.563-14.155 8.224-.61.164-1.212.29-1.96.447-.32-2.8.748-5.21 2.406-7.136 2.047-2.41 4.415-4.638 6.87-6.601 2.544-2.051 5.376-3.694 8.315-5.638zm-45.933-.175c11.097 5.783 18.213 12.667 17.553 18.978-5.307-1.321-10.092-3.228-14.155-6.708-4.007-3.442-5.232-7.954-3.398-12.27zm58.976-6.344c2.902 2.549 3.58 7.098 1.583 11.132-2.487 4.864-6.688 7.879-11.762 10.647-1.728-10.08 4.948-15.574 10.18-21.779zm-72.057-.327c5.338 6.243 12.001 11.774 10.38 21.42-10.129-2.246-16.145-14.605-10.38-21.42zm107.075 7.337c-8.49 9.15-20.737 12.882-27.4 6.67 6.733-6.336 20.888-9.829 27.4-6.67zm-130.933-1.541c2.33.604 4.628 1.479 6.801 2.479 3.26 1.479 6.444 3.159 9.879 4.833-3.793 3.48-8.026 3.908-12.428 2.945-6.08-1.265-10.921-4.783-15.5-9.276 3.794-1.875 7.53-1.925 11.248-.981zm106.347-15.336c7.103 5.085 5.501 15.5-3.611 22.906-4.327-8.722-.038-15.682 3.61-22.906zm-93.027-.54c5.979 9.042 7.316 17.247 3.686 22.565-8.723-5.922-10.594-16.859-3.686-22.566zm128.063.257c-4.076 8.275-15.33 17.21-24.316 11.705 5.482-7.835 17.697-13.725 24.316-11.705zM33.138 132.102c-9.207 5.638-20.416-3.443-24.46-11.63 6.907-2.447 15.511 2.87 24.46 11.63zm110.761-22.529c7.958 2.889 9.17 14.486 2.368 22.654-6.374-7.048-4.29-14.825-2.368-22.654zm-107.929-.56c3.504 8.546 3.26 18.054-2.085 22.46-5.802-7.495-6.48-18.3 2.085-22.46zm141.911-6.77c-1.884 10.987-12.887 19.463-20.881 16.109 4.383-9.44 13.904-16.808 20.881-16.11zm-175.66-.882c11.16.535 15.613 9.08 21.346 16.217-7.875 3.675-18.2-4.153-21.346-16.217zm146.024-4.644c8.774 1.102 11.838 11.73 7.725 21.42-7.781-5.493-7.781-13.428-7.725-21.42zM32.02 95.924c.07 8.225.038 16.11-7.567 21.528-3.793-6.865-2.738-19.243 7.567-21.528zm147.733-13.39c.213 8.363-6.017 21.886-16.68 19.96 2.223-10.08 9.771-19.124 16.68-19.96zm-17.66 19.991c-8.88-3.656-10.752-11.383-12.428-19.3 7.925-1.264 13.728 7.634 12.428 19.3zM.136 81.992c7.191.604 12.837 7.583 17.164 20.03-4.823.642-8.56-1.265-11.5-4.801C2.254 92.84.935 87.63.137 81.992zm30.138.485c.157 8.237-5.338 17.141-12.108 19.3-1.318-11.27 3.794-19.37 12.108-19.3zm147.042-19.728c2.26 11.094-2.424 22.799-12.284 23.189 2.116-8.898 2.581-18.337 12.284-23.189zM164.429 85.9c-6.55-.572-12.71-6.205-16.146-16.43 7.794-2.083 15.361 5.569 16.146 16.43zM32.09 68.79c-3.008 9.509-9.596 16.141-16.146 16.43 0-10.043 7.744-18.016 16.146-16.43zM2.63 61.994c10.024 5.028 10.5 14.467 12.567 23.189-4.578.176-8.742-2.8-10.84-7.652-2.103-4.833-2.191-9.88-1.727-15.537zm160.444 7.482c-9.634.252-14.614-6.243-19.62-12.774 6.978-4.034 17.095 2.586 19.62 12.774zm7.442-25.391c4.735 10.207 2.757 23.125-6.87 25.083.25-9.005-1.64-18.337 6.87-25.083zM36.93 56.022c-5.074 6.67-10.06 13.058-19.543 12.913 2.367-10.415 11.907-16.55 19.543-12.913zM9.374 43.606c6.086 3.587 8.384 11.95 7.065 24.863-3.93-.39-7.693-4.335-8.704-9.15-1.099-5.348-.176-10.49 1.64-15.713zm148.549 9.635c-5.35 2.624-14.77-.963-22.125-8.527 7.442-4.638 17.409-.73 22.125 8.527zm-113.62-9.138c-5.5 6.923-15.687 10.975-22.092 8.722 5.2-9.508 15.185-13.397 22.093-8.722zm115.171-17.122c7.725 10.364 7.373 22.616-.892 26.165-1.758-8.84-6.01-17.563.892-26.165zm-138.727-.623c6.909 8.596 2.726 17.318.93 26.222-4.88-2.177-7.279-7.243-6.374-13.234.728-4.675 2.543-8.866 5.444-12.988zm128.817 12.61c-9.238 3.978-16.805-.251-24.567-4.14 6.23-6.129 17.05-4.33 24.567 4.14zM55.27 34.256c-7.781 3.89-15.33 8.118-24.568 4.141 7.53-8.47 18.37-10.276 24.568-4.14zm88.92-21.628c4.823 4.512 8.773 9.332 9.847 15.896.603 3.725-.785 7.243-3.718 9.722-6.594-7.104-9.678-19.558-6.13-25.618zm-108.043-.61c2.01 3.297 2.085 6.601 1.35 9.955-.891 4.191-4.628 12.025-7.354 15.682-3.541-2.335-4.948-7.174-3.328-12.202 1.664-5.393 5.08-9.546 9.332-13.435zm101.166 14.322c-8.51 5.922-17.164 2.907-25.849.925 3.869-7.306 16.328-7.79 25.849-.925zm-68.371.302c-8.78 2.052-17.409 5.085-25.918-.818 7.404-5.531 20.417-7.797 25.918.818zm54.95-25.234c6.054 3.19 10.84 6.708 14.062 11.988 2.58 4.229 2.436 8.722-.428 12.416-5.871-7.262-14.488-12.775-13.634-24.404zM55.93 1.055c1.23 2.838.747 5.531-.497 7.797-1.871 3.373-4.163 6.525-6.512 9.577-1.897 2.379-4.101 4.45-6.362 6.89-2.688-4.14-2.688-7.991-.603-11.81C45.07 7.762 50.182 4.144 55.93 1.054zm74.086 19.382c-7.782 2.479-21.522-4.191-26.616-13.058 9.772-1.39 21.987 4.676 26.616 13.058zM77.124 6.379c-3.41 6.903-15.412 15.146-26.54 13.34 4.396-8.457 16.322-14.43 26.54-13.34z" filter="url(#prefix__z)"/>
        <use fill="#000" filter="url(#prefix__A)" xlink:href="#prefix__B"/>
        <use fill="url(#prefix__C)" xlink:href="#prefix__B"/>
        <use fill="#000" filter="url(#prefix__D)" xlink:href="#prefix__B"/>
        <path fill="url(#prefix__E)" fill-rule="nonzero" d="M84.539 79.944c-2.807.23-5.098 3.616-3.666 6.256 1.948 3.558 6.3-.344 8.993.058 3.093.057 5.67 3.27 8.133.573 2.806-3.041-1.203-5.969-4.296-7.23l-9.164.343z"/>
        <path fill="#010101" fill-rule="nonzero" d="M84.195 79.83c-.229-4.879 9.107-5.51 10.196-1.435 1.088 4.132-9.795 5.05-10.196 1.434 0 0-.4-2.926 0 0z"/>
    </g>
</svg>
