<svg xmlns="http://www.w3.org/2000/svg" width="226" height="144" viewBox="0 0 226 144">
    <g fill="none">
        <path fill="#000" d="M0 0H204.569V58.378H0z" transform="translate(10.716 42.81)"/>
        <path fill="#FFF" d="M194.787 42.586c-.399.113-.736.175-1.073.175-1.196 0-1.758-.515-1.758-1.998v-11.2c0-5.882-4.65-8.746-10.15-8.746-4.2 0-6.458.515-10.945 2.338l-1.002 5.935 5.836.628.828-2.905c1.196-.629 2.381-.742 3.914-.742 4.14 0 4.2 3.142 4.2 5.77v.855c-1.307-.176-2.779-.227-4.2-.227-5.835 0-11.906 1.484-11.906 7.83 0 5.368 4.19 7.377 7.88 7.377 4.139 0 6.745-2.514 8.217-5.141.337 3.142 2.207 5.14 5.61 5.14 1.585 0 3.23-.453 4.59-1.205l-.041-3.884zm-15.699-.165c-2.207 0-3.004-1.318-3.004-2.977 0-2.802 2.268-3.544 4.875-3.544 1.185 0 2.493.175 3.69.34-.175 4.296-2.955 6.181-5.56 6.181zm-9.821-34.637l-11.059 39.325h-7.205L162.06 7.784h7.206zm-14.85 0l-11.059 39.325h-7.195L147.22 7.784h7.195zm-30.702 13.548h7.655v9.252h-7.655v-9.252zm0 16.515h7.655v9.262h-7.655v-9.262zm-11.14-.34l5.784.567-1.584 9.035H94.433l-.735-3.884 14.063-16.289h-7.993l-1.134 3.998-5.274-.577.91-9.036h22.454l.572 3.885-14.186 16.298h8.279l1.185-3.997zm-36.64-16.69c-9.188 0-13.726 6.233-13.726 13.774 0 8.232 5.447 13.085 13.327 13.085 8.166 0 14.063-5.203 14.063-13.435 0-7.202-4.487-13.424-13.664-13.424zM75.76 42.02c-3.966 0-6.01-3.431-6.01-7.892 0-4.863 2.32-7.655 6.071-7.655 3.455 0 6.235 2.339 6.235 7.541 0 4.915-2.494 8.006-6.296 8.006zm-20.134-.516h3.403v5.605H48.31V32.593c0-4.461-1.473-6.172-4.365-6.172-3.516 0-4.936 2.514-4.936 6.12v8.963h3.403v5.605H31.7V32.593c0-4.461-1.472-6.172-4.364-6.172-3.516 0-4.936 2.514-4.936 6.12v8.963h4.875v5.605H11.69v-5.605h3.403V26.926H11.69v-5.605H22.4v3.885c1.534-2.74 4.201-4.4 7.768-4.4 3.69 0 7.083 1.772 8.34 5.543 1.42-3.43 4.313-5.543 8.34-5.543 4.588 0 8.789 2.803 8.789 8.912v11.786h-.01z" transform="translate(10.716 42.81)"/>
    </g>
</svg>
