<svg xmlns="http://www.w3.org/2000/svg" width="226" height="144" viewBox="0 0 226 144">
    <g>
        <path d="M147.062 10.962h-15.24l2.471-4.24c1.029-1.757 1.956-2.378 3.501-2.378s2.06 1.24 1.237 2.792h15.55l1.545-2.792C157.258 2.276 157.258 0 154.478 0h-27.393c-2.472 0-4.429.31-5.87 2.69l-4.84 8.272c-1.338 2.38-1.236 4.345 2.06 4.345h15.755l-2.574 4.55c-.72 1.24-1.648 2.068-3.81 2.068-1.855 0-1.75-1.24-.927-2.481h-15.447l-1.855 3.103c-1.132 1.965-.205 3.723 2.472 3.723h27.186c2.471 0 4.634-1.137 5.87-3.206l4.634-7.756c1.03-1.967.515-4.346-2.677-4.346zM213.83 4.865c-1.349 0-2.442.87-2.442 1.935 0 1.086 1.093 1.957 2.442 1.957 1.342 0 2.429-.871 2.429-1.957 0-1.064-1.087-1.935-2.429-1.935zm0 3.511c-1.1 0-1.98-.689-1.98-1.577.001-.86.879-1.555 1.98-1.555 1.087 0 1.966.695 1.966 1.555 0 .888-.88 1.577-1.966 1.577zM111.323 0h-23.35c-3.202 0-7.335 0-9.815 4.345l-10.332 17.58c-1.446 2.38-.206 4.345 2.48 4.345h27.172c2.79 0 4.546-.828 6.715-4.344l10.332-17.581C115.868 2.07 113.801 0 111.323 0zM98.2 6.723l-7.747 13.134c-1.033 1.863-1.964 2.069-4.34 2.069-2.377 0-2.997-.827-2.273-2.069l7.852-13.134c1.137-1.966 2.48-2.378 4.443-2.378 1.963 0 3.098.62 2.065 2.378zM71.738 0H41.63L28.654 21.926H0l.014 4.344h57.812c3.842 0 5.087-1.862 5.918-3.31l3.114-5.378c.831-1.448.831-3.103-.83-4.033 1.664 0 3.945-1.137 5.294-3.516l3.115-5.275C75.995 2.173 74.126 0 71.737 0zM56.269 17.686l-1.558 2.482c-.415.828-1.141 1.758-2.906 1.758h-7.683l3.948-6.619h7.472c1.35 0 1.35 1.24.727 2.38zm6.54-10.963l-1.557 2.482c-.416.828-1.142 1.758-2.907 1.758h-7.683l3.945-6.618h7.475c1.35 0 1.35 1.24.727 2.378z" transform="translate(4.87 58.378)"/>
        <path d="M214.31 6.35c0-.163-.09-.335-.272-.419-.19-.084-.396-.093-.601-.093h-1.075v1.946h.364v-.898h.43l.704.897h.419l-.747-.897c.439-.009.778-.152.778-.536zm-1.183.295h-.4V6.06h.636c.31 0 .582.034.582.286.001.35-.473.3-.818.3z" transform="translate(4.87 58.378)"/>
        <path d="M177.009 4.345L215.284 4.345 215.272 0 164.251 0 149.043 26.27 184.562 26.27 187.114 21.926 166.803 21.926 170.681 15.307 190.992 15.307 193.442 10.963 173.234 10.963z" transform="translate(4.87 58.378)"/>
    </g>
</svg>
